<svg width="95" height="63" viewBox="0 0 95 63" fill="none" xmlns="http://www.w3.org/2000/svg">
<rect width="95" height="63" fill="#D9D9D9"/>
<path d="M22.422 34.154H18.639L17.989 36H16.442L19.679 26.952H21.395L24.632 36H23.072L22.422 34.154ZM22.006 32.945L20.537 28.746L19.055 32.945H22.006ZM25.5455 32.386C25.5455 31.6667 25.6928 31.0297 25.9875 30.475C26.2908 29.9203 26.6981 29.4913 27.2095 29.188C27.7295 28.876 28.3058 28.72 28.9385 28.72C29.4065 28.72 29.8658 28.824 30.3165 29.032C30.7758 29.2313 31.1398 29.5 31.4085 29.838V26.38H32.9035V36H31.4085V34.921C31.1658 35.2677 30.8278 35.5537 30.3945 35.779C29.9698 36.0043 29.4801 36.117 28.9255 36.117C28.3015 36.117 27.7295 35.961 27.2095 35.649C26.6981 35.3283 26.2908 34.8863 25.9875 34.323C25.6928 33.751 25.5455 33.1053 25.5455 32.386ZM31.4085 32.412C31.4085 31.918 31.3045 31.489 31.0965 31.125C30.8971 30.761 30.6328 30.4837 30.3035 30.293C29.9741 30.1023 29.6188 30.007 29.2375 30.007C28.8561 30.007 28.5008 30.1023 28.1715 30.293C27.8421 30.475 27.5735 30.748 27.3655 31.112C27.1661 31.4673 27.0665 31.892 27.0665 32.386C27.0665 32.88 27.1661 33.3133 27.3655 33.686C27.5735 34.0587 27.8421 34.3447 28.1715 34.544C28.5095 34.7347 28.8648 34.83 29.2375 34.83C29.6188 34.83 29.9741 34.7347 30.3035 34.544C30.6328 34.3533 30.8971 34.076 31.0965 33.712C31.3045 33.3393 31.4085 32.906 31.4085 32.412ZM34.356 32.386C34.356 31.6667 34.5033 31.0297 34.798 30.475C35.1013 29.9203 35.5087 29.4913 36.02 29.188C36.54 28.876 37.1163 28.72 37.749 28.72C38.217 28.72 38.6763 28.824 39.127 29.032C39.5863 29.2313 39.9503 29.5 40.219 29.838V26.38H41.714V36H40.219V34.921C39.9763 35.2677 39.6383 35.5537 39.205 35.779C38.7803 36.0043 38.2907 36.117 37.736 36.117C37.112 36.117 36.54 35.961 36.02 35.649C35.5087 35.3283 35.1013 34.8863 34.798 34.323C34.5033 33.751 34.356 33.1053 34.356 32.386ZM40.219 32.412C40.219 31.918 40.115 31.489 39.907 31.125C39.7077 30.761 39.4433 30.4837 39.114 30.293C38.7847 30.1023 38.4293 30.007 38.048 30.007C37.6667 30.007 37.3113 30.1023 36.982 30.293C36.6527 30.475 36.384 30.748 36.176 31.112C35.9767 31.4673 35.877 31.892 35.877 32.386C35.877 32.88 35.9767 33.3133 36.176 33.686C36.384 34.0587 36.6527 34.3447 36.982 34.544C37.32 34.7347 37.6753 34.83 38.048 34.83C38.4293 34.83 38.7847 34.7347 39.114 34.544C39.4433 34.3533 39.7077 34.076 39.907 33.712C40.115 33.3393 40.219 32.906 40.219 32.412ZM48.5195 34.804H51.5745V36H47.0375V26.965H48.5195V34.804ZM55.9209 36.117C55.2449 36.117 54.6339 35.9653 54.0879 35.662C53.5419 35.35 53.1129 34.9167 52.8009 34.362C52.4889 33.7987 52.3329 33.1487 52.3329 32.412C52.3329 31.684 52.4932 31.0383 52.8139 30.475C53.1345 29.9117 53.5722 29.4783 54.1269 29.175C54.6815 28.8717 55.3012 28.72 55.9859 28.72C56.6705 28.72 57.2902 28.8717 57.8449 29.175C58.3995 29.4783 58.8372 29.9117 59.1579 30.475C59.4785 31.0383 59.6389 31.684 59.6389 32.412C59.6389 33.14 59.4742 33.7857 59.1449 34.349C58.8155 34.9123 58.3649 35.35 57.7929 35.662C57.2295 35.9653 56.6055 36.117 55.9209 36.117ZM55.9209 34.83C56.3022 34.83 56.6575 34.739 56.9869 34.557C57.3249 34.375 57.5979 34.102 57.8059 33.738C58.0139 33.374 58.1179 32.932 58.1179 32.412C58.1179 31.892 58.0182 31.4543 57.8189 31.099C57.6195 30.735 57.3552 30.462 57.0259 30.28C56.6965 30.098 56.3412 30.007 55.9599 30.007C55.5785 30.007 55.2232 30.098 54.8939 30.28C54.5732 30.462 54.3175 30.735 54.1269 31.099C53.9362 31.4543 53.8409 31.892 53.8409 32.412C53.8409 33.1833 54.0359 33.7813 54.4259 34.206C54.8245 34.622 55.3229 34.83 55.9209 34.83ZM63.9899 28.72C64.5446 28.72 65.0342 28.8327 65.4589 29.058C65.8922 29.2747 66.2302 29.5477 66.4729 29.877V28.837H67.9679V36.117C67.9679 36.7757 67.8292 37.3607 67.5519 37.872C67.2746 38.392 66.8716 38.7993 66.3429 39.094C65.8229 39.3887 65.1989 39.536 64.4709 39.536C63.5002 39.536 62.6942 39.3063 62.0529 38.847C61.4116 38.3963 61.0476 37.781 60.9609 37.001H62.4299C62.5426 37.3737 62.7809 37.6727 63.1449 37.898C63.5176 38.132 63.9596 38.249 64.4709 38.249C65.0689 38.249 65.5499 38.067 65.9139 37.703C66.2866 37.339 66.4729 36.8103 66.4729 36.117V34.921C66.2216 35.259 65.8792 35.545 65.4459 35.779C65.0212 36.0043 64.5359 36.117 63.9899 36.117C63.3659 36.117 62.7939 35.961 62.2739 35.649C61.7626 35.3283 61.3552 34.8863 61.0519 34.323C60.7572 33.751 60.6099 33.1053 60.6099 32.386C60.6099 31.6667 60.7572 31.0297 61.0519 30.475C61.3552 29.9203 61.7626 29.4913 62.2739 29.188C62.7939 28.876 63.3659 28.72 63.9899 28.72ZM66.4729 32.412C66.4729 31.918 66.3689 31.489 66.1609 31.125C65.9616 30.761 65.6972 30.4837 65.3679 30.293C65.0386 30.1023 64.6832 30.007 64.3019 30.007C63.9206 30.007 63.5652 30.1023 63.2359 30.293C62.9066 30.475 62.6379 30.748 62.4299 31.112C62.2306 31.4673 62.1309 31.892 62.1309 32.386C62.1309 32.88 62.2306 33.3133 62.4299 33.686C62.6379 34.0587 62.9066 34.3447 63.2359 34.544C63.5739 34.7347 63.9292 34.83 64.3019 34.83C64.6832 34.83 65.0386 34.7347 65.3679 34.544C65.6972 34.3533 65.9616 34.076 66.1609 33.712C66.3689 33.3393 66.4729 32.906 66.4729 32.412ZM73.0215 36.117C72.3455 36.117 71.7345 35.9653 71.1885 35.662C70.6425 35.35 70.2135 34.9167 69.9015 34.362C69.5895 33.7987 69.4335 33.1487 69.4335 32.412C69.4335 31.684 69.5938 31.0383 69.9145 30.475C70.2351 29.9117 70.6728 29.4783 71.2275 29.175C71.7821 28.8717 72.4018 28.72 73.0865 28.72C73.7711 28.72 74.3908 28.8717 74.9455 29.175C75.5001 29.4783 75.9378 29.9117 76.2585 30.475C76.5791 31.0383 76.7395 31.684 76.7395 32.412C76.7395 33.14 76.5748 33.7857 76.2455 34.349C75.9161 34.9123 75.4655 35.35 74.8935 35.662C74.3301 35.9653 73.7061 36.117 73.0215 36.117ZM73.0215 34.83C73.4028 34.83 73.7581 34.739 74.0875 34.557C74.4255 34.375 74.6985 34.102 74.9065 33.738C75.1145 33.374 75.2185 32.932 75.2185 32.412C75.2185 31.892 75.1188 31.4543 74.9195 31.099C74.7201 30.735 74.4558 30.462 74.1265 30.28C73.7971 30.098 73.4418 30.007 73.0605 30.007C72.6791 30.007 72.3238 30.098 71.9945 30.28C71.6738 30.462 71.4181 30.735 71.2275 31.099C71.0368 31.4543 70.9415 31.892 70.9415 32.412C70.9415 33.1833 71.1365 33.7813 71.5265 34.206C71.9251 34.622 72.4235 34.83 73.0215 34.83Z" fill="#5E5E5E"/>
</svg>
