<svg width="269" height="251" viewBox="0 0 269 251" fill="none" xmlns="http://www.w3.org/2000/svg">
<path d="M95.6624 79.7598C72.5474 23.5977 11.6865 27.0068 0 48.3078V251H268.957C269.624 238.02 262.439 197.023 257.437 181.106C244.415 139.669 205.849 132.68 183.311 128.187C160.773 123.694 119.703 138.171 95.6624 79.7598Z" fill="#E1E1E1"/>
<path d="M221.537 161.034H151.679C147.961 161.034 145.035 157.991 145.179 154.272L150.306 21.6544C150.45 17.9353 153.61 14.8926 157.329 14.8926H227.187C230.905 14.8926 233.831 17.9353 233.687 21.6544L228.56 154.272C228.416 157.991 225.256 161.034 221.537 161.034Z" fill="#407BFF"/>
<path d="M233.63 66.404L233.203 77.3643L233.875 77.3904L234.301 66.4301L233.63 66.404Z" fill="#407BFF"/>
<path d="M233.964 57.8606L233.787 62.3887L234.459 62.4149L234.636 57.8868L233.964 57.8606Z" fill="#407BFF"/>
<path opacity="0.8" d="M221.537 161.034H151.679C147.961 161.034 145.035 157.991 145.179 154.272L150.306 21.6544C150.45 17.9353 153.61 14.8926 157.329 14.8926H227.187C230.905 14.8926 233.831 17.9353 233.687 21.6544L228.56 154.272C228.416 157.991 225.256 161.034 221.537 161.034Z" fill="white"/>
<path d="M214.852 158.344H153.228C149.967 158.344 147.402 155.676 147.528 152.414L152.329 28.2189C152.455 24.9578 155.227 22.2891 158.488 22.2891H220.112C223.373 22.2891 225.939 24.9572 225.812 28.2189L221.011 152.414C220.885 155.676 218.113 158.344 214.852 158.344Z" fill="#407BFF"/>
<path opacity="0.8" d="M187.196 151.296C188.825 149.697 188.899 147.131 187.361 145.563C185.823 143.995 183.256 144.02 181.626 145.619C179.997 147.218 179.923 149.784 181.461 151.352C182.999 152.92 185.566 152.895 187.196 151.296Z" fill="white"/>
<path d="M185.515 120.219C171.691 120.219 160.88 108.972 161.414 95.1484L162.241 73.7673C162.226 73.7673 162.213 73.7691 162.198 73.7691C161.944 73.7691 161.706 73.7441 161.479 73.7051L160.65 95.1478C160.1 109.393 171.241 120.982 185.485 120.982C192.786 120.982 199.503 117.933 204.394 113.046C204.213 112.868 204.057 112.67 203.923 112.458C199.171 117.235 192.629 120.219 185.515 120.219Z" fill="white"/>
<path d="M188.469 43.7793C175.395 43.7793 164.189 53.5442 162.008 66.162C162.165 66.145 162.326 66.1346 162.493 66.1346C162.592 66.1346 162.685 66.1425 162.779 66.1486C164.944 53.959 175.792 44.543 188.44 44.543C202.263 44.543 213.075 55.789 212.54 69.6128L211.553 95.1492C211.395 99.2429 210.253 103.107 208.373 106.524C208.623 106.602 208.853 106.704 209.063 106.829C210.987 103.318 212.155 99.3515 212.317 95.1498L213.304 69.6134C213.855 55.3681 202.714 43.7793 188.469 43.7793Z" fill="white"/>
<path d="M188.267 49.02C192.584 49.02 196.563 50.2692 199.886 52.4183C199.996 52.1828 200.125 51.9571 200.28 51.7473C196.85 49.5391 192.746 48.2568 188.297 48.2568C183.352 48.2568 178.711 49.841 174.863 52.522C174.997 52.7355 175.108 52.9642 175.195 53.2039C178.931 50.5748 183.45 49.02 188.267 49.02Z" fill="white"/>
<path d="M164.661 97.5997C164.478 96.3181 164.401 95.0004 164.453 93.6536L165.325 71.108C165.51 66.3225 167.216 61.8909 169.953 58.2699C169.72 58.1571 169.51 58.0204 169.321 57.8643C166.507 61.6036 164.752 66.1737 164.562 71.1086L163.69 93.6542C163.636 95.0639 163.718 96.4425 163.912 97.7827C164.152 97.6979 164.403 97.6369 164.661 97.5997Z" fill="white"/>
<path d="M205.758 56.7891C205.58 56.9757 205.381 57.1429 205.161 57.2893C208.061 61.0761 209.703 65.8811 209.501 71.1076L208.629 93.6532C208.158 105.832 197.867 115.741 185.687 115.741C180.752 115.741 176.254 114.113 172.678 111.368C172.453 111.539 172.218 111.684 171.971 111.798C175.706 114.746 180.445 116.504 185.657 116.504C198.257 116.504 208.905 106.253 209.392 93.6526L210.264 71.107C210.474 65.6902 208.768 60.7101 205.758 56.7891Z" fill="white"/>
<path d="M167.961 80.0593L168.25 72.6039C168.657 62.0686 177.559 53.4975 188.095 53.4975C197.25 53.4975 204.667 59.9702 206.188 68.5785C206.428 68.5364 206.677 68.5102 206.943 68.5102C206.949 68.5102 206.953 68.5108 206.959 68.5108C205.414 59.5115 197.678 52.7344 188.125 52.7344C177.168 52.7344 167.91 61.6477 167.486 72.6045L167.197 80.0825C167.367 80.0618 167.543 80.0483 167.726 80.0483C167.806 80.0477 167.882 80.0551 167.961 80.0593Z" fill="white"/>
<path d="M193.813 109.553C191.364 110.648 188.671 111.264 185.86 111.264C175.324 111.264 167.084 102.693 167.492 92.1576L167.665 87.671C167.586 87.6753 167.509 87.6826 167.428 87.6826C167.245 87.6826 167.071 87.6686 166.902 87.6484L166.728 92.1569C166.305 103.114 174.874 112.027 185.83 112.027C188.797 112.027 191.636 111.369 194.212 110.198C194.055 109.999 193.923 109.783 193.813 109.553Z" fill="white"/>
<path d="M206.646 76.145C206.536 76.145 206.431 76.1371 206.326 76.1291L205.706 92.1575C205.512 97.1693 203.393 101.733 200.094 105.145C200.247 105.355 200.376 105.581 200.479 105.82C203.998 102.255 206.265 97.4468 206.469 92.1575L207.089 76.123C206.946 76.1377 206.798 76.145 206.646 76.145Z" fill="white"/>
<path d="M194.757 58.6737C192.694 57.7368 190.393 57.2109 187.95 57.2109C178.637 57.2109 170.768 64.7878 170.409 74.1L169.768 90.6627C169.73 91.6582 169.783 92.6324 169.913 93.581C170.133 93.3803 170.376 93.204 170.636 93.0539C170.549 92.2713 170.499 91.4771 170.531 90.6627L171.172 74.1C171.516 65.208 179.029 57.9747 187.92 57.9747C190.23 57.9747 192.404 58.4718 194.358 59.3502C194.469 59.1123 194.601 58.8848 194.757 58.6737Z" fill="white"/>
<path d="M200.628 63.2275C200.481 63.4465 200.312 63.6509 200.121 63.8351C202.322 66.6252 203.573 70.2029 203.423 74.0996L202.782 90.6623C202.448 99.3145 195.321 106.377 186.745 106.752C186.665 107.024 186.557 107.288 186.422 107.54C195.551 107.317 203.191 99.8343 203.546 90.6623L204.186 74.0996C204.346 69.9613 202.994 66.1677 200.628 63.2275Z" fill="white"/>
<path d="M184.726 62.8048C184.737 62.5389 184.775 62.2741 184.834 62.0137C182.864 62.4395 181.029 63.2697 179.428 64.4213C179.669 64.5482 179.885 64.7001 180.077 64.8746C181.471 63.912 183.044 63.1995 184.726 62.8048Z" fill="white"/>
<path d="M199.262 92.5721C197.54 98.1713 192.274 102.31 186.206 102.31C178.958 102.31 173.29 96.4139 173.571 89.1659L174.095 75.5952C174.159 73.9513 174.536 72.3836 175.146 70.9318C174.926 70.7585 174.737 70.5572 174.574 70.3389C173.846 71.9621 173.403 73.7353 173.332 75.5952L172.807 89.1659C172.511 96.8342 178.508 103.073 186.177 103.073C192.612 103.073 198.193 98.6752 200.004 92.732C199.745 92.7033 199.499 92.6508 199.262 92.5721Z" fill="white"/>
<path d="M200.382 75.5954L200.273 78.4136C200.471 78.3807 200.67 78.3508 200.875 78.3508C200.931 78.3508 200.983 78.3654 201.038 78.3679L201.146 75.5954C201.384 69.4448 197.567 64.222 192.092 62.3926C192.108 62.6628 192.101 62.9361 192.066 63.2069C197.11 65.0077 200.603 69.8736 200.382 75.5954Z" fill="white"/>
<path d="M187.604 66.165C181.579 66.165 176.488 71.0664 176.255 77.0908L176.139 80.1048C176.395 80.1218 176.65 80.1603 176.898 80.2225L177.018 77.0908C177.235 71.4873 181.97 66.9282 187.574 66.9282C193.177 66.9282 197.559 71.4873 197.343 77.0908L196.934 87.67C196.743 92.6025 193.05 96.7218 188.347 97.6386C188.369 97.8966 188.369 98.1541 188.34 98.4066C193.456 97.4696 197.49 93.016 197.697 87.67L198.105 77.0908C198.34 71.0664 193.628 66.165 187.604 66.165Z" fill="white"/>
<path d="M180.47 75.1273C180.636 75.1273 180.796 75.1377 180.95 75.1547C182.256 72.9234 184.684 71.4057 187.401 71.4057C188.229 71.4057 189.015 71.5533 189.746 71.8126C189.831 71.5679 189.937 71.3319 190.066 71.108C189.246 70.8122 188.363 70.6426 187.43 70.6426C184.284 70.6426 181.496 72.486 180.107 75.1456C180.226 75.1352 180.345 75.1273 180.47 75.1273Z" fill="white"/>
<path d="M194.011 86.1741C193.976 87.0678 193.771 87.9205 193.441 88.7105C193.685 88.8075 193.907 88.9283 194.108 89.071C194.496 88.1725 194.735 87.1971 194.774 86.1741L195.068 78.5863C195.096 77.8568 195.016 77.1534 194.857 76.4824C194.633 76.5989 194.391 76.6935 194.131 76.7636C194.262 77.3468 194.328 77.9556 194.304 78.5863L194.011 86.1741Z" fill="white"/>
<path d="M188.226 93.1532C187.685 93.2813 187.127 93.3563 186.553 93.3563C182.593 93.3563 179.496 90.1349 179.649 86.1748L179.782 82.7436C179.511 82.7198 179.259 82.6698 179.023 82.5996L178.885 86.1748C178.715 90.5558 182.142 94.1195 186.522 94.1195C187.174 94.1195 187.807 94.0322 188.419 93.8834C188.332 93.6485 188.268 93.4033 188.226 93.1532Z" fill="white"/>
<path d="M187.258 75.1191C184.521 75.1191 182.209 77.3456 182.103 80.0821L181.925 84.6785C181.908 85.1219 181.956 85.5495 182.049 85.9588C182.244 85.727 182.467 85.5178 182.72 85.3385C182.694 85.1231 182.68 84.9035 182.688 84.6785L182.866 80.0821C182.956 77.7665 184.912 75.8829 187.228 75.8829C189.544 75.8829 191.355 77.7672 191.265 80.0821L191.087 84.6785C191.022 86.3743 189.953 87.8352 188.476 88.4977C188.465 88.7856 188.421 89.0735 188.353 89.3547C190.309 88.6733 191.767 86.8372 191.851 84.6785L192.028 80.0821C192.135 77.3456 189.994 75.1191 187.258 75.1191Z" fill="white"/>
<path d="M200.082 20.2723H178.674C177.996 20.2723 177.463 19.7178 177.489 19.0394C177.515 18.3611 178.092 17.8066 178.77 17.8066H200.177C200.855 17.8066 201.388 18.3617 201.362 19.0394C201.336 19.7178 200.76 20.2723 200.082 20.2723Z" fill="#407BFF"/>
<path opacity="0.2" d="M166.593 41.6867C165.359 41.788 164.08 41.8148 162.791 41.7739C162.35 41.68 161.894 41.6464 161.422 41.6867C161.375 41.6867 161.328 41.6867 161.281 41.6934C157.733 41.4512 154.088 40.7656 150.71 39.7841C150.357 39.6834 149.993 39.5621 149.621 39.4346L146.652 116.212L166.469 102.992C168.284 101.782 169.417 99.7782 169.5 97.6395L171.484 46.3062C171.59 43.5698 169.325 41.4586 166.593 41.6867Z" fill="black"/>
<path d="M161.819 35.9582C160.584 36.06 159.309 36.085 158.015 36.0466C157.58 35.9545 157.123 35.9191 156.649 35.9582C156.603 35.9618 156.554 35.9618 156.507 35.9655C152.96 35.7276 149.315 35.0407 145.937 34.0568C142.222 32.9759 137.391 30.4023 134.269 27.4438C133.43 26.6489 132.341 26.2518 131.236 26.2506V26.25H126.067V26.2506C124.957 26.2488 123.83 26.6471 122.926 27.4462C119.581 30.4035 114.559 32.9759 110.763 34.0568C107.308 35.0407 103.611 35.7276 100.046 35.9655C99.9988 35.9618 99.9506 35.9618 99.9036 35.9582C99.4339 35.9191 98.974 35.9545 98.5317 36.0466C97.2337 36.085 95.9612 36.06 94.7345 35.9582C92.0188 35.7331 89.5928 37.8461 89.4873 40.5795L87.5029 91.9135C87.42 94.0527 88.3984 96.0547 90.1168 97.2632L118.877 117.491C119.952 118.247 121.217 118.625 122.496 118.625H127.665C128.945 118.625 130.239 118.247 131.372 117.491L161.697 97.2632C163.508 96.0547 164.641 94.0527 164.724 91.9135L166.709 40.5795C166.815 37.8461 164.552 35.7325 161.819 35.9582Z" fill="#407BFF"/>
<path opacity="0.8" d="M161.819 35.9582C160.584 36.06 159.309 36.085 158.015 36.0466C157.58 35.9545 157.123 35.9191 156.649 35.9582C156.603 35.9618 156.554 35.9618 156.507 35.9655C152.96 35.7276 149.315 35.0407 145.937 34.0568C142.222 32.9759 137.391 30.4023 134.269 27.4438C133.43 26.6489 132.341 26.2518 131.236 26.2506V26.25H126.067V26.2506C124.957 26.2488 123.83 26.6471 122.926 27.4462C119.581 30.4035 114.559 32.9759 110.763 34.0568C107.308 35.0407 103.611 35.7276 100.046 35.9655C99.9988 35.9618 99.9506 35.9618 99.9036 35.9582C99.4339 35.9191 98.974 35.9545 98.5317 36.0466C97.2337 36.085 95.9612 36.06 94.7345 35.9582C92.0188 35.7331 89.5928 37.8461 89.4873 40.5795L87.5029 91.9135C87.42 94.0527 88.3984 96.0547 90.1168 97.2632L118.877 117.491C119.952 118.247 121.217 118.625 122.496 118.625H127.665C128.945 118.625 130.239 118.247 131.372 117.491L161.697 97.2632C163.508 96.0547 164.641 94.0527 164.724 91.9135L166.709 40.5795C166.815 37.8461 164.552 35.7325 161.819 35.9582Z" fill="white"/>
<path d="M90.815 91.8169L92.7127 42.7302C92.7847 40.8752 94.3469 39.3716 96.2019 39.3728L97.2963 39.3734C101.716 39.3734 106.647 38.6347 111.556 37.2353C115.115 36.2215 119.95 33.9615 123.753 30.9932C125.038 29.9898 126.794 29.9891 128.002 30.992C131.579 33.9596 136.245 36.2209 139.73 37.2353C144.53 38.6341 149.404 39.3734 153.824 39.3734L154.855 39.3728C156.746 39.3716 158.219 40.9039 158.146 42.7937L156.251 91.8169C156.208 92.9253 155.621 93.9623 154.683 94.5881L124.546 114.692C123.372 115.475 121.865 115.475 120.751 114.692L92.1686 94.5881C91.2786 93.9623 90.7723 92.9253 90.815 91.8169Z" fill="#407BFF"/>
<path opacity="0.2" d="M99.1855 89.2272L100.799 47.4977C104.91 47.1908 109.247 46.4058 113.539 45.1827C116.818 44.2482 121.307 42.3755 125.545 39.6592C129.577 42.3755 133.925 44.2482 137.135 45.1827C141.332 46.4058 145.608 47.1915 149.694 47.4977L148.08 89.2272L122.985 105.967L99.1855 89.2272Z" fill="white"/>
<path opacity="0.2" d="M107.625 84.8663L108.79 54.725C111.025 54.3023 113.273 53.7703 115.521 53.1298C118.623 52.246 121.973 50.8887 125.177 49.2393C128.255 50.8887 131.504 52.246 134.539 53.1298C136.738 53.7703 138.944 54.3035 141.144 54.725L139.979 84.8663L123.373 95.9433L107.625 84.8663Z" fill="white"/>
<path d="M52.2635 37.8027C51.124 40.1726 49.9681 42.5985 48.8579 44.9897C48.3058 46.189 47.7739 47.3882 47.2621 48.5771C46.7772 49.7557 46.2947 50.9738 46.0031 52.0023C45.7377 52.827 45.6956 54.1251 45.659 55.3969C45.6426 56.6804 45.6432 58.0047 45.6798 59.3308L45.8792 67.3712L43.0653 67.7873C42.3571 65.1203 41.7886 62.4534 41.3476 59.7249C41.1414 58.3591 40.9364 56.9872 40.823 55.569C40.7632 54.8583 40.7156 54.1403 40.7022 53.3815C40.6985 52.999 40.704 52.6129 40.7327 52.1877C40.7443 51.9816 40.765 51.7589 40.7986 51.5186C40.8254 51.2715 40.8711 51.1025 40.9077 50.8909C41.2225 49.2835 41.6641 47.9531 42.1314 46.6038C42.6011 45.274 43.1105 43.979 43.6418 42.7016C44.7129 40.1457 45.8597 37.6801 47.1371 35.2139L52.2635 37.8027Z" fill="#FF8B7B"/>
<path d="M47.8985 68.4842L45.5549 65.7861L42.9093 65.9197C41.693 68.816 44.3416 70.6637 44.3416 70.6637L44.8107 72.2515C45.0096 72.9244 45.7666 73.241 46.4126 72.9219L47.8815 72.1954C48.3048 71.9862 48.5726 71.55 48.5628 71.0864L48.5439 70.1763C48.5317 69.548 48.3036 68.9508 47.8985 68.4842Z" fill="#FF8B7B"/>
<path d="M40.454 188.981C39.9825 188.782 39.5109 188.465 39.1889 188.225C39.1468 188.194 39.1279 188.14 39.1407 188.088C39.1535 188.035 39.1956 187.996 39.248 187.985C39.4743 187.941 41.4721 187.574 41.9455 188.099C42.0205 188.182 42.0961 188.327 42.0333 188.548C41.9503 188.841 41.7856 189.033 41.5447 189.12C41.2385 189.232 40.8462 189.147 40.454 188.981ZM39.6079 188.193C40.4162 188.75 41.0976 189.001 41.4617 188.869C41.6167 188.813 41.7204 188.686 41.7783 188.482C41.81 188.371 41.7777 188.317 41.7466 188.283C41.4983 188.004 40.4107 188.07 39.6079 188.193Z" fill="#407BFF"/>
<path d="M39.2152 188.241C39.1944 188.232 39.1755 188.217 39.1615 188.198C39.134 188.16 39.1292 188.109 39.1481 188.066C39.1761 188.002 39.8416 186.503 40.617 186.236C40.8231 186.164 41.0202 186.181 41.2007 186.287C41.4868 186.452 41.4838 186.681 41.4563 186.803C41.3136 187.44 39.8923 188.173 39.2817 188.249C39.2585 188.253 39.2359 188.249 39.2152 188.241ZM41.011 186.494C40.9116 186.452 40.8085 186.45 40.6963 186.489C40.2339 186.649 39.7501 187.443 39.5031 187.931C40.1619 187.74 41.111 187.14 41.1983 186.752C41.2129 186.688 41.2105 186.604 41.0641 186.52C41.047 186.51 41.0287 186.501 41.011 186.494Z" fill="#407BFF"/>
<path d="M61.5088 15.8311C62.0121 19.1732 63.1528 26.4658 60.7207 28.6417C60.7207 28.6417 61.4795 32.0369 67.6723 32.1589C74.4817 32.2925 71.0785 28.8454 71.0785 28.8454C67.402 27.8859 67.6222 25.1329 68.386 22.5587L61.5088 15.8311Z" fill="#FF8B7B"/>
<path d="M75.4535 10.2914C75.4145 10.2829 75.3773 10.2652 75.3449 10.2377C75.2333 10.145 75.2205 9.97724 75.3157 9.86256C76.2703 8.71759 77.4885 8.83106 77.5397 8.83655C77.6849 8.85058 77.7874 8.98295 77.7685 9.12935C77.7496 9.27514 77.6166 9.38128 77.472 9.36664C77.4317 9.36298 76.4814 9.28429 75.7195 10.1981C75.6518 10.2798 75.5481 10.3121 75.4535 10.2914Z" fill="#263238"/>
<path d="M76.7198 13.5791C76.7198 13.5791 77.2486 15.597 77.9745 16.6151C77.3151 17.1159 76.3379 16.7651 76.3379 16.7651L76.7198 13.5791Z" fill="#FF5652"/>
<path d="M76.4115 12.7647C76.3572 13.2167 76.5511 13.6053 76.8445 13.6333C77.138 13.6614 77.4198 13.3174 77.4741 12.8654C77.5284 12.4134 77.3344 12.0248 77.041 11.9967C76.7476 11.9687 76.4657 12.3127 76.4115 12.7647Z" fill="#263238"/>
<path d="M76.9102 12.0103L78.0258 11.7998C78.0258 11.7998 77.3707 12.5952 76.9102 12.0103Z" fill="#263238"/>
<path d="M81.8473 191.209L87.7912 189.334L87.2049 177.229L81.2617 179.105L81.8473 191.209Z" fill="#FF8B7B"/>
<path d="M33.0781 186.888L38.4272 188.4L42.9071 176.012L37.5574 174.499L33.0781 186.888Z" fill="#FF8B7B"/>
<path d="M39.1075 187.333L33.3766 184.911C33.1679 184.823 32.9337 184.9 32.8129 185.096L30.1259 189.456C29.8471 189.909 30.0521 190.534 30.537 190.729C32.5506 191.538 33.5663 191.825 36.0862 192.89C37.6368 193.545 38.8458 195.531 42.2612 195.531C44.567 195.531 45.005 193.445 44.0571 193.14C39.8066 191.776 40.6594 189.74 39.82 188.014C39.6681 187.703 39.4125 187.462 39.1075 187.333Z" fill="#455A64"/>
<path d="M89.9087 190.169C89.3896 190.169 88.8192 190.061 88.419 189.967C88.3672 189.955 88.3263 189.913 88.3153 189.861C88.3044 189.809 88.3257 189.756 88.369 189.727C88.5569 189.6 90.2265 188.499 90.8896 188.796C90.9945 188.843 91.1275 188.945 91.1665 189.17C91.2183 189.467 91.1518 189.705 90.9695 189.877C90.737 190.095 90.3412 190.169 89.9087 190.169ZM88.7893 189.778C89.7733 189.973 90.5077 189.939 90.7834 189.68C90.9005 189.57 90.9402 189.415 90.9042 189.207C90.8847 189.094 90.8316 189.057 90.7877 189.038C90.4382 188.88 89.4707 189.357 88.7893 189.778Z" fill="#407BFF"/>
<path d="M88.4499 189.971C88.4267 189.971 88.4035 189.965 88.3822 189.953C88.3407 189.929 88.3139 189.885 88.312 189.838C88.3102 189.769 88.2644 188.153 88.8568 187.612C89.0141 187.468 89.202 187.408 89.4143 187.435C89.7486 187.475 89.8462 187.685 89.8742 187.806C90.0219 188.439 89.0404 189.65 88.5146 189.954C88.4944 189.966 88.4725 189.971 88.4499 189.971ZM89.3307 187.695C89.2215 187.695 89.1264 187.733 89.0404 187.811C88.6866 188.134 88.5914 189.041 88.5786 189.579C89.0983 189.153 89.7053 188.243 89.6156 187.857C89.601 187.793 89.5619 187.718 89.3917 187.698C89.3704 187.696 89.3503 187.695 89.3307 187.695Z" fill="#407BFF"/>
<path d="M87.9531 189.188H81.6433C81.4139 189.188 81.2328 189.347 81.2078 189.571L80.6533 194.563C80.5959 195.081 81.0571 195.571 81.5866 195.562C83.785 195.524 84.8409 195.395 87.6158 195.395C89.3226 195.395 91.8224 195.572 94.18 195.572C96.4858 195.572 96.5865 193.242 95.5977 193.03C91.1654 192.084 90.4267 190.778 88.9029 189.533C88.6284 189.308 88.2892 189.188 87.9531 189.188Z" fill="#455A64"/>
<path opacity="0.2" d="M87.2041 177.232L87.5188 183.717L81.5604 185.348L81.2578 179.109L87.2041 177.232Z" fill="black"/>
<path opacity="0.2" d="M37.5554 174.502L42.907 176.015L40.5957 182.4L35.2441 180.887L37.5554 174.502Z" fill="black"/>
<path d="M49.7086 29.3512C47.3705 29.8996 44.7969 38.3329 44.7969 38.3329L51.3269 45.2436C51.3269 45.2436 56.8773 37.2739 55.7897 34.3923C54.6581 31.3917 52.4725 28.7034 49.7086 29.3512Z" fill="#407BFF"/>
<path opacity="0.2" d="M49.7086 29.3512C47.3705 29.8996 44.7969 38.3329 44.7969 38.3329L51.3269 45.2436C51.3269 45.2436 56.8773 37.2739 55.7897 34.3923C54.6581 31.3917 52.4725 28.7034 49.7086 29.3512Z" fill="black"/>
<path opacity="0.4" d="M53.3553 34.6363C54.546 33.5377 55.3408 33.8476 55.8758 34.6973C56.3882 37.1837 52.9222 42.8097 51.6223 44.8075C51.055 42.4559 50.6627 37.1325 53.3553 34.6363Z" fill="black"/>
<path d="M79.6368 31.287C79.9625 33.7441 79.7594 41.2251 75.0295 63.9074L52.2191 63.4596C53.0201 54.1919 53.2885 48.4732 49.709 29.3515C49.709 29.3515 54.5353 28.4066 59.4531 28.2663C63.2998 28.1565 66.4504 28.0961 69.8109 28.47C73.1129 28.8373 76.7302 29.5589 78.3589 29.9029C79.0414 30.0475 79.5453 30.5934 79.6368 31.287Z" fill="#407BFF"/>
<path opacity="0.2" d="M79.6368 31.287C79.9625 33.7441 79.7594 41.2251 75.0295 63.9074L52.2191 63.4596C53.0201 54.1919 53.2885 48.4732 49.709 29.3515C49.709 29.3515 54.5353 28.4066 59.4531 28.2663C63.2998 28.1565 66.4504 28.0961 69.8109 28.47C73.1129 28.8373 76.7302 29.5589 78.3589 29.9029C79.0414 30.0475 79.5453 30.5934 79.6368 31.287Z" fill="black"/>
<path d="M61.5012 9.78023C61.1742 15.3623 60.9174 17.7212 63.3611 20.8347C67.0363 25.5176 73.9312 24.5209 75.9112 19.1059C77.693 14.232 77.9285 5.92199 72.796 3.20078C67.7384 0.519216 61.8282 4.19812 61.5012 9.78023Z" fill="#FF8B7B"/>
<path d="M69.0061 63.789C69.0061 63.789 65.6956 104.487 61.3353 126.126C57.8138 143.603 41.8471 181.368 41.8471 181.368L34.8906 178.428C34.8906 178.428 42.9072 135.652 48.3491 125.229C54.4667 89.3553 44.5732 77.1212 52.2195 63.459L69.0061 63.789Z" fill="#455A64"/>
<path opacity="0.4" d="M62.8015 86.0625C60.3066 96.6667 61.9206 106.302 63.6152 112.657C64.6107 105.845 65.5184 98.5028 66.2846 91.6306C65.2293 89.6536 63.9044 87.7839 62.8015 86.0625Z" fill="black"/>
<path d="M75.0304 63.9072C75.0304 63.9072 83.6887 103.671 84.8038 120.673C85.964 138.357 88.2911 180.271 88.2911 180.271L80.6491 182.321C80.6491 182.321 72.0603 139.126 72.7325 126.125C68.4796 107.679 53.5742 63.5107 53.5742 63.5107L75.0304 63.9072Z" fill="#455A64"/>
<path d="M89.4224 182.206L79.5026 183.883L78.5547 180.344L89.1711 178.539L89.4224 182.206Z" fill="#407BFF"/>
<path d="M43.0565 181.713L33.7656 179.086L34.2835 175.64L44.2186 178.082L43.0565 181.713Z" fill="#407BFF"/>
<path d="M51.9377 62.1162L50.8171 64.1359C50.7299 64.2927 50.9104 64.4574 51.174 64.4629L75.0957 64.9326C75.3013 64.9368 75.4764 64.8392 75.4953 64.7105L75.7929 62.675C75.8137 62.534 75.6404 62.4108 75.416 62.4065L52.3171 61.9533C52.1475 61.9491 51.9938 62.0149 51.9377 62.1162Z" fill="white"/>
<path d="M54.9231 64.7572L54.3046 64.745C54.1814 64.7425 54.0905 64.6773 54.1027 64.5998L54.512 61.9554C54.5242 61.878 54.6346 61.817 54.7578 61.8194L55.3763 61.8316C55.4996 61.834 55.5905 61.8993 55.5783 61.9768L55.1689 64.6211C55.1574 64.698 55.0463 64.7596 54.9231 64.7572Z" fill="#263238"/>
<path d="M69.9197 65.0507L69.3012 65.0385C69.178 65.0361 69.0871 64.9708 69.0987 64.8934L69.508 62.249C69.5202 62.1715 69.6306 62.1099 69.7538 62.1124L70.3723 62.1246C70.4956 62.127 70.5864 62.1923 70.5749 62.2698L70.1655 64.9141C70.1533 64.9922 70.0429 65.0532 69.9197 65.0507Z" fill="#263238"/>
<path d="M80.8866 34.1855C82.0066 36.5591 83.2485 39.0241 84.5314 41.3616C85.8246 43.6997 87.1971 46.0092 88.7355 48.0014C88.9289 48.2552 89.1241 48.509 89.2839 48.6901C89.4589 48.8902 89.6444 49.0927 89.8536 49.2885C90.2599 49.6875 90.7107 50.0828 91.2035 50.4555C92.1875 51.2003 93.2745 51.9115 94.4188 52.56C96.6966 53.8642 99.1884 55.053 101.648 56.1029L100.903 58.8479C98.0118 58.3544 95.2643 57.5919 92.5181 56.4896C91.1566 55.9235 89.7957 55.2915 88.4738 54.4723C87.8107 54.0691 87.1544 53.6141 86.512 53.098C86.1918 52.8418 85.8776 52.5569 85.5684 52.258C85.2408 51.9414 84.9913 51.659 84.7394 51.3778C84.2136 50.8129 83.7518 50.2298 83.2735 49.6484C82.8307 49.0561 82.3707 48.4663 81.959 47.863C81.1013 46.6674 80.3327 45.4376 79.5873 44.1981C78.1038 41.7014 76.8112 39.1991 75.6309 36.4993L80.8866 34.1855Z" fill="#FF8B7B"/>
<path d="M78.0251 29.8179C83.3724 30.9842 84.6674 39.3821 84.6674 39.3821L79.4 45.5181C79.4 45.5181 71.0388 37.6045 71.4524 33.2772C71.7592 30.0631 75.1105 29.1822 78.0251 29.8179Z" fill="#407BFF"/>
<path opacity="0.2" d="M78.0251 29.8179C83.3724 30.9842 84.6674 39.3821 84.6674 39.3821L79.4 45.5181C79.4 45.5181 71.0388 37.6045 71.4524 33.2772C71.7592 30.0631 75.1105 29.1822 78.0251 29.8179Z" fill="black"/>
<path d="M107.843 58.2769L106.364 56.5213C106.364 56.5213 101.581 55.4062 99.4657 56.4439L98.8105 58.4178L104.158 61.186L105.269 61.7063C105.803 61.9564 106.454 61.7746 106.807 61.2775L107.883 59.7598C108.209 59.3011 108.192 58.6917 107.843 58.2769Z" fill="#FF8B7B"/>
<path d="M77.0979 40.6134C78.0324 38.1252 78.5503 35.0996 78.3417 33.6942C78.0257 36.2427 76.0889 39.7325 74.1388 42.3214C66.3253 45.5288 57.9268 44.0562 52.4533 40.7878C50.8526 37.5402 49.5216 32.4699 50.3622 29.4443C49.3331 30.9839 48.5737 35.1868 49.0574 38.152C47.4165 36.4709 46.4618 34.5884 46.4551 32.7322C46.4283 23.8225 57.1936 24.3673 57.3418 17.8647C57.4894 11.3621 54.8408 -1.93472 68.1004 0.906046C76.788 0.495516 74.9726 8.15468 73.5538 12.8145C72.2429 17.1186 85.3823 33.6271 77.0979 40.6134Z" fill="#455A64"/>
<path d="M68.102 0.90667C73.5359 -1.99022 79.0649 2.5677 76.2437 7.34705C73.7335 7.23481 71.7059 8.83118 73.6671 12.0117C67.8385 8.33891 64.2743 1.22753 68.102 0.90667Z" fill="#455A64"/>
<path d="M73.8155 11.1652C74.5317 12.3645 74.6207 13.6644 74.5207 14.533C74.3487 16.03 73.1799 16.0312 72.354 15.1363C71.6104 14.3311 70.8485 12.3956 71.3267 11.2531C71.7983 10.1282 73.175 10.0934 73.8155 11.1652Z" fill="#FF8B7B"/>
</svg>
