<svg width="269" height="266" viewBox="0 0 269 266" fill="none" xmlns="http://www.w3.org/2000/svg">
<path d="M95.6624 94.7598C72.5474 38.5977 11.6865 42.0068 0 63.3078V266H268.957C269.624 253.02 262.439 212.023 257.437 196.106C244.415 154.669 205.849 147.68 183.311 143.187C160.773 138.694 119.703 153.171 95.6624 94.7598Z" fill="#E1E1E1"/>
<path d="M145.171 0H44.8908C40.3368 0 36.7902 3.726 37.0097 8.28L46.4095 203.254C46.6289 207.808 50.535 211.534 55.0884 211.534H155.368C159.922 211.534 163.469 207.808 163.249 203.254L153.849 8.28C153.631 3.726 149.725 0 145.171 0Z" fill="black"/>
<path d="M148.852 0H48.5719C44.0179 0 40.4712 3.726 40.6914 8.28L50.0912 203.254C50.3106 207.808 54.2167 211.534 58.7707 211.534H159.05C163.604 211.534 167.151 207.808 166.931 203.254L157.531 8.28C157.311 3.726 153.406 0 148.852 0Z" fill="#263238"/>
<path d="M58.5032 206.014C57.0073 206.014 55.6825 204.749 55.61 203.254L46.2101 8.27953C46.1377 6.78361 47.3411 5.51953 48.837 5.51953H149.117C150.613 5.51953 151.937 6.78361 152.01 8.27953L161.41 203.254C161.482 204.749 160.279 206.014 158.783 206.014H58.5032Z" fill="#407BFF"/>
<path opacity="0.1" d="M58.4354 204.634C57.6999 204.634 57.0244 203.989 56.9892 203.254L47.5893 8.28039C47.5541 7.54554 48.1676 6.90039 48.9031 6.90039H149.183C149.918 6.90039 150.594 7.54554 150.629 8.28039L160.029 203.254C160.064 203.989 159.451 204.634 158.715 204.634H58.4354Z" fill="black"/>
<g opacity="0.3">
<path d="M88.7039 193.401H68.8091C67.6927 193.401 66.7405 192.493 66.6867 191.376L65.2329 161.214C65.2066 160.665 65.3964 160.148 65.7676 159.759C66.1381 159.37 66.6439 159.156 67.1918 159.156H87.0865C88.203 159.156 89.1552 160.064 89.209 161.181L90.6628 191.343C90.689 191.892 90.4993 192.409 90.1281 192.798C89.7575 193.187 89.2518 193.401 88.7039 193.401ZM67.1911 159.846C66.8337 159.846 66.5052 159.984 66.2665 160.235C66.0271 160.487 65.9042 160.823 65.9215 161.181L67.376 191.343C67.4126 192.098 68.055 192.711 68.8091 192.711H88.7039C89.0613 192.711 89.3898 192.573 89.6285 192.322C89.8679 192.071 89.9908 191.735 89.9735 191.376L88.5197 161.214C88.4831 160.46 87.8407 159.846 87.0865 159.846H67.1911Z" fill="#FAFAFA"/>
<path d="M86.8287 166.878H68.1263C67.9358 166.878 67.7812 166.723 67.7812 166.533C67.7812 166.342 67.9358 166.188 68.1263 166.188H86.8287C87.0191 166.188 87.1737 166.342 87.1737 166.533C87.1737 166.723 87.0191 166.878 86.8287 166.878Z" fill="#FAFAFA"/>
<path d="M87.0162 170.776H68.3138C68.1233 170.776 67.9688 170.621 67.9688 170.431C67.9688 170.24 68.1233 170.086 68.3138 170.086H87.0162C87.2066 170.086 87.3612 170.24 87.3612 170.431C87.3612 170.621 87.2066 170.776 87.0162 170.776Z" fill="#FAFAFA"/>
<path d="M87.2037 174.674H68.5013C68.3108 174.674 68.1562 174.52 68.1562 174.329C68.1562 174.139 68.3108 173.984 68.5013 173.984H87.2037C87.3941 173.984 87.5487 174.139 87.5487 174.329C87.5487 174.521 87.3941 174.674 87.2037 174.674Z" fill="#FAFAFA"/>
<path d="M87.3932 178.573H68.6907C68.5003 178.573 68.3457 178.418 68.3457 178.228C68.3457 178.037 68.5003 177.883 68.6907 177.883H87.3932C87.5836 177.883 87.7382 178.037 87.7382 178.228C87.7382 178.418 87.5836 178.573 87.3932 178.573Z" fill="#FAFAFA"/>
<path d="M87.5807 182.469H68.8782C68.6878 182.469 68.5332 182.315 68.5332 182.124C68.5332 181.934 68.6878 181.779 68.8782 181.779H87.5807C87.7711 181.779 87.9257 181.934 87.9257 182.124C87.9257 182.315 87.7711 182.469 87.5807 182.469Z" fill="#FAFAFA"/>
<path d="M83.9331 186.368H69.0657C68.8753 186.368 68.7207 186.213 68.7207 186.023C68.7207 185.832 68.8753 185.678 69.0657 185.678H83.9331C84.1236 185.678 84.2781 185.832 84.2781 186.023C84.2781 186.213 84.1236 186.368 83.9331 186.368Z" fill="#FAFAFA"/>
</g>
<g opacity="0.3">
<path d="M101.224 82.7757L87.5823 84.9561C86.8082 83.207 86.1278 81.994 85.5406 81.3164C84.9534 80.6388 84.0026 79.9557 82.6889 79.2657L83.2043 89.9559C90.7888 91.9534 95.892 94.0614 98.5119 96.2797C101.981 99.2633 103.826 103.047 104.048 107.632C104.178 110.319 103.699 112.785 102.612 115.028C101.524 117.272 100.088 119.146 98.3008 120.649C96.513 122.153 94.5886 123.244 92.5276 123.922C90.4658 124.599 87.9239 125 84.8996 125.123L84.99 127.002C85.0618 128.492 83.9122 129.699 82.4225 129.699C80.9328 129.699 79.6667 128.492 79.5949 127.002L79.5045 125.123C75.8675 124.803 72.9019 124.218 70.607 123.368C68.312 122.518 66.3089 121.342 64.5984 119.839C62.8872 118.337 61.5473 116.717 60.5764 114.98C59.6056 113.243 58.8397 111.144 58.2773 108.68L73.122 106.943C73.683 109.381 74.3647 111.143 75.1692 112.227C75.9724 113.311 77.2565 114.272 79.0222 115.109L78.3929 102.052C73.3497 100.671 69.7631 99.4751 67.6331 98.4636C65.5023 97.4534 63.62 95.8319 61.9854 93.6012C60.3501 91.3704 59.4559 88.6525 59.3013 85.4474C59.0895 81.0597 60.4467 77.3924 63.3716 74.4467C66.2965 71.5011 70.7815 69.8679 76.8259 69.5471L76.7797 68.5866C76.7079 67.0969 77.8575 65.8887 79.3472 65.8887C80.8369 65.8887 82.103 67.0962 82.1748 68.5866L82.221 69.5471C87.7555 69.8921 92.0377 71.1975 95.0661 73.4642C98.0938 75.7308 100.147 78.8345 101.224 82.7757ZM77.2848 79.0808C75.733 79.601 74.6676 80.2448 74.0894 81.0121C73.5105 81.7794 73.2462 82.6833 73.2966 83.7224C73.349 84.8119 73.7071 85.7586 74.3709 86.5631C75.0347 87.3677 76.1587 88.0411 77.7436 88.5828L77.2848 79.0808ZM84.4346 115.478C86.5052 115.009 88.0019 114.236 88.9237 113.161C89.8448 112.086 90.2733 110.882 90.2092 109.547C90.1533 108.385 89.6903 107.317 88.8195 106.341C87.9494 105.365 86.2976 104.458 83.8632 103.62L84.4346 115.478Z" fill="#FAFAFA"/>
</g>
<path d="M146.872 54.0589C146.513 49.6038 150.039 46 154.736 46H80.89C76.1924 46 72.6669 49.6044 73.0262 54.0589H146.872Z" fill="#F0F0F0"/>
<path d="M154.737 46C159.435 46 163.541 49.6044 163.901 54.0589L171.468 147.941C171.827 152.396 175.933 155.999 180.631 155.999H106.785C102.087 155.999 97.98 152.395 97.6214 147.941L90.0543 54.0589C89.695 49.6038 85.5888 46 80.8911 46H154.737Z" fill="white"/>
<path d="M114.649 147.941C115.008 152.397 111.482 156 106.785 156H180.63C185.328 156 188.854 152.396 188.494 147.941H114.649Z" fill="#F0F0F0"/>
<path d="M157.873 146.089C157.596 142.658 158.734 139.883 162.352 139.883H105.485C101.867 139.883 99.1454 143.017 101.006 146.089H157.873Z" fill="#E0E0E0"/>
<path d="M114.65 147.942C114.291 143.487 110.184 139.883 105.487 139.883H179.333C184.031 139.883 188.137 143.487 188.496 147.942H114.65Z" fill="#F0F0F0"/>
<path d="M111 93H165.646L166 98H111.354L111 93Z" fill="#F0F0F0"/>
<path d="M111 104H166.639L167 109H111.361L111 104Z" fill="#F0F0F0"/>
<path d="M112 115H166.646L167 121H112.354L112 115Z" fill="#F0F0F0"/>
<path d="M208.656 70.9358L206.052 71.9256C205.104 72.2859 204.273 72.8747 203.64 73.6333L202.447 75.063C201.657 76.0106 201.694 77.3567 202.535 78.2642L203.804 79.634C204.776 80.683 206.467 80.7775 207.562 79.8434L208.775 78.8087C208.775 78.8087 212.512 76.3254 213.609 73.0453L212.888 72.3628C211.715 71.2513 210.159 70.7265 208.656 70.9358Z" fill="#FFB573"/>
<path d="M201.528 47.0817L202.375 47.6106L203.318 48.2237C203.945 48.6466 204.574 49.0776 205.189 49.5256C206.413 50.4263 207.609 51.3583 208.717 52.3481C210.95 54.3114 212.893 56.4658 214.272 58.7547C214.448 59.0395 214.611 59.3284 214.76 59.6187L214.878 59.8363C214.854 59.7839 214.815 59.6255 214.801 59.5596C214.77 59.374 214.774 59.2727 214.787 59.2149C214.856 59.0184 214.862 59.529 214.7 60.0334C214.379 61.1102 213.716 62.48 212.98 63.7996C211.502 66.4773 209.645 69.2299 207.898 71.945L207.852 72.0157C207.127 73.1422 207.504 74.6119 208.694 75.2985C209.613 75.8281 210.751 75.733 211.554 75.1456C213.031 74.0606 214.351 72.941 215.661 71.7309C216.965 70.5276 218.21 69.2523 219.404 67.8628C220.583 66.4467 221.735 64.9926 222.706 63.0157C222.948 62.5147 223.18 61.9729 223.378 61.3434C223.575 60.7159 223.735 59.9817 223.75 59.0552C223.751 58.5874 223.716 58.0742 223.574 57.4916C223.517 57.2237 223.394 56.875 223.301 56.6282L223.163 56.2795C222.982 55.8104 222.785 55.3516 222.573 54.9022C220.887 51.2829 218.435 48.2271 215.727 45.5929C214.364 44.2754 212.924 43.0619 211.413 41.9409C210.655 41.3821 209.887 40.8396 209.086 40.3284C208.684 40.0728 208.285 39.8152 207.866 39.5718L207.227 39.2047L206.499 38.8063C204.098 37.4929 201.027 38.2713 199.64 40.5439C198.306 42.7309 199.016 45.5052 201.21 46.8811L201.528 47.0817Z" fill="#FFB573"/>
<path d="M201.446 36.295C205.643 36.3181 210.237 38.015 216.127 44.9266C216.127 49.053 206.925 54.5384 206.925 54.5384C206.925 54.5384 191.842 36.2427 201.446 36.295Z" fill="#263238"/>
<path d="M232.604 199.714C232.677 199.714 232.75 199.702 232.826 199.677C233.697 199.387 234.516 197.29 234.568 196.127C234.572 196.052 234.528 195.982 234.457 195.948C234.385 195.914 234.301 195.923 234.239 195.971C234.147 196.041 231.981 197.72 231.879 198.849C231.857 199.09 231.924 199.296 232.076 199.462C232.23 199.628 232.412 199.714 232.604 199.714ZM234.109 196.58C233.912 197.687 233.247 199.132 232.692 199.316C232.612 199.343 232.511 199.351 232.38 199.21C232.301 199.124 232.269 199.017 232.28 198.882C232.341 198.218 233.406 197.179 234.109 196.58Z" fill="#263238"/>
<path d="M231.257 197.219C232.264 197.219 233.717 196.759 234.479 196.278C234.545 196.237 234.579 196.162 234.565 196.088C234.552 196.014 234.494 195.953 234.418 195.934C234.303 195.905 231.595 195.237 230.571 195.825C230.352 195.95 230.216 196.123 230.165 196.337C230.093 196.634 230.185 196.882 230.422 197.037C230.616 197.165 230.911 197.219 231.257 197.219ZM233.821 196.195C232.761 196.696 231.136 197.039 230.651 196.723C230.58 196.676 230.514 196.605 230.558 196.422C230.585 196.311 230.657 196.223 230.78 196.152C231.382 195.808 232.896 196.01 233.821 196.195Z" fill="#263238"/>
<path d="M242.005 195.671C240.792 194.269 238.748 192.4 236.647 188.471C236.647 188.471 229.986 190.022 231.295 191.841C233.667 195.141 234.824 201.915 231.767 205.548C230.021 207.621 232.782 207.964 234.606 207.077C237.508 205.666 237.385 205.141 238.892 202.807C240.181 200.811 240.69 200.03 242.464 199.176C243.944 198.463 243.224 197.078 242.005 195.671Z" fill="#407BFF"/>
<path d="M185.488 77.2754C185.488 77.2754 195.155 121.872 202.223 140.917C209.647 160.92 230.148 191.784 230.936 193.11C233.85 192.374 236.449 191.408 238.182 189.806C238.182 189.806 228.558 156.326 219.174 134.606C215.613 89.2659 207.763 77.2754 207.763 77.2754H185.488Z" fill="#263238"/>
<path opacity="0.2" d="M200.234 101.134C200.672 109.761 200.974 121.624 200.543 136.063C197.591 127.062 194.381 114.86 191.681 103.908C193.483 101.63 196.284 100.536 200.234 101.134Z" fill="black"/>
<path d="M199.652 22.5898C198.638 26.4675 197.647 32.7931 199.262 36.1602C199.262 36.1602 193.215 36.4131 185.487 42.2547C181.848 37.1956 186.06 36.203 186.06 36.203C189.272 35.4892 189.114 31.4396 189.11 28.5552L199.652 22.5898Z" fill="#FFB573"/>
<path d="M201.174 37.9202C204.19 37.6047 202.104 32.1798 200.536 32.7081C196.575 34.0439 187.685 32.5571 184.935 33.9922C182.186 35.4273 182.881 38.3729 182.881 38.3729C182.881 38.3729 197.923 38.2601 201.174 37.9202Z" fill="#407BFF"/>
<path opacity="0.7" d="M201.174 37.9202C204.19 37.6047 202.104 32.1798 200.536 32.7081C196.575 34.0439 187.685 32.5571 184.935 33.9922C182.186 35.4273 182.881 38.3729 182.881 38.3729C182.881 38.3729 197.923 38.2601 201.174 37.9202Z" fill="white"/>
<path d="M183.576 15.7442C183.479 16.2629 183.11 16.6354 182.752 16.5749C182.393 16.5151 182.181 16.0453 182.278 15.5266C182.375 15.0079 182.744 14.6354 183.103 14.6959C183.462 14.7557 183.673 15.2255 183.576 15.7442Z" fill="#263238"/>
<path d="M183.256 14.7518L182.006 14.1719C182.006 14.1719 182.5 15.2589 183.256 14.7518Z" fill="#263238"/>
<path d="M182.844 11.5953C182.805 11.528 182.791 11.4464 182.814 11.3669C182.861 11.2017 183.04 11.1031 183.214 11.1473C184.962 11.5878 185.45 12.9399 185.47 12.9984C185.526 13.1609 185.433 13.3356 185.262 13.3893C185.091 13.4423 184.906 13.3546 184.849 13.1928C184.831 13.1398 184.436 12.0963 183.046 11.7462C182.956 11.7231 182.885 11.6667 182.844 11.5953Z" fill="#263238"/>
<path d="M182.928 17.0059C182.928 17.0059 181.739 19.1704 180.584 20.1568C181.244 20.8747 182.52 20.7027 182.52 20.7027L182.928 17.0059Z" fill="#ED893E"/>
<path d="M202.322 15.4777C200.724 21.7837 200.187 24.4852 196.239 27.1977C190.301 31.2779 182.63 28.0576 182.245 21.4309C181.898 15.4662 184.57 6.15551 191.509 4.70275C198.345 3.27175 203.92 9.17183 202.322 15.4777Z" fill="#FFB573"/>
<path d="M189.41 16.639C185.487 11.7307 182.928 7.76471 184.864 3.42072C186.481 -0.210147 190.953 0.852397 191.578 2.66545C203.474 1.70352 207.745 5.78238 205.289 12.5315C203.725 16.8313 209.801 14.6016 208.321 20.0632C207.187 24.2508 211.188 25.8463 209.157 28.2542C206.226 31.7287 200.182 27.1971 193.28 29.8028C187.633 31.934 179.147 28.707 189.41 16.639Z" fill="#263238"/>
<path d="M190.047 17.6311C189.273 18.7861 188.106 19.4292 187.068 19.5727C185.506 19.7882 184.969 18.1322 185.608 16.5951C186.182 15.2117 187.687 13.4319 189.157 13.9262C190.604 14.4122 190.931 16.3103 190.047 17.6311Z" fill="#FFB573"/>
<path d="M187.727 203.871C188.726 203.871 190.36 203.122 191.125 202.469C191.184 202.418 191.206 202.34 191.182 202.268C191.158 202.197 191.091 202.145 191.012 202.137C190.895 202.124 188.112 201.838 187.189 202.56C186.993 202.715 186.883 202.904 186.866 203.123C186.842 203.427 186.97 203.66 187.229 203.78C187.364 203.843 187.533 203.871 187.727 203.871ZM190.461 202.477C189.49 203.119 187.932 203.682 187.407 203.437C187.33 203.401 187.253 203.34 187.268 203.153C187.278 203.039 187.336 202.942 187.446 202.856C187.989 202.431 189.519 202.422 190.461 202.477Z" fill="#263238"/>
<path d="M190.99 202.518C191.054 202.518 191.115 202.49 191.153 202.439C191.2 202.378 191.204 202.297 191.165 202.232C191.106 202.135 189.712 199.838 188.551 199.558C188.303 199.498 188.079 199.526 187.88 199.642C187.606 199.802 187.483 200.038 187.533 200.307C187.692 201.168 189.744 202.275 190.948 202.514C190.962 202.517 190.975 202.518 190.99 202.518ZM188.309 199.91C188.354 199.91 188.401 199.916 188.451 199.928C189.132 200.093 190.041 201.257 190.55 202.011C189.429 201.646 188.032 200.789 187.93 200.24C187.916 200.161 187.923 200.066 188.092 199.967C188.158 199.929 188.23 199.91 188.309 199.91Z" fill="#263238"/>
<path d="M182.391 206.26C188.208 205.834 192.127 202.053 191.716 198.047C191.49 195.838 198.948 195.641 198.948 195.641C197.768 202.49 199.249 203.467 199.735 205.235C200.223 207.012 200.103 208.96 198.56 208.997C196.712 209.041 195.852 208.707 193.556 208.791C190.871 208.89 187.968 208.989 183.197 208.997C181.29 209 179.804 206.45 182.391 206.26Z" fill="#407BFF"/>
<path d="M175.433 77.2754C175.433 77.2754 175.94 111.05 178.757 133.246C181.574 155.443 191.256 198.977 191.256 198.977C194.054 199.492 196.676 199.575 198.991 198.91C198.991 198.91 202.05 164.9 196.91 132.038C200.686 97.5949 203.047 77.2754 203.047 77.2754H175.433Z" fill="#263238"/>
<path d="M174.112 46.0296C174.233 48.6394 169.88 54.6734 175.252 58.1703C174.248 60.294 173.4 74.6985 175.433 77.2743C178.398 79.3376 194.45 78.9365 207.761 77.2743C208.323 72.0663 205.295 61.2777 209.005 44.4558C209.865 40.5557 206.966 36.81 202.779 36.4102C201.66 36.3035 200.474 36.2145 199.261 36.1594C194.542 35.9439 190.677 35.8018 186.529 36.1601C185.155 36.279 183.733 36.4436 182.377 36.6237C177.48 37.2743 173.896 41.3531 174.112 46.0296Z" fill="#407BFF"/>
<g opacity="0.3">
<path d="M208.665 43.5499C208.765 43.6009 208.865 43.6532 208.966 43.7029L208.968 43.7042C208.968 43.7042 208.97 43.7056 208.971 43.7056C209.061 43.7511 209.095 43.8579 209.046 43.9428C208.997 44.0285 208.885 44.0598 208.795 44.0135C208.685 43.9578 208.578 43.898 208.47 43.8402C207.045 44.3385 205.499 45.4643 204.616 45.5798C206.04 44.3888 207.065 43.5356 208.188 43.6906C207.85 43.5044 207.518 43.3079 207.19 43.1074C205.88 43.5683 204.461 44.5995 203.65 44.7063C204.97 43.6009 205.919 42.813 206.963 42.968C206.716 42.8137 206.471 42.6566 206.229 42.4948C206.092 42.4037 205.957 42.3093 205.821 42.2154C204.641 42.7008 203.388 43.7287 202.646 43.8674C203.832 42.7525 204.673 41.9666 205.68 42.1189C205.365 41.8987 205.057 41.6709 204.751 41.4398C203.667 41.8884 202.518 42.8293 201.837 42.9571C202.928 41.932 203.701 41.208 204.627 41.3446C204.366 41.1447 204.106 40.9422 203.85 40.7355C203.788 40.6852 203.727 40.6342 203.666 40.5832C202.709 41.0577 201.76 41.9972 201.137 42.1679C202.04 41.14 202.67 40.4289 203.621 40.5465C203.375 40.3446 203.132 40.1407 202.892 39.9333C202.012 40.3718 201.14 41.2338 200.567 41.3908C201.398 40.4466 201.976 39.7926 202.848 39.8952C202.593 39.675 202.342 39.4513 202.093 39.2236C201.325 39.6709 200.591 40.488 200.082 40.6573C200.773 39.764 201.258 39.1413 202.04 39.174C201.905 39.0489 201.77 38.9245 201.636 38.7974C201.559 38.7239 201.483 38.6485 201.406 38.5744C200.698 38.9863 200.022 39.7396 199.552 39.8952C200.19 39.0713 200.637 38.4969 201.359 38.5288C201.149 38.3249 200.943 38.1175 200.741 37.9068C200.091 38.2358 199.483 38.8687 199.048 38.9891C199.621 38.2923 200.021 37.8096 200.712 37.8762C200.674 37.8375 200.636 37.8001 200.599 37.7606C200.452 37.6043 200.307 37.4466 200.166 37.2861C199.574 37.592 199.021 38.1644 198.625 38.2739C199.145 37.641 199.51 37.1998 200.129 37.2453C199.961 37.053 199.8 36.8545 199.652 36.6451C199.634 36.6199 199.64 36.5853 199.667 36.5676C199.693 36.5499 199.731 36.556 199.749 36.5818L199.75 36.5832C199.89 36.7729 200.043 36.9544 200.203 37.1318C200.144 36.8286 200.263 36.5438 200.464 36.2324C200.546 36.2372 200.628 36.2413 200.71 36.2467C200.579 36.5581 200.412 36.9082 200.318 37.2549C200.447 37.3935 200.577 37.5302 200.71 37.6655C200.74 37.6974 200.773 37.728 200.805 37.7593C200.668 37.2691 200.938 36.8409 201.357 36.2923C201.402 36.2957 201.445 36.2997 201.489 36.3031C201.378 36.7226 201.042 37.299 200.901 37.8545C201.089 38.0421 201.281 38.227 201.477 38.4092C201.295 37.7844 201.749 37.2304 202.394 36.45C202.363 36.9177 201.788 37.7314 201.558 38.4853C201.627 38.5485 201.693 38.6124 201.762 38.675C201.892 38.7933 202.025 38.9095 202.156 39.0258C201.974 38.3562 202.464 37.7586 203.156 36.9197C203.123 37.4235 202.506 38.2997 202.254 39.1135C202.481 39.3133 202.712 39.5098 202.945 39.7042C202.794 39.0271 203.271 38.367 203.928 37.4615C203.924 37.9993 203.344 38.9551 203.11 39.8395C203.297 39.9945 203.487 40.1475 203.678 40.2984C203.51 39.5615 204.027 38.8443 204.742 37.8585C204.738 38.4411 204.109 39.4792 203.854 40.4384C203.905 40.4778 203.954 40.518 204.005 40.5574C204.267 40.76 204.532 40.9578 204.799 41.1529C204.588 40.4017 205.083 39.5513 205.763 38.3929C205.816 39.021 205.224 40.2447 205.033 41.3228C205.333 41.5383 205.637 41.7491 205.945 41.9537C205.599 41.1012 206.157 40.1427 206.94 38.8082C206.998 39.5071 206.323 40.8857 206.133 42.0768C206.223 42.1352 206.312 42.1957 206.402 42.2535C206.686 42.4343 206.973 42.6084 207.263 42.7797C206.864 41.9163 207.345 40.8946 208.05 39.5057C208.083 39.5547 208.12 39.6016 208.151 39.6512C208.097 40.469 207.598 41.7756 207.486 42.9109C207.807 43.0958 208.132 43.2746 208.461 43.4452C208.087 42.7267 208.298 41.9082 208.759 40.8864C208.866 41.1747 208.947 41.471 209.011 41.7736C208.864 42.3609 208.718 42.9755 208.665 43.5499Z" fill="#263238"/>
<path d="M190.317 38.8364C191.402 38.1803 192.467 36.9778 193.176 36.7289C192.192 38.0077 191.493 38.9098 190.473 38.9105C190.821 39.0811 191.163 39.2592 191.504 39.4414C192.5 38.8357 193.476 37.7344 194.127 37.506C193.222 38.6814 192.579 39.5128 191.642 39.5162C191.934 39.6746 192.225 39.8357 192.511 40.0009C192.581 40.041 192.65 40.0825 192.719 40.1232C193.584 39.5114 194.363 38.4414 194.95 38.179C194.23 39.3292 193.727 40.126 192.769 40.1525C193.046 40.3143 193.32 40.4795 193.591 40.6487C194.387 40.0845 195.103 39.1022 195.643 38.8608C194.982 39.9179 194.519 40.6501 193.642 40.6793C193.93 40.8588 194.216 41.0424 194.499 41.2293C195.184 40.6725 195.771 39.7555 196.246 39.5121C195.713 40.4978 195.338 41.1858 194.56 41.2701C194.715 41.3727 194.87 41.4754 195.022 41.5808C195.11 41.6419 195.198 41.7052 195.286 41.7663C195.917 41.2531 196.458 40.4081 196.896 40.1837C196.404 41.0927 196.058 41.7276 195.34 41.8044C195.581 41.9744 195.82 42.147 196.054 42.3258C196.641 41.9037 197.135 41.1872 197.544 41.0036C197.095 41.7772 196.781 42.3136 196.088 42.3517C196.132 42.3843 196.176 42.4156 196.219 42.4489C196.39 42.5814 196.56 42.7154 196.726 42.8527C197.259 42.4618 197.709 41.8139 198.082 41.6467C197.675 42.3489 197.388 42.8398 196.769 42.888C196.967 43.0532 197.16 43.2245 197.341 43.4088C197.363 43.4312 197.362 43.4666 197.339 43.4876C197.315 43.5094 197.278 43.5087 197.255 43.4863L197.253 43.4856C197.083 43.319 196.901 43.1627 196.714 43.0118C196.888 43.4734 196.636 43.9417 196.287 44.5828C196.227 44.2096 196.521 43.5277 196.58 42.9077C196.43 42.7901 196.278 42.6753 196.125 42.561C196.089 42.5339 196.052 42.5094 196.015 42.4829C196.261 43.007 195.979 43.5305 195.583 44.2592C195.517 43.8466 195.849 43.0865 195.905 42.4033C195.687 42.2463 195.466 42.092 195.243 41.9417C195.527 42.5318 195.171 43.1464 194.665 44.0138C194.618 43.5474 195.049 42.6576 195.15 41.8792C195.072 41.8268 194.995 41.7738 194.917 41.7222C194.769 41.6249 194.619 41.5298 194.47 41.4346C194.761 42.0689 194.378 42.7324 193.834 43.6644C193.783 43.162 194.246 42.2041 194.358 41.3632C194.1 41.2001 193.839 41.0403 193.577 40.8839C193.839 41.5298 193.479 42.2531 192.982 43.2456C192.896 42.7147 193.308 41.6834 193.392 40.7752C193.181 40.6508 192.968 40.5284 192.754 40.4074C193.043 41.1103 192.652 41.8955 192.111 42.9764C192.018 42.3999 192.465 41.2816 192.556 40.2959C192.499 40.2646 192.444 40.232 192.387 40.2014C192.095 40.041 191.8 39.8853 191.504 39.7323C191.837 40.4421 191.491 41.3571 191.014 42.6018C190.857 41.99 191.236 40.6929 191.244 39.5991C190.911 39.4312 190.576 39.2687 190.238 39.113C190.722 39.903 190.332 40.9329 189.782 42.368C189.607 41.6868 190.044 40.2245 190.031 39.0199C189.933 38.9757 189.835 38.9295 189.736 38.886C189.425 38.75 189.112 38.6209 188.798 38.4951C189.361 39.3238 189.005 40.4631 188.508 42.0444C188.272 41.3163 188.647 39.7065 188.556 38.3992C188.209 38.264 187.858 38.1368 187.504 38.0172C188.181 38.9213 187.792 40.1756 187.237 41.9349C186.98 41.1382 187.394 39.3707 187.287 37.9465C187.18 37.9111 187.073 37.8744 186.964 37.8411L186.961 37.8404L186.958 37.8391C186.862 37.8071 186.811 37.7072 186.845 37.6154C186.879 37.5243 186.984 37.4761 187.081 37.508C187.198 37.5468 187.314 37.5896 187.43 37.6304C188.261 37.1878 189.098 36.4937 189.817 35.9771C190.008 35.9716 190.2 35.9689 190.391 35.9648C189.455 37.0138 188.688 37.7235 187.734 37.7364C188.1 37.8697 188.461 38.0131 188.818 38.1627C190.034 37.5107 191.262 36.2796 192.045 36.0539C190.926 37.3428 190.122 38.2633 189.066 38.2667C189.336 38.3823 189.604 38.5005 189.869 38.6236C190.019 38.6916 190.168 38.7643 190.317 38.8364Z" fill="#263238"/>
<path d="M199.289 51.5457C200.081 50.7313 200.636 50.163 201.41 50.2785C201.29 50.1405 201.17 50.0025 201.052 49.8625C200.984 49.7809 200.918 49.6987 200.85 49.6171C200.097 49.9515 199.337 50.6286 198.852 50.734C199.582 49.9828 200.095 49.4587 200.809 49.5661C200.625 49.3418 200.444 49.114 200.268 48.8829C199.583 49.1412 198.905 49.7061 198.459 49.7802C199.109 49.148 199.564 48.7109 200.242 48.8496C200.21 48.8068 200.176 48.7653 200.144 48.7225C200.017 48.5518 199.891 48.3798 199.77 48.2051C199.146 48.4465 198.529 48.957 198.122 49.0236C198.714 48.4498 199.128 48.0494 199.738 48.1603C199.594 47.9509 199.457 47.7374 199.335 47.5131C199.32 47.4866 199.33 47.4526 199.359 47.4383C199.388 47.4233 199.424 47.4335 199.44 47.4607L199.44 47.4621C199.557 47.6653 199.688 47.8618 199.826 48.0556C199.788 47.5668 200.164 47.1793 200.681 46.6504C200.633 47.025 200.158 47.6076 199.925 48.1902C200.036 48.3411 200.151 48.4906 200.265 48.6395C200.293 48.6742 200.321 48.7082 200.349 48.7428C200.26 48.1752 200.679 47.7429 201.268 47.1405C201.215 47.5545 200.681 48.2038 200.434 48.8475C200.599 49.0542 200.767 49.2581 200.941 49.4594C200.834 48.819 201.351 48.3166 202.083 47.6089C201.997 48.0698 201.329 48.8183 201.013 49.5437C201.073 49.6137 201.132 49.6844 201.193 49.7537C201.308 49.8849 201.426 50.0141 201.543 50.1439C201.441 49.4587 201.998 48.9169 202.785 48.1569C202.693 48.6538 201.976 49.4594 201.631 50.2411C201.834 50.4641 202.039 50.6837 202.248 50.9013C202.179 50.2119 202.729 49.6069 203.489 48.7762C203.422 49.3098 202.733 50.199 202.396 51.0528C202.564 51.2262 202.734 51.3982 202.906 51.5688C202.826 50.8183 203.425 50.1603 204.251 49.2568C204.178 49.836 203.431 50.8006 203.066 51.7272C203.111 51.7714 203.155 51.817 203.201 51.8611C203.438 52.0902 203.677 52.3146 203.92 52.5376C203.8 51.7687 204.392 50.9754 205.203 49.8965C205.181 50.526 204.45 51.6796 204.133 52.7306C204.406 52.9767 204.683 53.218 204.964 53.4539C204.721 52.5702 205.388 51.6762 206.323 50.4329C206.299 51.1337 205.465 52.4322 205.137 53.596C205.219 53.664 205.3 53.7333 205.384 53.8C205.644 54.01 205.909 54.2133 206.177 54.4138C205.869 53.4736 206.534 52.4655 207.461 51.0678C207.482 51.8292 206.666 53.2853 206.383 54.5675C206.681 54.7857 206.982 54.9971 207.289 55.2017C207.064 54.6089 207.209 53.9917 207.561 53.2867C207.474 54.0984 207.408 54.8856 207.35 55.6606C207.317 55.6375 207.284 55.6157 207.251 55.5926C205.777 55.9373 204.107 56.8924 203.216 56.9142C204.771 55.8809 205.89 55.1412 206.988 55.4138C206.674 55.1929 206.366 54.9631 206.064 54.7286C204.708 55.0488 203.177 55.9237 202.359 55.9441C203.801 54.9856 204.837 54.3017 205.855 54.5668C205.628 54.3866 205.403 54.2051 205.182 54.0195C205.056 53.9142 204.934 53.8061 204.81 53.6987C203.58 54.0562 202.214 54.9454 201.46 55.0053C202.77 54.0229 203.698 53.3302 204.681 53.5879C204.395 53.3356 204.115 53.0773 203.838 52.8149C202.708 53.1467 201.455 53.9604 200.763 54.0155C201.968 53.112 202.822 52.4743 203.726 52.7082C203.489 52.4818 203.254 52.2534 203.025 52.0209C202.969 51.9645 202.915 51.9074 202.859 51.8503C201.853 52.2208 200.8 53.0542 200.16 53.1582C201.179 52.2323 201.889 51.5919 202.819 51.8088C202.599 51.5824 202.381 51.354 202.167 51.1229C201.241 51.4648 200.273 52.2303 199.685 52.3261C200.621 51.475 201.274 50.8863 202.128 51.0807C201.901 50.8346 201.677 50.5851 201.457 50.3336C200.64 50.6966 199.815 51.4315 199.289 51.5457Z" fill="#263238"/>
<path d="M186.785 51.0504C187.304 51.2665 188.001 52.1503 188.766 52.705C188.99 52.603 189.214 52.499 189.436 52.3937C188.654 52.2468 188.164 51.5126 187.492 50.4997C188.056 50.7349 188.812 51.6928 189.642 52.2951C189.7 52.2665 189.759 52.24 189.817 52.2115C190.117 52.0646 190.414 51.913 190.71 51.758C189.898 51.6425 189.269 50.8743 188.416 49.8253C189.046 50.0286 189.998 51.0279 190.968 51.6221C191.296 51.4467 191.621 51.2665 191.942 51.0803C190.978 51.0429 190.27 50.1768 189.287 48.9681C189.988 49.1945 191.056 50.3284 192.136 50.9661C192.228 50.911 192.322 50.858 192.414 50.8016C192.702 50.6275 192.985 50.4467 193.266 50.2631C192.226 50.2672 191.401 49.3712 190.26 48.1238C191.036 48.327 192.268 49.4916 193.482 50.1211C193.789 49.9158 194.091 49.7043 194.387 49.4861C193.218 49.5412 192.31 48.5555 191.041 47.168C191.889 47.3909 193.24 48.6717 194.567 49.3508C194.656 49.2835 194.747 49.2183 194.835 49.1496L194.837 49.1483L194.839 49.1462C194.919 49.0864 195.036 49.0993 195.099 49.1754C195.162 49.2509 195.149 49.361 195.068 49.4215C194.97 49.4943 194.87 49.5643 194.771 49.635C194.689 51.0708 195.166 52.8607 194.928 53.6738C194.338 51.964 193.918 50.7349 194.514 49.8199C194.198 50.0402 193.877 50.2509 193.551 50.4562C193.479 51.7771 193.915 53.4188 193.696 54.1653C193.149 52.5799 192.761 51.4426 193.326 50.5976C193.078 50.7506 192.829 50.9008 192.576 51.047C192.433 51.1299 192.288 51.2094 192.143 51.2903C192.144 52.5086 192.644 54.0048 192.484 54.7043C191.874 53.2319 191.445 52.1884 191.993 51.3746C191.655 51.5602 191.311 51.7383 190.966 51.9124C190.971 53.0327 191.427 54.4046 191.281 55.047C190.72 53.6928 190.325 52.7329 190.825 51.9831C190.527 52.1313 190.228 52.2767 189.926 52.4168C189.853 52.4508 189.779 52.4834 189.706 52.5167C189.786 53.5358 190.32 54.7329 190.238 55.3427C189.601 54.1496 189.161 53.3203 189.652 52.5405C189.359 52.6738 189.065 52.8043 188.768 52.9307C188.844 53.8689 189.334 54.9688 189.259 55.529C188.673 54.4331 188.269 53.6704 188.715 52.9538C188.399 53.0878 188.083 53.2176 187.764 53.3427C187.892 54.1884 188.393 55.1503 188.355 55.6602C187.764 54.705 187.352 54.0361 187.695 53.3699C187.52 53.4379 187.345 53.5058 187.17 53.5718C187.068 53.6099 186.965 53.6452 186.862 53.6826C186.981 54.4617 187.443 55.3481 187.407 55.8179C186.862 54.9368 186.482 54.3196 186.8 53.705C186.519 53.8063 186.236 53.9035 185.952 53.9953C186.013 54.6908 186.386 55.4712 186.33 55.8961C185.881 55.1217 185.572 54.5833 185.911 54.0089C185.858 54.0259 185.807 54.0442 185.754 54.0606C185.544 54.1258 185.333 54.189 185.122 54.2482C185.183 54.8838 185.519 55.5915 185.468 55.979C185.061 55.2761 184.778 54.7839 185.067 54.2638C184.813 54.3332 184.558 54.395 184.296 54.4406C184.264 54.446 184.233 54.427 184.227 54.3971C184.22 54.3665 184.241 54.3372 184.273 54.3305L184.274 54.3298C184.513 54.2835 184.751 54.2224 184.987 54.1537C184.482 54.0449 184.2 53.5915 183.817 52.9681C184.181 53.1211 184.63 53.722 185.152 54.1027C185.337 54.0463 185.522 53.9865 185.705 53.9253C185.748 53.911 185.791 53.8947 185.834 53.8804C185.234 53.7954 184.92 53.289 184.484 52.5799C184.887 52.7492 185.386 53.4222 185.965 53.8342C186.222 53.7451 186.478 53.6513 186.732 53.5541C186.054 53.4637 185.697 52.8491 185.196 51.9797C185.637 52.1924 186.198 53.015 186.838 53.5133C186.926 53.4793 187.015 53.446 187.103 53.412C187.269 53.3461 187.434 53.2781 187.599 53.2094C186.877 53.1014 186.493 52.4385 185.955 51.5045C186.43 51.7336 187.034 52.6173 187.723 53.1591C188.008 53.0408 188.29 52.9185 188.571 52.7927C187.853 52.6561 187.402 51.9803 186.785 51.0504Z" fill="#263238"/>
<path d="M190.932 60.1154C190.293 60.3193 189.644 60.7911 189.234 60.834C189.861 60.2969 190.302 59.9223 190.904 60.0692C190.774 59.8516 190.652 59.63 190.544 59.3996C190.531 59.3717 190.544 59.3391 190.574 59.3261C190.603 59.3132 190.638 59.3255 190.653 59.3533L190.653 59.3554C190.756 59.5648 190.874 59.7694 190.999 59.9706C190.994 59.4805 191.394 59.1168 191.947 58.6191C191.874 58.9903 191.36 59.543 191.089 60.1106C191.191 60.2677 191.294 60.424 191.399 60.579C191.424 60.6157 191.451 60.6511 191.476 60.6871C191.425 60.1154 191.872 59.7089 192.5 59.1433C192.419 59.5539 191.843 60.1691 191.553 60.7973C191.705 61.0128 191.859 61.2269 192.018 61.4383C191.954 60.7932 192.503 60.3227 193.282 59.6606C193.165 60.1154 192.449 60.8224 192.085 61.5274C192.14 61.6008 192.195 61.6749 192.251 61.7476C192.357 61.8856 192.465 62.0216 192.574 62.1582C192.518 61.4682 193.11 60.9604 193.946 60.2493C193.82 60.7401 193.051 61.5009 192.654 62.2602C192.842 62.4947 193.033 62.7266 193.227 62.9557C193.203 62.2636 193.792 61.6926 194.606 60.9087C194.503 61.437 193.757 62.2833 193.364 63.1154C193.52 63.299 193.678 63.4805 193.838 63.6606C193.809 62.9074 194.45 62.286 195.336 61.4336C195.224 62.0073 194.414 62.9251 193.988 63.8279C194.03 63.8748 194.072 63.923 194.114 63.9699C194.335 64.2119 194.559 64.4512 194.786 64.6871C194.717 63.9128 195.362 63.1569 196.243 62.1283C196.18 62.7551 195.372 63.8625 194.985 64.8931C195.241 65.1555 195.502 65.4125 195.767 65.6654C195.584 64.7687 196.31 63.9169 197.325 62.732C197.255 63.4302 196.335 64.6763 195.93 65.8177C196.007 65.8904 196.084 65.9638 196.162 66.0359C196.408 66.2609 196.659 66.4798 196.913 66.6967C196.669 65.7395 197.399 64.7735 198.417 63.4336C198.387 64.1949 197.476 65.5994 197.109 66.8625C197.39 67.0977 197.678 67.3275 197.971 67.5498C197.645 66.4859 198.447 65.422 199.58 63.9319C199.547 64.7646 198.543 66.3051 198.151 67.6844C198.241 67.751 198.329 67.819 198.42 67.8843L198.422 67.8856L198.424 67.8877C198.504 67.9475 198.517 68.0583 198.454 68.1338C198.391 68.2092 198.274 68.2221 198.194 68.1623C198.096 68.0889 198.002 68.0128 197.905 67.938C196.411 68.1936 194.681 69.0474 193.79 69.0155C195.411 68.0773 196.577 67.4064 197.655 67.7436C197.356 67.5036 197.065 67.2561 196.779 67.0039C195.404 67.2419 193.818 68.0236 193 67.9951C194.503 67.1243 195.582 66.5043 196.58 66.8292C196.366 66.6361 196.154 66.4417 195.945 66.2425C195.827 66.1304 195.711 66.0148 195.595 65.9006C194.343 66.1841 192.921 66.989 192.165 67.0039C193.537 66.1018 194.511 65.4655 195.474 65.7823C195.204 65.5138 194.942 65.2385 194.684 64.9604C193.533 65.2242 192.228 65.9611 191.535 65.9747C192.797 65.1446 193.693 64.56 194.578 64.8469C194.357 64.6069 194.139 64.3642 193.925 64.1195C193.873 64.0597 193.822 63.9992 193.771 63.9393C192.742 64.2487 191.635 65.0175 190.989 65.0835C192.068 64.2201 192.819 63.6239 193.734 63.8958C193.53 63.6565 193.328 63.4159 193.13 63.1718C192.182 63.458 191.166 64.1637 190.572 64.2242C191.563 63.4308 192.253 62.8829 193.093 63.1276C192.883 62.8686 192.676 62.6062 192.473 62.3418C191.634 62.6552 190.761 63.3391 190.228 63.422C191.073 62.6565 191.665 62.1229 192.429 62.284C192.319 62.1392 192.208 61.9937 192.1 61.8469C192.038 61.7612 191.978 61.6749 191.915 61.5899C191.142 61.8788 190.337 62.509 189.846 62.5852C190.625 61.8788 191.172 61.3867 191.877 61.5369C191.708 61.3017 191.543 61.0637 191.383 60.8231C190.682 61.0399 189.967 61.5634 189.517 61.6096C190.209 61.0175 190.691 60.6083 191.36 60.7884C191.331 60.7435 191.3 60.7007 191.27 60.6559C191.155 60.4757 191.042 60.2969 190.932 60.1154Z" fill="#263238"/>
<path d="M186.575 67.7022C186.428 67.5179 186.268 67.3412 186.101 67.1692C186.214 67.6471 185.903 68.0829 185.473 68.6784C185.463 68.3011 185.842 67.6587 185.982 67.0502C185.848 66.9163 185.712 66.7837 185.575 66.6539C185.543 66.6233 185.509 66.5941 185.477 66.5635C185.654 67.1121 185.306 67.5988 184.817 68.2766C184.805 67.8592 185.233 67.1434 185.376 66.4717C185.18 66.2902 184.982 66.1121 184.78 65.9367C184.985 66.5553 184.551 67.1243 183.937 67.9258C183.951 67.4581 184.494 66.6247 184.695 65.8633C184.624 65.8028 184.555 65.7409 184.484 65.6804C184.349 65.5669 184.213 65.4547 184.077 65.3425C184.284 66.006 183.817 66.6199 183.157 67.4812C183.172 66.9761 183.755 66.0801 183.976 65.2589C183.74 65.0672 183.503 64.8782 183.263 64.692C183.439 65.3636 182.988 66.0394 182.367 66.9666C182.35 66.4296 182.893 65.454 183.093 64.5628C182.899 64.4146 182.705 64.2678 182.508 64.1236C182.704 64.8544 182.214 65.5886 181.537 66.5982C181.519 66.0156 182.108 64.9571 182.326 63.9897C182.274 63.9516 182.223 63.9136 182.17 63.8762C181.901 63.6831 181.629 63.4941 181.355 63.3079C181.594 64.0516 181.131 64.9183 180.496 66.0985C180.42 65.4731 180.964 64.2297 181.114 63.1454C180.806 62.9401 180.494 62.7402 180.178 62.5458C180.557 63.3854 180.035 64.3629 179.304 65.7232C179.219 65.0271 179.842 63.626 179.986 62.4289C179.894 62.3731 179.803 62.316 179.71 62.2616C179.42 62.0903 179.126 61.9258 178.83 61.7647C179.281 62.6519 178.781 63.7416 178.081 65.2535C177.942 64.503 178.522 62.9496 178.602 61.6417C178.274 61.4669 177.943 61.2997 177.607 61.1406C178.162 62.1168 177.612 63.316 176.835 64.9979C176.682 64.1773 177.324 62.471 177.401 61.0455C177.298 60.9986 177.197 60.9489 177.094 60.9034L177.092 60.902L177.089 60.9007C176.997 60.8578 176.96 60.7531 177.005 60.6661C177.05 60.5798 177.161 60.5438 177.253 60.5866C177.365 60.6389 177.474 60.6947 177.584 60.7484C178.989 60.2018 180.492 59.0244 181.37 58.8789C179.992 60.1175 179.001 61.0047 177.872 60.8891C178.218 61.0638 178.557 61.248 178.893 61.4384C180.184 60.9326 181.562 59.8537 182.369 59.7205C181.091 60.8701 180.173 61.6899 179.125 61.5703C179.378 61.7158 179.628 61.8646 179.875 62.0176C180.016 62.1046 180.155 62.1937 180.293 62.2827C181.454 61.7579 182.667 60.6879 183.403 60.524C182.26 61.6784 181.449 62.4928 180.438 62.3752C180.76 62.5845 181.077 62.8014 181.391 63.0224C182.458 62.537 183.57 61.5574 184.246 61.4064C183.195 62.4676 182.449 63.2175 181.519 63.1121C181.788 63.3031 182.056 63.4969 182.319 63.694C182.383 63.7423 182.446 63.7919 182.509 63.8395C183.447 63.333 184.359 62.3616 184.976 62.1699C184.112 63.2277 183.51 63.9598 182.555 63.8748C182.809 64.0679 183.06 64.2637 183.307 64.4629C184.17 63.9952 185.008 63.1039 185.575 62.9272C184.782 63.8993 184.228 64.5723 183.353 64.4996C183.615 64.7117 183.875 64.9265 184.132 65.1447C184.883 64.6722 185.585 63.83 186.087 63.6437C185.431 64.5601 184.969 65.1998 184.186 65.193C184.326 65.3133 184.466 65.433 184.605 65.5553C184.685 65.626 184.764 65.6988 184.843 65.7701C185.535 65.3344 186.182 64.5587 186.645 64.3861C186.04 65.2311 185.614 65.8211 184.892 65.8137C185.109 66.0101 185.323 66.21 185.533 66.4139C186.17 66.0631 186.754 65.4098 187.183 65.2746C186.637 65.9904 186.257 66.486 185.563 66.4432C185.602 66.4812 185.642 66.5173 185.68 66.5553C185.832 66.7062 185.983 66.8592 186.13 67.0149C186.71 66.6886 187.241 66.0985 187.633 65.9754C187.138 66.6253 186.79 67.0788 186.169 67.0543C186.344 67.2413 186.513 67.4336 186.669 67.6376C186.688 67.6627 186.683 67.6967 186.657 67.7151C186.631 67.7341 186.594 67.7287 186.574 67.7042L186.575 67.7022Z" fill="#263238"/>
<path d="M194.995 77.3867C194.709 77.1345 194.429 76.8761 194.152 76.6137C193.022 76.9455 191.769 77.7599 191.077 77.8143C192.281 76.9108 193.136 76.2732 194.039 76.507C193.803 76.2806 193.568 76.0522 193.338 75.8197C193.282 75.7633 193.229 75.7055 193.172 75.6491C192.166 76.0196 191.113 76.853 190.473 76.957C191.492 76.0311 192.202 75.3908 193.132 75.6083C192.912 75.3819 192.694 75.1528 192.48 74.9217C191.554 75.2643 190.586 76.0291 189.998 76.125C190.934 75.2745 191.587 74.6851 192.441 74.8795C192.214 74.6335 191.99 74.3846 191.77 74.1324C190.953 74.4955 190.127 75.2303 189.602 75.3452C190.394 74.5308 190.95 73.9625 191.723 74.078C191.603 73.9394 191.483 73.8014 191.365 73.6613C191.297 73.5797 191.231 73.4975 191.163 73.4159C190.41 73.7504 189.65 74.4275 189.165 74.5328C189.896 73.7816 190.408 73.2575 191.122 73.3656C190.938 73.1413 190.757 72.9135 190.581 72.6824C189.896 72.9407 189.218 73.5056 188.772 73.5791C189.422 72.9468 189.877 72.5097 190.556 72.6484C190.523 72.6056 190.489 72.5641 190.457 72.5213C190.33 72.3506 190.204 72.1786 190.083 72.0039C189.459 72.2453 188.842 72.7558 188.436 72.8231C189.027 72.2494 189.441 71.8489 190.051 71.9598C189.907 71.7504 189.771 71.5362 189.648 71.3126C189.633 71.2854 189.643 71.2521 189.672 71.2371C189.701 71.2228 189.737 71.2324 189.753 71.2595L189.753 71.2609C189.87 71.4642 190.001 71.6613 190.139 71.8544C190.101 71.3656 190.477 70.9781 190.994 70.4492C190.946 70.8238 190.471 71.4064 190.238 71.989C190.349 72.1399 190.464 72.2895 190.579 72.4383C190.606 72.473 190.635 72.507 190.662 72.5417C190.573 71.974 190.992 71.541 191.581 70.9394C191.528 71.354 190.994 72.0026 190.747 72.6464C190.912 72.853 191.08 73.057 191.254 73.2582C191.147 72.6185 191.664 72.1154 192.396 71.4084C192.31 71.8693 191.642 72.6178 191.326 73.3425C191.386 73.4125 191.445 73.4832 191.506 73.5525C191.621 73.6837 191.739 73.8136 191.856 73.9428C191.754 73.2582 192.311 72.7157 193.099 71.9557C193.006 72.4526 192.289 73.2575 191.943 74.04C192.146 74.2623 192.352 74.4818 192.561 74.7001C192.49 74.0107 193.041 73.4057 193.801 72.575C193.733 73.1086 193.045 73.9978 192.708 74.8517C192.876 75.025 193.046 75.197 193.218 75.3676C193.139 74.6171 193.737 73.9591 194.564 73.0556C194.49 73.6341 193.743 74.5988 193.378 75.526C193.423 75.5702 193.468 75.6158 193.514 75.66C193.75 75.8891 193.99 76.1134 194.232 76.3357C194.112 75.5668 194.704 74.7735 195.515 73.6946C195.494 74.3241 194.762 75.4778 194.445 76.5294C194.718 76.7755 194.995 77.0169 195.277 77.2528C195.034 76.369 195.701 75.4751 196.636 74.2324C196.612 74.9332 195.779 76.2317 195.45 77.3955C195.532 77.4635 195.614 77.5328 195.697 77.5995C195.957 77.8088 196.223 78.0128 196.49 78.2133C196.182 77.2732 196.847 76.265 197.773 74.8673C197.794 75.6199 197 77.0495 196.709 78.3207C196.524 78.333 196.34 78.3452 196.156 78.3568C195.933 78.18 195.712 78.0019 195.494 77.819C195.369 77.7137 195.246 77.6056 195.122 77.4982C194.277 77.7436 193.371 78.2358 192.64 78.5424C192.458 78.5498 192.277 78.5566 192.095 78.5641C193.239 77.7144 194.096 77.1508 194.995 77.3867Z" fill="#263238"/>
<path d="M198.966 75.293C198.984 75.951 198.429 77.0877 198.047 78.2263C197.866 78.2393 197.684 78.2535 197.503 78.2658C197.562 77.4235 198.172 76.4908 198.966 75.293Z" fill="#263238"/>
<path d="M196.117 78.3583C195.755 78.3807 195.393 78.4025 195.033 78.4229C195.408 78.3066 195.764 78.2774 196.117 78.3583Z" fill="#263238"/>
<path d="M175.218 76.9342C175.197 76.8948 175.177 76.8512 175.156 76.8091C175.245 76.7805 175.333 76.7533 175.421 76.7241C175.464 76.7098 175.507 76.6935 175.55 76.6793C175.336 76.6487 175.16 76.563 175 76.4359C174.935 76.2584 174.873 76.0688 174.816 75.8601C175.08 76.1143 175.368 76.4114 175.681 76.6337C175.938 76.5446 176.194 76.4508 176.447 76.3536C175.769 76.2632 175.412 75.6487 174.912 74.7792C175.353 74.992 175.913 75.8145 176.553 76.3135C176.642 76.2795 176.73 76.2462 176.818 76.2115C176.984 76.1456 177.149 76.0776 177.315 76.009C176.593 75.9009 176.208 75.2381 175.67 74.304C176.145 74.5331 176.749 75.4175 177.439 75.9587C177.723 75.8404 178.005 75.718 178.286 75.5922C177.57 75.4542 177.119 74.7785 176.502 73.8485C177.021 74.0654 177.718 74.9485 178.482 75.5032C178.707 75.4012 178.93 75.2979 179.152 75.1918C178.371 75.045 177.881 74.3108 177.209 73.2979C177.773 73.5331 178.529 74.4909 179.358 75.0932C179.417 75.0647 179.476 75.0382 179.534 75.0096C179.834 74.8628 180.131 74.7112 180.426 74.5562C179.615 74.4406 178.986 73.6731 178.133 72.6235C178.763 72.8268 179.715 73.8268 180.684 74.4209C181.012 74.2462 181.338 74.0654 181.658 73.8791C180.694 73.841 179.986 72.9756 179.003 71.7663C179.704 71.9926 180.773 73.1266 181.852 73.7642C181.945 73.7092 182.039 73.6561 182.13 73.6004C182.418 73.4264 182.701 73.2455 182.982 73.062C181.942 73.0661 181.117 72.1701 179.976 70.9226C180.752 71.1266 181.984 72.2904 183.198 72.9199C183.505 72.7146 183.807 72.5039 184.103 72.285C182.934 72.34 182.026 71.3543 180.757 69.9668C181.605 70.1898 182.956 71.4705 184.284 72.1504C184.373 72.0831 184.463 72.0178 184.551 71.9491L184.554 71.9471L184.556 71.9457C184.636 71.8859 184.753 71.8988 184.816 71.975C184.879 72.0511 184.865 72.1606 184.785 72.2211C184.687 72.2938 184.587 72.3631 184.488 72.4345C184.406 73.8703 184.883 75.6609 184.645 76.4733C184.055 74.7636 183.634 73.5344 184.23 72.6201C183.915 72.8404 183.593 73.0511 183.268 73.2564C183.196 74.5773 183.632 76.219 183.413 76.9655C182.866 75.3795 182.478 74.2428 183.043 73.3978C182.795 73.5508 182.545 73.701 182.293 73.8472C182.15 73.9301 182.005 74.0096 181.86 74.0905C181.861 75.3088 182.361 76.805 182.201 77.5045C181.59 76.0321 181.162 74.9886 181.71 74.1748C181.371 74.3604 181.028 74.5392 180.683 74.7119C180.688 75.8322 181.144 77.2041 180.997 77.8465C180.436 76.4923 180.042 75.5324 180.542 74.7826C180.244 74.9308 179.944 75.0763 179.643 75.2163C179.57 75.2503 179.496 75.2829 179.422 75.3169C179.503 76.3366 180.037 77.5331 179.955 78.1429C179.318 76.9498 178.878 76.1205 179.369 75.3407C179.076 75.474 178.782 75.6045 178.485 75.7309C178.558 76.6405 179.017 77.6976 178.976 78.2727C178.965 78.2714 178.954 78.2693 178.943 78.268C178.375 77.2061 177.994 76.457 178.431 75.7547C178.115 75.8886 177.799 76.0185 177.48 76.1436C177.584 76.8302 177.929 77.5895 178.037 78.1252C177.973 78.1137 177.906 78.1028 177.844 78.0905C177.383 77.3264 177.113 76.7465 177.41 76.1701C177.236 76.238 177.061 76.3067 176.885 76.372C176.783 76.41 176.68 76.4454 176.578 76.4828C176.65 76.9546 176.846 77.4644 176.983 77.8988C176.869 77.8696 176.756 77.8397 176.65 77.8084C176.403 77.323 176.304 76.9131 176.515 76.5059C176.234 76.6072 175.951 76.7044 175.666 76.7962C175.687 77.0239 175.742 77.2585 175.803 77.4882C175.686 77.4318 175.581 77.372 175.487 77.3101C175.488 77.1422 175.526 76.977 175.625 76.8091C175.573 76.8261 175.521 76.8444 175.468 76.8608C175.386 76.8852 175.302 76.909 175.218 76.9342Z" fill="#263238"/>
<path d="M202.851 62.745L202.849 62.7443L202.846 62.7436C202.747 62.7178 202.69 62.6213 202.717 62.5281C202.744 62.435 202.846 62.3806 202.945 62.4064C203.065 62.4377 203.183 62.4737 203.302 62.5071C204.575 61.7226 205.819 60.2997 206.653 60.002C205.544 61.4622 204.744 62.5091 203.613 62.5941C203.987 62.7049 204.357 62.8259 204.724 62.9537C205.588 62.418 206.435 61.5682 207.129 61.0502C207.128 61.2086 207.131 61.3575 207.131 61.5145C206.416 62.401 205.789 62.9904 204.978 63.0421C205.254 63.1413 205.53 63.2426 205.804 63.3493C205.959 63.4098 206.113 63.4731 206.267 63.5363C206.564 63.3296 206.855 63.0781 207.137 62.8177C207.14 63.0081 207.143 63.1971 207.147 63.384C206.925 63.5084 206.689 63.5845 206.427 63.6009C206.675 63.7035 206.918 63.8143 207.163 63.9238C207.166 64.0203 207.169 64.1148 207.172 64.2107C206.852 64.074 206.531 63.9415 206.206 63.8157C206.743 64.5744 206.424 65.6267 205.973 67.0917C205.752 66.4228 206.088 64.936 205.993 63.7355C205.892 63.6967 205.791 63.6566 205.689 63.6199C205.37 63.503 205.049 63.3935 204.727 63.2868C205.344 64.0788 205.067 65.2379 204.678 66.847C204.393 66.1345 204.658 64.505 204.478 63.2066C204.122 63.0931 203.763 62.987 203.402 62.8905C204.14 63.7511 203.836 65.0264 203.403 66.8157C203.092 66.0366 203.386 64.2474 203.181 62.8327C203.071 62.8021 202.962 62.7715 202.851 62.745Z" fill="#263238"/>
<path d="M207.291 67.0089C207.267 67.0892 207.243 67.1667 207.218 67.2503C207.091 66.8675 207.162 66.1945 207.214 65.4746C207.236 65.9987 207.262 66.5113 207.291 67.0089Z" fill="#263238"/>
<path d="M204.747 76.9545C204.834 76.8192 204.926 76.6853 205.016 76.5521C204.432 75.4664 203.272 74.3461 203.079 73.654C204.327 74.7057 205.209 75.4521 205.109 76.4127C205.323 76.102 205.543 75.7961 205.768 75.4936C205.228 74.4963 204.165 73.4684 203.988 72.8335C205.136 73.8009 205.947 74.4875 205.86 75.3699C206.055 75.1102 206.252 74.8526 206.455 74.5983C206.503 74.5364 206.554 74.4759 206.603 74.4141C206.044 73.5391 204.995 72.701 204.777 72.1224C205.916 72.9131 206.704 73.4644 206.639 74.3699C206.837 74.1258 207.037 73.8831 207.241 73.6438C206.725 72.8389 205.762 72.0694 205.561 71.5371C206.608 72.2631 207.333 72.7703 207.278 73.6003C207.423 73.4297 207.573 73.2625 207.721 73.0952C207.728 73.1891 207.734 73.2863 207.74 73.378C207.655 73.4793 207.568 73.5793 207.485 73.6812C207.576 73.6574 207.666 73.6445 207.758 73.6398C207.764 73.7411 207.768 73.8383 207.774 73.9375C207.632 73.9022 207.492 73.8695 207.353 73.8451C207.201 74.032 207.052 74.2203 206.904 74.41C207.193 74.3332 207.485 74.3488 207.795 74.4304C207.802 74.5711 207.81 74.7166 207.814 74.8532C207.469 74.7479 207.113 74.6472 206.768 74.5861C206.73 74.6357 206.69 74.6853 206.651 74.7356C206.454 74.9953 206.261 75.2584 206.072 75.5222C206.576 75.3638 207.145 75.4841 207.824 75.7417C207.824 75.8668 207.828 75.9994 207.825 76.1204C207.225 75.9906 206.541 75.8172 205.907 75.754C205.698 76.0504 205.494 76.3509 205.297 76.654C205.982 76.3577 206.772 76.5813 207.777 77.0048C207.769 77.0925 207.769 77.1918 207.759 77.2767C207.705 77.2835 207.65 77.2897 207.596 77.2965C206.864 77.1489 205.977 76.9056 205.178 76.8389C205.122 76.9273 205.064 77.015 205.009 77.1041C204.901 77.2781 204.799 77.4549 204.696 77.6303C204.561 77.6445 204.428 77.6588 204.294 77.6731C204.442 77.4317 204.592 77.1918 204.747 76.9545Z" fill="#263238"/>
<path d="M207.554 70.7834C207.562 70.8935 207.57 70.9928 207.578 71.1016C207.348 70.8745 207.156 70.6665 207.075 70.4863C207.246 70.591 207.404 70.6882 207.554 70.7834Z" fill="#263238"/>
<path d="M203.33 77.7714C203.118 77.7932 202.905 77.8149 202.692 77.8353C202.118 76.9726 201.51 76.1698 201.393 75.6191C202.259 76.4383 202.962 77.1106 203.33 77.7714Z" fill="#263238"/>
<path d="M204.054 77.6979C203.46 76.5497 202.408 75.3702 202.255 74.6523C203.501 75.8311 204.39 76.6782 204.291 77.6727C204.212 77.6809 204.133 77.6897 204.054 77.6979Z" fill="#263238"/>
<path d="M207.647 71.9999C207.66 72.1814 207.673 72.3616 207.686 72.5376C207.166 71.9591 206.484 71.4336 206.306 71.0332C206.881 71.3819 207.349 71.6722 207.647 71.9999Z" fill="#263238"/>
</g>
<path d="M157.764 55.3784L154.59 52.1914L150.193 58.0521C150.193 58.0521 153.904 60.5456 157.461 60.4457L157.869 59.585C158.531 58.1853 158.493 56.6381 157.764 55.3784Z" fill="#FFB573"/>
<path d="M149.5 52.497L148.258 54.7119C147.692 55.7214 148.091 56.9743 149.154 57.5188L150.191 58.0511L154.588 52.1904L152.074 51.4787C151.069 51.1932 149.992 51.6201 149.5 52.497Z" fill="#FFB573"/>
<path d="M174.54 43.935L174.273 45.2361L173.971 46.61C173.755 47.5264 173.544 48.4462 173.3 49.3544C172.832 51.177 172.277 52.9622 171.674 54.6889C171.05 56.4027 170.35 58.056 169.545 59.521C168.735 60.9717 167.801 62.2382 166.913 62.9907L168.439 62.279C168.887 62.2212 168.967 62.3504 168.735 62.3429C168.516 62.3429 168.098 62.2341 167.647 62.0478C166.729 61.6665 165.639 61.0594 164.588 60.3531C163.516 59.6576 162.443 58.867 161.368 58.0499C160.297 57.2423 159.203 56.3504 158.16 55.5421L158.05 55.4557C156.97 54.6189 155.377 54.7684 154.493 55.7909C153.836 56.5502 153.756 57.5788 154.2 58.4C154.936 59.7569 155.726 60.952 156.607 62.1709C157.487 63.3762 158.45 64.5428 159.533 65.6814C160.64 66.8018 161.822 67.9221 163.404 68.9323C164.204 69.434 165.099 69.9275 166.271 70.3171C166.858 70.5108 167.524 70.6699 168.294 70.7365C169.06 70.8045 169.941 70.7753 170.853 70.5625C171.355 70.4449 171.811 70.2402 172.207 69.9704L172.381 69.85C174.878 68.1362 176.517 66.0927 177.845 64.0771C178.502 63.0642 179.087 62.0438 179.616 61.0213C180.129 59.9948 180.594 58.9656 181.024 57.935C181.875 55.8758 182.553 53.7997 183.129 51.7181C183.409 50.6746 183.678 49.6318 183.899 48.5767C184.011 48.0499 184.12 47.521 184.217 46.9873C184.314 46.438 184.397 45.9472 184.49 45.3102C184.868 42.7072 182.946 40.3075 180.196 39.9492C177.544 39.6039 175.09 41.2851 174.58 43.7405L174.54 43.935Z" fill="#FFB573"/>
<path d="M181.427 36.7977C177.253 37.2063 173.91 39.8283 171.576 48.1845C173.371 50.536 184.682 55.6964 184.682 55.6964C184.682 55.6964 190.98 35.8623 181.427 36.7977Z" fill="#263238"/>
<path d="M114.495 72.63C115.085 72.74 115.57 73.035 115.95 73.515C116.33 73.995 116.52 74.545 116.52 75.165C116.52 75.725 116.38 76.22 116.1 76.65C115.83 77.07 115.435 77.4 114.915 77.64C114.395 77.88 113.78 78 113.07 78H108.555V67.53H112.875C113.585 67.53 114.195 67.645 114.705 67.875C115.225 68.105 115.615 68.425 115.875 68.835C116.145 69.245 116.28 69.71 116.28 70.23C116.28 70.84 116.115 71.35 115.785 71.76C115.465 72.17 115.035 72.46 114.495 72.63ZM110.655 71.85H112.575C113.075 71.85 113.46 71.74 113.73 71.52C114 71.29 114.135 70.965 114.135 70.545C114.135 70.125 114 69.8 113.73 69.57C113.46 69.34 113.075 69.225 112.575 69.225H110.655V71.85ZM112.77 76.29C113.28 76.29 113.675 76.17 113.955 75.93C114.245 75.69 114.39 75.35 114.39 74.91C114.39 74.46 114.24 74.11 113.94 73.86C113.64 73.6 113.235 73.47 112.725 73.47H110.655V76.29H112.77ZM119.258 68.7C118.888 68.7 118.578 68.585 118.328 68.355C118.088 68.115 117.968 67.82 117.968 67.47C117.968 67.12 118.088 66.83 118.328 66.6C118.578 66.36 118.888 66.24 119.258 66.24C119.628 66.24 119.933 66.36 120.173 66.6C120.423 66.83 120.548 67.12 120.548 67.47C120.548 67.82 120.423 68.115 120.173 68.355C119.933 68.585 119.628 68.7 119.258 68.7ZM120.293 69.69V78H118.193V69.69H120.293ZM124.468 66.9V78H122.368V66.9H124.468ZM128.643 66.9V78H126.543V66.9H128.643ZM131.783 68.7C131.413 68.7 131.103 68.585 130.853 68.355C130.613 68.115 130.493 67.82 130.493 67.47C130.493 67.12 130.613 66.83 130.853 66.6C131.103 66.36 131.413 66.24 131.783 66.24C132.153 66.24 132.458 66.36 132.698 66.6C132.948 66.83 133.073 67.12 133.073 67.47C133.073 67.82 132.948 68.115 132.698 68.355C132.458 68.585 132.153 68.7 131.783 68.7ZM132.818 69.69V78H130.718V69.69H132.818ZM139.497 69.57C140.487 69.57 141.287 69.885 141.897 70.515C142.507 71.135 142.812 72.005 142.812 73.125V78H140.712V73.41C140.712 72.75 140.547 72.245 140.217 71.895C139.887 71.535 139.437 71.355 138.867 71.355C138.287 71.355 137.827 71.535 137.487 71.895C137.157 72.245 136.992 72.75 136.992 73.41V78H134.892V69.69H136.992V70.725C137.272 70.365 137.627 70.085 138.057 69.885C138.497 69.675 138.977 69.57 139.497 69.57ZM148.064 69.555C148.684 69.555 149.229 69.68 149.699 69.93C150.169 70.17 150.539 70.485 150.809 70.875V69.69H152.924V78.06C152.924 78.83 152.769 79.515 152.459 80.115C152.149 80.725 151.684 81.205 151.064 81.555C150.444 81.915 149.694 82.095 148.814 82.095C147.634 82.095 146.664 81.82 145.904 81.27C145.154 80.72 144.729 79.97 144.629 79.02H146.714C146.824 79.4 147.059 79.7 147.419 79.92C147.789 80.15 148.234 80.265 148.754 80.265C149.364 80.265 149.859 80.08 150.239 79.71C150.619 79.35 150.809 78.8 150.809 78.06V76.77C150.539 77.16 150.164 77.485 149.684 77.745C149.214 78.005 148.674 78.135 148.064 78.135C147.364 78.135 146.724 77.955 146.144 77.595C145.564 77.235 145.104 76.73 144.764 76.08C144.434 75.42 144.269 74.665 144.269 73.815C144.269 72.975 144.434 72.23 144.764 71.58C145.104 70.93 145.559 70.43 146.129 70.08C146.709 69.73 147.354 69.555 148.064 69.555ZM150.809 73.845C150.809 73.335 150.709 72.9 150.509 72.54C150.309 72.17 150.039 71.89 149.699 71.7C149.359 71.5 148.994 71.4 148.604 71.4C148.214 71.4 147.854 71.495 147.524 71.685C147.194 71.875 146.924 72.155 146.714 72.525C146.514 72.885 146.414 73.315 146.414 73.815C146.414 74.315 146.514 74.755 146.714 75.135C146.924 75.505 147.194 75.79 147.524 75.99C147.864 76.19 148.224 76.29 148.604 76.29C148.994 76.29 149.359 76.195 149.699 76.005C150.039 75.805 150.309 75.525 150.509 75.165C150.709 74.795 150.809 74.355 150.809 73.845Z" fill="#407BFF"/>
</svg>
