<svg width="269" height="284" viewBox="0 0 269 284" fill="none" xmlns="http://www.w3.org/2000/svg">
<path d="M95.6624 112.76C72.5474 56.5977 11.6865 60.0068 0 81.3078V284H268.957C269.624 271.02 262.439 230.023 257.437 214.106C244.415 172.669 205.849 165.68 183.311 161.187C160.773 156.694 119.703 171.171 95.6624 112.76Z" fill="#222222"/>
<path d="M127.728 57.0585L132.146 54.3999C134.296 55.4839 136.635 56.2331 139.088 56.5832L141.192 61.2877C141.265 61.4528 141.436 61.5527 141.616 61.5368L147.777 60.9911C147.957 60.9751 148.107 60.8466 148.151 60.6713L149.394 55.6702C151.748 54.8943 153.918 53.7459 155.845 52.3005L160.662 54.1412C160.83 54.2057 161.022 54.156 161.138 54.0174L165.108 49.2749C165.224 49.1363 165.24 48.9393 165.146 48.7845L162.488 44.3662C163.572 42.2159 164.321 39.8772 164.671 37.4239L169.376 35.3206C169.541 35.2469 169.641 35.0766 169.625 34.8965L169.079 28.7353C169.063 28.5552 168.935 28.4051 168.759 28.3615L163.758 27.118C162.982 24.7643 161.834 22.5937 160.389 20.6676L162.229 15.8505C162.294 15.6817 162.244 15.4906 162.105 15.3746L157.363 11.4039C157.224 11.2878 157.027 11.2725 156.873 11.3657L152.454 14.0244C150.304 12.9402 147.965 12.1912 145.512 11.8411L143.409 7.13649C143.335 6.97152 143.165 6.8715 142.984 6.88739L136.823 7.43319C136.643 7.44909 136.493 7.57753 136.449 7.75298L135.206 12.754C132.852 13.5299 130.682 14.6783 128.755 16.1236L123.939 14.283C123.77 14.2184 123.578 14.2682 123.462 14.4068L119.492 19.1493C119.376 19.2879 119.36 19.4848 119.453 19.6397L122.112 24.0581C121.028 26.2084 120.279 28.5471 119.929 31.0004L115.224 33.1037C115.059 33.1774 114.959 33.3478 114.975 33.5278L115.521 39.6889C115.537 39.869 115.665 40.0191 115.841 40.0627L120.842 41.3063C121.618 43.6598 122.766 45.8304 124.211 47.7567L122.371 52.5736C122.306 52.7424 122.356 52.9335 122.495 53.0497L127.237 57.0204C127.376 57.1363 127.573 57.1517 127.728 57.0585Z" fill="#3A6FE5"/>
<path d="M140.751 39.9164C138.935 39.4201 137.384 38.0683 136.718 36.1602C135.644 33.0816 137.275 29.7036 140.354 28.6298C141.845 28.1098 143.449 28.2012 144.872 28.8878C146.294 29.5744 147.364 30.774 147.884 32.2653C148.404 33.7565 148.312 35.361 147.626 36.7833C146.939 38.2054 145.74 39.2753 144.248 39.7954L144.248 39.7955C143.078 40.2036 141.865 40.2208 140.751 39.9164ZM143.628 29.3163C142.648 29.0485 141.611 29.082 140.631 29.424C137.99 30.3451 136.591 33.2425 137.512 35.8831C138.434 38.5237 141.331 39.9222 143.971 39.0011L143.971 39.0013C146.612 38.08 148.011 35.1825 147.09 32.5424C146.643 31.2631 145.726 30.2343 144.506 29.6454C144.221 29.5078 143.927 29.3981 143.628 29.3163Z" fill="#91B3FA"/>
<g opacity="0.64">
<path d="M116.447 56.3414C116.245 56.2862 116.057 56.1705 115.914 55.997C115.546 55.5518 115.186 55.0923 114.843 54.6309C114.497 54.1648 114.594 53.5062 115.06 53.1598C115.526 52.8131 116.185 52.9107 116.531 53.3766C116.853 53.8092 117.19 54.2402 117.535 54.6576C117.905 55.1055 117.842 55.7683 117.394 56.1379C117.12 56.3645 116.765 56.4285 116.447 56.3414Z" fill="white"/>
<path d="M112.456 50.2393C112.18 50.1637 111.935 49.9759 111.795 49.6996C111.261 48.644 110.775 47.5462 110.351 46.4366C110.144 45.8941 110.416 45.2863 110.958 45.0792C111.5 44.872 112.109 45.1436 112.316 45.6862C112.714 46.7282 113.17 47.7589 113.671 48.7502C113.934 49.2683 113.726 49.9008 113.208 50.1631C112.966 50.2856 112.699 50.3056 112.456 50.2393ZM109.498 41.679C109.126 41.5773 108.824 41.2743 108.743 40.8703C108.51 39.7055 108.337 38.5169 108.228 37.3373C108.175 36.7592 108.6 36.247 109.179 36.1936C109.756 36.1405 110.269 36.566 110.322 37.144C110.425 38.2504 110.587 39.3654 110.805 40.4583C110.919 41.0279 110.55 41.5816 109.98 41.6954C109.815 41.7286 109.65 41.7207 109.498 41.679ZM108.959 32.6376C108.481 32.5072 108.149 32.0524 108.189 31.5409C108.282 30.3598 108.439 29.1693 108.655 28.002C108.761 27.431 109.31 27.0541 109.881 27.16C110.45 27.2664 110.829 27.8146 110.723 28.3856C110.52 29.4809 110.373 30.598 110.286 31.7059C110.24 32.2849 109.734 32.7173 109.155 32.6717C109.087 32.6664 109.022 32.6549 108.959 32.6376ZM110.901 23.792C110.872 23.7841 110.843 23.7748 110.814 23.7642C110.269 23.5637 109.99 22.9592 110.191 22.4143C110.6 21.3011 111.073 20.1975 111.595 19.1338C111.851 18.6127 112.482 18.3975 113.003 18.6537C113.524 18.9095 113.739 19.5398 113.483 20.061C112.992 21.0595 112.549 22.0955 112.164 23.1405C111.974 23.6567 111.422 23.9343 110.901 23.792ZM115.153 15.7967C115.035 15.7644 114.92 15.7108 114.815 15.635C114.344 15.2951 114.238 14.6377 114.578 14.1669C115.272 13.2049 116.025 12.2695 116.814 11.3864C117.201 10.9536 117.866 10.9155 118.299 11.3036C118.732 11.6906 118.769 12.3552 118.382 12.7883C117.641 13.6169 116.935 14.4948 116.283 15.3976C116.019 15.7633 115.564 15.909 115.153 15.7967ZM121.405 9.24831C121.197 9.19132 121.004 9.0699 120.859 8.88777C120.498 8.43295 120.574 7.77157 121.029 7.41052C121.958 6.67329 122.936 5.97766 123.936 5.34274C124.426 5.03149 125.076 5.17608 125.388 5.66683C125.699 6.15725 125.554 6.80705 125.064 7.11822C124.125 7.71382 123.208 8.36641 122.336 9.05798C122.064 9.27427 121.717 9.33354 121.405 9.24831ZM129.203 4.64778C128.902 4.56534 128.64 4.34981 128.51 4.03899C128.286 3.503 128.538 2.88719 129.074 2.66312C129.714 2.39567 130.374 2.14286 131.035 1.91194C131.496 1.75103 131.966 1.59824 132.432 1.45771C132.988 1.28902 133.574 1.60391 133.742 2.16011C133.91 2.71597 133.596 3.30277 133.04 3.47061C132.602 3.60286 132.161 3.74643 131.728 3.89761C131.106 4.1145 130.487 4.35209 129.885 4.60331C129.661 4.69742 129.421 4.70739 129.203 4.64778ZM137.954 2.31323C137.555 2.20424 137.242 1.86442 137.187 1.42888C137.116 0.852469 137.524 0.327043 138.101 0.255172C139.278 0.108385 140.476 0.0225632 141.662 0.000156262C142.244 -0.00973662 142.722 0.45134 142.733 1.03172C142.744 1.61227 142.282 2.09195 141.701 2.10303C140.589 2.124 139.465 2.20432 138.361 2.34215C138.22 2.35974 138.083 2.34849 137.954 2.31323Z" fill="white"/>
<path d="M147.025 2.44058C146.517 2.30166 146.183 1.80067 146.264 1.2673C146.352 0.693255 146.889 0.299404 147.463 0.387256C148.028 0.473924 148.603 0.57708 149.17 0.693596C149.736 0.81045 150.105 1.3664 149.988 1.93553C149.871 2.50433 149.315 2.87062 148.746 2.75368C148.214 2.64402 147.675 2.5472 147.144 2.46586C147.104 2.45969 147.064 2.45115 147.025 2.44058Z" fill="white"/>
</g>
<g opacity="0.64">
<path d="M170.215 17.7577C169.968 17.69 169.744 17.532 169.598 17.2963C169.316 16.839 169.016 16.3807 168.707 15.9339C168.377 15.4561 168.497 14.8014 168.974 14.4712C169.452 14.1405 170.107 14.2599 170.437 14.7383C170.766 15.2142 171.086 15.7027 171.387 16.1904C171.693 16.6844 171.54 17.3324 171.046 17.6377C170.787 17.7975 170.487 17.8318 170.215 17.7577Z" fill="white"/>
<path d="M141.017 68.38C140.559 68.2548 140.229 67.829 140.244 67.3334C140.262 66.753 140.746 66.2969 141.327 66.3145C142.421 66.3482 143.529 66.3247 144.621 66.2448C145.2 66.2023 145.704 66.6376 145.746 67.2167C145.789 67.7959 145.353 68.2997 144.774 68.342C143.61 68.4272 142.428 68.4523 141.262 68.4166C141.177 68.4141 141.095 68.4014 141.017 68.38ZM149.88 67.4456C149.524 67.3482 149.229 67.0655 149.135 66.6812C148.997 66.1171 149.342 65.5478 149.906 65.4096C150.902 65.1652 151.902 64.869 152.876 64.5291L153.064 64.4631C153.611 64.2685 154.213 64.5539 154.407 65.1011C154.602 65.6482 154.317 66.2496 153.77 66.4443L153.569 66.5151C152.531 66.8767 151.468 67.192 150.407 67.4521C150.227 67.4961 150.047 67.4912 149.88 67.4456ZM158.175 64.1932C157.912 64.1213 157.677 63.9473 157.533 63.69C157.251 63.1824 157.434 62.5421 157.942 62.2598C158.898 61.7281 159.837 61.1406 160.733 60.5139C161.209 60.1808 161.864 60.2962 162.197 60.7723C162.53 61.2481 162.414 61.9037 161.939 62.2367C160.984 62.905 159.983 63.5311 158.964 64.0979C158.714 64.237 158.431 64.2632 158.175 64.1932ZM165.301 58.853C165.129 58.8059 164.966 58.7138 164.831 58.5774C164.423 58.1641 164.428 57.4982 164.841 57.0902C165.62 56.3221 166.367 55.5042 167.064 54.6591C167.433 54.2107 168.095 54.1466 168.544 54.5162C168.992 54.8855 169.056 55.5483 168.687 55.9964C167.945 56.8969 167.148 57.7688 166.318 58.5874C166.041 58.8605 165.651 58.9487 165.301 58.853ZM170.746 51.8005C170.661 51.7772 170.577 51.743 170.497 51.6968C169.994 51.4066 169.822 50.7638 170.111 50.2607C170.658 49.3127 171.162 48.3251 171.61 47.325C171.847 46.7951 172.47 46.5572 172.999 46.7949C173.529 47.0322 173.766 47.6543 173.529 48.1843C173.052 49.2492 172.515 50.3013 171.933 51.3109C171.689 51.7342 171.196 51.9235 170.746 51.8005ZM174.123 43.5549C173.569 43.4033 173.238 42.8332 173.383 42.2753C173.659 41.2169 173.883 40.1311 174.049 39.0485C174.137 38.4744 174.674 38.0803 175.248 38.1682C175.826 38.2566 176.216 38.7925 176.128 39.3667C175.951 40.5205 175.713 41.6777 175.419 42.806C175.272 43.3679 174.698 43.7046 174.136 43.5582C174.132 43.5571 174.127 43.556 174.123 43.5549ZM175.187 34.7087C174.747 34.5885 174.421 34.1898 174.413 33.711C174.396 32.617 174.321 31.511 174.191 30.4233C174.122 29.8468 174.533 29.3233 175.11 29.2542C175.686 29.1844 176.21 29.5964 176.279 30.173C176.418 31.3322 176.498 32.5114 176.516 33.6777C176.525 34.2584 176.062 34.7365 175.482 34.7458C175.379 34.7473 175.281 34.7343 175.187 34.7087ZM173.845 25.8993C173.504 25.8063 173.219 25.5441 173.112 25.1809C172.961 24.6676 172.795 24.149 172.617 23.6395C172.434 23.1138 172.234 22.585 172.023 22.0682C171.804 21.5303 172.062 20.9166 172.6 20.6973C173.138 20.4779 173.751 20.7365 173.971 21.274C174.195 21.8244 174.408 22.3873 174.603 22.9469C174.792 23.4892 174.969 24.0414 175.13 24.5881C175.293 25.1453 174.974 25.7299 174.417 25.8933C174.223 25.9504 174.026 25.9489 173.845 25.8993Z" fill="white"/>
<path d="M133.871 67.3706C133.319 67.2197 132.988 66.6536 133.13 66.0967C133.273 65.534 133.845 65.1942 134.408 65.3375C134.93 65.4706 135.464 65.5922 135.995 65.6991C136.566 65.8162 136.933 66.3681 136.819 66.9373C136.704 67.5069 136.15 67.8755 135.58 67.7607C135.014 67.6468 134.445 67.517 133.889 67.3752C133.883 67.3739 133.877 67.3722 133.871 67.3706Z" fill="white"/>
</g>
<path d="M140.329 49.4305C140.13 49.3762 139.997 49.1831 140.023 48.9729C140.025 48.9527 140.029 48.9329 140.035 48.9139C140.089 48.7152 140.282 48.5814 140.492 48.6076C141.509 48.7345 142.548 48.7522 143.58 48.6612C150.958 48.0075 156.569 41.909 156.798 34.6843C156.817 34.1072 156.801 33.5228 156.748 32.9335C156.043 24.9673 148.988 19.0611 141.021 19.7656C137.162 20.1076 133.667 21.9316 131.18 24.9023C129.817 26.5298 128.847 28.3944 128.303 30.3824C127.855 32.0234 127.698 33.7483 127.853 35.4932C128.085 38.1123 129.02 40.6147 130.558 42.7302C130.636 42.8378 130.655 42.9699 130.623 43.0887C130.599 43.1777 130.545 43.2593 130.465 43.3177C130.277 43.4544 130.014 43.4125 129.877 43.2246C128.25 40.9861 127.261 38.338 127.015 35.5674C126.852 33.7213 127.018 31.8963 127.492 30.1604C128.066 28.0569 129.093 26.084 130.535 24.3622C133.166 21.2194 136.864 19.2894 140.947 18.9277C149.376 18.181 156.84 24.4312 157.587 32.8593C157.752 34.7216 157.575 36.5369 157.109 38.2428C155.465 44.2585 150.221 48.9174 143.655 49.499C142.651 49.5878 141.642 49.5788 140.649 49.4726C140.619 49.4695 140.589 49.4661 140.559 49.4628C140.502 49.4562 140.445 49.4496 140.388 49.4423C140.368 49.4398 140.348 49.4358 140.329 49.4305Z" fill="#91B3FA"/>
<g opacity="0.64">
<path d="M8.27082 59.232C8.06772 59.0472 7.96118 58.7654 8.01301 58.4752C8.09156 58.0354 8.17586 57.5962 8.26566 57.1574C8.35723 56.7106 8.7937 56.4225 9.24057 56.514C9.68753 56.6053 9.97535 57.042 9.88395 57.489C9.79686 57.9141 9.71518 58.3396 9.63916 58.7655C9.55901 59.2146 9.12998 59.5137 8.68099 59.4334C8.52194 59.4051 8.38184 59.333 8.27082 59.232Z" fill="white"/>
<path d="M9.53052 53.8474C9.30451 53.6419 9.20186 53.3184 9.29275 53.0053C9.53703 52.1654 9.80532 51.3211 10.0903 50.4963C10.2393 50.0651 10.7096 49.8362 11.1406 49.9852C11.5715 50.1351 11.8006 50.6045 11.6517 51.0356C11.3754 51.8347 11.1156 52.6527 10.879 53.4665C10.7517 53.9045 10.2933 54.1565 9.8553 54.029C9.73049 53.9927 9.62066 53.9294 9.53052 53.8474ZM11.8493 47.455C11.5942 47.2231 11.5028 46.8459 11.6488 46.5125C11.9995 45.7122 12.3749 44.9099 12.7645 44.128C12.9677 43.7197 13.4637 43.5538 13.8718 43.7571C14.2794 43.96 14.4462 44.4565 14.2428 44.8646C13.8653 45.6224 13.5015 46.3999 13.1617 47.1755C12.9786 47.5933 12.4915 47.7835 12.0738 47.6006C11.9891 47.5634 11.9139 47.5138 11.8493 47.455ZM14.9725 41.4144C14.6871 41.1547 14.6148 40.7217 14.8211 40.3784C15.2727 39.627 15.7471 38.8791 16.2316 38.1555C16.4854 37.7765 16.9982 37.6749 17.3774 37.9287C17.7565 38.183 17.858 38.6955 17.6043 39.0745C17.1349 39.7759 16.6747 40.5009 16.237 41.2292C16.002 41.6201 15.4946 41.7466 15.1036 41.5117C15.056 41.4831 15.0122 41.4504 14.9725 41.4144ZM18.8417 35.8217C18.5232 35.5321 18.4793 35.0411 18.7505 34.6985C19.2928 34.0134 19.8596 33.3327 20.4354 32.6753C20.7358 32.3321 21.2576 32.2974 21.6008 32.598C21.9501 32.8987 21.9785 33.4202 21.6781 33.7634C21.1202 34.4005 20.571 35.0601 20.0456 35.7238C19.7624 36.0814 19.243 36.1419 18.8854 35.8587C18.8703 35.8468 18.8556 35.8343 18.8417 35.8217ZM23.4007 30.7775C23.3879 30.7659 23.3756 30.754 23.3635 30.7415C23.0456 30.4144 23.0531 29.8915 23.3804 29.5736C24.0071 28.9646 24.6589 28.3621 25.3177 27.7831C25.6601 27.482 26.1819 27.5141 26.4833 27.8581C26.7844 28.2008 26.7508 28.7225 26.4083 29.0237C25.7702 29.5848 25.1385 30.1684 24.5313 30.7583C24.2165 31.0641 23.7209 31.0687 23.4007 30.7775ZM28.5809 26.365C28.5421 26.3297 28.5062 26.2902 28.4737 26.2465C28.2013 25.8807 28.2769 25.3634 28.6428 25.0909C29.344 24.5686 30.0682 24.0566 30.795 23.5692C31.1736 23.3153 31.6864 23.4171 31.941 23.7952C32.195 24.1741 32.0939 24.6873 31.715 24.9412C31.0107 25.4135 30.3089 25.9095 29.6293 26.4157C29.3072 26.6556 28.8674 26.6255 28.5809 26.365ZM34.2886 22.6639C34.2244 22.6054 34.1684 22.5359 34.1236 22.456C33.9008 22.058 34.043 21.5548 34.441 21.332C35.2026 20.9058 35.9865 20.4922 36.7709 20.1027C37.1794 19.8999 37.6752 20.0675 37.8779 20.4751C38.0808 20.8837 37.914 21.3792 37.5055 21.5821C36.7453 21.9597 35.9856 22.3605 35.2475 22.7735C34.9295 22.9514 34.5442 22.8964 34.2886 22.6639ZM40.4257 19.7332C40.3363 19.6518 40.2632 19.5494 40.2153 19.4295C40.0458 19.006 40.2516 18.5253 40.6751 18.3558C41.4858 18.0313 42.3161 17.7223 43.1428 17.4375C43.5743 17.2889 44.0436 17.5176 44.1927 17.9494C44.3413 18.3806 44.1122 18.8506 43.6808 18.9993C42.8796 19.2753 42.0748 19.5749 41.289 19.8893C40.9855 20.0108 40.6524 19.9394 40.4257 19.7332ZM46.8883 17.6177C46.7732 17.5131 46.6865 17.3748 46.6448 17.2131C46.5312 16.7713 46.7971 16.321 47.2387 16.2073C48.0835 15.9898 48.9461 15.7902 49.8028 15.6139C50.2495 15.5216 50.6863 15.8096 50.7782 16.2563C50.8701 16.703 50.5825 17.1398 50.1357 17.2317C49.3053 17.4027 48.4692 17.5963 47.6506 17.8071C47.3706 17.8789 47.0872 17.7986 46.8883 17.6177ZM53.5684 16.3503C53.4274 16.2222 53.3299 16.0449 53.3048 15.841C53.2487 15.3884 53.5703 14.9758 54.023 14.9199C54.8892 14.8127 55.7702 14.7257 56.6411 14.661C57.0958 14.6275 57.4918 14.9688 57.5259 15.4238C57.5595 15.8787 57.218 16.2748 56.7632 16.3086C55.9192 16.3711 55.0655 16.4554 54.2259 16.5593C53.9771 16.5901 53.7404 16.5068 53.5684 16.3503ZM60.3547 15.9537C60.1872 15.8014 60.0827 15.5814 60.0843 15.3375C60.0872 14.8813 60.4592 14.5139 60.9153 14.5166C61.7865 14.5221 62.6707 14.5494 63.5436 14.5977C63.9986 14.6231 64.3475 15.0125 64.3225 15.4682C64.2971 15.9235 63.9074 16.2723 63.452 16.2471C62.6061 16.2002 61.7494 16.1738 60.9053 16.1686C60.6931 16.167 60.5 16.0859 60.3547 15.9537ZM67.1332 16.4369C66.9385 16.2599 66.8316 15.9934 66.87 15.7133C66.932 15.2614 67.3486 14.9451 67.8004 15.0072C68.6638 15.1255 69.5364 15.2673 70.3941 15.4283C70.8426 15.5124 71.1376 15.9443 71.0534 16.3924C70.9691 16.8407 70.5376 17.1359 70.0893 17.0516C69.2582 16.8956 68.4125 16.7583 67.5761 16.6436C67.4043 16.6202 67.2522 16.5452 67.1332 16.4369ZM73.7881 17.796C73.5657 17.5936 73.4621 17.2768 73.5468 16.9668C73.667 16.5268 74.1212 16.2676 74.5613 16.3877C75.4044 16.6182 76.2528 16.8726 77.0825 17.1444C77.5164 17.2859 77.7523 17.7527 77.6106 18.1862C77.4687 18.6198 77.0022 18.8562 76.5688 18.7142C75.7648 18.4511 74.943 18.2044 74.1259 17.9812C73.9958 17.9456 73.8814 17.8809 73.7881 17.796ZM80.215 20.0101C79.9637 19.7816 79.8702 19.4111 80.0092 19.0798C80.1855 18.6592 80.6695 18.461 81.0901 18.6374C81.8963 18.9753 82.7041 19.3375 83.4917 19.714C83.9034 19.9106 84.0772 20.4039 83.8804 20.8154C83.6836 21.2269 83.1906 21.401 82.7791 21.2042C82.0159 20.8393 81.2329 20.4884 80.4516 20.1608C80.3622 20.1233 80.2829 20.0719 80.215 20.0101ZM103.102 38.4854C103.057 38.4441 103.015 38.3974 102.979 38.3449C102.495 37.6482 101.988 36.9555 101.472 36.2862C101.194 35.925 101.261 35.4063 101.622 35.1278C101.983 34.8494 102.502 34.9162 102.78 35.2778C103.313 35.9686 103.836 36.6834 104.335 37.4025C104.596 37.7771 104.503 38.2918 104.128 38.5519C103.806 38.7759 103.38 38.7386 103.102 38.4854ZM86.3022 23.0348C86.0208 22.7789 85.9455 22.3532 86.1437 22.0106C86.3721 21.6159 86.8773 21.4809 87.2723 21.7094L87.563 21.8792C88.2183 22.2645 88.8766 22.6702 89.5175 23.0844C89.9017 23.3329 90.0105 23.8433 89.763 24.2264C89.5154 24.6096 89.0042 24.7195 88.6211 24.4719C87.9996 24.0703 87.3615 23.6768 86.7243 23.3024L86.445 23.1393C86.3928 23.109 86.345 23.0738 86.3022 23.0348ZM98.8677 33.1647C98.8483 33.147 98.8294 33.1283 98.8116 33.1086C98.242 32.4817 97.6491 31.861 97.0497 31.2638C96.7266 30.9418 96.7256 30.4188 97.0475 30.0956C97.3694 29.7725 97.8938 29.7752 98.2154 30.0934C98.8343 30.71 99.4461 31.3507 100.034 31.9976C100.341 32.3352 100.316 32.8575 99.9783 33.1643C99.6604 33.453 99.1791 33.4479 98.8677 33.1647ZM91.9563 26.813C91.6422 26.5273 91.5943 26.0438 91.857 25.7006C92.1343 25.3383 92.6527 25.2695 93.0149 25.5468C93.7079 26.0776 94.3978 26.6331 95.0652 27.1984C95.4103 27.4931 95.4565 28.0144 95.1616 28.3624C94.867 28.7104 94.3456 28.7537 93.9976 28.4588C93.3508 27.9111 92.6823 27.3725 92.0106 26.8584C91.9919 26.8439 91.9736 26.8287 91.9563 26.813Z" fill="white"/>
<path d="M106.025 43.2141C105.959 43.1541 105.902 43.0824 105.857 42.9998C105.649 42.6199 105.436 42.2424 105.218 41.8675C104.989 41.4731 105.123 40.9676 105.518 40.7386C105.912 40.5097 106.418 40.6442 106.647 41.038C106.871 41.4249 107.091 41.8144 107.306 42.2063C107.525 42.6064 107.378 43.1084 106.978 43.3274C106.661 43.5013 106.279 43.4448 106.025 43.2141Z" fill="white"/>
</g>
<g opacity="0.64">
<path d="M113.555 83.8243C113.328 83.6178 113.225 83.2927 113.318 82.9786C113.441 82.5624 113.559 82.1454 113.671 81.7276C113.789 81.2869 114.242 81.0255 114.683 81.1436C115.123 81.2617 115.384 81.7147 115.267 82.1554C115.151 82.5867 115.029 83.0173 114.902 83.447C114.773 83.8843 114.314 84.1341 113.876 84.0049C113.753 83.9683 113.644 83.9055 113.555 83.8243Z" fill="white"/>
<path d="M27.8798 107.875C27.5431 107.568 27.5176 107.047 27.8233 106.709C28.1294 106.371 28.6516 106.345 28.9899 106.651C29.6416 107.241 30.3185 107.823 31.0022 108.381C31.3554 108.667 31.4082 109.189 31.12 109.543C30.8316 109.896 30.3114 109.949 29.9578 109.661C29.2526 109.085 28.5539 108.485 27.8813 107.876C27.8808 107.875 27.8803 107.875 27.8798 107.875ZM24.76 104.802C24.7433 104.787 24.7269 104.771 24.7112 104.754C24.0911 104.09 23.48 103.4 22.8948 102.704C22.6012 102.355 22.6461 101.834 22.9953 101.541C23.3443 101.247 23.8651 101.292 24.1591 101.641C24.7259 102.315 25.318 102.983 25.9187 103.627C26.2299 103.96 26.212 104.483 25.8785 104.794C25.5619 105.09 25.0747 105.088 24.76 104.802ZM33.4297 112.256C33.1292 111.982 33.0691 111.522 33.3052 111.178C33.5632 110.802 34.0772 110.706 34.4534 110.964C35.1792 111.462 35.9281 111.948 36.6796 112.409C37.0676 112.648 37.1901 113.156 36.9517 113.545C36.7132 113.933 36.2046 114.055 35.8158 113.817C35.0405 113.341 34.2679 112.84 33.5192 112.326C33.4873 112.304 33.4574 112.281 33.4297 112.256ZM20.2958 99.317C20.2522 99.2772 20.2121 99.2324 20.1767 99.182C19.6529 98.4411 19.1409 97.6752 18.6542 96.9057C18.4105 96.5203 18.5256 96.0101 18.9111 95.7663C19.2967 95.5228 19.8058 95.6383 20.0506 96.0232C20.5218 96.7687 21.0181 97.5107 21.5254 98.2286C21.7888 98.6012 21.7002 99.1163 21.3278 99.3796C21.0055 99.6075 20.5761 99.5719 20.2958 99.317ZM39.5151 115.859C39.2473 115.615 39.163 115.214 39.3343 114.875C39.5403 114.468 40.0371 114.305 40.4441 114.511C41.2306 114.909 42.037 115.292 42.8409 115.648C43.2584 115.833 43.4462 116.32 43.2613 116.738C43.0766 117.155 42.5885 117.343 42.1715 117.158C41.3421 116.79 40.51 116.396 39.6985 115.985C39.6304 115.951 39.5691 115.908 39.5151 115.859ZM46.0241 118.62C45.787 118.404 45.6879 118.06 45.7994 117.738C45.9488 117.307 46.4193 117.079 46.8502 117.228C47.6815 117.516 48.532 117.787 49.3779 118.032C49.8165 118.159 50.0685 118.616 49.9415 119.055C49.8146 119.493 49.3566 119.745 48.9186 119.618C48.0453 119.365 47.1673 119.086 46.3093 118.789C46.2004 118.751 46.1043 118.693 46.0241 118.62ZM52.8462 120.477C52.6386 120.288 52.5326 119.998 52.5917 119.703C52.6814 119.256 53.1166 118.966 53.5639 119.056C54.4261 119.229 55.3037 119.381 56.1725 119.509C56.6238 119.576 56.9358 119.996 56.8692 120.447C56.8027 120.898 56.383 121.21 55.9318 121.143C55.0351 121.011 54.1292 120.854 53.2393 120.676C53.0871 120.645 52.9531 120.575 52.8462 120.477ZM59.8518 121.394C59.6728 121.231 59.5666 120.991 59.5829 120.731C59.6113 120.275 60.0035 119.93 60.4587 119.958C61.3345 120.013 62.2254 120.046 63.1069 120.055C63.5631 120.06 63.9287 120.434 63.9236 120.89C63.9187 121.346 63.5448 121.712 63.0887 121.707C62.179 121.697 61.2594 121.663 60.3556 121.607C60.1606 121.594 59.9858 121.516 59.8518 121.394ZM66.919 121.358C66.7678 121.22 66.6671 121.027 66.6511 120.807C66.6182 120.352 66.9604 119.956 67.4153 119.923C68.2918 119.86 69.1797 119.773 70.0541 119.664C70.5071 119.608 70.9193 119.93 70.9756 120.382C71.0317 120.835 70.7104 121.247 70.2576 121.303C69.3552 121.415 68.439 121.505 67.5344 121.571C67.2995 121.588 67.0804 121.505 66.919 121.358ZM73.9194 120.375C73.7953 120.262 73.7043 120.11 73.6673 119.934C73.5738 119.487 73.8598 119.05 74.3065 118.956C75.1674 118.776 76.036 118.571 76.8882 118.346C77.3291 118.23 77.7813 118.494 77.8972 118.935C78.0134 119.376 77.7499 119.827 77.3088 119.944C76.4295 120.175 75.5332 120.387 74.6449 120.573C74.3753 120.629 74.1088 120.547 73.9194 120.375ZM80.7276 118.466C80.6301 118.377 80.5526 118.264 80.5054 118.131C80.353 117.701 80.5782 117.229 81.0082 117.077C81.8383 116.782 82.6721 116.463 83.4864 116.127C83.9081 115.953 84.3903 116.154 84.5649 116.575C84.739 116.997 84.5381 117.48 84.1166 117.654C83.2764 118 82.4163 118.33 81.5596 118.634C81.2628 118.739 80.9454 118.664 80.7276 118.466ZM87.2206 115.664C87.1494 115.599 87.0884 115.521 87.042 115.43C86.8335 115.024 86.9934 114.526 87.399 114.318C88.1814 113.916 88.9651 113.488 89.7284 113.044C90.1227 112.816 90.6287 112.95 90.8573 113.344C91.0862 113.738 90.9522 114.244 90.5577 114.473C89.77 114.93 88.9613 115.372 88.1539 115.787C87.839 115.949 87.468 115.889 87.2206 115.664ZM93.2797 112.015C93.235 111.974 93.194 111.928 93.158 111.876C92.8967 111.502 92.9881 110.987 93.3621 110.726C94.0849 110.221 94.8039 109.69 95.4994 109.149C95.8589 108.869 96.3779 108.932 96.6584 109.293C96.9387 109.653 96.874 110.172 96.5141 110.452C95.7965 111.011 95.0541 111.559 94.308 112.08C93.9856 112.305 93.5588 112.268 93.2797 112.015ZM98.7912 107.579C98.7732 107.563 98.756 107.546 98.7394 107.528C98.4299 107.193 98.4507 106.67 98.7858 106.361C99.4324 105.764 100.072 105.142 100.687 104.512C101.006 104.186 101.521 104.177 101.855 104.498C102.182 104.816 102.188 105.339 101.869 105.666C101.234 106.316 100.574 106.958 99.9067 107.574C99.5894 107.867 99.1045 107.864 98.7912 107.579ZM103.647 102.441C103.324 102.146 103.285 101.646 103.567 101.304C104.125 100.627 104.675 99.9242 105.202 99.2148C105.474 98.8486 105.991 98.7719 106.357 99.0437C106.725 99.3172 106.8 99.8329 106.528 100.199C105.985 100.931 105.418 101.657 104.841 102.356C104.551 102.708 104.03 102.757 103.678 102.467C103.668 102.459 103.657 102.45 103.647 102.441ZM107.77 96.695C107.481 96.4321 107.412 95.9925 107.625 95.6488C107.85 95.2871 108.071 94.9218 108.287 94.5529C108.52 94.1569 108.747 93.7589 108.968 93.3594C109.189 92.9602 109.692 92.8157 110.091 93.0365C110.489 93.2571 110.634 93.7599 110.414 94.1592C110.186 94.5712 109.952 94.9816 109.711 95.39C109.488 95.7704 109.26 96.1473 109.029 96.5203C108.788 96.9077 108.279 97.0267 107.891 96.786C107.848 96.759 107.807 96.7284 107.77 96.695ZM111.095 90.4536C110.838 90.2197 110.748 89.8382 110.898 89.5039C111.259 88.7001 111.604 87.8767 111.924 87.0567C112.089 86.6318 112.568 86.4212 112.993 86.5868C113.418 86.7526 113.628 87.2311 113.463 87.6561C113.133 88.5022 112.777 89.3517 112.404 90.1812C112.217 90.5973 111.729 90.7828 111.312 90.5958C111.231 90.5591 111.158 90.5108 111.095 90.4536Z" fill="white"/>
<path d="M16.5992 93.2519C16.529 93.1881 16.4689 93.1111 16.4225 93.0221C16.2161 92.6253 16.0147 92.2259 15.8184 91.8244C15.6182 91.4145 15.788 90.9201 16.1978 90.7198C16.6076 90.5196 17.1026 90.6892 17.3024 91.0992C17.4926 91.4883 17.6877 91.8752 17.8878 92.2598C18.0983 92.6644 17.9409 93.1632 17.5363 93.3737C17.2208 93.5379 16.8479 93.4781 16.5992 93.2519Z" fill="white"/>
</g>
<path d="M18.2073 81.5951C18.2724 81.8831 18.5131 82.0984 18.8068 82.1308L27.1841 83.0552C28.9041 86.5955 31.2008 89.8872 34.0421 92.7739L32.1122 100.973C32.0444 101.26 32.1668 101.559 32.4165 101.717L40.9642 107.115C41.2142 107.272 41.5365 107.254 41.7669 107.07L48.3401 101.803C52.168 103.128 56.1272 103.787 60.063 103.818L64.4985 110.985C64.654 111.236 64.9517 111.361 65.2399 111.296L75.1009 109.068C75.3893 109.003 75.6044 108.762 75.6367 108.469L76.5611 100.091C80.1014 98.3715 83.393 96.0746 86.2798 93.2333L94.4786 95.1633C94.7661 95.231 95.065 95.1088 95.2227 94.859L100.621 86.311C100.778 86.0612 100.76 85.7388 100.575 85.5083L95.3089 78.9352C96.6336 75.1074 97.2927 71.1483 97.3237 67.2124L104.491 62.7769C104.742 62.6214 104.867 62.3237 104.802 62.0356L102.574 52.1746C102.509 51.8862 102.268 51.6712 101.975 51.6388L93.5973 50.7145C91.8776 47.1741 89.5806 43.8826 86.7393 40.9957L88.6693 32.7969C88.7369 32.5095 88.6148 32.2106 88.365 32.0528L79.817 26.6549C79.5672 26.4971 79.2449 26.5153 79.0143 26.7001L72.4412 31.9666C68.6134 30.6418 64.6541 29.9829 60.7182 29.9518L56.2828 22.7852C56.1275 22.5339 55.8295 22.409 55.5415 22.4741L45.6804 24.7015C45.3923 24.7666 45.1771 25.0073 45.1446 25.3009L44.2202 33.6782C40.6798 35.3979 37.3883 37.6949 34.5014 40.5362L26.3026 38.6062C26.0153 38.5384 25.7163 38.6607 25.5587 38.9106L20.1609 47.4583C20.0032 47.7081 20.0212 48.0305 20.2058 48.261L25.4724 54.8342C24.1479 58.662 23.4888 62.6212 23.4576 66.557L16.291 70.9926C16.0398 71.1481 15.915 71.4457 15.9799 71.734L18.2073 81.5951Z" fill="url(#paint0_linear_403_7591)"/>
<path d="M53.8617 74.0682C53.0004 73.2848 52.2804 72.3429 51.738 71.2733C50.5655 68.9619 50.3634 66.3324 51.169 63.8692C51.9741 61.4058 53.6905 59.4034 56.002 58.2312C58.3133 57.0587 60.9427 56.8566 63.4062 57.662C68.492 59.3238 71.2758 64.814 69.6134 69.8993C67.9509 74.9844 62.4613 77.769 57.3761 76.1064C56.0524 75.6738 54.8618 74.978 53.8617 74.0682ZM65.9337 60.7727C65.099 60.0135 64.0951 59.4147 62.9551 59.0418C60.8603 58.3571 58.6242 58.5289 56.6586 59.5259C54.6931 60.5228 53.2336 62.2255 52.5488 64.3202C51.864 66.4151 52.0359 68.6511 53.0327 70.6165C54.03 72.5824 55.7327 74.0416 57.8272 74.7266C62.1514 76.1402 66.8196 73.7723 68.2335 69.4482C69.2742 66.2639 68.2647 62.8931 65.9337 60.7727Z" fill="#91B3FA"/>
<path d="M43.9102 85.1149C43.8342 85.0457 43.7584 84.9761 43.6832 84.906C43.6821 84.9033 43.6797 84.9023 43.6779 84.901C43.6413 84.8667 43.6046 84.8324 43.5683 84.7979C43.5654 84.796 43.5658 84.7954 43.5642 84.7942C43.5613 84.7913 43.5582 84.7884 43.5554 84.7859C43.4607 84.6962 43.3669 84.606 43.2738 84.5148C43.2634 84.5049 43.2535 84.4949 43.2427 84.4847C43.103 84.3476 43.0976 84.1254 43.2282 83.9815C43.2313 83.9781 43.2344 83.9747 43.2378 83.9713C43.3781 83.8281 43.6105 83.8283 43.7512 83.9663C44.9634 85.1558 46.3148 86.2235 47.7652 87.1396C57.76 93.451 70.6731 91.459 78.3666 83.0015C79.2971 81.9785 80.1516 80.8609 80.915 79.6517C87.99 68.4483 84.6334 53.5775 73.4272 46.502C63.4324 40.1905 50.5193 42.1824 42.8258 50.64C41.8951 51.6632 41.0409 52.7806 40.2774 53.9897C37.9515 57.6733 36.669 61.9097 36.5687 66.2412C36.5666 66.332 36.5312 66.4144 36.4746 66.4766C36.4063 66.5519 36.307 66.5982 36.1972 66.5957C35.9969 66.5908 35.8384 66.4248 35.8429 66.2245C35.9461 61.7616 37.2674 57.3967 39.6635 53.6019C40.4501 52.3563 41.3301 51.205 42.289 50.1512C50.2148 41.4382 63.5182 39.386 73.8149 45.888C85.3567 53.1766 88.8174 68.4971 81.5287 80.0393C80.7422 81.2849 79.8621 82.4363 78.9035 83.4902C70.9775 92.203 57.6742 94.2554 47.3774 87.7532C46.1446 86.9748 44.9816 86.0895 43.9102 85.1149Z" fill="#91B3FA"/>
<g opacity="0.64">
<path d="M96.9289 145.822C96.1779 145.661 95.591 145.022 95.5315 144.217C95.4597 143.253 95.4069 142.275 95.3741 141.309C95.3407 140.329 96.1085 139.507 97.0889 139.474C98.0693 139.441 98.8917 140.208 98.9245 141.188C98.9557 142.107 99.0063 143.038 99.074 143.954C99.1466 144.932 98.4126 145.784 97.4342 145.857C97.2608 145.87 97.091 145.857 96.9289 145.822Z" fill="white"/>
<path d="M99.1913 141.21C98.3232 141.024 97.7127 140.213 97.798 139.308C97.9771 137.399 98.2349 135.471 98.5638 133.578C98.7317 132.612 99.6515 131.964 100.618 132.132C101.579 132.288 102.232 133.22 102.064 134.186C101.751 135.988 101.506 137.823 101.335 139.64C101.243 140.617 100.377 141.335 99.4003 141.243C99.3291 141.236 99.2594 141.225 99.1913 141.21ZM102.075 126.708C102.025 126.697 101.975 126.684 101.926 126.669C100.988 126.382 100.461 125.388 100.748 124.45C101.311 122.612 101.952 120.778 102.653 118.997C103.012 118.084 104.041 117.636 104.956 117.994C105.869 118.353 106.318 119.385 105.959 120.297C105.291 121.993 104.681 123.741 104.144 125.491C103.872 126.38 102.967 126.899 102.075 126.708ZM107.82 113.09C107.655 113.054 107.493 112.995 107.338 112.91C106.478 112.438 106.163 111.358 106.635 110.498C107.56 108.814 108.562 107.147 109.613 105.545C110.152 104.724 111.254 104.496 112.073 105.035C112.893 105.573 113.122 106.674 112.584 107.494C111.583 109.019 110.629 110.605 109.75 112.207C109.363 112.912 108.568 113.25 107.82 113.09ZM116.232 100.929C115.953 100.869 115.683 100.74 115.451 100.541C114.706 99.9027 114.62 98.7812 115.258 98.0366C116.507 96.5799 117.83 95.1538 119.191 93.7974C119.886 93.1048 121.01 93.1071 121.703 93.8014C122.395 94.4963 122.393 95.6212 121.699 96.3137C120.403 97.6046 119.144 98.9623 117.955 100.349C117.516 100.861 116.849 101.062 116.232 100.929ZM126.959 90.7484C126.563 90.6632 126.193 90.4426 125.926 90.0965C125.328 89.3195 125.472 88.204 126.249 87.6052C127.771 86.4318 129.356 85.3054 130.96 84.2574C131.782 83.7202 132.883 83.951 133.419 84.7728C133.956 85.594 133.725 86.6948 132.904 87.2312C131.376 88.2292 129.867 89.3016 128.418 90.4188C127.987 90.7507 127.452 90.8543 126.959 90.7484ZM139.53 82.9619C139.014 82.8511 138.553 82.5128 138.304 82.002C137.875 81.1196 138.242 80.0565 139.124 79.6275C140.85 78.7882 142.63 78.0064 144.415 77.3043C145.328 76.9448 146.36 77.3943 146.718 78.3067C147.077 79.2199 146.628 80.2512 145.716 80.61C144.016 81.2786 142.321 82.023 140.678 82.8222C140.307 83.0029 139.904 83.0423 139.53 82.9619ZM153.41 77.8861C152.771 77.7487 152.232 77.262 152.06 76.585C151.819 75.634 152.395 74.6679 153.346 74.4269C155.206 73.9554 157.107 73.5519 158.996 73.2276C159.964 73.063 160.882 73.7115 161.048 74.6779C161.214 75.6447 160.564 76.5633 159.597 76.7293C157.799 77.038 155.989 77.4221 154.218 77.8706C153.944 77.9402 153.669 77.9417 153.41 77.8861ZM214.857 90.468C214.609 90.4147 214.369 90.3074 214.154 90.1435C212.703 89.0365 211.188 87.9725 209.652 86.981C208.828 86.4495 208.591 85.3498 209.123 84.5256C209.654 83.7015 210.753 83.4621 211.578 83.996C213.193 85.0378 214.785 86.1558 216.309 87.319C217.089 87.9143 217.239 89.0288 216.644 89.8086C216.212 90.3738 215.509 90.6079 214.857 90.468ZM168.032 75.7461C167.26 75.5802 166.667 74.9098 166.632 74.084C166.591 73.104 167.352 72.2757 168.332 72.2347C170.248 72.154 172.192 72.1487 174.112 72.2188C175.088 72.2554 175.857 73.0783 175.822 74.0589C175.786 75.0391 174.962 75.805 173.982 75.7692C172.155 75.7025 170.304 75.7073 168.482 75.7841C168.327 75.7906 168.177 75.7772 168.032 75.7461ZM202.241 82.7606C202.108 82.7321 201.976 82.6878 201.848 82.6266C200.198 81.8402 198.497 81.1093 196.792 80.4537C195.876 80.1019 195.419 79.0739 195.771 78.1585C196.123 77.2433 197.154 76.7894 198.067 77.1378C199.857 77.826 201.644 78.5938 203.377 79.4199C204.262 79.8419 204.638 80.9021 204.216 81.7875C203.855 82.545 203.027 82.9295 202.241 82.7606ZM182.786 76.6496C181.865 76.4516 181.253 75.5625 181.409 74.6226C181.569 73.655 182.484 73.0006 183.452 73.161C185.344 73.4746 187.236 73.8649 189.111 74.3258C190.063 74.5603 190.646 75.5228 190.411 76.4753C190.177 77.4281 189.222 78.0073 188.262 77.7757C186.475 77.3358 184.673 76.9648 182.87 76.6656C182.842 76.6609 182.814 76.6556 182.786 76.6496Z" fill="white"/>
<path d="M221.639 91.163C221.297 91.0895 220.973 90.9145 220.716 90.6396C220.083 89.9629 219.434 89.2946 218.785 88.653C218.088 87.9631 218.081 86.8386 218.771 86.1408C219.461 85.443 220.585 85.4367 221.283 86.1266C221.965 86.8008 222.647 87.5031 223.312 88.2135C223.981 88.9301 223.943 90.0544 223.227 90.7244C222.785 91.1374 222.188 91.2811 221.639 91.163Z" fill="white"/>
</g>
<g opacity="0.64">
<path d="M242.34 148.94C241.503 148.76 240.896 147.995 240.941 147.113C240.988 146.191 241.017 145.259 241.027 144.343C241.038 143.362 241.842 142.576 242.823 142.587C243.806 142.599 244.59 143.402 244.58 144.383C244.569 145.346 244.538 146.325 244.489 147.294C244.439 148.273 243.604 149.027 242.624 148.977C242.527 148.972 242.432 148.959 242.34 148.94Z" fill="white"/>
<path d="M154.547 215.779C154.542 215.778 154.537 215.777 154.532 215.776C153.056 215.446 151.571 215.066 150.118 214.647C149.755 214.542 149.393 214.435 149.032 214.324C148.093 214.038 147.565 213.045 147.852 212.106C148.138 211.168 149.131 210.639 150.07 210.927C150.413 211.032 150.756 211.133 151.102 211.233C152.487 211.633 153.901 211.994 155.307 212.308C156.265 212.522 156.867 213.472 156.653 214.429C156.44 215.382 155.499 215.983 154.547 215.779ZM163.447 217.194C162.578 217.007 161.967 216.195 162.054 215.289C162.147 214.312 163.014 213.596 163.991 213.69C165.778 213.861 167.596 213.964 169.393 213.996C170.374 214.012 171.155 214.823 171.138 215.804C171.12 216.785 170.311 217.566 169.33 217.548C167.441 217.514 165.531 217.406 163.653 217.226C163.583 217.219 163.514 217.209 163.447 217.194ZM140.733 211.208C140.614 211.182 140.496 211.144 140.381 211.092C138.653 210.321 136.936 209.475 135.278 208.575C134.416 208.107 134.096 207.029 134.564 206.166C135.032 205.305 136.108 204.984 136.972 205.452C138.55 206.308 140.184 207.114 141.829 207.848C142.724 208.248 143.127 209.298 142.727 210.194C142.378 210.975 141.536 211.38 140.733 211.208ZM177.993 217.102C177.265 216.946 176.686 216.338 176.601 215.557C176.495 214.581 177.2 213.705 178.175 213.599C179.961 213.406 181.761 213.14 183.526 212.809C184.491 212.629 185.418 213.263 185.599 214.227C185.78 215.191 185.145 216.12 184.181 216.301C182.327 216.648 180.435 216.928 178.558 217.131C178.365 217.152 178.174 217.141 177.993 217.102ZM128.112 203.962C127.88 203.912 127.655 203.815 127.45 203.668C125.918 202.568 124.408 201.392 122.962 200.173C122.212 199.541 122.116 198.42 122.748 197.67C123.38 196.92 124.5 196.825 125.251 197.457C126.627 198.616 128.065 199.736 129.522 200.783C130.319 201.355 130.501 202.465 129.929 203.261C129.504 203.854 128.782 204.106 128.112 203.962ZM192.216 214.082C191.614 213.953 191.097 213.515 190.896 212.887C190.596 211.953 191.111 210.953 192.045 210.653C193.754 210.105 195.466 209.483 197.132 208.804C198.04 208.433 199.077 208.87 199.447 209.779C199.817 210.687 199.381 211.724 198.472 212.094C196.723 212.807 194.925 213.46 193.13 214.036C192.823 214.134 192.51 214.145 192.216 214.082ZM205.55 208.273C205.069 208.169 204.633 207.868 204.373 207.405C203.893 206.549 204.198 205.467 205.053 204.987C206.623 204.106 208.176 203.155 209.671 202.159C210.487 201.615 211.591 201.836 212.134 202.652C212.678 203.469 212.457 204.572 211.64 205.116C210.071 206.161 208.44 207.16 206.792 208.085C206.399 208.305 205.958 208.36 205.55 208.273ZM217.459 199.919C217.095 199.84 216.752 199.647 216.489 199.343C215.848 198.601 215.93 197.479 216.673 196.838C218.034 195.663 219.367 194.42 220.633 193.144C221.325 192.448 222.45 192.444 223.145 193.134C223.841 193.826 223.845 194.95 223.155 195.647C221.824 196.987 220.425 198.293 218.995 199.527C218.556 199.906 217.985 200.032 217.459 199.919ZM227.458 189.345C227.208 189.291 226.965 189.182 226.749 189.016C225.972 188.417 225.827 187.302 226.425 186.525C227.523 185.099 228.578 183.613 229.56 182.108C230.096 181.286 231.198 181.056 232.018 181.592C232.84 182.128 233.071 183.229 232.535 184.05C231.502 185.632 230.394 187.193 229.24 188.692C228.808 189.253 228.107 189.484 227.458 189.345ZM235.12 176.975C234.982 176.946 234.846 176.899 234.715 176.835C233.832 176.406 233.465 175.343 233.894 174.461C234.679 172.848 235.411 171.181 236.073 169.506C236.433 168.594 237.465 168.144 238.377 168.506C239.29 168.866 239.737 169.898 239.377 170.81C238.683 172.569 237.913 174.32 237.089 176.015C236.724 176.765 235.9 177.143 235.12 176.975ZM240.137 163.322C240.113 163.317 240.089 163.311 240.066 163.305C239.115 163.06 238.544 162.091 238.789 161.141C239.031 160.205 239.257 159.25 239.46 158.302C239.636 157.485 239.796 156.667 239.942 155.85C240.114 154.884 241.036 154.241 242.002 154.412C242.979 154.581 243.612 155.507 243.44 156.473C243.287 157.332 243.118 158.19 242.934 159.049C242.72 160.044 242.483 161.046 242.229 162.029C241.99 162.955 241.064 163.521 240.137 163.322Z" fill="white"/>
<path d="M117.183 194.284C116.837 194.209 116.509 194.031 116.251 193.751C115.596 193.04 114.947 192.307 114.322 191.572C113.686 190.825 113.776 189.704 114.524 189.068C115.271 188.432 116.392 188.522 117.027 189.27C117.622 189.969 118.24 190.667 118.864 191.344C119.529 192.065 119.483 193.189 118.762 193.854C118.32 194.26 117.729 194.401 117.183 194.284Z" fill="white"/>
</g>
<path d="M120.526 182.708C120.734 183.079 121.155 183.277 121.574 183.201L133.522 181.023C137.356 185.201 141.885 188.799 146.998 191.613L147.714 203.728C147.739 204.153 148.031 204.515 148.441 204.63L162.469 208.558C162.879 208.672 163.316 208.514 163.558 208.164L170.462 198.182C176.293 198.433 182.031 197.71 187.478 196.13L196.557 204.195C196.876 204.478 197.338 204.528 197.709 204.319L210.405 197.177C210.777 196.968 210.974 196.547 210.898 196.129L208.719 184.181C212.898 180.347 216.496 175.818 219.31 170.705L231.425 169.988C231.85 169.963 232.212 169.671 232.327 169.262L236.255 155.234C236.369 154.824 236.211 154.386 235.861 154.144L225.879 147.241C226.13 141.41 225.407 135.672 223.827 130.225L231.893 121.145C232.175 120.827 232.225 120.365 232.016 119.994L224.874 107.297C224.666 106.926 224.244 106.729 223.826 106.805L211.878 108.983C208.044 104.805 203.515 101.207 198.402 98.3932L197.686 86.2777C197.66 85.8529 197.369 85.4906 196.959 85.3757L182.931 81.4482C182.521 81.3333 182.084 81.4913 181.841 81.8415L174.938 91.8235C169.107 91.573 163.369 92.2959 157.922 93.8761L148.842 85.8106C148.524 85.5278 148.062 85.4782 147.691 85.6869L134.994 92.8287C134.624 93.0375 134.426 93.4585 134.502 93.8773L136.68 105.825C132.501 109.659 128.904 114.188 126.09 119.301L113.975 120.017C113.55 120.042 113.188 120.334 113.073 120.744L109.145 134.772C109.031 135.182 109.189 135.619 109.539 135.862L119.521 142.765C119.27 148.596 119.993 154.334 121.573 159.781L113.508 168.86C113.225 169.179 113.175 169.641 113.384 170.012L120.526 182.708Z" fill="#3A6FE5"/>
<path d="M170.054 160.165C162.664 158.88 157.116 152.325 157.315 144.607C157.42 140.498 159.12 136.675 162.101 133.844C165.081 131.014 168.986 129.513 173.095 129.619C181.582 129.836 188.303 136.916 188.084 145.399C187.978 149.508 186.278 153.33 183.298 156.161C180.318 158.992 176.413 160.493 172.304 160.387C171.538 160.368 170.787 160.292 170.054 160.165ZM174.516 134.68C174.009 134.592 173.493 134.54 172.969 134.527C167.193 134.378 162.372 138.956 162.223 144.733C162.151 147.532 163.173 150.19 165.101 152.22C167.029 154.25 169.633 155.407 172.43 155.479C175.228 155.551 177.887 154.529 179.917 152.601C181.946 150.674 183.104 148.071 183.176 145.273C183.248 142.474 182.226 139.815 180.298 137.786C178.731 136.136 176.718 135.062 174.516 134.68Z" fill="#91B3FA"/>
<path d="M166.824 180.273C165.634 180.066 164.446 179.798 163.259 179.466L163.258 179.466C161.082 178.856 158.966 178.045 156.958 177.051C156.729 176.937 156.502 176.822 156.276 176.704C156.231 176.681 156.188 176.658 156.144 176.635C155.822 176.465 155.66 176.111 155.719 175.771C155.733 175.689 155.761 175.607 155.802 175.529C156.012 175.13 156.508 174.977 156.907 175.187C159.052 176.319 161.338 177.228 163.7 177.89C163.895 177.944 164.089 177.997 164.284 178.048C177.492 181.504 191.002 176.729 199.285 166.861C202.275 163.297 204.584 159.069 205.949 154.323C205.972 154.245 205.994 154.165 206.016 154.086C206.334 152.951 206.591 151.813 206.788 150.676C209.762 133.547 199.307 116.556 182.213 111.769C163.982 106.666 145 117.344 139.896 135.573C139.581 136.697 139.325 137.832 139.127 138.974C138.268 143.925 138.501 149.009 139.829 153.86C139.861 153.98 139.866 154.101 139.845 154.216C139.793 154.519 139.571 154.779 139.255 154.865C138.818 154.984 138.369 154.728 138.25 154.292C136.859 149.209 136.614 143.882 137.514 138.695C137.721 137.499 137.99 136.309 138.32 135.132C143.668 116.033 163.56 104.847 182.654 110.193C200.563 115.208 211.516 133.009 208.401 150.955C208.194 152.146 207.925 153.338 207.593 154.527C202.578 172.438 184.771 183.392 166.824 180.273Z" fill="#91B3FA"/>
<path d="M103.778 101.925C92.2259 103.948 84.5309 96.5033 78.8169 92.0069C71.2726 86.0705 65.5469 89.1361 65.5469 89.1361L73.7664 104.68C85.8172 116.035 97.9001 113.235 105.477 109.339C105.538 106.305 104.709 103.783 103.778 101.925Z" fill="url(#paint1_linear_403_7591)"/>
<path d="M119.927 94.4434L116.126 96.6618C111.573 99.6606 107.478 101.277 103.778 101.925C104.71 103.783 105.538 106.305 105.478 109.338C110.301 106.858 113.299 103.934 113.299 103.934C121.902 98.3828 119.927 94.4434 119.927 94.4434Z" fill="url(#paint2_linear_403_7591)"/>
<path d="M76.6484 202.86L75.7932 207.291C74.3258 214.895 77.2921 221.861 82.4189 222.85L88.5138 224.027C93.6406 225.016 98.9862 219.654 100.454 212.051L101.309 207.62C101.365 207.326 101.416 207.032 101.46 206.736L121.14 74.2785L107.861 71.7158L76.8371 201.984C76.7681 202.275 76.7051 202.567 76.6484 202.86ZM82.8868 203.703C83.9915 197.979 87.6447 193.87 91.0461 194.527C94.4477 195.183 96.3095 200.356 95.2047 206.081C94.0999 211.805 90.4468 215.914 87.0452 215.257C83.6438 214.601 81.782 209.428 82.8868 203.703Z" fill="url(#paint3_linear_403_7591)"/>
<path d="M109.83 25.5319L104.868 51.2426C104.515 53.0731 105.031 54.964 106.266 56.361L112.595 63.5218C114.402 65.5657 117.359 66.1363 119.796 64.9115L128.335 60.6203C130.001 59.7831 131.184 58.2203 131.537 56.3896L136.499 30.679C137.248 26.801 142.247 25.551 144.66 28.6781C150.431 36.1592 153.081 46.1645 151.107 56.3943C147.538 74.8839 130.666 84.8205 112.881 81.3882C95.0969 77.9559 83.1343 62.4542 86.7027 43.9646C88.677 33.7348 94.8593 25.4338 103 20.6378C106.403 18.6331 110.579 21.6538 109.83 25.5319Z" fill="url(#paint4_linear_403_7591)"/>
<path d="M112.253 25.9997L107.291 51.7104C106.938 53.541 107.454 55.4318 108.689 56.8288L115.018 63.9896C116.825 66.0335 119.781 66.6041 122.219 65.3792L130.758 61.088C132.424 60.251 133.607 58.688 133.96 56.8574L138.922 31.1468C139.671 27.2686 144.67 26.0187 147.083 29.1457C152.854 36.6268 155.504 46.6322 153.529 56.862C149.961 75.3516 133.089 85.2883 115.304 81.8561C97.5198 78.4236 85.5572 62.922 89.1256 44.4323C91.1 34.2025 97.2823 25.9017 105.423 21.1056C108.826 19.1008 113.001 22.1215 112.253 25.9997Z" fill="#91B3FA"/>
<path d="M78.582 203.233L77.7268 207.664C76.2594 215.268 79.2258 222.234 84.3525 223.223L90.4474 224.4C95.5742 225.389 100.92 220.027 102.387 212.424L103.242 207.993C103.299 207.699 103.349 207.405 103.393 207.109L123.074 74.6515L109.795 72.0889L78.7706 202.357C78.7018 202.648 78.6387 202.94 78.582 203.233ZM84.8204 204.076C85.9251 198.351 89.5782 194.243 92.9797 194.899C96.3811 195.556 98.2431 200.729 97.1383 206.453C96.0334 212.178 92.3804 216.286 88.9788 215.63C85.5774 214.973 83.7156 209.801 84.8204 204.076Z" fill="#91B3FA"/>
<path d="M120.424 100.18C120.566 99.3491 120.323 98.5059 119.772 97.8685C118.704 96.6334 116.859 94.941 115.521 96.0816C113.529 97.7805 115.712 103.59 115.712 103.59L117.922 106.964L117.953 109.118C119.148 107.718 119.863 104.275 120.424 100.18Z" fill="url(#paint5_linear_403_7591)"/>
<path d="M44.6178 128.019C42.9592 129.857 40.4962 131.466 38.7607 132.472C41.4412 135.661 45.0466 138.836 49.7985 141.921L51.1983 144.909L55.4034 139.671C55.4034 139.671 47.6107 135.975 44.6178 128.019Z" fill="url(#paint6_linear_403_7591)"/>
<path d="M69.4903 225.387C69.4901 225.295 69.4821 225.202 69.4567 225.108C67.9587 219.609 60.9772 216.299 60.9772 216.299L58.2404 216.565C56.7564 221.465 57.0154 224.447 57.2935 225.773C57.3012 225.81 57.3132 225.845 57.3237 225.881C59.5886 226.04 64.2447 226.085 69.4903 225.387Z" fill="url(#paint7_linear_403_7591)"/>
<path d="M57.3232 225.881C57.4536 226.323 57.7881 226.663 58.2095 226.743C61.4385 227.359 66.54 226.718 68.6809 226.397C69.1534 226.326 69.4911 225.881 69.4897 225.387C64.2441 226.084 59.588 226.04 57.3232 225.881Z" fill="url(#paint8_linear_403_7591)"/>
<path d="M57.0615 212.503L58.3279 218.07C58.4207 218.477 58.7413 218.778 59.1229 218.807C59.5903 218.842 60.2549 218.855 60.9209 218.744C61.5181 218.645 61.9235 218.028 61.8051 217.377L60.9045 212.431L57.0615 212.503Z" fill="url(#paint9_linear_403_7591)"/>
<path d="M81.3639 225.371C78.3353 225.343 76.7628 225.016 75.9473 224.701C75.951 225.002 75.9584 225.308 75.9742 225.625C75.991 225.964 76.2473 226.23 76.5561 226.222L93.1744 225.801C93.7047 225.788 94.003 225.167 93.7641 224.685C91.5882 224.906 86.0456 225.413 81.3639 225.371Z" fill="url(#paint10_linear_403_7591)"/>
<path d="M93.7652 224.685C93.7443 224.643 93.7263 224.6 93.697 224.561C92.1906 222.538 88.375 218.524 80.9543 216.893L77.4083 216.848C77.4083 216.848 75.8822 219.62 75.9484 224.701C76.764 225.017 78.3364 225.344 81.365 225.371C86.0468 225.414 91.5894 224.906 93.7652 224.685Z" fill="url(#paint11_linear_403_7591)"/>
<path d="M76.6484 211.488C76.6927 211.752 77.2543 215.757 77.4717 217.31C77.5233 217.679 77.7967 217.961 78.1353 217.995C78.7401 218.055 79.7178 218.102 80.5688 217.911C81.0279 217.808 81.3531 217.359 81.3434 216.844L81.2244 210.542L76.6484 211.488Z" fill="url(#paint12_linear_403_7591)"/>
<path d="M72.422 138.274C72.422 138.274 81.5827 170.596 82.2 211.476C82.2112 212.222 81.7001 212.875 80.9737 213.042C79.9034 213.289 78.3286 213.587 77.0202 213.575C76.3216 213.569 75.7282 213.062 75.5977 212.376C74.2666 205.37 66.6411 165.906 62.6011 159.552C62.6011 159.552 60.6887 194.865 61.8582 213.145C61.8872 213.599 61.5616 214 61.1103 214.061C60.4256 214.153 59.329 214.234 57.929 214.112C57.3976 214.066 56.9622 213.673 56.8765 213.147C55.9105 207.214 50.3285 171.901 50.0557 146.392C50.0403 144.953 53.7142 138.628 53.7142 138.628L72.422 138.274Z" fill="#4E585E"/>
<path d="M83.5675 98.7367C82.1474 97.024 80.897 95.183 79.8441 93.2817C78.3737 90.6261 79.7627 95.0204 79.3176 91.9986C68.5406 84.527 52.604 88.7127 46.4259 89.6098C44.4001 89.904 42.5619 90.9401 41.253 92.514C36.0622 98.7553 24.7351 115.788 38.7612 132.472C40.4967 131.465 42.9596 129.856 44.6183 128.018C43.0212 123.772 42.7939 118.312 45.8453 111.553C45.9639 112.082 46.1081 112.605 46.2809 113.119C50.923 126.913 51.3748 138.456 51.4152 141.117C51.4206 141.479 51.6439 141.8 51.9819 141.928C57.7902 144.129 68.8609 142.545 72.5754 141.919C73.2565 141.805 73.7039 141.16 73.5966 140.478C71.5183 127.268 80.4894 105.302 82.8644 99.7982C83.0353 99.4023 83.2751 99.0443 83.5675 98.7367Z" fill="url(#paint13_linear_403_7591)"/>
<path d="M56.1789 78.2699L55.2822 89.6419C55.2822 89.6419 61.7041 91.4446 66.2865 88.0799L62.8269 77.8252L56.1789 78.2699Z" fill="url(#paint14_linear_403_7591)"/>
<path d="M63.3439 65.1924C63.5003 65.3341 70.0675 77.65 70.0675 77.65L62.9557 81.2504L54.9971 70.5023C54.9971 70.5023 60.7253 62.819 63.3439 65.1924Z" fill="url(#paint15_linear_403_7591)"/>
<path d="M58.1774 70.7434C58.0557 71.0771 58.0942 71.4462 58.2826 71.7473L61.9749 77.6469C62.031 77.7364 62.0972 77.817 62.1758 77.8875C62.6094 78.2761 64.0891 79.4022 65.1867 77.8101C66.1221 76.4534 67.0004 75.2193 67.9568 74.6991C68.5152 74.3953 69.2137 74.6163 69.5108 75.1784C70.1226 76.3363 71.3099 78.6975 72.0704 80.9434C72.2609 81.5064 71.9801 82.1199 71.4336 82.3534C69.9915 82.9697 67.1392 84.0887 64.597 84.4886C64.1795 84.5544 63.7615 84.3855 63.5059 84.0488C62.381 82.5673 59.211 78.4274 58.1362 77.3965C57.1378 76.4387 55.3359 76.841 54.5253 77.0906C54.2176 77.1855 53.8874 77.1488 53.6085 76.9879C52.7721 76.5054 51.3056 75.2924 52.5861 73.1676C52.9044 72.6392 52.7241 71.9469 52.2023 71.6178C51.2676 71.0279 50.2442 69.9069 51.1638 68.0428C52.0948 66.1558 53.8172 65.9554 54.9949 66.0768C55.5161 66.1306 56.0388 65.8479 56.2292 65.3598C56.3138 65.1427 56.4858 64.9558 56.8112 64.8834C57.4248 64.7467 57.8184 64.1758 57.6859 63.5614C57.4587 62.5077 57.5888 61.131 59.2598 60.1707C62.3244 58.4096 65.0894 61.1327 65.8234 63.4616C66.5575 65.7905 63.1263 67.5111 60.9534 67.8284C59.3574 68.0615 58.5132 69.8241 58.1774 70.7434Z" fill="url(#paint16_linear_403_7591)"/>
<path d="M59.5222 79.5633C59.5222 79.5633 58.0691 75.5601 56.3092 75.7413C54.5494 75.9224 53.1951 77.7046 55.4169 79.6373C58.1806 82.0415 59.5222 79.5633 59.5222 79.5633Z" fill="url(#paint17_linear_403_7591)"/>
<path d="M45.2451 110.528C42.8016 104.213 43.4995 96.5193 43.5069 96.4424L44.1485 96.5034C44.1414 96.579 43.4586 104.125 45.8464 110.295L45.2451 110.528Z" fill="url(#paint18_linear_403_7591)"/>
<path d="M62.2717 158.731C62.1286 158.734 61.9957 158.64 61.9555 158.495C61.195 155.775 55.8306 152.871 55.7765 152.842C55.6197 152.758 55.5605 152.562 55.6449 152.405C55.7291 152.249 55.9235 152.189 56.0813 152.274C56.3118 152.397 61.7422 155.337 62.5762 158.322C62.6242 158.493 62.5239 158.671 62.3527 158.719C62.3258 158.727 62.2984 158.73 62.2717 158.731Z" fill="url(#paint19_linear_403_7591)"/>
<path d="M67.0419 61.4552L50.602 74.2587C50.3645 74.4437 50.0157 74.3034 49.9726 74.0054L49.8023 72.8319C49.8023 72.8319 42.9605 65.9523 49.9902 59.733C57.0198 53.5139 65.3137 60.559 65.3137 60.559L66.9042 60.8742C67.1799 60.9289 67.2638 61.2824 67.0419 61.4552Z" fill="url(#paint20_linear_403_7591)"/>
<defs>
<linearGradient id="paint0_linear_403_7591" x1="101.003" y1="94.691" x2="-24.7025" y2="8.62274" gradientUnits="userSpaceOnUse">
<stop stop-color="#3A6FE5"/>
<stop offset="1" stop-color="#3A6FE5"/>
</linearGradient>
<linearGradient id="paint1_linear_403_7591" x1="246.583" y1="-118.756" x2="189.445" y2="-41.4252" gradientUnits="userSpaceOnUse">
<stop stop-color="#FF928E"/>
<stop offset="1" stop-color="#FE7062"/>
</linearGradient>
<linearGradient id="paint2_linear_403_7591" x1="131.711" y1="73.3271" x2="78.708" y2="143.847" gradientUnits="userSpaceOnUse">
<stop stop-color="#FEBBBA"/>
<stop offset="1" stop-color="#FF928E"/>
</linearGradient>
<linearGradient id="paint3_linear_403_7591" x1="295.648" y1="1241.01" x2="242.676" y2="946.462" gradientUnits="userSpaceOnUse">
<stop stop-color="#4F52FF"/>
<stop offset="1" stop-color="#4042E2"/>
</linearGradient>
<linearGradient id="paint4_linear_403_7591" x1="-2256.09" y1="1125.87" x2="-1983.49" y2="1002.34" gradientUnits="userSpaceOnUse">
<stop stop-color="#4F52FF"/>
<stop offset="1" stop-color="#4042E2"/>
</linearGradient>
<linearGradient id="paint5_linear_403_7591" x1="109.48" y1="93.8348" x2="155.141" y2="140.758" gradientUnits="userSpaceOnUse">
<stop stop-color="#FEBBBA"/>
<stop offset="1" stop-color="#FF928E"/>
</linearGradient>
<linearGradient id="paint6_linear_403_7591" x1="38.8395" y1="136.635" x2="55.34" y2="136.323" gradientUnits="userSpaceOnUse">
<stop stop-color="#FEBBBA"/>
<stop offset="1" stop-color="#FF928E"/>
</linearGradient>
<linearGradient id="paint7_linear_403_7591" x1="62.2605" y1="187.935" x2="63.5349" y2="233.449" gradientUnits="userSpaceOnUse">
<stop stop-color="#09005D"/>
<stop offset="1" stop-color="#1A0F91"/>
</linearGradient>
<linearGradient id="paint8_linear_403_7591" x1="63.3718" y1="207.363" x2="63.2733" y2="155.472" gradientUnits="userSpaceOnUse">
<stop stop-color="#09005D"/>
<stop offset="1" stop-color="#1A0F91"/>
</linearGradient>
<linearGradient id="paint9_linear_403_7591" x1="60.2093" y1="207.063" x2="58.2357" y2="227.735" gradientUnits="userSpaceOnUse">
<stop stop-color="#FEBBBA"/>
<stop offset="1" stop-color="#FF928E"/>
</linearGradient>
<linearGradient id="paint10_linear_403_7591" x1="84.8641" y1="207.323" x2="84.7656" y2="155.432" gradientUnits="userSpaceOnUse">
<stop stop-color="#09005D"/>
<stop offset="1" stop-color="#1A0F91"/>
</linearGradient>
<linearGradient id="paint11_linear_403_7591" x1="83.8107" y1="187.332" x2="85.0851" y2="232.846" gradientUnits="userSpaceOnUse">
<stop stop-color="#09005D"/>
<stop offset="1" stop-color="#1A0F91"/>
</linearGradient>
<linearGradient id="paint12_linear_403_7591" x1="79.502" y1="208.905" x2="77.5285" y2="229.577" gradientUnits="userSpaceOnUse">
<stop stop-color="#FEBBBA"/>
<stop offset="1" stop-color="#FF928E"/>
</linearGradient>
<linearGradient id="paint13_linear_403_7591" x1="236.786" y1="-125.994" x2="179.647" y2="-48.6632" gradientUnits="userSpaceOnUse">
<stop stop-color="#FF928E"/>
<stop offset="1" stop-color="#FE7062"/>
</linearGradient>
<linearGradient id="paint14_linear_403_7591" x1="62.9402" y1="75.1044" x2="54.6533" y2="114.272" gradientUnits="userSpaceOnUse">
<stop stop-color="#FEBBBA"/>
<stop offset="1" stop-color="#FF928E"/>
</linearGradient>
<linearGradient id="paint15_linear_403_7591" x1="61.3022" y1="67.5828" x2="66.2447" y2="93.6723" gradientUnits="userSpaceOnUse">
<stop stop-color="#FEBBBA"/>
<stop offset="1" stop-color="#FF928E"/>
</linearGradient>
<linearGradient id="paint16_linear_403_7591" x1="56.8584" y1="80.0594" x2="69.703" y2="65.8873" gradientUnits="userSpaceOnUse">
<stop stop-color="#09005D"/>
<stop offset="1" stop-color="#1A0F91"/>
</linearGradient>
<linearGradient id="paint17_linear_403_7591" x1="57.8768" y1="94.5259" x2="56.7383" y2="76.1611" gradientUnits="userSpaceOnUse">
<stop stop-color="#FEBBBA"/>
<stop offset="1" stop-color="#FF928E"/>
</linearGradient>
<linearGradient id="paint18_linear_403_7591" x1="75.3477" y1="98.0363" x2="18.1713" y2="108.095" gradientUnits="userSpaceOnUse">
<stop stop-color="#E1473D"/>
<stop offset="1" stop-color="#E9605A"/>
</linearGradient>
<linearGradient id="paint19_linear_403_7591" x1="64.0045" y1="146.35" x2="57.879" y2="157.751" gradientUnits="userSpaceOnUse">
<stop stop-color="#4F52FF"/>
<stop offset="1" stop-color="#4042E2"/>
</linearGradient>
<linearGradient id="paint20_linear_403_7591" x1="68.669" y1="-8.50833" x2="57.0214" y2="63.1422" gradientUnits="userSpaceOnUse">
<stop stop-color="#FF928E"/>
<stop offset="1" stop-color="#FE7062"/>
</linearGradient>
</defs>
</svg>
