<svg width="351" height="313" viewBox="0 0 351 313" fill="none" xmlns="http://www.w3.org/2000/svg">
<path d="M221.22 235.391H151.363C147.644 235.391 144.719 232.349 144.863 228.63L149.99 96.0119C150.134 92.2927 153.294 89.25 157.012 89.25H226.87C230.589 89.25 233.514 92.2927 233.37 96.0119L228.243 228.63C228.099 232.348 224.94 235.391 221.22 235.391Z" fill="#407BFF"/>
<path d="M233.313 140.76L232.887 151.721L233.558 151.747L233.985 140.787L233.313 140.76Z" fill="#407BFF"/>
<path d="M233.647 132.218L233.471 136.746L234.142 136.772L234.319 132.244L233.647 132.218Z" fill="#407BFF"/>
<path opacity="0.8" d="M221.22 235.391H151.363C147.644 235.391 144.719 232.349 144.863 228.63L149.99 96.0119C150.134 92.2927 153.294 89.25 157.012 89.25H226.87C230.589 89.25 233.514 92.2927 233.37 96.0119L228.243 228.63C228.099 232.348 224.94 235.391 221.22 235.391Z" fill="white"/>
<path d="M214.535 232.701H152.912C149.651 232.701 147.085 230.033 147.211 226.772L152.013 102.576C152.139 99.3152 154.91 96.6465 158.171 96.6465H219.795C223.056 96.6465 225.622 99.3146 225.496 102.576L220.695 226.772C220.568 230.033 217.796 232.701 214.535 232.701Z" fill="#407BFF"/>
<path opacity="0.8" d="M186.879 225.653C188.509 224.055 188.583 221.488 187.045 219.92C185.507 218.353 182.939 218.378 181.31 219.977C179.68 221.575 179.606 224.142 181.144 225.71C182.682 227.277 185.25 227.252 186.879 225.653Z" fill="white"/>
<path d="M185.198 194.576C171.374 194.576 160.563 183.33 161.098 169.506L161.924 148.125C161.91 148.125 161.896 148.127 161.882 148.127C161.627 148.127 161.39 148.102 161.163 148.062L160.334 169.505C159.783 183.75 170.924 195.339 185.169 195.339C192.47 195.339 199.186 192.29 204.078 187.403C203.897 187.226 203.741 187.027 203.607 186.815C198.855 191.592 192.313 194.576 185.198 194.576Z" fill="white"/>
<path d="M188.153 118.137C175.078 118.137 163.872 127.902 161.691 140.519C161.848 140.502 162.009 140.492 162.176 140.492C162.275 140.492 162.369 140.5 162.463 140.506C164.627 128.316 175.476 118.9 188.123 118.9C201.947 118.9 212.758 130.146 212.224 143.97L211.237 169.507C211.078 173.6 209.936 177.465 208.057 180.881C208.307 180.959 208.537 181.062 208.747 181.186C210.67 177.676 211.838 173.709 212.001 169.507L212.988 143.971C213.538 129.725 202.397 118.137 188.153 118.137Z" fill="white"/>
<path d="M187.951 123.376C192.267 123.376 196.246 124.626 199.57 126.775C199.679 126.539 199.809 126.314 199.963 126.104C196.533 123.896 192.43 122.613 187.981 122.613C183.036 122.613 178.395 124.197 174.547 126.878C174.681 127.092 174.791 127.321 174.879 127.56C178.614 124.931 183.133 123.376 187.951 123.376Z" fill="white"/>
<path d="M164.344 171.956C164.162 170.674 164.085 169.357 164.137 168.01L165.009 145.464C165.193 140.679 166.9 136.247 169.636 132.626C169.403 132.514 169.193 132.377 169.004 132.221C166.19 135.96 164.436 140.53 164.246 145.465L163.374 168.011C163.32 169.42 163.401 170.799 163.595 172.139C163.836 172.054 164.087 171.993 164.344 171.956Z" fill="white"/>
<path d="M205.442 131.146C205.264 131.333 205.065 131.5 204.845 131.647C207.744 135.434 209.387 140.239 209.185 145.465L208.313 168.011C207.842 180.19 197.551 190.098 185.371 190.098C180.436 190.098 175.937 188.471 172.362 185.726C172.136 185.896 171.901 186.041 171.654 186.155C175.389 189.104 180.128 190.861 185.341 190.861C197.941 190.861 208.589 180.61 209.076 168.01L209.948 145.464C210.158 140.048 208.451 135.068 205.442 131.146Z" fill="white"/>
<path d="M167.645 154.417L167.933 146.961C168.341 136.426 177.243 127.855 187.779 127.855C196.933 127.855 204.351 134.328 205.872 142.936C206.111 142.894 206.361 142.868 206.627 142.868C206.632 142.868 206.637 142.868 206.642 142.868C205.098 133.869 197.362 127.092 187.809 127.092C176.852 127.092 167.594 136.005 167.17 146.962L166.881 154.44C167.051 154.419 167.226 154.406 167.409 154.406C167.49 154.405 167.566 154.412 167.645 154.417Z" fill="white"/>
<path d="M193.496 183.91C191.048 185.006 188.355 185.621 185.544 185.621C175.008 185.621 166.768 177.05 167.175 166.515L167.348 162.028C167.27 162.033 167.193 162.04 167.112 162.04C166.928 162.04 166.755 162.026 166.586 162.006L166.412 166.514C165.988 177.471 174.557 186.385 185.514 186.385C188.48 186.385 191.32 185.726 193.896 184.556C193.738 184.357 193.607 184.14 193.496 183.91Z" fill="white"/>
<path d="M206.33 150.502C206.22 150.502 206.115 150.494 206.009 150.487L205.389 166.515C205.195 171.527 203.077 176.091 199.777 179.502C199.93 179.712 200.059 179.938 200.162 180.177C203.681 176.613 205.949 171.804 206.153 166.515L206.773 150.48C206.629 150.495 206.482 150.502 206.33 150.502Z" fill="white"/>
<path d="M194.44 133.031C192.378 132.094 190.077 131.568 187.634 131.568C178.321 131.568 170.452 139.145 170.092 148.457L169.452 165.02C169.413 166.016 169.467 166.99 169.596 167.938C169.816 167.738 170.059 167.561 170.32 167.411C170.233 166.629 170.183 165.834 170.215 165.02L170.855 148.457C171.199 139.565 178.713 132.332 187.604 132.332C189.914 132.332 192.088 132.829 194.042 133.708C194.153 133.47 194.284 133.242 194.44 133.031Z" fill="white"/>
<path d="M200.311 137.584C200.165 137.803 199.996 138.007 199.804 138.192C202.005 140.982 203.256 144.559 203.106 148.456L202.466 165.019C202.131 173.671 195.004 180.733 186.428 181.108C186.348 181.38 186.241 181.645 186.105 181.897C195.234 181.674 202.874 174.191 203.229 165.019L203.87 148.456C204.029 144.318 202.677 140.524 200.311 137.584Z" fill="white"/>
<path d="M184.409 137.162C184.421 136.896 184.459 136.632 184.518 136.371C182.548 136.797 180.713 137.627 179.111 138.779C179.352 138.906 179.568 139.058 179.76 139.232C181.155 138.269 182.727 137.557 184.409 137.162Z" fill="white"/>
<path d="M198.946 166.929C197.223 172.528 191.957 176.666 185.89 176.666C178.642 176.666 172.973 170.77 173.254 163.522L173.779 149.952C173.842 148.308 174.22 146.74 174.829 145.288C174.61 145.115 174.421 144.914 174.258 144.695C173.529 146.319 173.087 148.092 173.016 149.952L172.491 163.522C172.195 171.191 178.192 177.43 185.861 177.43C192.295 177.43 197.877 173.032 199.687 167.088C199.429 167.06 199.182 167.007 198.946 166.929Z" fill="white"/>
<path d="M200.066 149.953L199.956 152.771C200.155 152.738 200.354 152.708 200.559 152.708C200.615 152.708 200.667 152.723 200.722 152.725L200.829 149.953C201.067 143.802 197.251 138.579 191.776 136.75C191.791 137.02 191.784 137.294 191.75 137.564C196.793 139.365 200.287 144.231 200.066 149.953Z" fill="white"/>
<path d="M187.287 140.523C181.263 140.523 176.172 145.425 175.939 151.449L175.822 154.463C176.079 154.48 176.334 154.519 176.581 154.581L176.702 151.449C176.918 145.846 181.654 141.287 187.257 141.287C192.861 141.287 197.243 145.846 197.026 151.449L196.617 162.028C196.426 166.961 192.734 171.08 188.031 171.997C188.053 172.255 188.052 172.512 188.024 172.765C193.14 171.828 197.173 167.374 197.38 162.028L197.789 151.449C198.024 145.425 193.312 140.523 187.287 140.523Z" fill="white"/>
<path d="M180.153 149.485C180.32 149.485 180.479 149.495 180.634 149.512C181.94 147.281 184.367 145.763 187.085 145.763C187.913 145.763 188.699 145.911 189.43 146.17C189.514 145.925 189.621 145.689 189.75 145.465C188.93 145.17 188.046 145 187.114 145C183.968 145 181.179 146.843 179.791 149.503C179.909 149.493 180.028 149.485 180.153 149.485Z" fill="white"/>
<path d="M193.694 160.532C193.659 161.425 193.455 162.278 193.125 163.068C193.368 163.165 193.59 163.286 193.791 163.428C194.18 162.53 194.418 161.554 194.458 160.532L194.751 152.944C194.779 152.214 194.699 151.511 194.541 150.84C194.317 150.956 194.075 151.051 193.815 151.121C193.945 151.704 194.012 152.313 193.988 152.944L193.694 160.532Z" fill="white"/>
<path d="M187.909 167.511C187.369 167.639 186.81 167.714 186.236 167.714C182.277 167.714 179.18 164.492 179.333 160.532L179.465 157.101C179.194 157.077 178.942 157.027 178.707 156.957L178.569 160.532C178.399 164.913 181.825 168.477 186.206 168.477C186.857 168.477 187.49 168.39 188.102 168.241C188.016 168.006 187.952 167.761 187.909 167.511Z" fill="white"/>
<path d="M186.942 149.477C184.205 149.477 181.893 151.703 181.786 154.44L181.609 159.036C181.592 159.479 181.639 159.907 181.733 160.316C181.927 160.084 182.151 159.875 182.404 159.696C182.378 159.481 182.363 159.261 182.372 159.036L182.55 154.44C182.639 152.124 184.596 150.24 186.912 150.24C189.227 150.24 191.038 152.125 190.949 154.44L190.771 159.036C190.706 160.732 189.637 162.193 188.16 162.855C188.148 163.143 188.105 163.431 188.037 163.712C189.992 163.031 191.451 161.195 191.534 159.036L191.712 154.44C191.818 151.703 189.678 149.477 186.942 149.477Z" fill="white"/>
<path d="M199.765 94.6297H178.358C177.68 94.6297 177.147 94.0752 177.173 93.3969C177.199 92.7186 177.776 92.1641 178.453 92.1641H199.861C200.539 92.1641 201.072 92.7192 201.046 93.3969C201.02 94.0752 200.444 94.6297 199.765 94.6297Z" fill="#407BFF"/>
<path opacity="0.2" d="M166.277 116.043C165.042 116.144 163.764 116.171 162.474 116.13C162.034 116.036 161.578 116.003 161.106 116.043C161.059 116.043 161.012 116.043 160.964 116.05C157.417 115.808 153.772 115.122 150.394 114.141C150.041 114.04 149.676 113.919 149.304 113.791L146.336 190.569L166.152 177.349C167.968 176.138 169.101 174.135 169.183 171.996L171.168 120.663C171.274 117.926 169.009 115.815 166.277 116.043Z" fill="black"/>
<path d="M161.502 110.316C160.268 110.417 158.993 110.442 157.698 110.404C157.263 110.312 156.806 110.277 156.333 110.316C156.286 110.319 156.237 110.319 156.19 110.323C152.644 110.085 148.999 109.398 145.62 108.414C141.906 107.333 137.074 104.76 133.953 101.801C133.114 101.006 132.025 100.609 130.92 100.608V100.607H125.751V100.608C124.641 100.606 123.514 101.005 122.61 101.804C119.265 104.761 114.243 107.333 110.446 108.414C106.992 109.398 103.294 110.085 99.7294 110.323C99.6824 110.319 99.6342 110.319 99.5872 110.316C99.1175 110.277 98.6576 110.312 98.2153 110.404C96.9172 110.442 95.6448 110.417 94.4181 110.316C91.7024 110.09 89.2764 112.204 89.1709 114.937L87.1865 166.271C87.1036 168.41 88.082 170.412 89.8004 171.621L118.561 191.849C119.635 192.605 120.901 192.983 122.18 192.983H127.349C128.629 192.983 129.923 192.605 131.056 191.849L161.38 171.621C163.192 170.412 164.325 168.41 164.408 166.271L166.393 114.937C166.498 112.204 164.236 110.09 161.502 110.316Z" fill="#407BFF"/>
<path opacity="0.8" d="M161.502 110.316C160.268 110.417 158.993 110.442 157.698 110.404C157.263 110.312 156.806 110.277 156.333 110.316C156.286 110.319 156.237 110.319 156.19 110.323C152.644 110.085 148.999 109.398 145.62 108.414C141.906 107.333 137.074 104.76 133.953 101.801C133.114 101.006 132.025 100.609 130.92 100.608V100.607H125.751V100.608C124.641 100.606 123.514 101.005 122.61 101.804C119.265 104.761 114.243 107.333 110.446 108.414C106.992 109.398 103.294 110.085 99.7294 110.323C99.6824 110.319 99.6342 110.319 99.5872 110.316C99.1175 110.277 98.6576 110.312 98.2153 110.404C96.9172 110.442 95.6448 110.417 94.4181 110.316C91.7024 110.09 89.2764 112.204 89.1709 114.937L87.1865 166.271C87.1036 168.41 88.082 170.412 89.8004 171.621L118.561 191.849C119.635 192.605 120.901 192.983 122.18 192.983H127.349C128.629 192.983 129.923 192.605 131.056 191.849L161.38 171.621C163.192 170.412 164.325 168.41 164.408 166.271L166.393 114.937C166.498 112.204 164.236 110.09 161.502 110.316Z" fill="white"/>
<path d="M90.4986 166.174L92.3963 117.088C92.4683 115.233 94.0305 113.729 95.8855 113.73L96.9798 113.731C101.4 113.731 106.331 112.992 111.239 111.593C114.799 110.579 119.634 108.319 123.436 105.351C124.721 104.347 126.478 104.347 127.686 105.349C131.262 108.317 135.928 110.578 139.413 111.593C144.213 112.991 149.087 113.731 153.507 113.731L154.539 113.73C156.429 113.729 157.902 115.261 157.83 117.151L155.935 166.174C155.892 167.283 155.305 168.32 154.366 168.946L124.23 189.049C123.056 189.833 121.548 189.833 120.434 189.049L91.8522 168.946C90.9622 168.32 90.4559 167.283 90.4986 166.174Z" fill="#407BFF"/>
<path opacity="0.2" d="M98.8691 163.584L100.483 121.854C104.594 121.547 108.93 120.762 113.222 119.539C116.502 118.605 120.991 116.732 125.229 114.016C129.261 116.732 133.609 118.605 136.818 119.539C141.015 120.762 145.291 121.548 149.377 121.854L147.764 163.584L122.669 180.324L98.8691 163.584Z" fill="white"/>
<path opacity="0.2" d="M107.309 159.223L108.474 129.081C110.708 128.659 112.957 128.127 115.204 127.486C118.306 126.602 121.656 125.245 124.86 123.596C127.939 125.245 131.188 126.602 134.223 127.486C136.421 128.127 138.627 128.66 140.827 129.081L139.662 159.223L123.057 170.3L107.309 159.223Z" fill="white"/>
<path d="M51.9471 112.159C50.8076 114.529 49.6517 116.955 48.5415 119.346C47.9894 120.545 47.4575 121.745 46.9457 122.934C46.4608 124.112 45.9782 125.33 45.6867 126.359C45.4213 127.183 45.3792 128.482 45.3426 129.753C45.3262 131.037 45.3268 132.361 45.3634 133.687L45.5628 141.728L42.7489 142.144C42.0407 139.477 41.4722 136.81 41.0312 134.081C40.825 132.716 40.62 131.344 40.5066 129.925C40.4468 129.215 40.3992 128.497 40.3858 127.738C40.3821 127.355 40.3876 126.969 40.4163 126.544C40.4279 126.338 40.4486 126.115 40.4821 125.875C40.509 125.628 40.5547 125.459 40.5913 125.247C40.9061 123.64 41.3477 122.31 41.815 120.96C42.2847 119.63 42.7941 118.335 43.3254 117.058C44.3965 114.502 45.5433 112.037 46.8207 109.57L51.9471 112.159Z" fill="#FF8B7B"/>
<path d="M47.5821 142.841L45.2385 140.143L42.5929 140.276C41.3766 143.172 44.0252 145.02 44.0252 145.02L44.4943 146.608C44.6932 147.281 45.4502 147.597 46.0962 147.278L47.565 146.552C47.9884 146.343 48.2562 145.906 48.2464 145.443L48.2275 144.533C48.2153 143.904 47.9872 143.307 47.5821 142.841Z" fill="#FF8B7B"/>
<path d="M40.1376 263.34C39.6661 263.14 39.1945 262.823 38.8725 262.583C38.8304 262.552 38.8115 262.498 38.8243 262.446C38.8371 262.394 38.8792 262.354 38.9316 262.344C39.1579 262.3 41.1557 261.932 41.629 262.458C41.7041 262.541 41.7797 262.686 41.7169 262.907C41.6339 263.2 41.4692 263.392 41.2283 263.479C40.9221 263.59 40.5298 263.506 40.1376 263.34ZM39.2915 262.552C40.0998 263.109 40.7811 263.359 41.1453 263.228C41.3003 263.171 41.404 263.045 41.4619 262.84C41.4936 262.73 41.4613 262.676 41.4302 262.641C41.1819 262.362 40.0943 262.428 39.2915 262.552Z" fill="#407BFF"/>
<path d="M38.8988 262.599C38.878 262.59 38.8591 262.576 38.8451 262.556C38.8176 262.519 38.8128 262.468 38.8317 262.424C38.8597 262.36 39.5252 260.862 40.3005 260.594C40.5067 260.523 40.7038 260.54 40.8843 260.645C41.1704 260.811 41.1674 261.04 41.1399 261.161C40.9972 261.798 39.5759 262.531 38.9653 262.608C38.9421 262.611 38.9195 262.608 38.8988 262.599ZM40.6946 260.852C40.5952 260.81 40.4921 260.809 40.3798 260.847C39.9175 261.007 39.4337 261.802 39.1867 262.29C39.8455 262.099 40.7946 261.498 40.8819 261.11C40.8965 261.047 40.8941 260.962 40.7477 260.878C40.7306 260.868 40.7123 260.859 40.6946 260.852Z" fill="#407BFF"/>
<path d="M61.1924 90.1895C61.6957 93.5316 62.8364 100.824 60.4043 103C60.4043 103 61.1631 106.395 67.3559 106.517C74.1653 106.651 70.7621 103.204 70.7621 103.204C67.0856 102.244 67.3058 99.4913 68.0696 96.9171L61.1924 90.1895Z" fill="#FF8B7B"/>
<path d="M75.1371 84.6498C75.0981 84.6413 75.0609 84.6236 75.0285 84.5961C74.9169 84.5034 74.9041 84.3356 74.9993 84.221C75.9539 83.076 77.1721 83.1895 77.2233 83.1949C77.3685 83.209 77.471 83.3413 77.4521 83.4877C77.4332 83.6335 77.3002 83.7397 77.1556 83.725C77.1153 83.7214 76.165 83.6427 75.4031 84.5565C75.3354 84.6382 75.2317 84.6705 75.1371 84.6498Z" fill="#263238"/>
<path d="M76.4033 87.9375C76.4033 87.9375 76.9322 89.9554 77.6581 90.9735C76.9987 91.4743 76.0215 91.1235 76.0215 91.1235L76.4033 87.9375Z" fill="#FF5652"/>
<path d="M76.095 87.1231C76.0408 87.5751 76.2347 87.9637 76.5281 87.9917C76.8216 88.0198 77.1034 87.6758 77.1577 87.2238C77.212 86.7717 77.018 86.3832 76.7246 86.3551C76.4312 86.3271 76.1493 86.6711 76.095 87.1231Z" fill="#263238"/>
<path d="M76.5938 86.3667L77.7094 86.1562C77.7094 86.1562 77.0543 86.9517 76.5938 86.3667Z" fill="#263238"/>
<path d="M81.5309 265.568L87.4747 263.692L86.8885 251.588L80.9453 253.463L81.5309 265.568Z" fill="#FF8B7B"/>
<path d="M32.7617 261.246L38.1108 262.759L42.5906 250.37L37.2409 248.857L32.7617 261.246Z" fill="#FF8B7B"/>
<path d="M38.7911 261.691L33.0602 259.269C32.8515 259.18 32.6173 259.257 32.4965 259.453L29.8095 263.813C29.5307 264.266 29.7357 264.892 30.2206 265.086C32.2342 265.896 33.2499 266.183 35.7698 267.248C37.3204 267.903 38.5294 269.888 41.9448 269.888C44.2506 269.888 44.6886 267.802 43.7406 267.498C39.4902 266.134 40.3429 264.097 39.5036 262.371C39.3517 262.06 39.0961 261.82 38.7911 261.691Z" fill="#455A64"/>
<path d="M89.5923 264.525C89.0732 264.525 88.5028 264.418 88.1026 264.324C88.0508 264.312 88.0099 264.27 87.9989 264.218C87.988 264.165 88.0093 264.113 88.0526 264.084C88.2405 263.957 89.9101 262.856 90.5731 263.152C90.6781 263.199 90.8111 263.301 90.8501 263.526C90.9019 263.824 90.8354 264.062 90.6531 264.233C90.4206 264.451 90.0248 264.525 89.5923 264.525ZM88.4729 264.134C89.4568 264.329 90.1913 264.296 90.467 264.037C90.5841 263.926 90.6238 263.771 90.5878 263.563C90.5683 263.451 90.5152 263.414 90.4713 263.395C90.1217 263.236 89.1543 263.714 88.4729 264.134Z" fill="#407BFF"/>
<path d="M88.1335 264.328C88.1103 264.328 88.0871 264.321 88.0658 264.309C88.0243 264.285 87.9975 264.242 87.9956 264.195C87.9938 264.126 87.948 262.509 88.5404 261.969C88.6977 261.825 88.8856 261.765 89.0979 261.791C89.4322 261.831 89.5298 262.041 89.5578 262.162C89.7055 262.795 88.724 264.007 88.1981 264.31C88.178 264.322 88.1561 264.328 88.1335 264.328ZM89.0143 262.051C88.9051 262.051 88.81 262.089 88.724 262.168C88.3702 262.49 88.275 263.398 88.2622 263.936C88.7819 263.51 89.3889 262.599 89.2992 262.213C89.2846 262.15 89.2455 262.075 89.0753 262.054C89.054 262.053 89.0338 262.051 89.0143 262.051Z" fill="#407BFF"/>
<path d="M87.6367 263.545H81.3269C81.0975 263.545 80.9164 263.705 80.8914 263.929L80.3369 268.921C80.2795 269.439 80.7407 269.929 81.2702 269.919C83.4686 269.882 84.5245 269.752 87.2994 269.752C89.0062 269.752 91.506 269.93 93.8636 269.93C96.1694 269.93 96.2701 267.599 95.2812 267.388C90.849 266.441 90.1103 265.136 88.5865 263.891C88.312 263.666 87.9728 263.545 87.6367 263.545Z" fill="#455A64"/>
<path opacity="0.2" d="M86.8877 251.59L87.2024 258.075L81.244 259.706L80.9414 253.467L86.8877 251.59Z" fill="black"/>
<path opacity="0.2" d="M37.239 248.859L42.5906 250.373L40.2793 256.758L34.9277 255.244L37.239 248.859Z" fill="black"/>
<path d="M49.3922 103.709C47.0541 104.257 44.4805 112.69 44.4805 112.69L51.0105 119.601C51.0105 119.601 56.5609 111.631 55.4733 108.75C54.3417 105.749 52.1561 103.061 49.3922 103.709Z" fill="#407BFF"/>
<path opacity="0.2" d="M49.3922 103.709C47.0541 104.257 44.4805 112.69 44.4805 112.69L51.0105 119.601C51.0105 119.601 56.5609 111.631 55.4733 108.75C54.3417 105.749 52.1561 103.061 49.3922 103.709Z" fill="black"/>
<path opacity="0.4" d="M53.0389 108.994C54.2296 107.895 55.0244 108.205 55.5594 109.055C56.0718 111.541 52.6058 117.167 51.3059 119.165C50.7386 116.813 50.3463 111.49 53.0389 108.994Z" fill="black"/>
<path d="M79.3204 105.645C79.6461 108.102 79.443 115.584 74.7131 138.266L51.9027 137.818C52.7037 128.55 52.9721 122.832 49.3926 103.71C49.3926 103.71 54.2189 102.765 59.1367 102.625C62.9834 102.515 66.134 102.455 69.4945 102.828C72.7964 103.196 76.4137 103.917 78.0424 104.261C78.725 104.406 79.2289 104.952 79.3204 105.645Z" fill="#407BFF"/>
<path opacity="0.2" d="M79.3204 105.645C79.6461 108.102 79.443 115.584 74.7131 138.266L51.9027 137.818C52.7037 128.55 52.9721 122.832 49.3926 103.71C49.3926 103.71 54.2189 102.765 59.1367 102.625C62.9834 102.515 66.134 102.455 69.4945 102.828C72.7964 103.196 76.4137 103.917 78.0424 104.261C78.725 104.406 79.2289 104.952 79.3204 105.645Z" fill="black"/>
<path d="M61.1848 84.1386C60.8578 89.7207 60.601 92.0796 63.0447 95.1931C66.7199 99.876 73.6148 98.8793 75.5948 93.4643C77.3766 88.5904 77.6121 80.2804 72.4796 77.5592C67.422 74.8776 61.5117 78.5565 61.1848 84.1386Z" fill="#FF8B7B"/>
<path d="M68.6897 138.146C68.6897 138.146 65.3792 178.844 61.0189 200.483C57.4974 217.961 41.5307 255.725 41.5307 255.725L34.5742 252.786C34.5742 252.786 42.5908 210.009 48.0326 199.586C54.1503 163.713 44.2567 151.479 51.9031 137.816L68.6897 138.146Z" fill="#455A64"/>
<path opacity="0.4" d="M62.4851 160.42C59.9902 171.024 61.6042 180.66 63.2988 187.015C64.2943 180.203 65.202 172.86 65.9682 165.988C64.9129 164.011 63.5879 162.141 62.4851 160.42Z" fill="black"/>
<path d="M74.714 138.266C74.714 138.266 83.3723 178.03 84.4874 195.031C85.6476 212.715 87.9747 254.63 87.9747 254.63L80.3327 256.679C80.3327 256.679 71.7439 213.484 72.4161 200.484C68.1632 182.037 53.2578 137.869 53.2578 137.869L74.714 138.266Z" fill="#455A64"/>
<path d="M89.106 256.563L79.1862 258.24L78.2383 254.701L88.8547 252.896L89.106 256.563Z" fill="#407BFF"/>
<path d="M42.7401 256.072L33.4492 253.445L33.9671 249.998L43.9022 252.44L42.7401 256.072Z" fill="#407BFF"/>
<path d="M51.6213 136.474L50.5007 138.493C50.4135 138.65 50.594 138.815 50.8576 138.82L74.7793 139.29C74.9849 139.294 75.1599 139.197 75.1789 139.068L75.4765 137.032C75.4973 136.891 75.324 136.768 75.0996 136.764L52.0007 136.311C51.8311 136.306 51.6774 136.372 51.6213 136.474Z" fill="white"/>
<path d="M54.6067 139.116L53.9882 139.103C53.8649 139.101 53.7741 139.036 53.7863 138.958L54.1956 136.314C54.2078 136.236 54.3182 136.175 54.4414 136.178L55.0599 136.19C55.1832 136.192 55.274 136.258 55.2618 136.335L54.8525 138.98C54.8409 139.056 54.7299 139.118 54.6067 139.116Z" fill="#263238"/>
<path d="M69.6033 139.409L68.9848 139.397C68.8615 139.395 68.7707 139.329 68.7822 139.252L69.1916 136.607C69.2038 136.53 69.3142 136.468 69.4374 136.471L70.0559 136.483C70.1791 136.485 70.27 136.551 70.2584 136.628L69.8491 139.273C69.8369 139.351 69.7265 139.412 69.6033 139.409Z" fill="#263238"/>
<path d="M80.5702 108.543C81.6902 110.916 82.9321 113.381 84.215 115.719C85.5082 118.057 86.8807 120.367 88.4191 122.359C88.6125 122.613 88.8076 122.866 88.9675 123.048C89.1425 123.248 89.328 123.45 89.5372 123.646C89.9435 124.045 90.3943 124.44 90.8871 124.813C91.8711 125.558 92.9581 126.269 94.1024 126.917C96.3802 128.222 98.872 129.41 101.332 130.46L100.586 133.205C97.6954 132.712 94.9479 131.949 92.2017 130.847C90.8402 130.281 89.4793 129.649 88.1574 128.83C87.4943 128.427 86.838 127.971 86.1956 127.455C85.8754 127.199 85.5612 126.914 85.252 126.615C84.9244 126.299 84.6749 126.016 84.423 125.735C83.8971 125.17 83.4354 124.587 82.9571 124.006C82.5143 123.414 82.0543 122.824 81.6426 122.22C80.7849 121.025 80.0163 119.795 79.2709 118.556C77.7874 116.059 76.4948 113.557 75.3145 110.857L80.5702 108.543Z" fill="#FF8B7B"/>
<path d="M77.7087 104.175C83.056 105.342 84.351 113.739 84.351 113.739L79.0836 119.875C79.0836 119.875 70.7224 111.962 71.1359 107.635C71.4428 104.421 74.7941 103.54 77.7087 104.175Z" fill="#407BFF"/>
<path opacity="0.2" d="M77.7087 104.175C83.056 105.342 84.351 113.739 84.351 113.739L79.0836 119.875C79.0836 119.875 70.7224 111.962 71.1359 107.635C71.4428 104.421 74.7941 103.54 77.7087 104.175Z" fill="black"/>
<path d="M107.526 132.634L106.047 130.879C106.047 130.879 101.265 129.764 99.1493 130.801L98.4941 132.775L103.841 135.543L104.953 136.064C105.487 136.314 106.138 136.132 106.491 135.635L107.567 134.117C107.892 133.659 107.876 133.049 107.526 132.634Z" fill="#FF8B7B"/>
<path d="M76.7815 114.971C77.716 112.483 78.2339 109.457 78.0253 108.052C77.7093 110.6 75.7725 114.09 73.8224 116.679C66.0089 119.886 57.6104 118.414 52.1369 115.145C50.5362 111.898 49.2052 106.827 50.0458 103.802C49.0167 105.341 48.2573 109.544 48.741 112.509C47.1001 110.828 46.1454 108.946 46.1387 107.09C46.1119 98.18 56.8772 98.7247 57.0254 92.2221C57.173 85.7195 54.5244 72.4227 67.784 75.2635C76.4716 74.8529 74.6562 82.5121 73.2374 87.1719C71.9265 91.476 85.0659 107.984 76.7815 114.971Z" fill="#455A64"/>
<path d="M67.7856 75.2641C73.2195 72.3672 78.7485 76.9251 75.9273 81.7045C73.4171 81.5922 71.3895 83.1886 73.3506 86.3691C67.5221 82.6963 63.9579 75.585 67.7856 75.2641Z" fill="#455A64"/>
<path d="M73.4991 85.5226C74.2153 86.7219 74.3043 88.0218 74.2043 88.8904C74.0323 90.3874 72.8635 90.3886 72.0376 89.4937C71.294 88.6885 70.5321 86.753 71.0103 85.6105C71.4819 84.4856 72.8586 84.4509 73.4991 85.5226Z" fill="#FF8B7B"/>
</svg>
