<svg width="269" height="288" viewBox="0 0 269 288" fill="none" xmlns="http://www.w3.org/2000/svg">
<path d="M95.6624 116.76C72.5474 60.5977 11.6865 64.0068 0 85.3078V288H268.957C269.624 275.02 262.439 234.023 257.437 218.106C244.415 176.669 205.849 169.68 183.311 165.187C160.773 160.694 119.703 175.171 95.6624 116.76Z" fill="#E1E1E1"/>
<path d="M187.051 141.854V233.133C187.051 233.583 187.265 233.936 187.689 234.18C188.033 234.379 188.465 234.478 188.897 234.478C189.329 234.478 189.76 234.379 190.105 234.18C190.637 233.873 190.749 233.441 190.749 233.133V141.854H187.051Z" fill="#37474F"/>
<path d="M188.899 212.302C181.686 212.302 174.475 210.717 168.984 207.547C163.529 204.398 160.525 200.167 160.525 195.635C160.525 191.103 163.529 186.873 168.984 183.724C179.966 177.384 197.834 177.384 208.815 183.724C214.27 186.873 217.274 191.104 217.274 195.635C217.274 200.167 214.27 204.397 208.815 207.547C203.325 210.716 196.111 212.301 188.899 212.302ZM188.9 180.379C181.947 180.379 174.994 181.907 169.7 184.964C164.707 187.847 161.957 191.636 161.957 195.635C161.957 199.634 164.707 203.424 169.7 206.306C180.287 212.418 197.512 212.418 208.099 206.306C213.092 203.423 215.842 199.634 215.842 195.635C215.842 191.637 213.092 187.847 208.099 184.964C202.805 181.908 195.853 180.379 188.9 180.379Z" fill="#37474F"/>
<path d="M218.017 222.306L208.119 136.408L202.309 135.996H204.344L214.335 222.47C214.399 222.805 214.501 223.154 214.969 223.424C215.313 223.623 215.745 223.722 216.176 223.722C216.608 223.722 217.039 223.623 217.384 223.424C217.845 223.158 218.081 222.74 218.017 222.306Z" fill="#37474F"/>
<path d="M160.026 222.306L169.924 136.408L175.734 135.996H173.699L163.708 222.47C163.643 222.805 163.542 223.154 163.074 223.424C162.73 223.623 162.298 223.722 161.867 223.722C161.435 223.722 161.004 223.623 160.659 223.424C160.199 223.158 159.962 222.74 160.026 222.306Z" fill="#37474F"/>
<path d="M170.976 117.907C180.727 112.277 196.537 112.277 206.288 117.907C211.164 120.722 213.598 124.411 213.596 128.101C213.596 128.859 213.596 131.874 213.596 132.631C213.598 136.321 211.164 140.01 206.288 142.825C196.537 148.455 180.727 148.455 170.976 142.825C166.1 140.01 163.666 136.321 163.668 132.631C163.668 131.873 163.668 128.858 163.668 128.1C163.666 124.411 166.1 120.722 170.976 117.907Z" fill="#263238"/>
<path d="M170.976 115.707C180.727 110.077 196.537 110.077 206.288 115.707C211.164 118.522 213.598 122.211 213.596 125.901C213.596 126.659 213.596 129.674 213.596 130.431C213.598 134.121 211.164 137.81 206.288 140.625C196.537 146.255 180.727 146.255 170.976 140.625C166.1 137.81 163.666 134.121 163.668 130.431C163.668 129.673 163.668 126.658 163.668 125.9C163.666 122.211 166.1 118.522 170.976 115.707Z" fill="#BA68C8"/>
<path opacity="0.7" d="M170.976 115.707C180.727 110.077 196.537 110.077 206.288 115.707C211.164 118.522 213.598 122.211 213.596 125.901C213.596 126.659 213.596 129.674 213.596 130.431C213.598 134.121 211.164 137.81 206.288 140.625C196.537 146.255 180.727 146.255 170.976 140.625C166.1 137.81 163.666 134.121 163.668 130.431C163.668 129.673 163.668 126.658 163.668 125.9C163.666 122.211 166.1 118.522 170.976 115.707Z" fill="#002F88"/>
<path d="M206.289 136.094C216.04 130.464 216.04 121.336 206.289 115.706C196.538 110.076 180.728 110.076 170.977 115.706C161.226 121.336 161.226 130.464 170.977 136.093C180.728 141.724 196.538 141.724 206.289 136.094Z" fill="#BA68C8"/>
<path d="M206.289 136.094C216.04 130.464 216.04 121.336 206.289 115.706C196.538 110.076 180.728 110.076 170.977 115.706C161.226 121.336 161.226 130.464 170.977 136.093C180.728 141.724 196.538 141.724 206.289 136.094Z" fill="#002F88"/>
<path d="M156.473 161.567C156.473 161.567 163.323 171.786 164.66 176.118C166.052 180.632 167.54 181.87 168.016 187.041C168.12 188.167 168.098 190.484 168.177 191.399C168.248 192.214 168.7 192.77 169.761 192.726C171.85 192.638 174.209 188.079 174.757 183.626C175.305 179.173 175.225 169.459 175.088 168.328C174.956 167.237 174.273 166.011 173.654 165.283C172.567 164.006 172.324 163.854 172.324 163.854C171.165 162.028 169.898 158.321 168.685 155.84L156.473 161.567Z" fill="#FFBDA7"/>
<path d="M180.02 171.521C180.02 171.521 180.751 172.309 180.929 172.887C181.206 173.788 179.902 177.313 179.369 178.611C178.836 179.909 178.39 181.48 179.189 184.186C180.043 187.078 179.46 190.215 178.18 193.099C176.9 195.983 174.29 199.445 169.844 202.141C165.398 204.837 163.091 202.849 163.091 202.849C163.091 202.849 161.011 200.899 161.67 199.72C162.328 198.543 180.02 171.521 180.02 171.521Z" fill="#37474F"/>
<path d="M172.325 163.855C172.47 163.813 172.719 163.706 173.211 164.066C173.397 164.202 174.822 166.148 175.838 167.103C176.925 168.124 179.311 169.736 180.021 171.522C179.804 175.376 177.078 178.705 177.424 182.205C177.77 185.705 178.698 189.635 174.552 195.067C170.406 200.5 165.184 202.267 162.993 201.657C160.802 201.047 160.461 198.95 162.148 194.369C163.938 189.507 163.586 180.037 163.586 180.033C163.537 178.723 163.344 177.375 163.125 176.084C162.912 174.828 162.223 173.604 161.815 172.39C161.622 171.816 161.441 171.192 161.626 170.615C161.811 170.038 162.321 169.636 162.804 169.27C163.576 168.686 164.357 168.096 165.24 167.698C166.123 167.299 167.129 167.103 168.068 167.34C168.747 167.511 169.365 167.9 170.058 168.002C170.987 168.139 171.976 167.693 172.489 166.907C173.245 165.748 172.893 164.964 172.589 164.394C172.6 164.371 172.325 163.855 172.325 163.855Z" fill="#BA68C8"/>
<path opacity="0.4" d="M172.325 163.855C172.47 163.813 172.719 163.706 173.211 164.066C173.397 164.202 174.822 166.148 175.838 167.103C176.925 168.124 179.311 169.736 180.021 171.522C179.804 175.376 177.078 178.705 177.424 182.205C177.77 185.705 178.698 189.635 174.552 195.067C170.406 200.5 165.184 202.267 162.993 201.657C160.802 201.047 160.461 198.95 162.148 194.369C163.938 189.507 163.586 180.037 163.586 180.033C163.537 178.723 163.344 177.375 163.125 176.084C162.912 174.828 162.223 173.604 161.815 172.39C161.622 171.816 161.441 171.192 161.626 170.615C161.811 170.038 162.321 169.636 162.804 169.27C163.576 168.686 164.357 168.096 165.24 167.698C166.123 167.299 167.129 167.103 168.068 167.34C168.747 167.511 169.365 167.9 170.058 168.002C170.987 168.139 171.976 167.693 172.489 166.907C173.245 165.748 172.893 164.964 172.589 164.394C172.6 164.371 172.325 163.855 172.325 163.855Z" fill="#002F88"/>
<path d="M176.748 190.995C176.748 190.995 173.712 187.416 168.213 188.822C162.714 190.228 161.514 193.508 161.091 195.366C160.587 197.578 160.443 201.395 162.971 201.844C165.703 202.329 168.458 201.273 172.365 197.907C176.272 194.542 176.748 190.995 176.748 190.995Z" fill="#FAFAFA"/>
<path d="M171.575 174.668C171.438 174.781 171.253 174.834 171.072 174.792C170.112 174.572 165.377 174.763 163.368 177.854C162.96 177.667 162.904 177.152 163.162 176.341C165.739 173.622 170.216 173.42 171.374 173.686C171.678 173.755 171.855 174.06 171.772 174.364C171.738 174.487 171.667 174.591 171.575 174.668Z" fill="#FAFAFA"/>
<path d="M163.61 181.203C163.299 180.764 163.346 179.951 163.547 179.611C166.158 177.209 170.321 177.034 171.432 177.287C171.735 177.356 171.912 177.66 171.829 177.965C171.795 178.089 171.725 178.192 171.632 178.269C171.495 178.383 171.31 178.435 171.129 178.393C170.198 178.18 165.707 178.365 163.61 181.203Z" fill="#FAFAFA"/>
<path d="M163.237 189.206C163.044 188.539 163.117 187.81 163.44 187.037C166.032 184.426 170.406 184.231 171.548 184.492C171.851 184.561 172.029 184.866 171.946 185.17C171.912 185.294 171.842 185.397 171.749 185.474C171.612 185.587 171.427 185.639 171.246 185.598C170.232 185.366 165.015 185.594 163.237 189.206Z" fill="#FAFAFA"/>
<path d="M171.691 181.872C171.554 181.986 171.369 182.037 171.188 181.996C170.239 181.779 165.602 181.97 163.555 184.959C163.307 184.479 163.313 183.894 163.604 183.213C166.217 180.81 170.379 180.635 171.489 180.89C171.792 180.959 171.97 181.264 171.886 181.568C171.854 181.692 171.783 181.795 171.691 181.872Z" fill="#FAFAFA"/>
<path d="M155.82 177.049C155.82 177.049 156.837 191.204 155.599 197.089C154.36 202.974 153.684 205.834 151.188 210.662C150.644 211.713 149.319 213.743 148.873 214.595C148.476 215.353 148.561 216.099 149.521 216.657C151.412 217.757 158.013 216.538 161.007 212.922C164.001 209.306 165.924 202.673 167.572 199.945C168.191 198.92 168.758 197.888 169.275 196.814C169.773 195.778 169.382 195.001 169.211 194.016C169.128 193.54 168.753 192.275 168.753 192.275C168.701 189.863 169.86 185.569 170.041 183.163L155.82 177.049Z" fill="#FFBDA7"/>
<path d="M172.514 202.25C172.514 202.25 172.843 203.326 172.746 203.951C172.596 204.926 169.758 207.649 168.664 208.629C167.569 209.608 166.432 210.884 165.949 213.797C165.432 216.91 163.452 219.598 160.93 221.729C158.408 223.86 154.37 225.928 148.953 226.437C143.536 226.945 142.271 224.021 142.271 224.021C142.271 224.021 141.203 221.236 142.361 220.426C143.519 219.616 172.514 202.25 172.514 202.25Z" fill="#37474F"/>
<path d="M168.767 191.518C168.923 191.545 169.206 191.558 169.505 192.121C169.618 192.335 170.071 194.817 170.592 196.18C171.149 197.638 172.66 200.245 172.514 202.25C170.551 205.78 166.464 207.67 165.191 211.123C163.918 214.576 162.998 218.7 156.615 221.923C150.231 225.146 144.507 224.425 142.723 222.85C140.939 221.275 141.575 219.145 145.255 215.602C149.161 211.841 153.152 202.764 153.154 202.76C153.706 201.504 154.139 200.147 154.523 198.831C154.896 197.551 154.806 196.084 154.976 194.755C155.057 194.126 155.171 193.456 155.608 192.997C156.045 192.538 156.709 192.392 157.331 192.269C158.325 192.071 159.329 191.873 160.342 191.901C161.355 191.929 162.393 192.203 163.169 192.855C163.73 193.326 164.134 193.975 164.74 194.387C165.552 194.94 166.687 194.972 167.529 194.466C168.77 193.72 168.797 192.822 168.771 192.146C168.791 192.129 168.767 191.518 168.767 191.518Z" fill="#BA68C8"/>
<path opacity="0.4" d="M168.767 191.518C168.923 191.545 169.206 191.558 169.505 192.121C169.618 192.335 170.071 194.817 170.592 196.18C171.149 197.638 172.66 200.245 172.514 202.25C170.551 205.78 166.464 207.67 165.191 211.123C163.918 214.576 162.998 218.7 156.615 221.923C150.231 225.146 144.507 224.425 142.723 222.85C140.939 221.275 141.575 219.145 145.255 215.602C149.161 211.841 153.152 202.764 153.154 202.76C153.706 201.504 154.139 200.147 154.523 198.831C154.896 197.551 154.806 196.084 154.976 194.755C155.057 194.126 155.171 193.456 155.608 192.997C156.045 192.538 156.709 192.392 157.331 192.269C158.325 192.071 159.329 191.873 160.342 191.901C161.355 191.929 162.393 192.203 163.169 192.855C163.73 193.326 164.134 193.975 164.74 194.387C165.552 194.94 166.687 194.972 167.529 194.466C168.77 193.72 168.797 192.822 168.771 192.146C168.791 192.129 168.767 191.518 168.767 191.518Z" fill="#002F88"/>
<path d="M160.542 219.093C160.542 219.093 159.317 214.337 153.497 213.15C147.677 211.963 145.05 214.504 143.803 216.06C142.319 217.913 140.44 221.441 142.616 223.018C144.966 224.721 148.043 224.985 153.258 223.6C158.473 222.215 160.542 219.093 160.542 219.093Z" fill="#FAFAFA"/>
<path d="M163.125 201.355C162.944 201.399 162.746 201.364 162.595 201.242C161.792 200.598 157.246 198.615 153.943 200.609C153.644 200.247 153.827 199.736 154.439 199.091C158.107 197.707 162.414 199.561 163.383 200.34C163.637 200.544 163.666 200.912 163.448 201.16C163.361 201.259 163.247 201.325 163.125 201.355Z" fill="#FAFAFA"/>
<path d="M152.64 203.872C152.547 203.316 152.963 202.573 153.308 202.344C156.864 201.274 160.863 203.01 161.793 203.756C162.047 203.96 162.075 204.326 161.858 204.576C161.77 204.677 161.656 204.742 161.534 204.772C161.353 204.816 161.155 204.781 161.004 204.659C160.223 204.034 155.91 202.158 152.64 203.872Z" fill="#FAFAFA"/>
<path d="M148.635 211.238C148.758 210.521 149.159 209.869 149.816 209.288C153.448 208.013 157.656 209.826 158.612 210.594C158.866 210.798 158.895 211.166 158.677 211.414C158.589 211.515 158.475 211.58 158.353 211.61C158.172 211.654 157.974 211.619 157.823 211.497C156.976 210.816 151.959 208.65 148.635 211.238Z" fill="#FAFAFA"/>
<path d="M159.944 208.191C159.763 208.235 159.565 208.2 159.414 208.078C158.619 207.441 154.166 205.504 150.874 207.384C150.86 206.819 151.132 206.271 151.717 205.763C155.274 204.693 159.273 206.429 160.203 207.175C160.457 207.379 160.485 207.747 160.268 207.995C160.18 208.095 160.067 208.161 159.944 208.191Z" fill="#FAFAFA"/>
<path d="M170.87 95.5234C165.767 100.483 154.911 105.908 140.997 117.819C137.723 120.622 134.823 125.015 138.13 133.334C141.172 140.985 150.929 153.353 156.468 162.863L196.646 104.765L170.87 95.5234Z" fill="#455A64"/>
<path d="M155.718 161.582C162.13 154.503 180.345 114.697 180.345 114.697C180.345 114.697 179.341 114.627 179.334 114.622C173.71 112.688 171.362 106.251 171.362 106.251C170.964 109.305 172.035 112.621 174.044 114.751C171.185 117.313 164.894 123.249 154.983 132.33C153.257 133.911 150.096 137.647 150.784 142.901C151.683 149.765 152.489 156.52 152.489 156.52L155.718 161.582Z" fill="#263238"/>
<path d="M173.684 97.1811L216.842 96.248C217.863 106.643 215.852 114.86 214.92 117.705C213.507 122.014 208.587 128.48 198.569 134.188C188.126 140.139 176.536 145.289 174.243 146.83C173.515 147.97 174.142 153.014 174.018 157.961C173.889 163.15 173.881 165.739 172.074 176.958C171.196 182.411 170.04 186.382 170.04 186.382C170.04 186.382 162.484 188.4 155.644 185.411C155.644 185.411 152.573 159.967 152.104 153.332C151.631 146.635 150.195 140.018 154.058 135.419C157.37 131.476 179.335 114.621 179.335 114.621C179.335 114.621 170.779 107.643 173.684 97.1811Z" fill="#455A64"/>
<path d="M149.159 69.6852L140.061 66.2432L137.371 76.5681L147.406 82.9362L149.159 69.6852Z" fill="#FFBDA7"/>
<path d="M178.863 43.167C176.218 43.942 172.458 44.809 168.951 50.401C165.356 56.133 161.238 63.163 155.831 71.945L148.244 69.068C147.401 73.437 145.809 77.404 142.195 80.287C142.195 80.287 151.055 86.208 156.971 88.038C161.396 89.407 164.182 88.155 167.339 84.685C170.85 80.826 179.653 66.996 179.653 66.996L178.863 43.167Z" fill="#37474F"/>
<path d="M155.832 71.945C158.346 72.724 162.467 75.696 162.96 77.101C161.416 72.777 157.724 71.377 156.516 70.833L155.832 71.945Z" fill="#263238"/>
<path d="M121.264 51.2307L121.242 51.2347L122.271 50.2237L122.272 50.2377C122.505 50.0237 122.883 49.9367 123.385 50.0387L135.357 52.4817C136.471 52.7077 137.732 53.7397 138.173 54.7867L148.283 78.7477C148.517 79.3027 148.468 79.7457 148.209 80.0107L148.218 80.0127L147.157 81.0557V81.0417C146.926 81.2627 146.543 81.3527 146.034 81.2497L134.062 78.8077C132.948 78.5817 131.686 77.5497 131.245 76.5017C129.259 71.7917 123.121 57.2487 121.135 52.5397C120.887 51.9487 120.961 51.4877 121.264 51.2307Z" fill="#455A64"/>
<path d="M135.656 54.0902C136.303 54.5352 136.876 55.1702 137.145 55.8022L147.257 79.7552C147.477 80.2932 147.451 80.7282 147.219 80.9922L148.217 80.0162L148.205 80.0062C148.469 79.7392 148.517 79.3032 148.285 78.7442L138.172 54.7802C137.927 54.1892 137.402 53.6062 136.798 53.1582L135.656 54.0902Z" fill="#263238"/>
<path d="M147.252 79.7608L137.142 55.7998C136.7 54.7528 135.439 53.7199 134.325 53.4949L122.353 51.0519C121.239 50.8259 120.694 51.4919 121.135 52.5389C123.121 57.2479 129.259 71.7909 131.245 76.5009C131.687 77.5489 132.948 78.5809 134.062 78.8069L146.034 81.2488C147.148 81.4748 147.694 80.8088 147.252 79.7608Z" fill="#37474F"/>
<path d="M137.466 60.9426L135.574 56.4586C135.491 56.2626 135.255 56.0696 135.047 56.0276L132.797 55.5716C132.589 55.5296 132.487 55.6537 132.569 55.8497C132.941 56.7317 134.089 59.4526 134.461 60.3346C134.544 60.5306 134.78 60.7236 134.988 60.7656L137.238 61.2216C137.447 61.2636 137.549 61.1386 137.466 60.9426Z" fill="#455A64"/>
<path d="M135.538 57.5629C135.336 57.0859 134.736 56.6109 134.197 56.5019C133.658 56.3929 133.384 56.6919 133.587 57.1679C133.789 57.6449 134.389 58.1209 134.927 58.2299C135.466 58.3389 135.739 58.0399 135.538 57.5629Z" fill="#263238"/>
<path d="M136.463 59.8276C136.261 59.3506 135.661 58.8756 135.122 58.7666C134.584 58.6576 134.309 58.9556 134.512 59.4326C134.714 59.9096 135.314 60.3846 135.852 60.4946C136.392 60.6026 136.665 60.3046 136.463 59.8276Z" fill="#263238"/>
<path d="M123.798 65.3518C122.413 63.8828 122.491 63.6528 123.009 62.7368C123.527 61.8208 124.752 60.2628 126.887 60.0378C128.323 59.8868 129.763 59.6628 130.552 59.9438C131.341 60.2248 130.924 61.8608 129.117 62.5308C126.27 63.5868 126.397 64.3828 126.397 64.3828C126.397 64.3828 129.02 63.4128 130.098 63.2048C131.176 62.9968 133.228 63.2448 134.492 63.2728C135.756 63.3008 136.218 64.8648 134.193 65.6988C134.193 65.6988 135.79 65.7368 136.511 65.7548C138.134 65.7938 138.789 66.5658 137.674 67.7178C137.409 67.9918 137.035 68.3178 136.309 68.4528C136.309 68.4528 138.001 68.2218 138.112 68.7798C138.431 70.3788 137.442 70.9438 134.158 72.3998C131.027 73.7878 130.664 75.4848 131.425 76.8548C131.425 76.8548 129.988 76.1698 128.709 75.5208C127.772 75.0458 126.956 74.4788 127.161 73.0888C127.161 73.0888 125.303 73.3778 125.033 72.2408C124.763 71.1048 125.149 69.7108 125.149 69.7108C125.149 69.7108 123.982 69.3198 123.863 67.9388C123.744 66.5578 124.267 65.8228 124.267 65.8228L123.798 65.3518Z" fill="#FFBDA7"/>
<path d="M134.193 65.698C133.495 65.688 132.832 65.625 132.103 65.754C131.361 65.923 130.78 66.317 130.193 66.657C129.032 67.382 127.895 68.148 126.859 69.068C128.15 68.555 129.339 67.886 130.504 67.178C131.085 66.822 131.65 66.425 132.226 66.21C132.828 66.025 133.541 65.917 134.193 65.698Z" fill="#F0997A"/>
<path d="M136.31 68.4515C135.574 68.3365 134.783 68.4265 134.071 68.6865C133.351 68.9285 132.686 69.2795 132.039 69.6435C130.76 70.3965 129.539 71.2365 128.438 72.2455C129.801 71.6385 131.072 70.8965 132.342 70.1685C133.616 69.4425 134.829 68.6815 136.31 68.4515Z" fill="#F0997A"/>
<path d="M191.865 41.5758C201.305 41.8888 206.759 43.7377 213.871 46.3617C215.962 47.8797 217.156 53.7227 217.588 64.1457C218.067 75.6767 218.137 82.0607 217.943 90.6577C217.715 100.76 217.141 105.957 217.141 105.957C202.407 113.202 174.577 106.931 168.264 97.4587C170.4 92.9877 172.474 93.2697 170.607 68.0667C169.508 53.2407 173.109 46.5827 179.119 42.8207C181.944 42.3897 189.596 41.5008 191.865 41.5758Z" fill="#1B4BA4"/>
<path d="M175.411 18.5185C174.727 17.6415 173.486 15.7515 174.35 14.6575C172.54 13.9075 171.279 10.0305 174.179 10.8845C170.634 9.84054 169.417 4.90454 170.754 4.07054C171.516 3.59554 172.555 4.39453 174.399 4.37553C177.794 4.34053 177.577 3.77254 183.365 1.27154C188.084 -0.768456 202.525 -1.59546 203.278 8.69754C208.008 9.38054 208.318 16.8535 207.033 20.0905C204.667 26.0525 202.372 30.0105 201.203 34.2935C198.209 32.4646 180.171 23.0325 175.411 18.5185Z" fill="#37474F"/>
<path d="M205.698 29.7272C202.935 31.8872 201.318 29.7722 201.318 29.7722L201.466 43.3052C195.82 51.0052 180.135 50.1512 186.69 42.3532L186.527 38.8932C186.527 38.8932 184.507 39.1202 182.156 38.7482C179.124 38.2682 176.973 36.1112 176.157 33.3392C175.176 30.0022 174.856 25.9032 175.08 21.9192C175.284 18.3012 175.885 12.9252 176.475 11.0432C178.914 8.78421 184.435 12.3912 192.942 10.8302C193.093 12.3872 193.573 13.6852 194.86 15.3662C195.492 16.1912 196.472 16.8072 197.291 17.1832C196.851 19.1382 196.701 20.3942 196.956 22.3342C197.065 23.1572 197.933 24.2342 199.459 23.6382C200.179 23.3572 200.679 21.7352 201.404 20.6472C202.379 19.1842 205.539 18.4312 207.155 21.5082C208.789 24.6422 207.584 28.2372 205.698 29.7272Z" fill="#FFBDA7"/>
<path d="M186.527 38.8937C189.429 38.5327 192.184 38.3787 195.541 36.0977C197.887 34.5027 199.003 30.1777 199.003 30.1777C199.003 30.1777 199.103 33.6507 197.018 36.6677C195.709 38.5617 193.434 39.3267 191.614 39.9317C189.794 40.5357 186.61 40.6637 186.61 40.6637L186.527 38.8937Z" fill="#F0997A"/>
<path d="M188.684 16.7126L191.573 18.6336C192.092 17.8006 191.865 16.6956 191.067 16.1646C190.269 15.6346 189.202 15.8796 188.684 16.7126Z" fill="#263238"/>
<path d="M180.179 16.4085L176.973 17.7355C176.625 16.8185 177.062 15.7776 177.947 15.4116C178.833 15.0446 179.832 15.4915 180.179 16.4085Z" fill="#263238"/>
<path d="M187.342 29.5996L182.904 30.9466C183.322 32.1896 184.655 32.8956 185.881 32.5226C187.106 32.1506 187.76 30.8416 187.342 29.5996Z" fill="#B16668"/>
<path d="M187.144 30.493C185.907 30.406 184.834 31.33 184.729 32.561C185.103 32.64 185.496 32.64 185.88 32.523C186.793 32.246 187.387 31.449 187.459 30.547C187.356 30.525 187.253 30.501 187.144 30.493Z" fill="#F28F8F"/>
<path d="M190.102 21.3235C190.059 22.1065 189.389 22.7065 188.606 22.6635C187.823 22.6205 187.223 21.9504 187.266 21.1674C187.309 20.3844 187.979 19.7844 188.762 19.8284C189.545 19.8704 190.145 20.5405 190.102 21.3235Z" fill="#263238"/>
<path d="M180.178 20.6496C180.135 21.4326 179.465 22.0326 178.682 21.9896C177.899 21.9466 177.299 21.2766 177.342 20.4936C177.385 19.7106 178.055 19.1106 178.838 19.1546C179.622 19.1966 180.222 19.8666 180.178 20.6496Z" fill="#263238"/>
<path d="M178.516 25.3304L183.178 27.4614L184.188 17.7354L178.516 25.3304Z" fill="#F0997A"/>
<path d="M166.292 51.118C167.981 54.951 168.226 65.57 165.008 64.177C158.64 60.778 154.551 48.311 158.767 42.923C162.896 37.647 168.106 39.643 167.512 41.949C166.914 44.27 163.127 47.042 166.292 51.118Z" fill="#002F88"/>
<path opacity="0.4" d="M166.292 51.118C167.981 54.951 168.226 65.57 165.008 64.177C158.64 60.778 154.551 48.311 158.767 42.923C162.896 37.647 168.106 39.643 167.512 41.949C166.914 44.27 163.127 47.042 166.292 51.118Z" fill="white"/>
<path opacity="0.2" d="M166.292 51.118C167.981 54.951 168.226 65.57 165.008 64.177C158.64 60.778 154.551 48.311 158.767 42.923C162.896 37.647 168.106 39.643 167.512 41.949C166.914 44.27 163.127 47.042 166.292 51.118Z" fill="#002F88"/>
<path opacity="0.48" d="M165.246 42.5402C163.311 43.8412 161.051 47.4402 163.664 52.2722C164.812 54.3942 166.016 54.2932 167.005 53.5122C166.813 52.5842 166.573 51.7562 166.292 51.1172C163.127 47.0412 166.914 44.2692 167.512 41.9482C167.689 41.2612 167.343 40.6072 166.672 40.1592C167.253 40.7312 166.589 41.6372 165.246 42.5402Z" fill="#002F88"/>
<path d="M169.41 53.408C167.193 54.373 165.119 61.759 168.139 64.946C174.247 70.707 182.461 64.206 180.693 54.46C179.099 45.677 172.764 43.798 172.244 46.008C171.762 48.056 173.529 53.272 169.41 53.408Z" fill="#002F88"/>
<path opacity="0.4" d="M169.41 53.408C167.193 54.373 165.119 61.759 168.139 64.946C174.247 70.707 182.461 64.206 180.693 54.46C179.099 45.677 172.764 43.798 172.244 46.008C171.762 48.056 173.529 53.272 169.41 53.408Z" fill="white"/>
<path opacity="0.48" d="M172.244 46.0084C172.194 46.2224 172.171 46.4754 172.161 46.7484C172.195 46.0004 173.275 45.6804 174.882 46.9074C176.513 48.1514 179.055 53.1994 178.336 57.9514C177.617 62.7044 172.122 65.6524 169.645 64.9034L170.205 66.4004C175.926 69.2364 182.268 63.1394 180.693 54.4594C179.1 45.6774 172.765 43.7974 172.244 46.0084Z" fill="#002F88"/>
<path d="M169.41 53.4075C167.991 54.9155 166.36 58.6465 168.277 62.7205C170.194 66.7945 173.08 67.1085 173.08 67.1085C173.08 67.1085 171.454 68.3085 167.933 66.8085C164.412 65.3085 160.623 62.1825 159.701 57.6715C158.779 53.1605 164.914 50.3535 166.324 50.8065C167.734 51.2605 169.817 52.5135 170.164 53.3115C170.166 53.3115 169.92 53.4795 169.41 53.4075Z" fill="#002F88"/>
<path opacity="0.4" d="M169.41 53.4075C167.991 54.9155 166.36 58.6465 168.277 62.7205C170.194 66.7945 173.08 67.1085 173.08 67.1085C173.08 67.1085 171.454 68.3085 167.933 66.8085C164.412 65.3085 160.623 62.1825 159.701 57.6715C158.779 53.1605 164.914 50.3535 166.324 50.8065C167.734 51.2605 169.817 52.5135 170.164 53.3115C170.166 53.3115 169.92 53.4795 169.41 53.4075Z" fill="white"/>
<path opacity="0.39" d="M169.41 53.4082C169.919 53.4812 170.166 53.3132 170.166 53.3132C169.819 52.5152 167.736 51.2623 166.326 50.8083C165.74 50.6193 164.338 51.0012 162.965 51.8272C163.856 51.3632 165.01 51.3072 165.642 51.6322C166.381 52.0122 167.963 52.9452 166.911 55.1092C165.8 57.3932 165.873 60.7092 166.977 63.4792C168.056 66.1852 167.511 66.3092 165.871 65.7502C166.554 66.1632 167.249 66.5192 167.934 66.8112C171.455 68.3112 173.081 67.1112 173.081 67.1112C173.081 67.1112 170.194 66.7982 168.278 62.7232C166.361 58.6462 167.991 54.9152 169.41 53.4082Z" fill="#002F88"/>
<path d="M160.84 58.9238C162.025 58.8538 163.288 59.6288 164.188 60.3228C165.235 61.1298 166.199 62.0138 167.292 62.7798C168.561 63.6688 169.905 64.5908 171.395 65.0688C172.485 65.4188 173.681 65.6998 174.833 65.5568C176.358 65.3678 177.998 64.9318 179.296 63.2858C180.098 64.2068 180.689 65.9927 181.104 67.4027C181.407 68.4357 181.733 69.9298 182.484 70.7968C183.943 72.4838 192.485 78.2007 201.797 83.4767C201.797 83.4767 205.84 72.5638 207.08 67.4828C207.08 67.4828 208.341 55.4298 214.126 46.9268C224.155 50.6928 225.836 56.3738 221.807 70.2128C218.091 82.9778 215.4 89.8568 212.972 93.8418C207.201 103.315 202.463 101.263 194.237 95.7118C185.907 90.0908 178.908 81.7258 174.573 78.2878C172.235 76.4328 170.671 76.1398 169.405 75.5218C168.139 74.9038 165.33 73.1038 163.767 71.5208C163.111 70.8568 162.292 70.0748 161.836 69.2578C161.361 68.4068 161.772 67.3428 161.634 66.4258C161.617 66.3108 161.582 66.2037 161.539 66.1017C161.415 65.8127 161.217 65.5568 161.122 65.2338C160.978 64.7418 160.985 64.2358 161.084 63.7378C161.28 62.7488 161.225 62.1247 160.76 61.2217C160.444 60.6117 159.678 58.9928 160.84 58.9238Z" fill="#FFBDA7"/>
<path d="M206.348 64.9649L201.316 82.3589L191.811 77.4859C191.811 77.4859 192.855 82.3749 191.456 85.6209C190.057 88.8669 186.973 90.2929 186.973 90.2929C186.973 90.2929 194.002 96.6549 198.724 99.4759C203.447 102.297 206.397 101.657 208.211 100.703C210.025 99.7499 214.139 95.2259 215.531 91.6719C216.923 88.1179 220.77 77.2089 221.789 73.2539C222.808 69.2989 225.987 59.8999 224.038 54.8149C222.089 49.7299 217.447 47.6049 213.84 46.3789C209.372 49.3289 206.348 64.9649 206.348 64.9649Z" fill="#37474F"/>
<path d="M201.316 82.3587C201.355 82.3797 201.395 82.4007 201.434 82.4217C206.613 85.2397 207.659 90.7097 207.614 93.2957C208.394 89.5577 208.299 84.5357 201.838 80.5537L201.316 82.3587Z" fill="#263238"/>
<path d="M58.0352 140.883V232.162C58.0352 232.612 58.2492 232.965 58.6732 233.209C59.0172 233.408 59.4491 233.507 59.8811 233.507C60.3131 233.507 60.7442 233.408 61.0892 233.209C61.6212 232.902 61.7332 232.47 61.7332 232.162V140.883H58.0352Z" fill="#37474F"/>
<path d="M59.8838 211.33C52.6708 211.33 45.4598 209.745 39.9688 206.575C34.5138 203.425 31.5098 199.195 31.5098 194.663C31.5098 190.131 34.5138 185.901 39.9688 182.751C50.9508 176.411 68.8188 176.411 79.7998 182.751C85.2548 185.901 88.2588 190.131 88.2588 194.663C88.2588 199.195 85.2548 203.425 79.7998 206.575C74.3098 209.745 67.0958 211.33 59.8838 211.33ZM59.8838 179.408C52.9308 179.408 45.9778 180.936 40.6838 183.993C35.6908 186.876 32.9408 190.665 32.9408 194.664C32.9408 198.663 35.6908 202.453 40.6838 205.335C51.2708 211.447 68.4958 211.447 79.0828 205.335C84.0758 202.452 86.8258 198.662 86.8258 194.664C86.8258 190.665 84.0758 186.876 79.0828 183.993C73.7898 180.936 66.8378 179.408 59.8838 179.408Z" fill="#37474F"/>
<path d="M89.001 221.334L79.103 135.436L73.293 135.024H75.328L85.319 221.498C85.383 221.833 85.485 222.182 85.953 222.452C86.297 222.651 86.729 222.75 87.161 222.75C87.593 222.75 88.024 222.651 88.369 222.452C88.829 222.187 89.065 221.768 89.001 221.334Z" fill="#37474F"/>
<path d="M31.0103 221.334L40.9083 135.436L46.7183 135.024H44.6833L34.6923 221.498C34.6283 221.833 34.5263 222.182 34.0583 222.452C33.7143 222.651 33.2823 222.75 32.8503 222.75C32.4183 222.75 31.9863 222.651 31.6423 222.452C31.1823 222.187 30.9463 221.768 31.0103 221.334Z" fill="#37474F"/>
<path d="M41.9603 116.936C51.7113 111.306 67.5214 111.306 77.2724 116.936C82.1484 119.751 84.5814 123.44 84.5804 127.13C84.5794 127.888 84.5794 130.903 84.5804 131.66C84.5824 135.35 82.1484 139.039 77.2724 141.854C67.5214 147.484 51.7113 147.484 41.9603 141.854C37.0843 139.039 34.6503 135.349 34.6523 131.66C34.6523 130.902 34.6523 127.887 34.6523 127.129C34.6503 123.44 37.0843 119.751 41.9603 116.936Z" fill="#263238"/>
<path d="M41.9603 114.736C51.7113 109.106 67.5214 109.106 77.2724 114.736C82.1484 117.551 84.5814 121.24 84.5804 124.93C84.5794 125.688 84.5794 128.703 84.5804 129.46C84.5824 133.149 82.1484 136.839 77.2724 139.654C67.5214 145.284 51.7113 145.284 41.9603 139.654C37.0843 136.839 34.6503 133.15 34.6523 129.46C34.6523 128.702 34.6523 125.687 34.6523 124.929C34.6503 121.24 37.0843 117.551 41.9603 114.736Z" fill="#2D5DB7"/>
<path opacity="0.5" d="M41.9603 114.736C51.7113 109.106 67.5214 109.106 77.2724 114.736C82.1484 117.551 84.5814 121.24 84.5804 124.93C84.5794 125.688 84.5794 128.703 84.5804 129.46C84.5824 133.149 82.1484 136.839 77.2724 139.654C67.5214 145.284 51.7113 145.284 41.9603 139.654C37.0843 136.839 34.6503 133.15 34.6523 129.46C34.6523 128.702 34.6523 125.687 34.6523 124.929C34.6503 121.24 37.0843 117.551 41.9603 114.736Z" fill="#002F88"/>
<path d="M77.2737 135.122C87.0247 129.492 87.0247 120.364 77.2737 114.734C67.5227 109.104 51.7127 109.104 41.9617 114.734C32.2107 120.364 32.2107 129.492 41.9617 135.121C51.7127 140.752 67.5217 140.752 77.2737 135.122Z" fill="#BA68C8"/>
<path d="M76.9922 135.046C86.7552 129.383 86.7552 120.203 76.9922 114.54C67.2292 108.877 51.3997 108.877 41.6367 114.54C31.8737 120.203 31.8737 129.384 41.6367 135.045C51.3997 140.709 67.2282 140.709 76.9922 135.046Z" fill="#002F88"/>
<path d="M105.708 148.436C105.708 148.436 91.1129 172.469 88.6549 177.434C86.8289 181.123 85.3929 183.858 84.8079 186.842C84.2229 189.826 84.5929 194.557 84.9759 196.94C84.9759 196.94 86.3339 203.368 85.2219 203.273C84.1099 203.178 75.5479 199.145 72.6039 195.874C69.6599 192.603 71.1299 189.314 73.2859 182.99C75.4419 176.665 79.3299 167.874 79.3299 167.874C79.3299 167.874 79.6129 167.754 80.2739 167.153C81.7269 165.834 87.7879 146.355 89.0979 141.903L105.708 148.436Z" fill="#AF6152"/>
<path d="M83.9648 158.007L91.1968 172.819C92.9918 169.687 95.3918 165.623 97.7248 161.71C97.4358 157.171 97.0338 151.464 96.6138 147.325C96.5178 146.38 96.4118 145.525 96.2988 144.735L89.0998 141.904C88.3528 144.44 86.0648 151.852 83.9648 158.007Z" fill="#874C4C"/>
<path d="M72.2965 173.298C71.6425 174.701 71.7145 176.865 70.8195 179.14C69.9245 181.415 68.8645 183.698 67.0515 186.58C65.2385 189.462 64.9805 189.872 64.9805 189.872L65.8745 190.434C65.8745 190.434 68.4955 186.268 69.6455 184.44C70.7955 182.612 72.0545 181.485 73.0515 181.838C73.0515 181.838 76.6195 176.018 72.2965 173.298Z" fill="#263238"/>
<path d="M79.9308 167.211C78.4128 168.395 75.9938 169.023 73.8428 170.917C72.7918 171.843 72.2798 173.049 72.0748 173.967C72.3208 175.149 72.6248 175.697 72.8388 176.539C73.1448 177.741 73.5378 178.727 73.2428 180.748C72.9328 182.879 71.8888 186.549 70.9848 189.331C70.0818 192.114 69.4108 193.721 70.7698 196.198C71.8298 198.129 76.2048 202.239 79.4618 204.509C83.9078 207.606 87.2848 206.406 86.6328 203.581C85.9808 200.756 85.2738 197.643 84.9748 196.94C84.9748 196.94 83.1068 195.325 80.3108 194.935C77.0478 194.48 75.3088 195.484 73.4118 192.478C71.6938 189.756 73.0088 184.123 77.1888 177.699C81.9358 170.405 79.9308 167.211 79.9308 167.211Z" fill="#37474F"/>
<path d="M99.0276 110.529C88.8326 102.019 80.6376 94.4619 80.6376 94.4619L64.4355 112.949L76.4205 123.544L92.1416 133.99C92.1416 133.99 90.6025 135.338 88.9355 141.084C88.5055 142.568 85.9356 150.866 85.5556 152.258C88.2056 155.944 93.9586 159.522 99.5126 158.715C99.5126 158.715 105.004 150.041 111.464 139.64C117.106 130.557 114.449 126.037 113.491 124.764C110.938 121.371 109.16 118.987 99.0276 110.529Z" fill="#455A64"/>
<path d="M92.1426 133.991C92.1426 133.991 90.6036 135.339 88.9366 141.085C88.5066 142.569 85.9366 150.867 85.5566 152.259C87.8916 155.508 92.6387 158.669 97.5347 158.821C97.2707 154.916 96.9476 150.623 96.6136 147.325C95.8016 139.342 94.3616 137.306 92.1426 133.991Z" fill="#37474F"/>
<path d="M92.1434 133.991C91.1614 132.8 76.2574 113.408 76.2574 113.408L72.6094 115.842L76.4214 123.545L92.1434 133.991Z" fill="#37474F"/>
<path d="M95.7794 165.769C97.0814 181.443 97.9584 191.478 98.8724 195.492C99.7864 199.506 100.837 203.475 102.13 206.227C103.422 208.979 105.72 211.703 107.438 213.398C107.438 213.398 112.334 217.779 111.381 218.36C110.428 218.941 101.139 220.751 96.8304 219.853C92.5214 218.956 91.7634 215.435 89.7634 209.059C87.7634 202.683 85.7004 193.294 85.7004 193.294C85.7004 193.294 85.8574 193.03 86.0354 192.155C86.4274 190.232 83.5184 182.995 81.9434 178.631L95.7794 165.769Z" fill="#C8856A"/>
<path d="M83.2344 201.828C83.5364 203.346 84.8734 205.049 85.4964 207.413C86.1194 209.777 86.6144 212.245 86.8564 215.641C87.0984 219.037 87.1324 219.52 87.1324 219.52L88.1854 219.445C88.1854 219.445 87.8364 214.536 87.6824 212.382C87.5294 210.228 87.8784 208.575 88.8914 208.27C88.8914 208.27 88.3294 201.465 83.2344 201.828Z" fill="#37474F"/>
<path d="M85.7926 192.405C85.2686 194.257 83.6886 196.195 83.0736 198.993C82.7736 200.361 83.0736 201.636 83.4506 202.498C84.3476 203.306 84.9176 203.568 85.5876 204.12C86.5456 204.909 87.4446 205.472 88.4016 207.275C89.4106 209.177 90.7386 212.754 91.6556 215.532C92.5726 218.31 92.9816 220.003 95.5426 221.198C97.5386 222.129 103.498 222.857 107.467 222.761C112.884 222.631 114.898 219.666 112.701 217.773C110.505 215.88 108.094 213.788 107.438 213.397C107.438 213.397 104.977 213.199 102.491 214.537C99.5896 216.099 98.7806 217.937 95.4736 216.634C92.4786 215.455 90.2096 210.134 89.7816 202.481C89.2986 193.795 85.7926 192.405 85.7926 192.405Z" fill="#455A64"/>
<path d="M72.9235 149.959C75.1005 152.539 75.1635 152.534 75.4655 156.785C75.6725 159.695 75.9525 162.499 76.7775 165.924C77.8375 170.321 81.0915 176.74 84.2605 185.476C88.1425 187.055 94.7055 185.258 97.3855 182.31C97.3855 182.31 95.0025 149.73 94.2075 143.699C93.5465 138.681 91.5645 135.603 89.5715 132.916C82.7295 123.695 72.8345 113.084 72.8345 113.084C72.8345 113.084 74.2615 104.909 76.3485 98.3773L36.9335 92.5303C35.5075 98.7733 34.7995 109.755 36.7535 116.134C38.8455 122.963 43.7535 128.222 54.2525 135.37C62.7285 141.14 71.2945 148.028 72.9235 149.959Z" fill="#455A64"/>
<path d="M79.8746 106.665C79.8746 106.665 78.4607 111.102 73.3477 113.691L74.6307 115.039C74.6307 115.039 79.0966 112.876 79.8746 106.665Z" fill="#37474F"/>
<path d="M68.5195 43.7842C75.8685 44.1142 77.8615 44.9792 80.0345 48.5382C82.9205 53.2662 87.7995 71.6842 89.0045 80.7292C89.3335 83.2002 77.5585 87.4262 77.5585 87.4262L72.3305 70.8172L68.5195 43.7842Z" fill="#AF6152"/>
<path d="M51.2635 43.311C51.2635 43.311 55.5535 42.6739 62.9995 42.9399L68.5195 43.7829C68.5195 43.7829 74.6685 49.0339 78.7345 53.8919C80.8175 56.3809 86.9175 65.452 80.2335 73.967L81.6635 89.76L83.9825 97.359C83.9825 97.359 81.6635 104.6 63.3925 106.666C53.3685 107.799 41.3495 106.289 35.3945 99.9569C35.3945 99.9569 36.0555 95.161 36.5835 91.17C37.5935 83.536 38.5225 77.298 38.5225 77.298C38.5225 77.298 37.6105 69.0409 37.0365 61.5249C36.2975 51.8369 43.5635 45.01 43.5635 45.01L51.2635 43.311Z" fill="#F0F0F0"/>
<path d="M73.4771 19.6688C76.2141 16.7048 76.7141 6.88082 67.1641 3.08682C57.6141 -0.70718 44.6501 0.366809 43.8001 9.92781C40.9751 10.4868 38.2131 15.1998 39.6951 21.4348C40.9591 26.7568 49.3951 37.4308 49.3951 37.4308L73.4771 19.6688Z" fill="#263238"/>
<path d="M47.19 32.6353C45.444 32.9333 43.806 32.0443 42.768 30.8643C40.465 28.2453 40.29 25.6153 41.412 23.8843C42.334 22.4613 44.563 21.5793 46.099 22.5773C47.742 23.6443 47.78 24.4943 48.388 25.6793C49.012 26.8953 51.783 27.7143 51.304 21.3073C53.882 20.5613 56.504 14.6383 55.408 11.5143C61.016 12.3493 68.397 12.3363 70.02 10.3193C70.849 10.9013 74.459 14.1973 73.22 21.8183C74.959 30.4113 72.06 36.5003 70.077 37.9073C68.573 38.9743 67.131 39.6413 63.92 39.7343L64.106 43.6543C64.106 43.6543 69.61 55.1643 69.481 62.4933C69.481 62.4933 66.708 57.9104 58.58 51.1264C53.166 46.6074 49.748 43.7583 49.748 43.7583L49.046 31.3214C49.046 31.3214 48.849 32.3523 47.19 32.6353Z" fill="#C8856A"/>
<path d="M55.4082 11.5145C57.4052 13.5725 67.5962 18.9605 73.9462 14.3365C74.0302 8.71347 66.3382 4.20846 55.4082 11.5145Z" fill="#263238"/>
<path d="M61.2519 23.1204C61.0009 23.8904 60.1979 24.3174 59.4579 24.0744C58.7179 23.8314 58.3209 23.0104 58.5709 22.2404C58.8219 21.4704 59.6249 21.0434 60.3649 21.2874C61.1049 21.5294 61.5019 22.3504 61.2519 23.1204Z" fill="#263238"/>
<path d="M71.8501 19.3708L68.8691 17.7898C69.2781 16.9438 70.2771 16.6108 71.1001 17.0478C71.9231 17.4848 72.2591 18.5248 71.8501 19.3708Z" fill="#263238"/>
<path d="M68.5139 22.5604C68.7789 23.3254 69.5909 23.7364 70.3259 23.4794C71.0619 23.2214 71.4429 22.3934 71.1769 21.6284C70.9119 20.8634 70.0999 20.4524 69.3649 20.7094C68.6299 20.9674 68.2489 21.7954 68.5139 22.5604Z" fill="#263238"/>
<path d="M60.1761 18.0348L57.0841 19.9008C56.5321 19.0598 56.7771 17.9598 57.6321 17.4448C58.4851 16.9298 59.6251 17.1938 60.1761 18.0348Z" fill="#263238"/>
<path d="M60.0752 30.1797L64.7612 31.5797C64.4212 32.8987 62.9622 33.6427 61.4932 33.1447C60.2142 32.7107 59.7342 31.4977 60.0752 30.1797Z" fill="#874C4C"/>
<path d="M62.8376 33.2549C62.6616 31.9609 61.5436 30.9819 60.2106 31.0279C60.1296 31.0309 60.0536 31.0499 59.9746 31.0599C60.0006 32.0119 60.5066 32.8109 61.4926 33.1449C61.9546 33.3009 62.4116 33.3229 62.8376 33.2549Z" fill="#F28F8F"/>
<path d="M64.1523 20.126L64.9763 28.539L69.5654 26.86L64.1523 20.126Z" fill="#AF6152"/>
<path d="M63.92 39.7345C60.947 39.4935 57.813 39.1285 54.817 37.8965C53.757 37.4605 52.311 35.5605 51.123 33.4375C51.123 33.4375 51.9921 37.6365 54.2901 39.0575C57.7841 41.2165 64.019 41.6665 64.019 41.6665L63.92 39.7345Z" fill="#AF6152"/>
<path d="M95.9616 87.8477C96.6246 87.9317 97.3686 87.9257 98.1056 87.7187C99.0726 87.4457 99.9706 86.5027 100.852 84.8307C101.598 83.4177 102.856 80.2937 102.279 78.5847C101.547 76.4147 99.0106 76.1377 97.3266 75.9547C97.1256 75.9327 96.9316 75.9117 96.7466 75.8887L96.4946 77.8857C96.6936 77.9107 97.0086 77.9987 97.2246 78.0227C98.1696 78.1237 100.236 78.6177 100.422 79.1747C101.106 80.5387 98.6986 85.3767 97.7806 85.8487C96.9066 86.0907 94.8746 85.7467 94.5216 85.5737L93.7266 87.2007C93.8756 87.2707 94.7886 87.6987 95.9616 87.8477Z" fill="#E0E0E0"/>
<path d="M87.7825 91.1767C85.7225 91.1767 83.7405 90.6377 82.3445 89.6977C81.6375 89.2217 81.1355 88.6787 80.8525 88.0837L80.7875 87.9457C79.0195 84.1667 78.4825 77.9147 79.4525 72.3887L79.5195 72.1167C79.7745 71.2957 80.7125 70.5567 82.1605 70.0427C83.5255 69.5587 85.2295 69.3027 87.0875 69.3027C89.8945 69.3027 92.7245 69.9017 94.6575 70.9057C96.0205 71.6127 96.8485 72.4737 96.9895 73.3297L97.0175 73.6337C97.2185 79.2227 95.8275 85.3327 93.5565 88.8307L93.4755 88.9537C93.1135 89.5047 92.5415 89.9737 91.7765 90.3477C90.6685 90.8907 89.2875 91.1767 87.7825 91.1767Z" fill="#FAFAFA"/>
<path d="M87.0893 69.4287C89.8763 69.4287 92.6853 70.0227 94.6023 71.0167C95.9293 71.7057 96.7343 72.5337 96.8663 73.3327L96.8943 73.6307C97.0943 79.2027 95.7113 85.2837 93.4463 88.7737L93.4453 88.7747L93.3723 88.8857C93.0233 89.4167 92.4683 89.8717 91.7223 90.2357C90.6313 90.7687 89.2693 91.0507 87.7833 91.0507C85.7473 91.0507 83.7913 90.5197 82.4143 89.5927C81.7263 89.1297 81.2393 88.6037 80.9653 88.0287L80.9333 87.9657L80.9323 87.9627L80.9003 87.8907C79.1423 84.1337 78.6093 77.9117 79.5723 72.4247L79.6363 72.1597C79.8813 71.3697 80.7923 70.6597 82.2013 70.1597C83.5543 69.6827 85.2443 69.4287 87.0893 69.4287ZM87.0883 69.1787C85.2883 69.1787 83.5413 69.4217 82.1193 69.9257C80.5683 70.4757 79.6603 71.2477 79.3993 72.0877L79.3313 72.3677C78.3523 77.9497 78.9243 84.2537 80.6763 87.9987C80.6883 88.0277 80.7013 88.0567 80.7143 88.0857C80.7223 88.1017 80.7293 88.1207 80.7373 88.1377H80.7413C81.0213 88.7257 81.5273 89.2977 82.2763 89.8017C83.7403 90.7877 85.7873 91.3017 87.7843 91.3017C89.2433 91.3017 90.6753 91.0267 91.8333 90.4607C92.6443 90.0637 93.2243 89.5677 93.5823 89.0237L93.5863 89.0247C93.5973 89.0077 93.6083 88.9887 93.6193 88.9717C93.6343 88.9477 93.6493 88.9247 93.6633 88.9007C95.9143 85.4337 97.3483 79.2897 97.1443 73.6237L97.1153 73.3117C96.9723 72.4437 96.1783 71.5547 94.7173 70.7967C92.6813 69.7397 89.8233 69.1787 87.0883 69.1787Z" fill="#E0E0E0"/>
<path d="M82.1201 69.9263C78.5371 71.1973 78.3681 73.6473 81.7431 75.3983C85.1171 77.1493 90.7571 77.5383 94.3401 76.2673C97.9231 74.9963 98.0921 72.5463 94.7181 70.7943C91.3431 69.0443 85.7031 68.6553 82.1201 69.9263Z" fill="#F0F0F0"/>
<path d="M83.2712 70.9583C80.3972 71.7523 80.2862 73.3533 83.0242 74.5333C85.7622 75.7143 90.3122 76.0283 93.1872 75.2343C96.0612 74.4403 96.1721 72.8393 93.4341 71.6593C90.6961 70.4793 86.1452 70.1653 83.2712 70.9583Z" fill="#E0E0E0"/>
<path d="M83.123 73.1202C82.508 73.2902 82.027 73.4982 81.666 73.7302C81.992 74.0092 82.439 74.2822 83.026 74.5342C85.764 75.7152 90.314 76.0292 93.189 75.2352C93.804 75.0652 94.285 74.8572 94.646 74.6252C94.32 74.3462 93.873 74.0732 93.286 73.8202C90.547 72.6402 85.997 72.3262 83.123 73.1202Z" fill="#263238"/>
<path d="M96.9255 78.5095C98.7315 78.2075 99.5814 80.2055 99.0574 83.4655C98.5344 86.7255 95.8864 92.5615 91.0154 90.4385C89.1184 89.6115 88.0985 86.1725 90.3285 84.9615C94.2145 82.8515 95.5785 81.6825 95.5785 81.6825C96.3585 81.0495 96.7965 79.9095 96.9255 78.5095Z" fill="#AF6152"/>
<path d="M36.5854 91.1688C35.4174 86.2178 33.4784 79.9328 32.0264 67.1098C30.4514 53.2078 33.3514 46.9588 43.5654 45.0088C47.6984 54.0958 46.5634 66.9238 46.5634 66.9238C46.9134 71.9888 49.4574 85.7198 49.4574 85.7198C59.8404 85.3818 70.8504 84.2248 72.8644 83.4328C73.9004 83.0248 74.8544 81.8878 75.5804 81.1368C76.5724 80.1108 77.7204 78.7648 78.8254 78.3348C79.1994 80.3338 80.5784 81.5258 81.8034 82.3758C82.7294 83.0178 83.8844 83.3148 84.9794 83.5058C86.0664 83.6948 87.8334 83.7338 92.0854 82.9958C93.0234 82.8328 94.1944 82.6998 94.9354 83.4408C95.6794 84.1848 94.4004 84.8598 93.9774 85.3858C93.4554 86.0358 93.9254 86.8388 93.6424 87.5778C93.4494 88.0828 92.9894 88.1598 92.9104 88.7438C92.8434 89.2448 92.9954 89.8418 92.6474 90.2298C91.6294 91.3628 90.3284 91.9488 88.6274 92.4918C86.5704 93.1478 83.3444 93.4298 81.9774 93.3898C80.6104 93.3498 79.1334 92.8978 76.2874 93.4388C71.0114 94.4408 61.2244 98.4768 51.5294 99.5548C41.9554 100.618 38.6954 100.117 36.5854 91.1688Z" fill="#C8856A"/>
<path d="M108.752 224.249C115.693 220.242 126.946 220.242 133.887 224.249C137.357 226.253 139.089 228.879 139.088 231.505C139.088 231.776 139.093 233.406 139.087 233.719C139.033 236.303 137.302 238.878 133.887 240.849C126.946 244.856 115.693 244.856 108.752 240.849C105.32 238.867 103.588 236.277 103.551 233.68C103.547 233.38 103.549 231.748 103.551 231.463C103.568 228.851 105.299 226.242 108.752 224.249Z" fill="#37474F"/>
<path d="M133.886 238.76C140.827 234.753 140.827 228.256 133.886 224.248C126.945 220.241 115.692 220.241 108.751 224.248C101.81 228.255 101.81 234.752 108.751 238.76C115.692 242.768 126.946 242.768 133.886 238.76Z" fill="#455A64"/>
<path d="M119.807 231.834H119.801V123.258H122.834V231.834H122.822C122.859 232.083 122.719 232.339 122.389 232.529C121.795 232.872 120.833 232.872 120.24 232.529C119.91 232.339 119.77 232.083 119.807 231.834Z" fill="#37474F"/>
<path d="M148.91 112.12C133.663 103.317 108.943 103.317 93.6955 112.12C86.0715 116.522 82.2665 124.439 82.2695 130.208C82.2705 131.392 82.2705 130.144 82.2695 131.328C82.2665 137.097 86.0725 142.865 93.6965 147.267C108.944 156.07 133.664 156.07 148.911 147.267C156.535 142.865 160.34 137.097 160.338 131.328C160.337 130.143 160.337 131.392 160.338 130.207C160.339 124.439 156.533 116.522 148.91 112.12Z" fill="#BA68C8"/>
<path d="M148.91 112.12C133.663 103.317 108.943 103.317 93.6955 112.12C86.0715 116.522 82.2665 124.439 82.2695 130.208C82.2705 131.392 82.2705 130.144 82.2695 131.328C82.2665 137.097 86.0725 142.865 93.6965 147.267C108.944 156.07 133.664 156.07 148.911 147.267C156.535 142.865 160.34 137.097 160.338 131.328C160.337 130.143 160.337 131.392 160.338 130.207C160.339 124.439 156.533 116.522 148.91 112.12Z" fill="#002F88"/>
<path d="M148.944 109.195C133.697 100.392 108.977 100.392 93.7287 109.195C86.1047 113.597 82.2997 119.365 82.3027 125.134C82.3037 126.319 82.3037 125.871 82.3027 127.056C82.2997 132.825 86.1057 140.743 93.7297 145.144C108.977 153.947 133.697 153.947 148.944 145.144C156.568 140.743 160.373 132.023 160.37 126.254C160.369 125.069 160.37 126.318 160.37 125.134C160.373 119.365 156.568 113.596 148.944 109.195Z" fill="#002F88"/>
<path opacity="0.4" d="M148.944 109.195C133.697 100.392 108.977 100.392 93.7287 109.195C86.1047 113.597 82.2997 119.365 82.3027 125.134C82.3037 126.319 82.3037 125.871 82.3027 127.056C82.2997 132.825 86.1057 140.743 93.7297 145.144C108.977 153.947 133.697 153.947 148.944 145.144C156.568 140.743 160.373 132.023 160.37 126.254C160.369 125.069 160.37 126.318 160.37 125.134C160.373 119.365 156.568 113.596 148.944 109.195Z" fill="white"/>
<path d="M148.944 109.195C133.697 100.392 108.977 100.392 93.7287 109.195C86.1047 113.597 82.2997 119.365 82.3027 125.134C82.3037 126.319 82.3037 125.871 82.3027 127.056C82.2997 132.825 86.1057 140.743 93.7297 145.144C108.977 153.947 133.697 153.947 148.944 145.144C156.568 140.743 160.373 132.023 160.37 126.254C160.369 125.069 160.37 126.318 160.37 125.134C160.373 119.365 156.568 113.596 148.944 109.195Z" fill="#002F88"/>
<path d="M93.7282 141.072C78.4812 132.269 78.4812 117.997 93.7282 109.194C108.975 100.391 133.695 100.391 148.942 109.194C164.189 117.997 164.189 132.269 148.942 141.072C133.695 149.875 108.975 149.875 93.7282 141.072Z" fill="#2D5DB7"/>
<path opacity="0.85" d="M93.695 141.072C78.448 132.269 78.448 117.997 93.695 109.194C108.942 100.391 133.662 100.391 148.909 109.194C164.156 117.997 164.156 132.269 148.909 141.072C133.662 149.875 108.942 149.875 93.695 141.072Z" fill="#2D5DB7"/>
<path opacity="0.3" d="M133.573 116.302C136.886 118.215 136.886 121.316 133.573 123.229C130.26 125.142 124.888 125.142 121.575 123.229C118.262 121.316 118.262 118.215 121.575 116.302C124.888 114.389 130.26 114.389 133.573 116.302Z" fill="#BA68C8"/>
<path d="M136.846 117.872C137.547 117.905 138.326 117.836 139.08 117.558C140.069 117.192 140.931 116.129 141.714 114.305C142.377 112.764 143.433 109.388 142.687 107.647C141.74 105.436 139.061 105.358 137.283 105.306C137.071 105.3 136.865 105.294 136.67 105.285L136.572 107.396C136.782 107.406 137.12 107.472 137.347 107.479C138.345 107.506 140.549 107.851 140.791 108.419C141.621 109.79 139.504 115.056 138.582 115.627C137.687 115.953 135.531 115.762 135.147 115.611L134.451 117.38C134.614 117.442 135.606 117.814 136.846 117.872Z" fill="#E0E0E0"/>
<path d="M127.591 122.085C125.762 122.085 124.039 121.682 122.741 120.951C121.96 120.511 121.388 119.984 121.042 119.384L120.962 119.245C118.795 115.435 117.712 108.933 118.266 103.066L118.313 102.775C118.512 101.892 119.435 101.038 120.908 100.379C122.717 99.57 125.131 99.125 127.706 99.125C130.107 99.125 132.367 99.521 134.07 100.239C135.557 100.866 136.497 101.7 136.718 102.587L136.773 102.903C137.449 108.738 136.502 115.253 134.416 119.106L134.342 119.242C134.009 119.849 133.448 120.388 132.677 120.845C131.325 121.645 129.519 122.085 127.591 122.085Z" fill="#FAFAFA"/>
<path d="M127.707 99.251C130.091 99.251 132.334 99.643 134.022 100.355C135.472 100.967 136.387 101.77 136.593 102.601L136.648 102.911C137.322 108.727 136.382 115.208 134.304 119.052L134.232 119.183C133.909 119.77 133.365 120.294 132.613 120.739C131.281 121.527 129.497 121.961 127.591 121.961C125.783 121.961 124.082 121.564 122.802 120.843C122.041 120.415 121.486 119.903 121.15 119.322L121.112 119.26L121.109 119.254L121.108 119.251L121.071 119.183C118.916 115.394 117.839 108.922 118.389 103.094L118.434 102.81C118.626 101.958 119.523 101.136 120.96 100.493C122.753 99.692 125.149 99.251 127.707 99.251ZM127.707 99.001C125.231 99.001 122.739 99.425 120.859 100.266C119.281 100.972 118.394 101.855 118.191 102.756L118.143 103.055C117.583 108.981 118.708 115.533 120.855 119.308C120.87 119.337 120.886 119.367 120.903 119.396C120.913 119.412 120.921 119.431 120.931 119.448H120.935C121.277 120.04 121.855 120.596 122.681 121.061C124.045 121.829 125.816 122.211 127.593 122.211C129.457 122.211 131.328 121.79 132.742 120.954C133.558 120.471 134.124 119.903 134.453 119.303H134.458C134.468 119.284 134.478 119.263 134.488 119.244C134.502 119.218 134.516 119.192 134.528 119.166C136.596 115.348 137.584 108.796 136.899 102.882L136.842 102.558C136.62 101.662 135.714 100.797 134.122 100.125C132.339 99.373 130.03 99.001 127.707 99.001Z" fill="#E0E0E0"/>
<path d="M120.858 100.265C117.213 101.895 117.241 104.474 120.919 106.026C124.598 107.578 130.535 107.515 134.18 105.885C137.825 104.255 137.798 101.676 134.119 100.124C130.44 98.5716 124.503 98.6356 120.858 100.265Z" fill="#F0F0F0"/>
<path d="M122.151 101.249C119.208 102.32 119.226 104.005 122.191 105.013C125.156 106.021 129.946 105.97 132.89 104.9C135.833 103.829 135.815 102.144 132.85 101.136C129.885 100.128 125.095 100.178 122.151 101.249Z" fill="#E0E0E0"/>
<path d="M122.174 103.524C121.544 103.753 121.058 104.012 120.699 104.284C121.063 104.549 121.555 104.797 122.19 105.013C125.155 106.021 129.945 105.97 132.889 104.899C133.519 104.67 134.005 104.411 134.364 104.139C133.999 103.874 133.508 103.626 132.873 103.41C129.907 102.403 125.117 102.454 122.174 103.524Z" fill="#263238"/>
</svg>
