<svg width="269" height="274" viewBox="0 0 269 274" fill="none" xmlns="http://www.w3.org/2000/svg">
<path d="M95.6624 102.76C72.5474 46.5977 11.6865 50.0068 0 71.3078V274H268.957C269.624 261.02 262.439 220.023 257.437 204.106C244.415 162.669 205.849 155.68 183.311 151.187C160.773 146.694 119.703 161.171 95.6624 102.76Z" fill="#E1E1E1"/>
<path d="M145.171 0.652344H44.8908C40.3368 0.652344 36.7902 4.34222 37.0097 8.85207L46.4095 201.936C46.6289 206.446 50.535 210.136 55.0884 210.136H155.368C159.922 210.136 163.469 206.446 163.249 201.936L153.849 8.85207C153.631 4.34222 149.725 0.652344 145.171 0.652344Z" fill="black"/>
<path d="M148.852 0.652344H48.5719C44.0179 0.652344 40.4712 4.34222 40.6914 8.85207L50.0912 201.936C50.3106 206.446 54.2167 210.136 58.7707 210.136H159.05C163.604 210.136 167.151 206.446 166.931 201.936L157.531 8.85207C157.311 4.34222 153.406 0.652344 148.852 0.652344Z" fill="#263238"/>
<path d="M58.5032 204.667C57.0073 204.667 55.6825 203.416 55.61 201.934L46.2101 8.85043C46.1377 7.36901 47.3411 6.11719 48.837 6.11719H149.117C150.613 6.11719 151.937 7.36901 152.01 8.85043L161.41 201.934C161.482 203.416 160.279 204.667 158.783 204.667H58.5032Z" fill="#407BFF"/>
<path opacity="0.1" d="M58.4354 203.301C57.6999 203.301 57.0244 202.663 56.9892 201.935L47.5893 8.851C47.5541 8.12327 48.1676 7.48438 48.9031 7.48438H149.183C149.918 7.48438 150.594 8.12327 150.629 8.851L160.029 201.935C160.064 202.663 159.451 203.301 158.715 203.301H58.4354Z" fill="black"/>
<g opacity="0.3">
<path d="M88.7039 192.178H68.8091C67.6927 192.178 66.7405 191.279 66.6867 190.173L65.2329 160.303C65.2066 159.76 65.3964 159.248 65.7676 158.863C66.1381 158.477 66.6439 158.266 67.1918 158.266H87.0865C88.203 158.266 89.1552 159.165 89.209 160.27L90.6628 190.141C90.689 190.684 90.4993 191.196 90.1281 191.581C89.7575 191.967 89.2518 192.178 88.7039 192.178ZM67.1911 158.949C66.8337 158.949 66.5052 159.086 66.2665 159.334C66.0271 159.583 65.9042 159.916 65.9215 160.27L67.376 190.141C67.4126 190.888 68.055 191.495 68.8091 191.495H88.7039C89.0613 191.495 89.3898 191.358 89.6285 191.11C89.8679 190.861 89.9908 190.528 89.9735 190.173L88.5197 160.303C88.4831 159.556 87.8407 158.949 87.0865 158.949H67.1911Z" fill="#FAFAFA"/>
<path d="M86.8287 165.914H68.1263C67.9358 165.914 67.7812 165.761 67.7812 165.572C67.7812 165.384 67.9358 165.23 68.1263 165.23H86.8287C87.0191 165.23 87.1737 165.384 87.1737 165.572C87.1737 165.761 87.0191 165.914 86.8287 165.914Z" fill="#FAFAFA"/>
<path d="M87.0162 169.774H68.3138C68.1233 169.774 67.9688 169.621 67.9688 169.432C67.9688 169.243 68.1233 169.09 68.3138 169.09H87.0162C87.2066 169.09 87.3612 169.243 87.3612 169.432C87.3612 169.621 87.2066 169.774 87.0162 169.774Z" fill="#FAFAFA"/>
<path d="M87.2037 173.637H68.5013C68.3108 173.637 68.1562 173.484 68.1562 173.295C68.1562 173.106 68.3108 172.953 68.5013 172.953H87.2037C87.3941 172.953 87.5487 173.106 87.5487 173.295C87.5487 173.485 87.3941 173.637 87.2037 173.637Z" fill="#FAFAFA"/>
<path d="M87.3932 177.496H68.6907C68.5003 177.496 68.3457 177.343 68.3457 177.154C68.3457 176.966 68.5003 176.812 68.6907 176.812H87.3932C87.5836 176.812 87.7382 176.966 87.7382 177.154C87.7382 177.343 87.5836 177.496 87.3932 177.496Z" fill="#FAFAFA"/>
<path d="M87.5807 181.356H68.8782C68.6878 181.356 68.5332 181.203 68.5332 181.014C68.5332 180.825 68.6878 180.672 68.8782 180.672H87.5807C87.7711 180.672 87.9257 180.825 87.9257 181.014C87.9257 181.203 87.7711 181.356 87.5807 181.356Z" fill="#FAFAFA"/>
<path d="M83.9331 185.215H69.0657C68.8753 185.215 68.7207 185.062 68.7207 184.873C68.7207 184.684 68.8753 184.531 69.0657 184.531H83.9331C84.1236 184.531 84.2781 184.684 84.2781 184.873C84.2781 185.062 84.1236 185.215 83.9331 185.215Z" fill="#FAFAFA"/>
</g>
<g opacity="0.3">
<path d="M101.224 82.6257L87.5823 84.785C86.8082 83.0528 86.1278 81.8515 85.5406 81.1805C84.9534 80.5095 84.0026 79.833 82.6889 79.1497L83.2043 89.7362C90.7888 91.7144 95.892 93.8019 98.5119 95.9988C101.981 98.9534 103.826 102.701 104.048 107.241C104.178 109.902 103.699 112.344 102.612 114.566C101.524 116.788 100.088 118.643 98.3008 120.132C96.513 121.621 94.5886 122.701 92.5276 123.373C90.4658 124.044 87.9239 124.44 84.8996 124.563L84.99 126.423C85.0618 127.898 83.9122 129.094 82.4225 129.094C80.9328 129.094 79.6667 127.898 79.5949 126.423L79.5045 124.563C75.8675 124.245 72.9019 123.666 70.607 122.824C68.312 121.982 66.3089 120.818 64.5984 119.33C62.8872 117.842 61.5473 116.238 60.5764 114.518C59.6056 112.798 58.8397 110.719 58.2773 108.279L73.122 106.559C73.683 108.973 74.3647 110.718 75.1692 111.791C75.9724 112.865 77.2565 113.817 79.0222 114.646L78.3929 101.715C73.3497 100.347 69.7631 99.1632 67.6331 98.1614C65.5023 97.1611 63.62 95.5553 61.9854 93.3462C60.3501 91.137 59.4559 88.4455 59.3013 85.2715C59.0895 80.9263 60.4467 77.2945 63.3716 74.3774C66.2965 71.4604 70.7815 69.843 76.8259 69.5253L76.7797 68.5741C76.7079 67.0988 77.8575 65.9023 79.3472 65.9023C80.8369 65.9023 82.103 67.0981 82.1748 68.5741L82.221 69.5253C87.7555 69.8669 92.0377 71.1597 95.0661 73.4044C98.0938 75.6491 100.147 78.7226 101.224 82.6257ZM77.2848 78.9666C75.733 79.4818 74.6676 80.1193 74.0894 80.8791C73.5105 81.639 73.2462 82.5341 73.2966 83.5632C73.349 84.6421 73.7071 85.5796 74.3709 86.3764C75.0347 87.1731 76.1587 87.84 77.7436 88.3764L77.2848 78.9666ZM84.4346 115.011C86.5052 114.547 88.0019 113.781 88.9237 112.717C89.8448 111.652 90.2733 110.459 90.2092 109.137C90.1533 107.987 89.6903 106.929 88.8195 105.962C87.9494 104.996 86.2976 104.097 83.8632 103.268L84.4346 115.011Z" fill="#FAFAFA"/>
</g>
<path d="M146.872 54.1878C146.513 49.7759 150.039 46.207 154.736 46.207H80.89C76.1924 46.207 72.6669 49.7764 73.0262 54.1878H146.872Z" fill="#F0F0F0"/>
<path d="M154.737 46.207C159.435 46.207 163.541 49.7764 163.901 54.1878L171.468 147.159C171.827 151.571 175.933 155.14 180.631 155.14H106.785C102.087 155.14 97.98 151.571 97.6214 147.159L90.0543 54.1878C89.695 49.7759 85.5888 46.207 80.8911 46.207H154.737Z" fill="white"/>
<path d="M114.649 147.16C115.008 151.572 111.482 155.141 106.785 155.141H180.63C185.328 155.141 188.854 151.571 188.494 147.16H114.649Z" fill="#F0F0F0"/>
<path d="M157.873 145.326C157.596 141.928 158.734 139.18 162.352 139.18H105.485C101.867 139.18 99.1454 142.283 101.006 145.326H157.873Z" fill="#E0E0E0"/>
<path d="M114.65 147.16C114.291 142.749 110.184 139.18 105.487 139.18H179.333C184.031 139.18 188.137 142.749 188.496 147.16H114.65Z" fill="#F0F0F0"/>
<path d="M111 92.75H165.646L166 97.7015H111.354L111 92.75Z" fill="#F0F0F0"/>
<path d="M111 103.645H166.639L167 108.596H111.361L111 103.645Z" fill="#F0F0F0"/>
<path d="M112 114.539H166.646L167 120.481H112.354L112 114.539Z" fill="#F0F0F0"/>
<path d="M208.656 70.9042L206.052 71.8844C205.104 72.2412 204.273 72.8242 203.64 73.5755L202.447 74.9913C201.657 75.9297 201.694 77.2627 202.535 78.1615L203.804 79.518C204.776 80.5568 206.467 80.6504 207.562 79.7254L208.775 78.7007C208.775 78.7007 212.512 76.2414 213.609 72.9932L212.888 72.3172C211.715 71.2165 210.159 70.6968 208.656 70.9042Z" fill="#FFB573"/>
<path d="M201.528 47.2804L202.375 47.8042L203.318 48.4114C203.945 48.8301 204.574 49.257 205.189 49.7006C206.413 50.5926 207.609 51.5156 208.717 52.4958C210.95 54.4401 212.893 56.5735 214.272 58.8403C214.448 59.1223 214.611 59.4085 214.76 59.6959L214.878 59.9114C214.854 59.8595 214.815 59.7027 214.801 59.6374C214.77 59.4536 214.774 59.3533 214.787 59.296C214.856 59.1015 214.862 59.6071 214.7 60.1066C214.379 61.173 213.716 62.5295 212.98 63.8362C211.502 66.488 209.645 69.2139 207.898 71.9027L207.852 71.9728C207.127 73.0883 207.504 74.5438 208.694 75.2237C209.613 75.7482 210.751 75.6539 211.554 75.0723C213.031 73.9978 214.351 72.889 215.661 71.6907C216.965 70.4991 218.21 69.2361 219.404 67.8601C220.583 66.4578 221.735 65.0177 222.706 63.06C222.948 62.5638 223.18 62.0273 223.378 61.4039C223.575 60.7825 223.735 60.0554 223.75 59.1378C223.751 58.6746 223.716 58.1664 223.574 57.5894C223.517 57.3242 223.394 56.9788 223.301 56.7344L223.163 56.3891C222.982 55.9245 222.785 55.4701 222.573 55.0251C220.887 51.4409 218.435 48.4148 215.727 45.806C214.364 44.5013 212.924 43.2996 211.413 42.1895C210.655 41.6361 209.887 41.0989 209.086 40.5926C208.684 40.3395 208.285 40.0843 207.866 39.8433L207.227 39.4798L206.499 39.0853C204.098 37.7846 201.027 38.5555 199.64 40.806C198.306 42.9718 199.016 45.7192 201.21 47.0818L201.528 47.2804Z" fill="#FFB573"/>
<path d="M201.446 36.5978C205.643 36.6207 210.237 38.301 216.127 45.1456C216.127 49.2321 206.925 54.6643 206.925 54.6643C206.925 54.6643 191.842 36.5459 201.446 36.5978Z" fill="#263238"/>
<path d="M232.604 198.434C232.677 198.434 232.75 198.421 232.826 198.396C233.697 198.11 234.516 196.033 234.568 194.881C234.572 194.806 234.528 194.737 234.457 194.704C234.385 194.67 234.301 194.679 234.239 194.726C234.147 194.796 231.981 196.458 231.879 197.577C231.857 197.815 231.924 198.02 232.076 198.184C232.23 198.348 232.412 198.434 232.604 198.434ZM234.109 195.33C233.912 196.425 233.247 197.857 232.692 198.039C232.612 198.066 232.511 198.074 232.38 197.934C232.301 197.849 232.269 197.743 232.28 197.609C232.341 196.952 233.406 195.922 234.109 195.33Z" fill="#263238"/>
<path d="M231.257 195.959C232.264 195.959 233.717 195.503 234.479 195.027C234.545 194.986 234.579 194.912 234.565 194.839C234.552 194.765 234.494 194.705 234.418 194.687C234.303 194.658 231.595 193.997 230.571 194.579C230.352 194.703 230.216 194.874 230.165 195.086C230.093 195.38 230.185 195.626 230.422 195.779C230.616 195.905 230.911 195.959 231.257 195.959ZM233.821 194.944C232.761 195.441 231.136 195.781 230.651 195.468C230.58 195.422 230.514 195.351 230.558 195.17C230.585 195.06 230.657 194.973 230.78 194.903C231.382 194.561 232.896 194.761 233.821 194.944Z" fill="#263238"/>
<path d="M242.005 194.427C240.792 193.039 238.748 191.188 236.647 187.297C236.647 187.297 229.986 188.833 231.295 190.635C233.667 193.903 234.824 200.61 231.767 204.208C230.021 206.261 232.782 206.601 234.606 205.723C237.508 204.325 237.385 203.806 238.892 201.494C240.181 199.518 240.69 198.744 242.464 197.898C243.944 197.193 243.224 195.821 242.005 194.427Z" fill="#407BFF"/>
<path d="M185.488 77.1797C185.488 77.1797 195.155 121.344 202.223 140.205C209.647 160.013 230.148 190.578 230.936 191.891C233.85 191.163 236.449 190.206 238.182 188.619C238.182 188.619 228.558 155.464 219.174 133.954C215.613 89.0539 207.763 77.1797 207.763 77.1797H185.488Z" fill="#263238"/>
<path opacity="0.2" d="M200.234 100.808C200.672 109.352 200.974 121.099 200.543 135.398C197.591 126.485 194.381 114.401 191.681 103.555C193.483 101.3 196.284 100.216 200.234 100.808Z" fill="black"/>
<path d="M199.652 23.0234C198.638 26.8635 197.647 33.1278 199.262 36.4622C199.262 36.4622 193.215 36.7127 185.487 42.4977C181.848 37.4876 186.06 36.5047 186.06 36.5047C189.272 35.7978 189.114 31.7874 189.11 28.9309L199.652 23.0234Z" fill="#FFB573"/>
<path d="M201.174 38.2052C204.19 37.8929 202.104 32.5206 200.536 33.0436C196.575 34.3665 187.685 32.8942 184.935 34.3154C182.186 35.7365 182.881 38.6536 182.881 38.6536C182.881 38.6536 197.923 38.5418 201.174 38.2052Z" fill="#407BFF"/>
<path opacity="0.7" d="M201.174 38.2052C204.19 37.8929 202.104 32.5206 200.536 33.0436C196.575 34.3665 187.685 32.8942 184.935 34.3154C182.186 35.7365 182.881 38.6536 182.881 38.6536C182.881 38.6536 197.923 38.5418 201.174 38.2052Z" fill="white"/>
<path d="M183.576 16.2437C183.479 16.7574 183.11 17.1263 182.752 17.0664C182.393 17.0071 182.181 16.5419 182.278 16.0283C182.375 15.5146 182.744 15.1457 183.103 15.2056C183.462 15.2648 183.673 15.73 183.576 16.2437Z" fill="#263238"/>
<path d="M183.256 15.2623L182.006 14.6875C182.006 14.6875 182.5 15.765 183.256 15.2623Z" fill="#263238"/>
<path d="M182.844 12.1377C182.805 12.0711 182.791 11.9903 182.814 11.9115C182.861 11.7479 183.04 11.6503 183.214 11.6941C184.962 12.1303 185.45 13.4693 185.47 13.5272C185.526 13.6881 185.433 13.8611 185.262 13.9143C185.091 13.9668 184.906 13.88 184.849 13.7198C184.831 13.6673 184.436 12.6339 183.046 12.2872C182.956 12.2643 182.885 12.2084 182.844 12.1377Z" fill="#263238"/>
<path d="M182.928 17.4961C182.928 17.4961 181.739 19.6396 180.584 20.6165C181.244 21.3274 182.52 21.1571 182.52 21.1571L182.928 17.4961Z" fill="#ED893E"/>
<path d="M202.322 15.9825C200.724 22.2273 200.187 24.9027 196.239 27.5888C190.301 31.6295 182.63 28.4405 182.245 21.8779C181.898 15.9711 184.57 6.75065 191.509 5.31198C198.345 3.89485 203.92 9.73773 202.322 15.9825Z" fill="#FFB573"/>
<path d="M189.41 17.1319C185.487 12.2712 182.928 8.34366 184.864 4.04178C186.481 0.446116 190.953 1.49836 191.578 3.29384C203.474 2.34123 207.745 6.38055 205.289 13.0643C203.725 17.3224 209.801 15.1142 208.321 20.5229C207.187 24.6699 211.188 26.25 209.157 28.6345C206.226 32.0753 200.182 27.5877 193.28 30.1681C187.633 32.2787 179.147 29.0829 189.41 17.1319Z" fill="#263238"/>
<path d="M190.047 18.112C189.273 19.2558 188.106 19.8926 187.068 20.0347C185.506 20.2481 184.969 18.6081 185.608 17.086C186.182 15.716 187.687 13.9535 189.157 14.4429C190.604 14.9243 190.931 16.8039 190.047 18.112Z" fill="#FFB573"/>
<path d="M187.727 202.549C188.726 202.549 190.36 201.807 191.125 201.16C191.184 201.11 191.206 201.032 191.182 200.962C191.158 200.891 191.091 200.84 191.012 200.832C190.895 200.819 188.112 200.535 187.189 201.251C186.993 201.404 186.883 201.591 186.866 201.808C186.842 202.109 186.97 202.34 187.229 202.459C187.364 202.521 187.533 202.549 187.727 202.549ZM190.461 201.168C189.49 201.804 187.932 202.362 187.407 202.119C187.33 202.083 187.253 202.023 187.268 201.837C187.278 201.725 187.336 201.629 187.446 201.543C187.989 201.122 189.519 201.114 190.461 201.168Z" fill="#263238"/>
<path d="M190.99 201.212C191.054 201.212 191.115 201.184 191.153 201.134C191.2 201.073 191.204 200.993 191.165 200.929C191.106 200.832 189.712 198.557 188.551 198.28C188.303 198.221 188.079 198.249 187.88 198.364C187.606 198.522 187.483 198.756 187.533 199.022C187.692 199.874 189.744 200.971 190.948 201.208C190.962 201.211 190.975 201.212 190.99 201.212ZM188.309 198.629C188.354 198.629 188.401 198.635 188.451 198.647C189.132 198.81 190.041 199.963 190.55 200.71C189.429 200.348 188.032 199.499 187.93 198.956C187.916 198.877 187.923 198.783 188.092 198.685C188.158 198.648 188.23 198.629 188.309 198.629Z" fill="#263238"/>
<path d="M182.391 204.915C188.208 204.493 192.127 200.749 191.716 196.782C191.49 194.594 198.948 194.398 198.948 194.398C197.768 201.181 199.249 202.149 199.735 203.9C200.223 205.659 200.103 207.589 198.56 207.625C196.712 207.669 195.852 207.338 193.556 207.421C190.871 207.519 187.968 207.618 183.197 207.625C181.29 207.629 179.804 205.103 182.391 204.915Z" fill="#407BFF"/>
<path d="M175.433 77.1797C175.433 77.1797 175.94 110.627 178.757 132.608C181.574 154.589 191.256 197.702 191.256 197.702C194.054 198.211 196.676 198.293 198.991 197.635C198.991 197.635 202.05 163.955 196.91 131.411C200.686 97.3022 203.047 77.1797 203.047 77.1797H175.433Z" fill="#263238"/>
<path d="M174.112 46.2365C174.233 48.8209 169.88 54.7965 175.252 58.2595C174.248 60.3626 173.4 74.6275 175.433 77.1783C178.398 79.2215 194.45 78.8243 207.761 77.1783C208.323 72.0208 205.295 61.3368 209.005 44.678C209.865 40.8157 206.966 37.1062 202.779 36.7104C201.66 36.6047 200.474 36.5165 199.261 36.462C194.542 36.2486 190.677 36.1079 186.529 36.4626C185.155 36.5805 183.733 36.7434 182.377 36.9218C177.48 37.5661 173.896 41.6054 174.112 46.2365Z" fill="#407BFF"/>
<g opacity="0.3">
<path d="M208.665 43.7817C208.765 43.8322 208.865 43.884 208.966 43.9332L208.968 43.9345C208.968 43.9345 208.97 43.9359 208.971 43.9359C209.061 43.981 209.095 44.0867 209.046 44.1708C208.997 44.2557 208.885 44.2866 208.795 44.2408C208.685 44.1856 208.578 44.1264 208.47 44.0692C207.045 44.5626 205.499 45.6775 204.616 45.7919C206.04 44.6125 207.065 43.7676 208.188 43.9211C207.85 43.7366 207.518 43.542 207.19 43.3434C205.88 43.7999 204.461 44.8212 203.65 44.9269C204.97 43.8322 205.919 43.0519 206.963 43.2054C206.716 43.0526 206.471 42.8971 206.229 42.7369C206.092 42.6467 205.957 42.5531 205.821 42.4602C204.641 42.9409 203.388 43.9588 202.646 44.0961C203.832 42.992 204.673 42.2138 205.68 42.3646C205.365 42.1465 205.057 41.9209 204.751 41.692C203.667 42.1364 202.518 43.0681 201.837 43.1947C202.928 42.1794 203.701 41.4625 204.627 41.5978C204.366 41.3998 204.106 41.1992 203.85 40.9946C203.788 40.9448 203.727 40.8943 203.666 40.8438C202.709 41.3137 201.76 42.2441 201.137 42.413C202.04 41.3951 202.67 40.691 203.621 40.8074C203.375 40.6075 203.132 40.4055 202.892 40.2002C202.012 40.6344 201.14 41.488 200.567 41.6436C201.398 40.7085 201.976 40.0608 202.848 40.1625C202.593 39.9443 202.342 39.7229 202.093 39.4973C201.325 39.9403 200.591 40.7495 200.082 40.9171C200.773 40.0325 201.258 39.4159 202.04 39.4482C201.905 39.3243 201.77 39.2011 201.636 39.0752C201.559 39.0025 201.483 38.9278 201.406 38.8544C200.698 39.2624 200.022 40.0083 199.552 40.1625C200.19 39.3465 200.637 38.7777 201.359 38.8093C201.149 38.6073 200.943 38.402 200.741 38.1933C200.091 38.5191 199.483 39.1459 199.048 39.2651C199.621 38.575 200.021 38.097 200.712 38.163C200.674 38.1246 200.636 38.0876 200.599 38.0486C200.452 37.8937 200.307 37.7375 200.166 37.5786C199.574 37.8816 199.021 38.4485 198.625 38.5568C199.145 37.9301 199.51 37.4932 200.129 37.5383C199.961 37.3477 199.8 37.1512 199.652 36.9438C199.634 36.9189 199.64 36.8846 199.667 36.8671C199.693 36.8496 199.731 36.8556 199.749 36.8812L199.75 36.8825C199.89 37.0704 200.043 37.2501 200.203 37.4258C200.144 37.1256 200.263 36.8435 200.464 36.5352C200.546 36.5399 200.628 36.5439 200.71 36.5493C200.579 36.8576 200.412 37.2043 200.318 37.5477C200.447 37.685 200.577 37.8203 200.71 37.9543C200.74 37.9859 200.773 38.0162 200.805 38.0472C200.668 37.5618 200.938 37.1377 201.357 36.5944C201.402 36.5978 201.445 36.6018 201.489 36.6052C201.378 37.0206 201.042 37.5914 200.901 38.1415C201.089 38.3273 201.281 38.5104 201.477 38.6908C201.295 38.0721 201.749 37.5234 202.394 36.7506C202.363 37.2138 201.788 38.0196 201.558 38.7662C201.627 38.8288 201.693 38.8921 201.762 38.954C201.892 39.0712 202.025 39.1863 202.156 39.3014C201.974 38.6383 202.464 38.0465 203.156 37.2158C203.123 37.7146 202.506 38.5824 202.254 39.3883C202.481 39.5862 202.712 39.7808 202.945 39.9733C202.794 39.3028 203.271 38.6491 203.928 37.7523C203.924 38.2849 203.344 39.2314 203.11 40.1073C203.297 40.2608 203.487 40.4122 203.678 40.5617C203.51 39.8319 204.027 39.1217 204.742 38.1455C204.738 38.7225 204.109 39.7505 203.854 40.7004C203.905 40.7394 203.954 40.7791 204.005 40.8182C204.267 41.0188 204.532 41.2147 204.799 41.4079C204.588 40.664 205.083 39.8218 205.763 38.6747C205.816 39.2967 205.224 40.5085 205.033 41.5762C205.333 41.7896 205.637 41.9983 205.945 42.201C205.599 41.3568 206.157 40.4075 206.94 39.086C206.998 39.7781 206.323 41.1433 206.133 42.3228C206.223 42.3807 206.312 42.4407 206.402 42.4979C206.686 42.677 206.973 42.8493 207.263 43.0189C206.864 42.164 207.345 41.1521 208.05 39.7767C208.083 39.8252 208.12 39.8716 208.151 39.9208C208.097 40.7307 207.598 42.0246 207.486 43.1489C207.807 43.332 208.132 43.509 208.461 43.678C208.087 42.9664 208.298 42.1559 208.759 41.144C208.866 41.4295 208.947 41.723 209.011 42.0226C208.864 42.6042 208.718 43.2128 208.665 43.7817Z" fill="#263238"/>
<path d="M190.317 39.1132C191.402 38.4636 192.467 37.2726 193.176 37.0262C192.192 38.2926 191.493 39.1859 190.473 39.1866C190.821 39.3556 191.163 39.532 191.504 39.7124C192.5 39.1125 193.476 38.0219 194.127 37.7957C193.222 38.9597 192.579 39.7831 191.642 39.7864C191.934 39.9433 192.225 40.1028 192.511 40.2664C192.581 40.3062 192.65 40.3472 192.719 40.3876C193.584 39.7817 194.363 38.7221 194.95 38.4622C194.23 39.6013 193.727 40.3903 192.769 40.4166C193.046 40.5768 193.32 40.7404 193.591 40.908C194.387 40.3492 195.103 39.3764 195.643 39.1374C194.982 40.1843 194.519 40.9094 193.642 40.9383C193.93 41.116 194.216 41.2978 194.499 41.483C195.184 40.9316 195.771 40.0234 196.246 39.7824C195.713 40.7586 195.338 41.4399 194.56 41.5233C194.715 41.625 194.87 41.7267 195.022 41.831C195.11 41.8916 195.198 41.9542 195.286 42.0148C195.917 41.5065 196.458 40.6697 196.896 40.4475C196.404 41.3476 196.058 41.9764 195.34 42.0525C195.581 42.2208 195.82 42.3918 196.054 42.5688C196.641 42.1508 197.135 41.4412 197.544 41.2594C197.095 42.0256 196.781 42.5567 196.088 42.5944C196.132 42.6268 196.176 42.6577 196.219 42.6907C196.39 42.822 196.56 42.9546 196.726 43.0906C197.259 42.7035 197.709 42.0619 198.082 41.8963C197.675 42.5917 197.388 43.0778 196.769 43.1256C196.967 43.2892 197.16 43.4588 197.341 43.6413C197.363 43.6635 197.362 43.6985 197.339 43.7194C197.315 43.7409 197.278 43.7403 197.255 43.718L197.253 43.7174C197.083 43.5524 196.901 43.3976 196.714 43.2481C196.888 43.7052 196.636 44.1691 196.287 44.8039C196.227 44.4343 196.521 43.7591 196.58 43.1451C196.43 43.0287 196.278 42.9149 196.125 42.8018C196.089 42.7749 196.052 42.7506 196.015 42.7244C196.261 43.2434 195.979 43.7618 195.583 44.4835C195.517 44.0748 195.849 43.3222 195.905 42.6456C195.687 42.4901 195.466 42.3373 195.243 42.1885C195.527 42.7728 195.171 43.3814 194.665 44.2405C194.618 43.7786 195.049 42.8974 195.15 42.1265C195.072 42.0747 194.995 42.0222 194.917 41.971C194.769 41.8748 194.619 41.7805 194.47 41.6863C194.761 42.3144 194.378 42.9714 193.834 43.8944C193.783 43.3969 194.246 42.4483 194.358 41.6156C194.1 41.454 193.839 41.2958 193.577 41.1409C193.839 41.7805 193.479 42.4968 192.982 43.4797C192.896 42.9539 193.308 41.9327 193.392 41.0332C193.181 40.91 192.968 40.7889 192.754 40.669C193.043 41.3651 192.652 42.1427 192.111 43.2131C192.018 42.6422 192.465 41.5348 192.556 40.5586C192.499 40.5277 192.444 40.4953 192.387 40.465C192.095 40.3062 191.8 40.152 191.504 40.0005C191.837 40.7034 191.491 41.6095 191.014 42.8422C190.857 42.2363 191.236 40.9518 191.244 39.8686C190.911 39.7023 190.576 39.5414 190.238 39.3872C190.722 40.1695 190.332 41.1894 189.782 42.6106C189.607 41.936 190.044 40.4879 190.031 39.295C189.933 39.2512 189.835 39.2054 189.736 39.1624C189.425 39.0277 189.112 38.8998 188.798 38.7753C189.361 39.5959 189.005 40.7242 188.508 42.2901C188.272 41.5691 188.647 39.9749 188.556 38.6803C188.209 38.5464 187.858 38.4205 187.504 38.302C188.181 39.1974 187.792 40.4395 187.237 42.1817C186.98 41.3927 187.394 39.6424 187.287 38.232C187.18 38.197 187.073 38.1606 186.964 38.1276L186.961 38.1269L186.958 38.1256C186.862 38.094 186.811 37.995 186.845 37.9041C186.879 37.8139 186.984 37.7661 187.081 37.7977C187.198 37.8361 187.314 37.8785 187.43 37.9189C188.261 37.4807 189.098 36.7933 189.817 36.2816C190.008 36.2763 190.2 36.2736 190.391 36.2695C189.455 37.3083 188.688 38.0112 187.734 38.0239C188.1 38.1559 188.461 38.2979 188.818 38.4461C190.034 37.8004 191.262 36.5812 192.045 36.3577C190.926 37.6341 190.122 38.5457 189.066 38.5491C189.336 38.6635 189.604 38.7806 189.869 38.9025C190.019 38.9698 190.168 39.0419 190.317 39.1132Z" fill="#263238"/>
<path d="M199.289 51.6994C200.081 50.8929 200.636 50.3301 201.41 50.4445C201.29 50.3079 201.17 50.1712 201.052 50.0325C200.984 49.9517 200.918 49.8703 200.85 49.7895C200.097 50.1207 199.337 50.7912 198.852 50.8956C199.582 50.1517 200.095 49.6326 200.809 49.739C200.625 49.5168 200.444 49.2913 200.268 49.0624C199.583 49.3182 198.905 49.8777 198.459 49.9511C199.109 49.325 199.564 48.8921 200.242 49.0294C200.21 48.987 200.176 48.946 200.144 48.9035C200.017 48.7346 199.891 48.5642 199.77 48.3912C199.146 48.6302 198.529 49.1358 198.122 49.2018C198.714 48.6336 199.128 48.2371 199.738 48.3468C199.594 48.1394 199.457 47.928 199.335 47.7059C199.32 47.6796 199.33 47.646 199.359 47.6318C199.388 47.617 199.424 47.6271 199.44 47.654L199.44 47.6554C199.557 47.8567 199.688 48.0512 199.826 48.2431C199.788 47.7591 200.164 47.3753 200.681 46.8516C200.633 47.2225 200.158 47.7995 199.925 48.3764C200.036 48.5259 200.151 48.674 200.265 48.8214C200.293 48.8557 200.321 48.8894 200.349 48.9237C200.26 48.3616 200.679 47.9334 201.268 47.337C201.215 47.747 200.681 48.3899 200.434 49.0274C200.599 49.2321 200.767 49.434 200.941 49.6333C200.834 48.9991 201.351 48.5016 202.083 47.8008C201.997 48.2572 201.329 48.9985 201.013 49.7168C201.073 49.7861 201.132 49.8561 201.193 49.9248C201.308 50.0547 201.426 50.1827 201.543 50.3112C201.441 49.6326 201.998 49.0961 202.785 48.3434C202.693 48.8355 201.976 49.6333 201.631 50.4075C201.834 50.6283 202.039 50.8458 202.248 51.0612C202.179 50.3786 202.729 49.7794 203.489 48.9567C203.422 49.4852 202.733 50.3658 202.396 51.2113C202.564 51.383 202.734 51.5533 202.906 51.7223C202.826 50.9791 203.425 50.3274 204.251 49.4327C204.178 50.0063 203.431 50.9616 203.066 51.8792C203.111 51.9229 203.155 51.968 203.201 52.0118C203.438 52.2387 203.677 52.4608 203.92 52.6817C203.8 51.9202 204.392 51.1346 205.203 50.0662C205.181 50.6896 204.45 51.832 204.133 52.8728C204.406 53.1165 204.683 53.3555 204.964 53.5892C204.721 52.714 205.388 51.8287 206.323 50.5974C206.299 51.2915 205.465 52.5773 205.137 53.7299C205.219 53.7972 205.3 53.8658 205.384 53.9318C205.644 54.1398 205.909 54.3411 206.177 54.5397C205.869 53.6087 206.534 52.6103 207.461 51.2261C207.482 51.9802 206.666 53.4222 206.383 54.6919C206.681 54.908 206.982 55.1174 207.289 55.32C207.064 54.733 207.209 54.1217 207.561 53.4235C207.474 54.2274 207.408 55.007 207.35 55.7744C207.317 55.7515 207.284 55.73 207.251 55.7071C205.777 56.0484 204.107 56.9943 203.216 57.0158C204.771 55.9926 205.89 55.2601 206.988 55.53C206.674 55.3113 206.366 55.0837 206.064 54.8514C204.708 55.1685 203.177 56.035 202.359 56.0552C203.801 55.1059 204.837 54.4287 205.855 54.6912C205.628 54.5128 205.403 54.3331 205.182 54.1493C205.056 54.0449 204.934 53.9379 204.81 53.8315C203.58 54.1856 202.214 55.0662 201.46 55.1254C202.77 54.1526 203.698 53.4666 204.681 53.7218C204.395 53.472 204.115 53.2162 203.838 52.9563C202.708 53.2849 201.455 54.0907 200.763 54.1452C201.968 53.2505 202.822 52.619 203.726 52.8506C203.489 52.6265 203.254 52.4002 203.025 52.17C202.969 52.1141 202.915 52.0576 202.859 52.001C201.853 52.3679 200.8 53.1933 200.16 53.2963C201.179 52.3794 201.889 51.7452 202.819 51.96C202.599 51.7358 202.381 51.5096 202.167 51.2807C201.241 51.6193 200.273 52.3774 199.685 52.4723C200.621 51.6294 201.274 51.0464 202.128 51.2389C201.901 50.9952 201.677 50.7482 201.457 50.4991C200.64 50.8586 199.815 51.5863 199.289 51.6994Z" fill="#263238"/>
<path d="M186.785 51.208C187.304 51.4221 188.001 52.2973 188.766 52.8467C188.99 52.7457 189.214 52.6427 189.436 52.5383C188.654 52.3929 188.164 51.6658 187.492 50.6627C188.056 50.8957 188.812 51.8442 189.642 52.4407C189.7 52.4124 189.759 52.3862 189.817 52.3579C190.117 52.2125 190.414 52.0624 190.71 51.9089C189.898 51.7944 189.269 51.0337 188.416 49.9949C189.046 50.1962 189.998 51.1858 190.968 51.7742C191.296 51.6005 191.621 51.4221 191.942 51.2377C190.978 51.2006 190.27 50.343 189.287 49.146C189.988 49.3701 191.056 50.4931 192.136 51.1246C192.228 51.07 192.322 51.0175 192.414 50.9616C192.702 50.7893 192.985 50.6102 193.266 50.4284C192.226 50.4325 191.401 49.5452 190.26 48.3098C191.036 48.5111 192.268 49.6643 193.482 50.2877C193.789 50.0844 194.091 49.8751 194.387 49.659C193.218 49.7135 192.31 48.7373 191.041 47.3633C191.889 47.5841 193.24 48.8524 194.567 49.525C194.656 49.4583 194.747 49.3937 194.835 49.3257L194.837 49.3244L194.839 49.3223C194.919 49.2631 195.036 49.2759 195.099 49.3513C195.162 49.426 195.149 49.5351 195.068 49.595C194.97 49.667 194.87 49.7364 194.771 49.8064C194.689 51.2282 195.166 53.0008 194.928 53.806C194.338 52.1128 193.918 50.8957 194.514 49.9895C194.198 50.2076 193.877 50.4163 193.551 50.6196C193.479 51.9277 193.915 53.5535 193.696 54.2927C193.149 52.7228 192.761 51.5965 193.326 50.7597C193.078 50.9112 192.829 51.0599 192.576 51.2047C192.433 51.2868 192.288 51.3656 192.143 51.4457C192.144 52.6521 192.644 54.1339 192.484 54.8266C191.874 53.3684 191.445 52.335 191.993 51.5292C191.655 51.7129 191.311 51.8893 190.966 52.0617C190.971 53.1711 191.427 54.5297 191.281 55.1659C190.72 53.8248 190.325 52.8743 190.825 52.1317C190.527 52.2785 190.228 52.4225 189.926 52.5612C189.853 52.5949 189.779 52.6272 189.706 52.6602C189.786 53.6693 190.32 54.8549 190.238 55.4588C189.601 54.2772 189.161 53.4559 189.652 52.6837C189.359 52.8157 189.065 52.9449 188.768 53.0702C188.844 53.9992 189.334 55.0885 189.259 55.6432C188.673 54.558 188.269 53.8026 188.715 53.0931C188.399 53.2257 188.083 53.3543 187.764 53.4781C187.892 54.3156 188.393 55.2682 188.355 55.7731C187.764 54.8273 187.352 54.1648 187.695 53.5051C187.52 53.5724 187.345 53.6397 187.17 53.705C187.068 53.7427 186.965 53.7777 186.862 53.8147C186.981 54.5863 187.443 55.4641 187.407 55.9293C186.862 55.0568 186.482 54.4456 186.8 53.837C186.519 53.9373 186.236 54.0335 185.952 54.1244C186.013 54.8131 186.386 55.586 186.33 56.0067C185.881 55.24 185.572 54.7068 185.911 54.1379C185.858 54.1547 185.807 54.1729 185.754 54.1891C185.544 54.2537 185.333 54.3163 185.122 54.3749C185.183 55.0043 185.519 55.7052 185.468 56.0889C185.061 55.3928 184.778 54.9054 185.067 54.3903C184.813 54.459 184.558 54.5203 184.296 54.5654C184.264 54.5708 184.233 54.5519 184.227 54.5223C184.22 54.492 184.241 54.4631 184.273 54.4563L184.274 54.4556C184.513 54.4099 184.751 54.3493 184.987 54.2813C184.482 54.1736 184.2 53.7245 183.817 53.1072C184.181 53.2587 184.63 53.8538 185.152 54.2308C185.337 54.1749 185.522 54.1157 185.705 54.0551C185.748 54.0409 185.791 54.0248 185.834 54.0107C185.234 53.9265 184.92 53.425 184.484 52.7228C184.887 52.8904 185.386 53.5569 185.965 53.9649C186.222 53.8767 186.478 53.7838 186.732 53.6875C186.054 53.598 185.697 52.9894 185.196 52.1283C185.637 52.339 186.198 53.1536 186.838 53.6471C186.926 53.6135 187.015 53.5805 187.103 53.5468C187.269 53.4815 187.434 53.4142 187.599 53.3462C186.877 53.2391 186.493 52.5828 185.955 51.6578C186.43 51.8846 187.034 52.7598 187.723 53.2964C188.008 53.1792 188.29 53.0581 188.571 52.9335C187.853 52.7982 187.402 52.129 186.785 51.208Z" fill="#263238"/>
<path d="M190.932 60.1849C190.293 60.3869 189.644 60.8541 189.234 60.8965C189.861 60.3646 190.302 59.9937 190.904 60.1391C190.774 59.9237 190.652 59.7042 190.544 59.476C190.531 59.4484 190.544 59.4161 190.574 59.4033C190.603 59.3905 190.638 59.4026 190.653 59.4302L190.653 59.4322C190.756 59.6396 190.874 59.8422 190.999 60.0415C190.994 59.5561 191.394 59.1959 191.947 58.7031C191.874 59.0707 191.36 59.618 191.089 60.1802C191.191 60.3357 191.294 60.4905 191.399 60.644C191.424 60.6804 191.451 60.7154 191.476 60.7511C191.425 60.1849 191.872 59.7823 192.5 59.2222C192.419 59.6288 191.843 60.2381 191.553 60.8601C191.705 61.0735 191.859 61.2856 192.018 61.495C191.954 60.8561 192.503 60.3902 193.282 59.7345C193.165 60.1849 192.449 60.885 192.085 61.5832C192.14 61.6559 192.195 61.7293 192.251 61.8013C192.357 61.938 192.465 62.0726 192.574 62.2079C192.518 61.5246 193.11 61.0217 193.946 60.3175C193.82 60.8036 193.051 61.5569 192.654 62.3089C192.842 62.5412 193.033 62.7707 193.227 62.9976C193.203 62.3123 193.792 61.7468 194.606 60.9705C194.503 61.4936 193.757 62.3318 193.364 63.1558C193.52 63.3376 193.678 63.5173 193.838 63.6957C193.809 62.9498 194.45 62.3345 195.336 61.4903C195.224 62.0585 194.414 62.9673 193.988 63.8613C194.03 63.9078 194.072 63.9556 194.114 64.002C194.335 64.2417 194.559 64.4787 194.786 64.7123C194.717 63.9455 195.362 63.1969 196.243 62.1783C196.18 62.799 195.372 63.8957 194.985 64.9163C195.241 65.1761 195.502 65.4306 195.767 65.6811C195.584 64.7931 196.31 63.9495 197.325 62.7761C197.255 63.4675 196.335 64.7015 195.93 65.8319C196.007 65.9039 196.084 65.9766 196.162 66.048C196.408 66.2708 196.659 66.4876 196.913 66.7023C196.669 65.7544 197.399 64.7978 198.417 63.4709C198.387 64.2249 197.476 65.6158 197.109 66.8666C197.39 67.0995 197.678 67.3271 197.971 67.5472C197.645 66.4936 198.447 65.44 199.58 63.9643C199.547 64.789 198.543 66.3146 198.151 67.6805C198.241 67.7465 198.329 67.8138 198.42 67.8784L198.422 67.8798L198.424 67.8818C198.504 67.9411 198.517 68.0508 198.454 68.1255C198.391 68.2002 198.274 68.213 198.194 68.1538C198.096 68.0811 198.002 68.0057 197.905 67.9316C196.411 68.1848 194.681 69.0303 193.79 68.9987C195.411 68.0696 196.577 67.4052 197.655 67.7391C197.356 67.5014 197.065 67.2564 196.779 67.0066C195.404 67.2423 193.818 68.0165 193 67.9882C194.503 67.1258 195.582 66.5118 196.58 66.8336C196.366 66.6424 196.154 66.4499 195.945 66.2526C195.827 66.1415 195.711 66.0271 195.595 65.914C194.343 66.1947 192.921 66.9918 192.165 67.0066C193.537 66.1133 194.511 65.4831 195.474 65.7968C195.204 65.5309 194.942 65.2583 194.684 64.9829C193.533 65.2441 192.228 65.9739 191.535 65.9874C192.797 65.1654 193.693 64.5864 194.578 64.8705C194.357 64.6328 194.139 64.3925 193.925 64.1502C193.873 64.0909 193.822 64.031 193.771 63.9717C192.742 64.2781 191.635 65.0395 190.989 65.1048C192.068 64.2498 192.819 63.6594 193.734 63.9287C193.53 63.6917 193.328 63.4534 193.13 63.2117C192.182 63.4951 191.166 64.1939 190.572 64.2538C191.563 63.4682 192.253 62.9256 193.093 63.1679C192.883 62.9114 192.676 62.6516 192.473 62.3897C191.634 62.7 190.761 63.3773 190.228 63.4594C191.073 62.7014 191.665 62.1729 192.429 62.3325C192.319 62.1891 192.208 62.045 192.1 61.8996C192.038 61.8147 191.978 61.7292 191.915 61.6451C191.142 61.9312 190.337 62.5553 189.846 62.6307C190.625 61.9312 191.172 61.4438 191.877 61.5926C191.708 61.3597 191.543 61.124 191.383 60.8857C190.682 61.1005 189.967 61.6188 189.517 61.6646C190.209 61.0782 190.691 60.673 191.36 60.8514C191.331 60.8069 191.3 60.7645 191.27 60.7201C191.155 60.5417 191.042 60.3646 190.932 60.1849Z" fill="#263238"/>
<path d="M186.575 67.6987C186.428 67.5162 186.268 67.3412 186.101 67.1709C186.214 67.6441 185.903 68.0757 185.473 68.6654C185.463 68.2918 185.842 67.6556 185.982 67.053C185.848 66.9204 185.712 66.7891 185.575 66.6606C185.543 66.6303 185.509 66.6013 185.477 66.571C185.654 67.1143 185.306 67.5963 184.817 68.2675C184.805 67.8542 185.233 67.1453 185.376 66.4801C185.18 66.3004 184.982 66.124 184.78 65.9503C184.985 66.5629 184.551 67.1264 183.937 67.9202C183.951 67.457 184.494 66.6316 184.695 65.8776C184.624 65.8177 184.555 65.7564 184.484 65.6965C184.349 65.5841 184.213 65.473 184.077 65.3619C184.284 66.019 183.817 66.6269 183.157 67.4799C183.172 66.9797 183.755 66.0924 183.976 65.2791C183.74 65.0893 183.503 64.9021 183.263 64.7176C183.439 65.3828 182.988 66.052 182.367 66.9702C182.35 66.4384 182.893 65.4723 183.093 64.5897C182.899 64.443 182.705 64.2976 182.508 64.1548C182.704 64.8785 182.214 65.6056 181.537 66.6054C181.519 66.0284 182.108 64.9802 182.326 64.0222C182.274 63.9845 182.223 63.9468 182.17 63.9098C181.901 63.7186 181.629 63.5314 181.355 63.347C181.594 64.0835 181.131 64.9418 180.496 66.1105C180.42 65.4912 180.964 64.2599 181.114 63.1861C180.806 62.9828 180.494 62.7848 180.178 62.5923C180.557 63.4237 180.035 64.3918 179.304 65.7389C179.219 65.0495 179.842 63.662 179.986 62.4765C179.894 62.4213 179.803 62.3647 179.71 62.3109C179.42 62.1412 179.126 61.9783 178.83 61.8188C179.281 62.6973 178.781 63.7765 178.081 65.2737C177.942 64.5305 178.522 62.9922 178.602 61.6969C178.274 61.5239 177.943 61.3583 177.607 61.2007C178.162 62.1675 177.612 63.355 176.835 65.0206C176.682 64.208 177.324 62.5182 177.401 61.1065C177.298 61.06 177.197 61.0109 177.094 60.9658L177.092 60.9644L177.089 60.9631C176.997 60.9207 176.96 60.817 177.005 60.7308C177.05 60.6453 177.161 60.6096 177.253 60.6521C177.365 60.7039 177.474 60.7591 177.584 60.8123C178.989 60.271 180.492 59.105 181.37 58.9609C179.992 60.1875 179.001 61.0661 177.872 60.9517C178.218 61.1247 178.557 61.3071 178.893 61.4956C180.184 60.9947 181.562 59.9263 182.369 59.7944C181.091 60.9328 180.173 61.7447 179.125 61.6262C179.378 61.7703 179.628 61.9177 179.875 62.0692C180.016 62.1554 180.155 62.2436 180.293 62.3318C181.454 61.812 182.667 60.7524 183.403 60.5901C182.26 61.7333 181.449 62.5398 180.438 62.4233C180.76 62.6307 181.077 62.8454 181.391 63.0642C182.458 62.5835 183.57 61.6134 184.246 61.464C183.195 62.5149 182.449 63.2574 181.519 63.1531C181.788 63.3422 182.056 63.5341 182.319 63.7294C182.383 63.7772 182.446 63.8263 182.509 63.8734C183.447 63.3719 184.359 62.4098 184.976 62.22C184.112 63.2675 183.51 63.9926 182.555 63.9084C182.809 64.0996 183.06 64.2935 183.307 64.4908C184.17 64.0276 185.008 63.145 185.575 62.97C184.782 63.9327 184.228 64.5992 183.353 64.5271C183.615 64.7372 183.875 64.9499 184.132 65.166C184.883 64.6981 185.585 63.864 186.087 63.6795C185.431 64.587 184.969 65.2205 184.186 65.2138C184.326 65.333 184.466 65.4515 184.605 65.5726C184.685 65.6426 184.764 65.7147 184.843 65.7854C185.535 65.3538 186.182 64.5857 186.645 64.4147C186.04 65.2515 185.614 65.8359 184.892 65.8285C185.109 66.023 185.323 66.2209 185.533 66.4229C186.17 66.0755 186.754 65.4286 187.183 65.2946C186.637 66.0035 186.257 66.4943 185.563 66.4519C185.602 66.4896 185.642 66.5252 185.68 66.5629C185.832 66.7124 185.983 66.8639 186.13 67.018C186.71 66.6949 187.241 66.1105 187.633 65.9887C187.138 66.6323 186.79 67.0813 186.169 67.0571C186.344 67.2422 186.513 67.4327 186.669 67.6347C186.688 67.6596 186.683 67.6933 186.657 67.7115C186.631 67.7303 186.594 67.7249 186.574 67.7007L186.575 67.6987Z" fill="#263238"/>
<path d="M194.995 77.2882C194.709 77.0384 194.429 76.7826 194.152 76.5227C193.022 76.8513 191.769 77.6578 191.077 77.7116C192.281 76.8169 193.136 76.1854 194.039 76.417C193.803 76.1928 193.568 75.9666 193.338 75.7364C193.282 75.6805 193.229 75.6233 193.172 75.5674C192.166 75.9343 191.113 76.7597 190.473 76.8627C191.492 75.9458 192.202 75.3116 193.132 75.527C192.912 75.3028 192.694 75.076 192.48 74.8471C191.554 75.1864 190.586 75.9438 189.998 76.0387C190.934 75.1965 191.587 74.6128 192.441 74.8053C192.214 74.5616 191.99 74.3152 191.77 74.0655C190.953 74.425 190.127 75.1527 189.602 75.2665C190.394 74.46 190.95 73.8972 191.723 74.0116C191.603 73.8743 191.483 73.7376 191.365 73.5989C191.297 73.5181 191.231 73.4367 191.163 73.3559C190.41 73.6871 189.65 74.3576 189.165 74.462C189.896 73.7181 190.408 73.199 191.122 73.3061C190.938 73.0839 190.757 72.8584 190.581 72.6295C189.896 72.8853 189.218 73.4448 188.772 73.5175C189.422 72.8914 189.877 72.4585 190.556 72.5958C190.523 72.5534 190.489 72.5123 190.457 72.4699C190.33 72.301 190.204 72.1306 190.083 71.9576C189.459 72.1966 188.842 72.7022 188.436 72.7688C189.027 72.2006 189.441 71.8041 190.051 71.9139C189.907 71.7065 189.771 71.4944 189.648 71.273C189.633 71.246 189.643 71.213 189.672 71.1982C189.701 71.1841 189.737 71.1935 189.753 71.2204L189.753 71.2218C189.87 71.4231 190.001 71.6183 190.139 71.8095C190.101 71.3255 190.477 70.9417 190.994 70.418C190.946 70.7889 190.471 71.3659 190.238 71.9428C190.349 72.0923 190.464 72.2404 190.579 72.3878C190.606 72.4221 190.635 72.4558 190.662 72.4901C190.573 71.928 190.992 71.4992 191.581 70.9034C191.528 71.314 190.994 71.9563 190.747 72.5938C190.912 72.7985 191.08 73.0004 191.254 73.1997C191.147 72.5662 191.664 72.068 192.396 71.3679C192.31 71.8243 191.642 72.5655 191.326 73.2832C191.386 73.3525 191.445 73.4225 191.506 73.4912C191.621 73.6211 191.739 73.7497 191.856 73.8776C191.754 73.1997 192.311 72.6625 193.099 71.9098C193.006 72.4019 192.289 73.199 191.943 73.9739C192.146 74.1941 192.352 74.4115 192.561 74.6276C192.49 73.945 193.041 73.3458 193.801 72.5231C193.733 73.0516 193.045 73.9322 192.708 74.7777C192.876 74.9494 193.046 75.1197 193.218 75.2887C193.139 74.5455 193.737 73.8938 194.564 72.9991C194.49 73.572 193.743 74.5273 193.378 75.4456C193.423 75.4893 193.468 75.5344 193.514 75.5782C193.75 75.8051 193.99 76.0272 194.232 76.2474C194.112 75.486 194.704 74.7003 195.515 73.6319C195.494 74.2553 194.762 75.3978 194.445 76.4392C194.718 76.6829 194.995 76.9219 195.277 77.1556C195.034 76.2804 195.701 75.3951 196.636 74.1644C196.612 74.8585 195.779 76.1444 195.45 77.2969C195.532 77.3642 195.614 77.4329 195.697 77.4989C195.957 77.7062 196.223 77.9082 196.49 78.1068C196.182 77.1757 196.847 76.1774 197.773 74.7932C197.794 75.5385 197 76.9543 196.709 78.2132C196.524 78.2253 196.34 78.2374 196.156 78.2489C195.933 78.0738 195.712 77.8974 195.494 77.7163C195.369 77.612 195.246 77.505 195.122 77.3986C194.277 77.6416 193.371 78.129 192.64 78.4327C192.458 78.4401 192.277 78.4468 192.095 78.4542C193.239 77.6127 194.096 77.0546 194.995 77.2882Z" fill="#263238"/>
<path d="M198.966 75.2188C198.984 75.8704 198.429 76.996 198.047 78.1237C197.866 78.1365 197.684 78.1506 197.503 78.1627C197.562 77.3286 198.172 76.405 198.966 75.2188Z" fill="#263238"/>
<path d="M196.117 78.2525C195.755 78.2748 195.393 78.2964 195.033 78.3167C195.408 78.2012 195.764 78.1722 196.117 78.2525Z" fill="#263238"/>
<path d="M175.218 76.8412C175.197 76.8022 175.177 76.7591 175.156 76.7174C175.245 76.6891 175.333 76.6622 175.421 76.6332C175.464 76.6191 175.507 76.6029 175.55 76.5888C175.336 76.5585 175.16 76.4737 175 76.3478C174.935 76.1721 174.873 75.9842 174.816 75.7776C175.08 76.0293 175.368 76.3235 175.681 76.5437C175.938 76.4555 176.194 76.3626 176.447 76.2663C175.769 76.1768 175.412 75.5682 174.912 74.7071C175.353 74.9179 175.913 75.7325 176.553 76.2266C176.642 76.1929 176.73 76.1599 176.818 76.1256C176.984 76.0603 177.149 75.993 177.315 75.925C176.593 75.8179 176.208 75.1616 175.67 74.2366C176.145 74.4634 176.749 75.3393 177.439 75.8752C177.723 75.758 178.005 75.6369 178.286 75.5123C177.57 75.3756 177.119 74.7065 176.502 73.7855C177.021 74.0003 177.718 74.8748 178.482 75.4241C178.707 75.3231 178.93 75.2208 179.152 75.1158C178.371 74.9704 177.881 74.2433 177.209 73.2402C177.773 73.4731 178.529 74.4217 179.358 75.0182C179.417 74.9899 179.476 74.9636 179.534 74.9354C179.834 74.7899 180.131 74.6398 180.426 74.4863C179.615 74.3719 178.986 73.6118 178.133 72.5724C178.763 72.7736 179.715 73.764 180.684 74.3523C181.012 74.1793 181.338 74.0003 181.658 73.8158C180.694 73.7781 179.986 72.9211 179.003 71.7234C179.704 71.9476 180.773 73.0705 181.852 73.702C181.945 73.6475 182.039 73.595 182.13 73.5398C182.418 73.3674 182.701 73.1884 182.982 73.0066C181.942 73.0106 181.117 72.1233 179.976 70.888C180.752 71.0899 181.984 72.2425 183.198 72.8659C183.505 72.6626 183.807 72.4539 184.103 72.2371C182.934 72.2916 182.026 71.3154 180.757 69.9414C181.605 70.1622 182.956 71.4306 184.284 72.1038C184.373 72.0371 184.463 71.9725 184.551 71.9045L184.554 71.9025L184.556 71.9012C184.636 71.8419 184.753 71.8547 184.816 71.9301C184.879 72.0055 184.865 72.1139 184.785 72.1738C184.687 72.2458 184.587 72.3145 184.488 72.3852C184.406 73.807 184.883 75.5803 184.645 76.3848C184.055 74.6917 183.634 73.4745 184.23 72.569C183.915 72.7871 183.593 72.9958 183.268 73.1991C183.196 74.5072 183.632 76.133 183.413 76.8722C182.866 75.3016 182.478 74.176 183.043 73.3392C182.795 73.4906 182.545 73.6394 182.293 73.7842C182.15 73.8663 182.005 73.9451 181.86 74.0252C181.861 75.2316 182.361 76.7133 182.201 77.4061C181.59 75.9479 181.162 74.9145 181.71 74.1086C181.371 74.2924 181.028 74.4695 180.683 74.6405C180.688 75.75 181.144 77.1085 180.997 77.7447C180.436 76.4036 180.042 75.4531 180.542 74.7105C180.244 74.8573 179.944 75.0013 179.643 75.14C179.57 75.1737 179.496 75.206 179.422 75.2397C179.503 76.2495 180.037 77.4344 179.955 78.0382C179.318 76.8567 178.878 76.0354 179.369 75.2632C179.076 75.3952 178.782 75.5244 178.485 75.6496C178.558 76.5504 179.017 77.5973 178.976 78.1668C178.965 78.1655 178.954 78.1635 178.943 78.1621C178.375 77.1105 177.994 76.3686 178.431 75.6732C178.115 75.8058 177.799 75.9344 177.48 76.0583C177.584 76.7382 177.929 77.4902 178.037 78.0207C177.973 78.0093 177.906 77.9985 177.844 77.9864C177.383 77.2297 177.113 76.6554 177.41 76.0845C177.236 76.1519 177.061 76.2199 176.885 76.2845C176.783 76.3222 176.68 76.3572 176.578 76.3942C176.65 76.8614 176.846 77.3664 176.983 77.7965C176.869 77.7676 176.756 77.738 176.65 77.707C176.403 77.2263 176.304 76.8204 176.515 76.4171C176.234 76.5174 175.951 76.6137 175.666 76.7046C175.687 76.9301 175.742 77.1624 175.803 77.3899C175.686 77.334 175.581 77.2748 175.487 77.2135C175.488 77.0472 175.526 76.8837 175.625 76.7174C175.573 76.7342 175.521 76.7524 175.468 76.7685C175.386 76.7928 175.302 76.8163 175.218 76.8412Z" fill="#263238"/>
<path d="M202.851 62.7907L202.849 62.79L202.846 62.7893C202.747 62.7637 202.69 62.6681 202.717 62.5759C202.744 62.4837 202.846 62.4298 202.945 62.4554C203.065 62.4864 203.183 62.522 203.302 62.555C204.575 61.7781 205.819 60.3691 206.653 60.0742C205.544 61.5203 204.744 62.5571 203.613 62.6412C203.987 62.7509 204.357 62.8708 204.724 62.9973C205.588 62.4668 206.435 61.6253 207.129 61.1123C207.128 61.2692 207.131 61.4166 207.131 61.5721C206.416 62.45 205.789 63.0337 204.978 63.0849C205.254 63.1831 205.53 63.2835 205.804 63.3892C205.959 63.4491 206.113 63.5117 206.267 63.5743C206.564 63.3696 206.855 63.1205 207.137 62.8627C207.14 63.0512 207.143 63.2383 207.147 63.4235C206.925 63.5467 206.689 63.6221 206.427 63.6382C206.675 63.7399 206.918 63.8496 207.163 63.958C207.166 64.0536 207.169 64.1472 207.172 64.2421C206.852 64.1068 206.531 63.9755 206.206 63.851C206.743 64.6023 206.424 65.6444 205.973 67.0952C205.752 66.4328 206.088 64.9605 205.993 63.7715C205.892 63.7332 205.791 63.6934 205.689 63.6571C205.37 63.5413 205.049 63.4329 204.727 63.3272C205.344 64.1115 205.067 65.2594 204.678 66.8529C204.393 66.1473 204.658 64.5336 204.478 63.2478C204.122 63.1354 203.763 63.0303 203.402 62.9347C204.14 63.787 203.836 65.05 203.403 66.8219C203.092 66.0504 203.386 64.2785 203.181 62.8775C203.071 62.8472 202.962 62.8169 202.851 62.7907Z" fill="#263238"/>
<path d="M207.291 67.0116C207.267 67.0911 207.243 67.1678 207.218 67.2506C207.091 66.8716 207.162 66.2051 207.214 65.4922C207.236 66.0112 207.262 66.5188 207.291 67.0116Z" fill="#263238"/>
<path d="M204.747 76.861C204.834 76.727 204.926 76.5944 205.016 76.4624C204.432 75.3873 203.272 74.2778 203.079 73.5925C204.327 74.634 205.209 75.3732 205.109 76.3244C205.323 76.0168 205.543 75.7138 205.768 75.4142C205.228 74.4266 204.165 73.4087 203.988 72.7799C205.136 73.7379 205.947 74.4179 205.86 75.2917C206.055 75.0345 206.252 74.7794 206.455 74.5276C206.503 74.4663 206.554 74.4064 206.603 74.3452C206.044 73.4787 204.995 72.6487 204.777 72.0757C205.916 72.8587 206.704 73.4047 206.639 74.3014C206.837 74.0597 207.037 73.8194 207.241 73.5824C206.725 72.7853 205.762 72.0232 205.561 71.4961C206.608 72.2151 207.333 72.7173 207.278 73.5393C207.423 73.3703 207.573 73.2047 207.721 73.0391C207.728 73.132 207.734 73.2283 207.74 73.3192C207.655 73.4195 207.568 73.5185 207.485 73.6194C207.576 73.5959 207.666 73.5831 207.758 73.5784C207.764 73.6787 207.768 73.7749 207.774 73.8732C207.632 73.8382 207.492 73.8059 207.353 73.7817C207.201 73.9668 207.052 74.1533 206.904 74.3411C207.193 74.265 207.485 74.2805 207.795 74.3613C207.802 74.5007 207.81 74.6447 207.814 74.7801C207.469 74.6757 207.113 74.5761 206.768 74.5155C206.73 74.5646 206.69 74.6138 206.651 74.6636C206.454 74.9208 206.261 75.1813 206.072 75.4425C206.576 75.2857 207.145 75.4048 207.824 75.66C207.824 75.7838 207.828 75.9151 207.825 76.0349C207.225 75.9064 206.541 75.7347 205.907 75.6721C205.698 75.9656 205.494 76.2632 205.297 76.5634C205.982 76.2699 206.772 76.4914 207.777 76.9108C207.769 76.9976 207.769 77.0959 207.759 77.1801C207.705 77.1868 207.65 77.1929 207.596 77.1996C206.864 77.0535 205.977 76.8125 205.178 76.7465C205.122 76.8341 205.064 76.9209 205.009 77.0091C204.901 77.1814 204.799 77.3565 204.696 77.5302C204.561 77.5443 204.428 77.5584 204.294 77.5726C204.442 77.3336 204.592 77.0959 204.747 76.861Z" fill="#263238"/>
<path d="M207.554 70.7515C207.562 70.8607 207.57 70.9591 207.578 71.0669C207.348 70.8418 207.156 70.6356 207.075 70.457C207.246 70.5608 207.404 70.6572 207.554 70.7515Z" fill="#263238"/>
<path d="M203.33 77.6705C203.118 77.692 202.905 77.7136 202.692 77.7338C202.118 76.8794 201.51 76.0844 201.393 75.5391C202.259 76.3503 202.962 77.0161 203.33 77.6705Z" fill="#263238"/>
<path d="M204.054 77.5981C203.46 76.461 202.408 75.293 202.255 74.582C203.501 75.7494 204.39 76.5882 204.291 77.5731C204.212 77.5812 204.133 77.59 204.054 77.5981Z" fill="#263238"/>
<path d="M207.647 71.9534C207.66 72.1332 207.673 72.3116 207.686 72.4859C207.166 71.913 206.484 71.3926 206.306 70.9961C206.881 71.3415 207.349 71.6289 207.647 71.9534Z" fill="#263238"/>
</g>
<path d="M157.764 55.4959L154.59 52.3398L150.193 58.1437C150.193 58.1437 153.904 60.613 157.461 60.5141L157.869 59.6618C158.531 58.2756 158.493 56.7434 157.764 55.4959Z" fill="#FFB573"/>
<path d="M149.5 52.6426L148.258 54.8359C147.692 55.8356 148.091 57.0764 149.154 57.6156L150.191 58.1428L154.588 52.3389L152.074 51.6341C151.069 51.3513 149.992 51.7741 149.5 52.6426Z" fill="#FFB573"/>
<path d="M174.54 44.1635L174.273 45.452L173.971 46.8126C173.755 47.7201 173.544 48.631 173.3 49.5304C172.832 51.3353 172.277 53.1032 171.674 54.8131C171.05 56.5103 170.35 58.1476 169.545 59.5984C168.735 61.035 167.801 62.2893 166.913 63.0345L168.439 62.3296C168.887 62.2724 168.967 62.4003 168.735 62.3929C168.516 62.3929 168.098 62.2852 167.647 62.1008C166.729 61.7231 165.639 61.1219 164.588 60.4224C163.516 59.7337 162.443 58.9508 161.368 58.1415C160.297 57.3418 159.203 56.4585 158.16 55.658L158.05 55.5725C156.97 54.7438 155.377 54.8919 154.493 55.9044C153.836 56.6564 153.756 57.675 154.2 58.4882C154.936 59.832 155.726 61.0155 156.607 62.2226C157.487 63.4162 158.45 64.5715 159.533 65.6991C160.64 66.8086 161.822 67.9181 163.404 68.9185C164.204 69.4153 165.099 69.9041 166.271 70.2898C166.858 70.4817 167.524 70.6392 168.294 70.7052C169.06 70.7725 169.941 70.7436 170.853 70.5328C171.355 70.4164 171.811 70.2137 172.207 69.9465L172.381 69.8273C174.878 68.1301 176.517 66.1064 177.845 64.1103C178.502 63.1072 179.087 62.0967 179.616 61.0842C180.129 60.0676 180.594 59.0484 181.024 58.0278C181.875 55.9886 182.553 53.9326 183.129 51.8712C183.409 50.8378 183.678 49.8051 183.899 48.7602C184.011 48.2385 184.12 47.7147 184.217 47.1862C184.314 46.6423 184.397 46.1562 184.49 45.5254C184.868 42.9476 182.946 40.5712 180.196 40.2164C177.544 39.8744 175.09 41.5393 174.58 43.9709L174.54 44.1635Z" fill="#FFB573"/>
<path d="M181.427 37.0943C177.253 37.4989 173.91 40.0955 171.576 48.3707C173.371 50.6994 184.682 55.8098 184.682 55.8098C184.682 55.8098 190.98 36.1679 181.427 37.0943Z" fill="#263238"/>
<path d="M111.135 75.53V86H109.035V75.53H111.135ZM117.815 77.57C118.805 77.57 119.605 77.885 120.215 78.515C120.825 79.135 121.13 80.005 121.13 81.125V86H119.03V81.41C119.03 80.75 118.865 80.245 118.535 79.895C118.205 79.535 117.755 79.355 117.185 79.355C116.605 79.355 116.145 79.535 115.805 79.895C115.475 80.245 115.31 80.75 115.31 81.41V86H113.21V77.69H115.31V78.725C115.59 78.365 115.945 78.085 116.375 77.885C116.815 77.675 117.295 77.57 117.815 77.57ZM126.592 84.065L128.692 77.69H130.927L127.852 86H125.302L122.242 77.69H124.492L126.592 84.065ZM135.796 86.135C134.996 86.135 134.276 85.96 133.636 85.61C132.996 85.25 132.491 84.745 132.121 84.095C131.761 83.445 131.581 82.695 131.581 81.845C131.581 80.995 131.766 80.245 132.136 79.595C132.516 78.945 133.031 78.445 133.681 78.095C134.331 77.735 135.056 77.555 135.856 77.555C136.656 77.555 137.381 77.735 138.031 78.095C138.681 78.445 139.191 78.945 139.561 79.595C139.941 80.245 140.131 80.995 140.131 81.845C140.131 82.695 139.936 83.445 139.546 84.095C139.166 84.745 138.646 85.25 137.986 85.61C137.336 85.96 136.606 86.135 135.796 86.135ZM135.796 84.305C136.176 84.305 136.531 84.215 136.861 84.035C137.201 83.845 137.471 83.565 137.671 83.195C137.871 82.825 137.971 82.375 137.971 81.845C137.971 81.055 137.761 80.45 137.341 80.03C136.931 79.6 136.426 79.385 135.826 79.385C135.226 79.385 134.721 79.6 134.311 80.03C133.911 80.45 133.711 81.055 133.711 81.845C133.711 82.635 133.906 83.245 134.296 83.675C134.696 84.095 135.196 84.305 135.796 84.305ZM142.737 76.7C142.367 76.7 142.057 76.585 141.807 76.355C141.567 76.115 141.447 75.82 141.447 75.47C141.447 75.12 141.567 74.83 141.807 74.6C142.057 74.36 142.367 74.24 142.737 74.24C143.107 74.24 143.412 74.36 143.652 74.6C143.902 74.83 144.027 75.12 144.027 75.47C144.027 75.82 143.902 76.115 143.652 76.355C143.412 76.585 143.107 76.7 142.737 76.7ZM143.772 77.69V86H141.672V77.69H143.772ZM145.307 81.845C145.307 80.985 145.482 80.235 145.832 79.595C146.182 78.945 146.667 78.445 147.287 78.095C147.907 77.735 148.617 77.555 149.417 77.555C150.447 77.555 151.297 77.815 151.967 78.335C152.647 78.845 153.102 79.565 153.332 80.495H151.067C150.947 80.135 150.742 79.855 150.452 79.655C150.172 79.445 149.822 79.34 149.402 79.34C148.802 79.34 148.327 79.56 147.977 80C147.627 80.43 147.452 81.045 147.452 81.845C147.452 82.635 147.627 83.25 147.977 83.69C148.327 84.12 148.802 84.335 149.402 84.335C150.252 84.335 150.807 83.955 151.067 83.195H153.332C153.102 84.095 152.647 84.81 151.967 85.34C151.287 85.87 150.437 86.135 149.417 86.135C148.617 86.135 147.907 85.96 147.287 85.61C146.667 85.25 146.182 84.75 145.832 84.11C145.482 83.46 145.307 82.705 145.307 81.845ZM162.595 81.665C162.595 81.965 162.575 82.235 162.535 82.475H156.46C156.51 83.075 156.72 83.545 157.09 83.885C157.46 84.225 157.915 84.395 158.455 84.395C159.235 84.395 159.79 84.06 160.12 83.39H162.385C162.145 84.19 161.685 84.85 161.005 85.37C160.325 85.88 159.49 86.135 158.5 86.135C157.7 86.135 156.98 85.96 156.34 85.61C155.71 85.25 155.215 84.745 154.855 84.095C154.505 83.445 154.33 82.695 154.33 81.845C154.33 80.985 154.505 80.23 154.855 79.58C155.205 78.93 155.695 78.43 156.325 78.08C156.955 77.73 157.68 77.555 158.5 77.555C159.29 77.555 159.995 77.725 160.615 78.065C161.245 78.405 161.73 78.89 162.07 79.52C162.42 80.14 162.595 80.855 162.595 81.665ZM160.42 81.065C160.41 80.525 160.215 80.095 159.835 79.775C159.455 79.445 158.99 79.28 158.44 79.28C157.92 79.28 157.48 79.44 157.12 79.76C156.77 80.07 156.555 80.505 156.475 81.065H160.42Z" fill="#407BFF"/>
</svg>
