<svg width="269" height="272" viewBox="0 0 269 272" fill="none" xmlns="http://www.w3.org/2000/svg">
<path d="M95.5 99.8292C72.4242 43.5819 11.6667 46.9962 0 68.3295V271.329H268.5C269.167 258.329 261.993 217.27 257 201.33C244 159.83 205.5 152.83 183 148.33C160.5 143.83 119.5 158.329 95.5 99.8292Z" fill="#222222"/>
<path d="M146.171 0H45.8908C41.3368 0 37.7902 3.726 38.0097 8.28L47.4095 203.254C47.6289 207.808 51.535 211.534 56.0884 211.534H156.368C160.922 211.534 164.469 207.808 164.249 203.254L154.849 8.28C154.631 3.726 150.725 0 146.171 0Z" fill="black"/>
<path d="M149.852 0H49.5719C45.0179 0 41.4712 3.726 41.6914 8.28L51.0912 203.254C51.3106 207.808 55.2167 211.534 59.7707 211.534H160.05C164.604 211.534 168.151 207.808 167.931 203.254L158.531 8.28C158.311 3.726 154.406 0 149.852 0Z" fill="#263238"/>
<path d="M59.5032 206.014C58.0073 206.014 56.6825 204.749 56.61 203.254L47.2101 8.27953C47.1377 6.78361 48.3411 5.51953 49.837 5.51953H150.117C151.613 5.51953 152.937 6.78361 153.01 8.27953L162.41 203.254C162.482 204.749 161.279 206.014 159.783 206.014H59.5032Z" fill="#407BFF"/>
<path opacity="0.1" d="M59.4354 204.634C58.6999 204.634 58.0244 203.989 57.9892 203.254L48.5893 8.28039C48.5541 7.54554 49.1676 6.90039 49.9031 6.90039H150.183C150.918 6.90039 151.594 7.54554 151.629 8.28039L161.029 203.254C161.064 203.989 160.451 204.634 159.715 204.634H59.4354Z" fill="black"/>
<g opacity="0.3">
<path d="M89.7039 193.4H69.8091C68.6927 193.4 67.7405 192.492 67.6867 191.376L66.2329 161.213C66.2066 160.664 66.3964 160.147 66.7676 159.758C67.1381 159.369 67.6439 159.155 68.1918 159.155H88.0865C89.203 159.155 90.1552 160.063 90.209 161.18L91.6628 191.342C91.689 191.891 91.4993 192.408 91.1281 192.797C90.7575 193.186 90.2518 193.4 89.7039 193.4ZM68.1911 159.845C67.8337 159.845 67.5052 159.983 67.2665 160.234C67.0271 160.486 66.9042 160.822 66.9215 161.18L68.376 191.342C68.4126 192.097 69.055 192.71 69.8091 192.71H89.7039C90.0613 192.71 90.3898 192.572 90.6285 192.321C90.8679 192.07 90.9908 191.734 90.9735 191.376L89.5197 161.213C89.4831 160.459 88.8407 159.845 88.0865 159.845H68.1911Z" fill="#FAFAFA"/>
<path d="M87.8287 166.878H69.1263C68.9358 166.878 68.7812 166.723 68.7812 166.533C68.7812 166.342 68.9358 166.188 69.1263 166.188H87.8287C88.0191 166.188 88.1737 166.342 88.1737 166.533C88.1737 166.723 88.0191 166.878 87.8287 166.878Z" fill="#FAFAFA"/>
<path d="M88.0162 170.776H69.3138C69.1233 170.776 68.9688 170.621 68.9688 170.431C68.9688 170.24 69.1233 170.086 69.3138 170.086H88.0162C88.2066 170.086 88.3612 170.24 88.3612 170.431C88.3612 170.621 88.2066 170.776 88.0162 170.776Z" fill="#FAFAFA"/>
<path d="M88.2037 174.673H69.5013C69.3108 174.673 69.1562 174.519 69.1562 174.328C69.1562 174.138 69.3108 173.983 69.5013 173.983H88.2037C88.3941 173.983 88.5487 174.138 88.5487 174.328C88.5487 174.52 88.3941 174.673 88.2037 174.673Z" fill="#FAFAFA"/>
<path d="M88.3932 178.572H69.6907C69.5003 178.572 69.3457 178.417 69.3457 178.227C69.3457 178.036 69.5003 177.882 69.6907 177.882H88.3932C88.5836 177.882 88.7382 178.036 88.7382 178.227C88.7382 178.417 88.5836 178.572 88.3932 178.572Z" fill="#FAFAFA"/>
<path d="M88.5807 182.47H69.8782C69.6878 182.47 69.5332 182.316 69.5332 182.125C69.5332 181.935 69.6878 181.78 69.8782 181.78H88.5807C88.7711 181.78 88.9257 181.935 88.9257 182.125C88.9257 182.316 88.7711 182.47 88.5807 182.47Z" fill="#FAFAFA"/>
<path d="M84.9331 186.369H70.0657C69.8753 186.369 69.7207 186.214 69.7207 186.024C69.7207 185.833 69.8753 185.679 70.0657 185.679H84.9331C85.1236 185.679 85.2781 185.833 85.2781 186.024C85.2781 186.214 85.1236 186.369 84.9331 186.369Z" fill="#FAFAFA"/>
</g>
<g opacity="0.3">
<path d="M102.224 82.7748L88.5823 84.9552C87.8082 83.206 87.1278 81.993 86.5406 81.3154C85.9534 80.6378 85.0026 79.9547 83.6889 79.2647L84.2043 89.9549C91.7888 91.9525 96.892 94.0604 99.5119 96.2787C102.981 99.2623 104.826 103.046 105.048 107.631C105.178 110.318 104.699 112.784 103.612 115.027C102.524 117.271 101.088 119.145 99.3008 120.648C97.513 122.152 95.5886 123.243 93.5276 123.921C91.4658 124.598 88.9239 124.999 85.8996 125.122L85.99 127.001C86.0618 128.491 84.9122 129.698 83.4225 129.698C81.9328 129.698 80.6667 128.491 80.5949 127.001L80.5045 125.122C76.8675 124.802 73.9019 124.217 71.607 123.367C69.312 122.517 67.3089 121.341 65.5984 119.838C63.8872 118.336 62.5473 116.716 61.5764 114.979C60.6056 113.242 59.8397 111.143 59.2773 108.679L74.122 106.942C74.683 109.38 75.3647 111.142 76.1692 112.226C76.9724 113.31 78.2565 114.271 80.0222 115.108L79.3929 102.051C74.3497 100.67 70.7631 99.4741 68.6331 98.4626C66.5023 97.4524 64.62 95.8309 62.9854 93.6002C61.3501 91.3694 60.4559 88.6515 60.3013 85.4464C60.0895 81.0587 61.4467 77.3914 64.3716 74.4458C67.2965 71.5002 71.7815 69.8669 77.8259 69.5461L77.7797 68.5856C77.7079 67.0959 78.8575 65.8877 80.3472 65.8877C81.8369 65.8877 83.103 67.0952 83.1748 68.5856L83.221 69.5461C88.7555 69.8911 93.0377 71.1966 96.0661 73.4632C99.0938 75.7299 101.147 78.8335 102.224 82.7748ZM78.2848 79.0798C76.733 79.6001 75.6676 80.2438 75.0894 81.0111C74.5105 81.7784 74.2462 82.6823 74.2966 83.7214C74.349 84.811 74.7071 85.7576 75.3709 86.5622C76.0347 87.3667 77.1587 88.0401 78.7436 88.5818L78.2848 79.0798ZM85.4346 115.477C87.5052 115.008 89.0019 114.235 89.9237 113.16C90.8448 112.085 91.2733 110.881 91.2092 109.546C91.1533 108.384 90.6903 107.316 89.8195 106.34C88.9494 105.364 87.2976 104.457 84.8632 103.619L85.4346 115.477Z" fill="#FAFAFA"/>
</g>
<path opacity="0.2" d="M138.284 25.4531H69.998L76.6545 163.53C77.2154 175.169 87.1052 184.604 98.7441 184.604H167.03L160.374 46.5264C159.813 34.8882 149.923 25.4531 138.284 25.4531Z" fill="black"/>
<path d="M155.016 25.4531H91.072H69.998C81.6363 25.4531 91.5267 34.8882 92.0877 46.5271L97.5063 158.921C98.0672 170.559 107.957 179.994 119.596 179.994H162.467C174.106 179.994 183.086 170.559 182.525 158.921L177.106 46.5271C176.545 34.8889 166.655 25.4531 155.016 25.4531Z" fill="#FAFAFA"/>
<path d="M139.654 158.921C140.215 170.56 131.235 179.995 119.596 179.995H140.67H204.614C216.253 179.995 225.233 170.56 224.672 158.921H139.654Z" fill="#E6E6E6"/>
<path d="M166.99 95.2205H106.901C106.04 95.2205 105.301 94.516 105.26 93.6542C105.218 92.7931 105.889 92.0879 106.75 92.0879H166.839C167.7 92.0879 168.439 92.7924 168.48 93.6542C168.522 94.5153 167.851 95.2205 166.99 95.2205Z" fill="#407BFF"/>
<path d="M167.461 105H107.372C106.511 105 105.772 104.295 105.73 103.434C105.689 102.572 106.36 101.867 107.221 101.867H167.31C168.172 101.867 168.91 102.572 168.952 103.434C168.994 104.295 168.322 105 167.461 105Z" fill="#407BFF"/>
<path d="M167.933 114.779H107.844C106.983 114.779 106.244 114.075 106.203 113.213C106.162 112.351 106.832 111.646 107.693 111.646H167.782C168.643 111.646 169.382 112.351 169.424 113.213C169.466 114.075 168.795 114.779 167.933 114.779Z" fill="#407BFF"/>
<path d="M168.404 124.558H108.315C107.453 124.558 106.715 123.854 106.674 122.992C106.632 122.13 107.303 121.426 108.165 121.426H168.254C169.115 121.426 169.854 122.13 169.896 122.992C169.936 123.854 169.266 124.558 168.404 124.558Z" fill="#407BFF"/>
<path d="M144.986 134.338H108.786C107.925 134.338 107.186 133.633 107.144 132.771C107.103 131.91 107.774 131.205 108.635 131.205H144.836C145.697 131.205 146.436 131.91 146.477 132.771C146.519 133.633 145.848 134.338 144.986 134.338Z" fill="#407BFF"/>
<path d="M149.15 74.937C156.259 67.6544 155.826 55.7033 148.184 48.2435C140.542 40.7838 128.584 40.6402 121.475 47.9229C114.366 55.2056 114.799 67.1567 122.441 74.6164C130.084 82.0762 142.042 82.2197 149.15 74.937Z" fill="#407BFF"/>
<path d="M150.896 61.436C151.025 64.127 150.464 66.6524 149.371 68.8569C146.977 73.7124 141.99 77.0155 136.067 77.0155C130.144 77.0155 124.84 73.7131 121.978 68.8569C120.671 66.6524 119.867 64.127 119.737 61.436C119.322 52.8303 125.96 45.8564 134.565 45.8564C143.171 45.8564 150.481 52.8303 150.896 61.436Z" fill="white"/>
<path opacity="0.4" d="M149.37 68.8567C146.976 73.7122 141.989 77.0153 136.066 77.0153C130.143 77.0153 124.839 73.7129 121.977 68.8567C125.772 66.2368 130.406 64.707 135.473 64.707C140.54 64.707 145.321 66.2361 149.37 68.8567Z" fill="#407BFF"/>
<path opacity="0.4" d="M140.146 61.0828C142.76 58.4058 142.601 54.0121 139.792 51.2693C136.983 48.5264 132.587 48.473 129.973 51.15C127.359 53.827 127.518 58.2206 130.327 60.9635C133.136 63.7063 137.532 63.7597 140.146 61.0828Z" fill="#407BFF"/>
<path d="M195.06 206.435H189.991L189.486 194.696H194.555L195.06 206.435Z" fill="#B55B52"/>
<path opacity="0.2" d="M189.488 194.7L189.747 200.751H194.819L194.559 194.7H189.488Z" fill="black"/>
<path d="M238.205 192.68L233.385 194.25L227.326 183.878L232.146 182.309L238.205 192.68Z" fill="#B55B52"/>
<path opacity="0.2" d="M232.148 182.311L227.326 183.882L230.452 189.227L235.274 187.656L232.148 182.311Z" fill="black"/>
<path d="M212.196 36.8193C212.826 37.5887 213.36 38.2738 213.901 39.0204C214.44 39.7525 214.966 40.4901 215.481 41.2367C216.506 42.7326 217.483 44.2651 218.399 45.8438C220.222 49.0109 221.878 52.3229 223.049 55.9979L223.162 56.3401L223.22 56.5202L223.296 56.8024L223.433 57.3689L223.51 57.8857C223.605 58.5771 223.607 59.1788 223.583 59.757C223.523 60.9045 223.341 61.9139 223.127 62.8855C222.699 64.8223 222.058 66.5652 221.394 68.2757C220.015 71.6788 218.376 74.8225 216.46 77.9026L213.03 76.2528C214.065 73.0223 215.072 69.704 215.858 66.4838C216.259 64.8789 216.574 63.2622 216.751 61.7656C216.834 61.0218 216.872 60.298 216.83 59.7025C216.81 59.4113 216.781 59.1374 216.729 58.9704L216.698 58.8434C216.683 58.8227 216.671 58.8014 216.662 58.78L216.651 58.7475L216.597 58.6206L216.481 58.3501L216.022 57.2695L215.503 56.1911C215.161 55.4721 214.78 54.7524 214.398 54.0383C213.616 52.612 212.762 51.1976 211.883 49.7948C210.989 48.3968 210.061 47.0106 209.108 45.6375C208.176 44.2748 207.139 42.8831 206.207 41.6328L212.196 36.8193Z" fill="#B55B52"/>
<path d="M213.324 75.4312L211.34 79.8154H217.008C217.008 79.8154 217.911 76.4889 215.855 75.1455L213.324 75.4312Z" fill="#B55B52"/>
<path d="M212.003 84.7427L217.263 83.725L217.008 79.8154H211.34L212.003 84.7427Z" fill="#B55B52"/>
<path d="M187.1 14.5851C187.1 14.9936 186.884 15.3255 186.617 15.3255C186.349 15.3255 186.133 14.9943 186.133 14.5851C186.133 14.1759 186.349 13.8447 186.617 13.8447C186.884 13.8447 187.1 14.1766 187.1 14.5851Z" fill="#263238"/>
<path d="M186.92 15.3252C186.92 15.3252 185.991 17.6836 184.967 18.8221C185.69 19.4976 186.92 19.1885 186.92 19.1885V15.3252Z" fill="#A02724"/>
<path d="M188.549 12.3196C188.5 12.3196 188.451 12.3051 188.409 12.2741C187.541 11.6482 186.712 11.9574 186.704 11.9608C186.58 12.0084 186.441 11.947 186.393 11.8235C186.345 11.7 186.407 11.5606 186.53 11.513C186.574 11.4964 187.612 11.108 188.69 11.8849C188.798 11.9622 188.822 12.1126 188.745 12.2203C188.698 12.2851 188.624 12.3196 188.549 12.3196Z" fill="#263238"/>
<path d="M200.296 19.2988C199.569 23.0069 198.844 29.802 201.438 32.2763C201.438 32.2763 200.424 36.0382 193.534 36.0382C185.957 36.0382 189.913 32.277 189.913 32.277C194.048 31.2897 193.941 28.2212 193.221 25.3405L200.296 19.2988Z" fill="#B55B52"/>
<path d="M202.431 33.5672C202.974 32.3763 203.572 31.0136 202.335 30.5871C200.974 30.1172 193.525 29.6384 190.957 30.5202C188.389 31.402 189.117 33.817 189.117 33.817L202.431 33.5672Z" fill="#263238"/>
<path d="M232.346 195.458C231.971 195.817 231.552 196.108 231.235 196.058C231.101 196.038 230.926 195.949 230.844 195.644C230.801 195.484 230.828 195.328 230.923 195.181C231.338 194.542 233.012 194.268 233.083 194.257C233.13 194.25 233.177 194.271 233.203 194.311C233.229 194.35 233.229 194.402 233.203 194.441C233.059 194.665 232.724 195.096 232.346 195.458ZM231.22 195.198C231.182 195.234 231.15 195.272 231.124 195.312C231.067 195.4 231.051 195.488 231.076 195.582C231.134 195.8 231.237 195.816 231.272 195.822C231.625 195.877 232.377 195.165 232.836 194.549C232.335 194.656 231.553 194.88 231.22 195.198Z" fill="#407BFF"/>
<path d="M233.186 194.462C233.172 194.476 233.154 194.486 233.134 194.491C232.558 194.648 231.058 194.547 230.744 194.064C230.688 193.977 230.619 193.796 230.803 193.572C230.922 193.427 231.082 193.346 231.279 193.331C232.037 193.271 233.136 194.245 233.182 194.286C233.215 194.316 233.229 194.361 233.219 194.404C233.214 194.426 233.202 194.446 233.186 194.462ZM231.026 193.684C231.013 193.696 231 193.71 230.989 193.724C230.889 193.845 230.929 193.907 230.946 193.933C231.131 194.218 232.177 194.378 232.828 194.304C232.49 194.036 231.783 193.532 231.297 193.569C231.187 193.578 231.097 193.616 231.026 193.684Z" fill="#407BFF"/>
<path d="M187.955 206.696C187.305 206.696 186.676 206.606 186.466 206.314C186.392 206.212 186.334 206.038 186.475 205.789C186.555 205.65 186.683 205.555 186.856 205.509C187.699 205.279 189.471 206.289 189.546 206.332C189.59 206.357 189.613 206.406 189.605 206.455C189.597 206.505 189.56 206.544 189.51 206.554C189.186 206.618 188.561 206.696 187.955 206.696ZM187.151 205.713C187.067 205.713 186.989 205.721 186.919 205.74C186.808 205.771 186.731 205.825 186.684 205.909C186.599 206.058 186.63 206.132 186.661 206.174C186.897 206.502 188.178 206.509 189.121 206.377C188.65 206.134 187.743 205.713 187.151 205.713Z" fill="#407BFF"/>
<path d="M189.486 206.555C189.47 206.555 189.453 206.552 189.437 206.545C188.826 206.27 187.614 205.174 187.706 204.601C187.728 204.466 187.823 204.299 188.153 204.266C188.398 204.241 188.622 204.31 188.819 204.471C189.464 205.001 189.601 206.366 189.606 206.424C189.61 206.467 189.591 206.508 189.556 206.533C189.535 206.548 189.511 206.555 189.486 206.555ZM188.25 204.5C188.226 204.5 188.202 204.502 188.178 204.504C187.962 204.526 187.948 204.611 187.944 204.639C187.888 204.983 188.712 205.844 189.336 206.22C189.27 205.821 189.09 205.004 188.667 204.657C188.539 204.552 188.402 204.5 188.25 204.5Z" fill="#407BFF"/>
<path d="M232.971 193.69L237.086 189.754C237.236 189.61 237.465 189.59 237.637 189.705L241.475 192.269C241.873 192.535 241.913 193.109 241.562 193.434C240.101 194.784 239.323 195.367 237.513 197.098C236.399 198.163 233.069 201.79 231.531 203.261C230.028 204.7 228.339 203.403 228.837 202.664C231.069 199.347 232.465 196.161 232.592 194.484C232.615 194.182 232.752 193.9 232.971 193.69Z" fill="#263238"/>
<path d="M190.024 205.849H195.56C195.767 205.849 195.946 205.993 195.991 206.195L196.992 210.701C197.096 211.168 196.741 211.611 196.263 211.603C194.266 211.569 191.38 211.451 188.871 211.451C185.936 211.451 183.402 211.612 179.96 211.612C177.879 211.612 177.302 209.508 178.172 209.317C182.138 208.45 185.376 208.357 188.803 206.244C189.175 206.014 189.586 205.849 190.024 205.849Z" fill="#263238"/>
<path d="M182.79 43.793C180.778 46.7566 178.699 49.5297 176.462 52.2731C174.23 55.0021 171.877 57.6593 169.284 60.1909L168.287 61.1306L168.037 61.3652L167.859 61.5274L167.606 61.7461C167.264 62.0187 166.911 62.256 166.566 62.4423C165.169 63.1979 163.921 63.389 162.805 63.4946C160.571 63.6692 158.674 63.3683 156.83 63.0026C153.165 62.2112 149.858 60.9789 146.584 59.4015L147.847 55.8114C151.101 56.4179 154.482 56.9603 157.638 57.1473C159.201 57.2356 160.77 57.2108 161.963 56.9665C162.547 56.8499 163.011 56.6318 163.109 56.5208C163.139 56.4945 163.136 56.4773 163.127 56.4773C163.121 56.4766 163.116 56.478 163.112 56.4794C163.114 56.4766 163.1 56.4904 163.115 56.4738L163.166 56.4173L163.37 56.1916L164.187 55.2926C166.344 52.8348 168.432 50.2155 170.463 47.5356C172.496 44.8736 174.523 42.1129 176.463 39.4336L182.79 43.793Z" fill="#B55B52"/>
<path d="M210.514 33.4226C215.264 34.5121 220.713 47.4648 220.713 47.4648L211.171 54.0046C211.171 54.0046 207.556 48.9476 204.869 43.2896C202.053 37.3611 205.656 32.3089 210.514 33.4226Z" fill="#407BFF"/>
<path opacity="0.3" d="M207.109 41.6816L211.622 53.6938L211.173 54.0043C211.173 54.0043 209.221 51.265 207.109 47.5666V41.6816Z" fill="black"/>
<path d="M182.114 33.684C182.114 33.684 176.719 39.7781 181.814 77.497C189.983 77.497 204.951 77.497 208.926 77.497C209.113 73.3349 206.498 53.0323 210.512 33.4225C210.512 33.4225 205.865 32.4896 201.436 32.2764C197.971 32.1095 192.956 31.9991 189.911 32.2771C185.896 32.6435 182.114 33.684 182.114 33.684Z" fill="#407BFF"/>
<path opacity="0.3" d="M185.125 44.5889C185.035 44.6993 184.442 50.8196 179.771 56.1947C179.66 53.7659 179.619 51.5855 179.626 49.6328L185.125 44.5889Z" fill="black"/>
<path d="M187.463 37.7931C188.132 42.5927 178.675 54.854 178.675 54.854L169.172 48.3135C169.172 48.3135 171.806 41.5564 176.245 37.1286C181.312 32.073 186.736 32.5691 187.463 37.7931Z" fill="#407BFF"/>
<path d="M148.526 56.1761L144.809 52.3301L140.842 57.4471C140.842 57.4471 143.861 60.3624 147.46 59.5385L148.526 56.1761Z" fill="#B55B52"/>
<path d="M139.698 50.2129L138 55.5832L140.841 57.4462L144.809 52.3291L139.698 50.2129Z" fill="#B55B52"/>
<path d="M200.737 13.7189C200.429 18.7401 200.503 21.6947 197.968 24.2718C194.153 28.1482 187.955 25.8492 186.756 20.837C185.678 16.3258 186.364 8.8717 191.279 6.87346C196.121 4.90489 201.046 8.69782 200.737 13.7189Z" fill="#B55B52"/>
<path d="M205.111 3.23944C206.66 4.66429 206.002 6.24853 205.197 6.54592C207.699 7.06342 208.068 9.05683 206.75 13.2638C205.488 17.2927 202.446 22.6947 198.646 23.0259C192.935 23.5241 191.263 17.5735 191.225 11.6671C187.991 11.8617 189.385 8.99749 185.421 9.66127C181.995 10.2347 183.264 7.54159 180.335 6.36928C176.936 5.0086 177.619 -0.220911 180.789 1.27639C180.789 1.27639 179.317 2.24653 181.031 3.1525C182.746 4.05847 182.579 1.96156 185.964 1.70764C189.347 1.45303 189.743 4.35172 193.705 2.60671C198.693 0.40975 201.94 0.322809 205.111 3.23944Z" fill="#263238"/>
<path d="M203.209 6.49931C203.209 6.49931 203.857 5.30492 205.407 5.63474C206.958 5.96525 207.088 6.64766 208.061 6.55934C209.034 6.47102 208.681 7.50671 208.681 7.50671C208.681 7.50671 208.419 6.72563 207.245 7.16033C206.071 7.59503 205.306 6.52898 204.802 7.00784C204.296 7.48532 203.209 6.49931 203.209 6.49931Z" fill="#263238"/>
<path d="M193.931 15.0842C193.712 16.3834 192.973 17.5488 192.156 18.2754C190.927 19.3677 189.862 18.4914 189.826 16.9962C189.792 15.65 190.393 13.4599 191.808 12.9369C193.202 12.4208 194.181 13.5979 193.931 15.0842Z" fill="#B55B52"/>
<path d="M191.434 77.4971C191.434 77.4971 197.186 116.235 200.344 130.748C203.803 146.641 227.844 188.845 227.844 188.845L236.671 185.969C236.671 185.969 217.525 147.923 215.551 132.189C213.409 115.111 208.928 77.4971 208.928 77.4971H191.434Z" fill="#263238"/>
<path d="M225.374 186.053C225.336 186.065 227.39 189.145 227.39 189.145L237.322 185.909L236.153 182.943L225.374 186.053Z" fill="#407BFF"/>
<path opacity="0.3" d="M195.068 91.2989C201.719 92.603 201.015 117.408 200.215 130.167C198.297 121.148 195.489 103.795 193.57 91.4783C194.012 91.2575 194.509 91.1885 195.068 91.2989Z" fill="black"/>
<path d="M181.814 77.4971C181.814 77.4971 181.116 115.397 181.667 130.855C182.24 146.933 187.856 199.579 187.856 199.579H196.443C196.443 199.579 196.759 147.873 197.14 132.082C197.557 114.867 199.635 77.4978 199.635 77.4978H181.814V77.4971Z" fill="#263238"/>
<path d="M186.205 196.158C186.166 196.158 186.69 199.723 186.69 199.723H197.135L197.417 196.542L186.205 196.158Z" fill="#407BFF"/>
</svg>
