<svg width="269" height="270" viewBox="0 0 269 270" fill="none" xmlns="http://www.w3.org/2000/svg">
<path d="M95.6624 98.7598C72.5474 42.5977 11.6865 46.0068 0 67.3078V270H268.957C269.624 257.02 262.439 216.023 257.437 200.106C244.415 158.669 205.849 151.68 183.311 147.187C160.773 142.694 119.703 157.171 95.6624 98.7598Z" fill="#222222"/>
<path d="M186.904 38.8689C186.904 45.4255 183.839 51.2699 179.072 55.0464C175.561 57.8324 171.122 59.4853 166.287 59.4853C161.464 59.4853 157.025 57.8324 153.502 55.0464C148.728 51.2699 145.67 45.4255 145.67 38.8689C145.67 27.4831 154.901 18.252 166.287 18.252C177.673 18.252 186.904 27.4831 186.904 38.8689Z" fill="#002F88" stroke="#002F88" stroke-miterlimit="10"/>
<path d="M167.119 38.7861C170.818 38.3296 173.447 34.9608 172.991 31.2619C172.534 27.5629 169.165 24.9345 165.466 25.3911C161.766 25.8476 159.138 29.2164 159.594 32.9153C160.051 36.6143 163.42 39.2427 167.119 38.7861Z" fill="white"/>
<path d="M179.072 52.4468C175.561 55.2328 171.122 56.8863 166.287 56.8863C161.464 56.8863 157.025 55.2334 153.502 52.4468C154.821 46.6455 156.034 41.6371 157.297 40.368C159.08 38.5852 163.816 37.5449 166.28 37.5449C168.744 37.5449 173.703 38.808 174.62 39.7242C176.49 41.5873 178.1 46.7323 179.072 52.4468Z" fill="white"/>
<path d="M136.662 89.693V79.512C136.662 76.7332 138.914 74.4814 141.693 74.4814H173.769C176.547 74.4814 178.799 76.7332 178.799 79.512V89.693C178.799 92.4717 176.547 94.7235 173.769 94.7235H141.699C138.92 94.7295 136.662 92.4717 136.662 89.693Z" fill="#002F88"/>
<path d="M150.207 89.1602L134.684 104.282L159.842 91.5677" fill="#002F88"/>
<path d="M140.557 79.2605V79.2066C140.557 78.7934 140.892 78.458 141.305 78.458H157.164C157.577 78.458 157.912 78.7934 157.912 79.2066V79.2605C157.912 79.6737 157.577 80.0091 157.164 80.0091H141.305C140.892 80.0091 140.557 79.6737 140.557 79.2605Z" fill="white"/>
<path d="M158.623 79.2605V79.2066C158.623 78.7934 158.958 78.458 159.372 78.458H173.212C173.625 78.458 173.96 78.7934 173.96 79.2066V79.2605C173.96 79.6737 173.625 80.0091 173.212 80.0091H159.372C158.958 80.0091 158.623 79.6737 158.623 79.2605Z" fill="white"/>
<path d="M152.582 82.6677V82.6138C152.582 82.2006 152.917 81.8652 153.331 81.8652H173.213C173.627 81.8652 173.962 82.2006 173.962 82.6138V82.6677C173.962 83.081 173.627 83.4163 173.213 83.4163H153.331C152.917 83.4163 152.582 83.081 152.582 82.6677Z" fill="white"/>
<path d="M140.557 82.6677V82.6138C140.557 82.2006 140.892 81.8652 141.305 81.8652H150.187C150.6 81.8652 150.935 82.2006 150.935 82.6138V82.6677C150.935 83.081 150.6 83.4163 150.187 83.4163H141.305C140.892 83.4163 140.557 83.081 140.557 82.6677Z" fill="white"/>
<path d="M155.342 86.0759V86.022C155.342 85.6088 155.677 85.2734 156.09 85.2734H173.212C173.626 85.2734 173.961 85.6088 173.961 86.022V86.0759C173.961 86.4892 173.626 86.8245 173.212 86.8245H156.09C155.677 86.8245 155.342 86.4892 155.342 86.0759Z" fill="white"/>
<path d="M140.557 86.0759V86.022C140.557 85.6088 140.892 85.2734 141.305 85.2734H153.133C153.546 85.2734 153.882 85.6088 153.882 86.022V86.0759C153.882 86.4892 153.546 86.8245 153.133 86.8245H141.305C140.892 86.8245 140.557 86.4892 140.557 86.0759Z" fill="white"/>
<path d="M140.557 89.4841V89.4302C140.557 89.017 140.892 88.6816 141.305 88.6816H145.695C146.108 88.6816 146.444 89.017 146.444 89.4302V89.4841C146.444 89.8974 146.108 90.2327 145.695 90.2327H141.305C140.892 90.2327 140.557 89.8974 140.557 89.4841Z" fill="white"/>
<path d="M147.996 89.4841V89.4302C147.996 89.017 148.331 88.6816 148.745 88.6816H173.215C173.628 88.6816 173.963 89.017 173.963 89.4302V89.4841C173.963 89.8974 173.628 90.2327 173.215 90.2327H148.745C148.331 90.2327 147.996 89.8974 147.996 89.4841Z" fill="white"/>
<path d="M57.4872 75.2807C62.1089 65.3483 57.8037 53.5498 47.8713 48.9281C37.9389 44.3064 26.1404 48.6116 21.5187 58.5441C16.897 68.4765 21.2022 80.2749 31.1346 84.8966C41.0671 89.5183 52.8655 85.2131 57.4872 75.2807Z" fill="#002F88"/>
<path d="M36.4181 81.1861C38.9227 80.3064 40.24 77.5628 39.3602 75.0582C38.4805 72.5536 35.7369 71.2363 33.2323 72.1161C30.7277 72.9958 29.4104 75.7394 30.2902 78.244C31.1699 80.7486 33.9135 82.0659 36.4181 81.1861Z" fill="white"/>
<path d="M32.3027 78.3756L32.0703 75.3273L34.5946 73.6025L37.3506 74.9255L37.5824 77.9738L35.0587 79.6991L32.3027 78.3756Z" fill="#002F88"/>
<path d="M45.7871 61.7005C48.2867 60.8069 49.5886 58.0563 48.6951 55.5567C47.8015 53.0571 45.0509 51.7552 42.5513 52.6487C40.0517 53.5422 38.7497 56.2929 39.6433 58.7925C40.5368 61.2921 43.2875 62.594 45.7871 61.7005Z" fill="white"/>
<path d="M41.791 58.6126L41.9563 54.7366L44.877 52.1836L47.6331 53.5071L47.4678 57.3831L44.5465 59.9355L41.791 58.6126Z" fill="#002F88"/>
<path d="M38.1511 74.4269L34.4746 72.6614L37.1917 66.393C37.3642 65.9953 37.5516 65.6042 37.7541 65.221L40.9467 59.1807L44.6232 60.9462L42.0025 67.1194C41.8001 67.5967 41.5749 68.0644 41.3294 68.5214L38.1511 74.4269Z" fill="white"/>
<path d="M53.2715 77.5852C53.98 77.2564 65.3604 77.7756 65.3604 77.7756L57.157 70.2441L53.2715 77.5852Z" fill="#002F88"/>
<path d="M103.492 33.3716C107.766 23.4897 103.221 12.0137 93.3388 7.73923C83.4569 3.46475 71.9809 8.01047 67.7064 17.8924C63.4319 27.7743 67.9777 39.2503 77.8596 43.5248C87.7415 47.7993 99.2175 43.2535 103.492 33.3716Z" fill="#002F88"/>
<path d="M86.257 9.02051H84.9551V25.3926H86.257V9.02051Z" fill="white"/>
<path d="M71.22 34.8436L71.9609 35.9141L85.6053 26.4699L84.8643 25.3994L71.22 34.8436Z" fill="white"/>
<path d="M87.401 25.6351C87.401 26.6262 86.5979 27.4293 85.6067 27.4293C84.6156 27.4293 83.8125 26.6262 83.8125 25.6351C83.8125 24.6439 84.6156 23.8408 85.6067 23.8408C86.5979 23.8408 87.401 24.6445 87.401 25.6351Z" fill="white"/>
<path d="M120.974 160.386C120.974 160.386 122.285 172.405 123.752 173.369C126.376 175.1 156.739 179.101 156.739 179.101L155.745 187C155.745 187 114.158 190.737 112.392 188.659C109.325 185.054 103.936 167.662 103.936 167.662L120.974 160.386Z" fill="#E06A58"/>
<path d="M100.924 129.442L104.284 121.375C104.284 121.375 113.398 125.657 116.405 130.945C119.621 136.598 123.555 166.656 123.555 166.656C123.555 166.656 107.464 170.363 104.505 168.788C101.547 167.213 100.924 129.442 100.924 129.442Z" fill="#F2AE30"/>
<path d="M75.3322 91.9993C72.9786 91.1369 70.4872 90.3823 67.9659 90.574C65.4447 90.7656 62.8695 92.1011 62.0131 94.317C61.4022 95.886 61.6837 97.7366 60.7195 99.1499C59.7972 100.503 57.9647 101.066 56.2519 101.18C54.5331 101.3 52.8023 101.072 51.0955 101.294C45.8254 101.995 42.0645 107.72 43.7952 112.409C44.4839 114.278 45.8973 116.062 45.5739 118.009C45.2325 120.093 43.0466 121.464 42.1483 123.399C40.9565 125.974 42.3819 129.094 44.7355 130.849C47.089 132.597 50.1493 133.262 53.1198 133.705C57.2101 134.316 61.4322 134.604 65.4746 133.741C69.517 132.879 73.3798 130.747 75.4699 127.417C76.3982 125.944 76.9611 124.279 78.0391 122.895C80.2669 120.039 84.2135 118.931 87.3217 116.907C90.7173 114.685 93.2087 110.361 91.2084 106.977C89.28 103.725 84.2614 103.001 82.2492 99.7967C81.4168 98.4732 81.2191 96.8982 80.6801 95.4549C80.1292 94.0056 78.8116 93.2749 75.3322 91.9993Z" fill="#263238"/>
<path d="M89.048 131.891C89.6408 132.574 90.3415 133.322 91.3117 133.388C92.3358 133.46 93.1922 132.736 93.851 132.035C97.2526 128.436 99.4984 124.016 100.409 119.458C99.5643 118.979 98.7498 118.518 98.0132 118.087C97.3304 117.68 96.8154 117.111 96.522 116.446C96.3183 115.955 96.2465 115.44 96.3004 114.901C96.7795 110.397 97.2047 107.888 98.7857 103.319C91.2758 101.624 84.1911 99.6116 80.1187 96.21C79.6216 98.306 79.0347 102.408 77.7831 106.475C76.4476 110.781 74.3635 115.039 70.8301 116.871C77.7651 120.968 83.9515 126.058 89.048 131.891Z" fill="#F9A07B"/>
<path d="M96.3005 114.907C96.2466 115.446 96.3185 115.967 96.5221 116.452C92.0784 121.842 82.143 114.799 77.7832 106.481C79.0349 102.414 79.6218 98.3119 80.1188 96.2158C84.1852 99.6174 91.2759 101.636 98.7859 103.325C97.2048 107.894 96.7796 110.397 96.3005 114.907Z" fill="#E06A58"/>
<path d="M108.671 180.065C107.689 186.569 114.708 193.569 114.882 197.043C99.9757 197.043 68.7502 197.953 52.85 195.791C52.1253 191.779 59.9766 182.754 59.9766 173.842C59.9766 172.663 59.9287 171.369 59.8329 169.98C59.5814 166.003 58.9945 161.272 58.3417 156.421C56.569 143.407 54.2094 129.489 55.9522 126.603C59.3658 120.979 67.3488 117.159 71.3074 115.518C72.6669 114.955 73.5532 114.649 73.6191 114.613C78.5838 123.081 88.6869 130.304 92.5017 129.98C93.5617 129.897 96.7058 128.801 98.7839 118.338C99.5924 118.799 100.401 119.225 101.203 119.638C105.15 121.692 108.851 123.387 109.917 126.028C112.732 132.981 115.493 150.51 114.882 156.744C114.265 163.033 111.738 167.836 109.965 174.148C109.552 175.627 109.174 177.196 108.869 178.885C108.791 179.262 108.731 179.657 108.671 180.065Z" fill="#FFC73C"/>
<path d="M114.882 197.043C99.9757 197.043 68.7502 197.953 52.85 195.791C52.1253 191.779 59.9766 182.754 59.9766 173.843C59.9766 172.663 59.9287 171.369 59.8329 169.98C59.5814 166.003 58.9945 161.272 58.3417 156.421C61.1624 159.398 65.2767 146.821 67.0973 150.504C76.9489 170.387 84.7163 175.615 98.215 175.615C102.239 175.615 105.953 175.058 109.965 174.148C109.552 175.627 109.174 177.196 108.869 178.885C108.797 179.268 108.731 179.664 108.671 180.071C107.689 186.563 114.708 193.564 114.882 197.043Z" fill="#FFBB33"/>
<path d="M101.203 119.638C100.562 124.291 98.6634 130.561 93.1417 132.214C85.6797 134.448 74.8819 120.506 71.3066 115.518C72.6661 114.955 73.5524 114.649 73.6183 114.613C78.583 123.081 88.6861 130.304 92.5009 129.98C93.561 129.897 96.7051 128.801 98.7832 118.338C99.5917 118.793 100.4 119.219 101.203 119.638Z" fill="#FCE172"/>
<path d="M104.265 190.04L104.211 195.232L197.037 195.783L197.229 189.896L104.265 190.04Z" fill="#325F73"/>
<path d="M237.272 143.718L235.206 141.622L167.592 141.179L133.672 190.233L135.445 191.658L237.272 143.718Z" fill="#325F73"/>
<path d="M168.897 142.994L135.443 191.659L199.344 191.976L237.271 143.719L168.897 142.994Z" fill="#0B2D50"/>
<path d="M185.046 174.057C189.153 174.057 192.484 172.392 192.484 170.338C192.484 168.284 189.153 166.619 185.046 166.619C180.938 166.619 177.607 168.284 177.607 170.338C177.607 172.392 180.938 174.057 185.046 174.057Z" fill="#3C738C"/>
<path d="M105.639 94.9557C106.693 89.3011 110.57 85.2808 114.3 85.9755C118.03 86.6708 120.199 91.8176 119.145 97.4722C118.091 103.127 114.214 107.147 110.484 106.452C106.755 105.758 104.586 100.61 105.639 94.9557Z" fill="#56C4F9"/>
<path d="M119.157 79.722C118.462 84.6447 116.264 90.0706 113.06 96.0653C111.934 91.1545 111.215 85.1717 110.221 79.189C109.209 73.1942 107.922 67.1994 105.688 62.3006C105.185 61.2166 104.64 60.1806 104.047 59.2223C105.37 59.0966 106.712 59.2223 107.987 59.5757C109.982 60.1087 111.85 61.1388 113.377 62.5162C115.917 64.774 117.617 67.8522 118.63 71.0981C119.462 73.7931 119.612 76.6557 119.157 79.722Z" fill="#0B2D50"/>
<path d="M115.396 84.814C115.361 85.7842 115.295 86.7723 115.205 87.7545C113.839 103.685 107.15 114.614 96.9151 114.614C82.4641 114.614 73.0977 98.4085 73.0977 82.5323C73.0977 66.8716 82.6917 55.5348 93.9207 56.8464C100.395 57.589 105.126 59.7389 108.485 62.889C110.707 64.9851 112.312 67.5184 113.408 70.399C114.66 73.6269 115.265 77.2801 115.39 81.2147C115.39 81.2267 115.402 81.2387 115.402 81.2507C115.45 82.4125 115.438 83.5983 115.396 84.814Z" fill="#F9A07B"/>
<path d="M115.398 84.8145C114.967 83.2753 114.326 81.7722 113.452 80.4247C104.93 84.8803 94.7726 86.5991 85.1426 84.9702C83.3101 86.4973 81.5194 88.0005 79.7168 89.5037C79.7527 82.2573 79.8545 77.3524 82.6812 73.843C85.3343 70.5492 89.76 69.3095 93.9521 68.7705C98.6713 68.1537 103.468 68.1776 108.176 68.8603C109.978 69.1119 111.847 69.5011 113.416 70.4114C114.667 73.6394 115.272 77.2925 115.398 81.2272C115.398 81.2392 115.41 81.2511 115.41 81.2631C115.452 82.413 115.44 83.5987 115.398 84.8145Z" fill="#E06A58"/>
<path d="M117.479 75.0032C115.497 76.6801 113.012 78.0695 110.221 79.1954C102.28 82.3994 91.9611 83.4594 83.9181 83.0701C79.9655 91.7538 78.3665 94.868 77.3544 102.444C73.4917 98.8206 70.3476 92.185 69.4133 86.9688C68.491 81.7705 68.5809 76.3147 70.0301 71.2063C72.3119 63.1514 78.0671 58.8395 82.0556 56.7434C83.0498 56.1984 83.9481 55.8211 84.6428 55.5456C89.7392 53.5753 95.4825 53.755 100.711 55.354C103.561 56.2403 105.963 57.7375 107.981 59.5821C112.059 63.2652 114.581 68.2538 116.21 71.9908C116.725 73.1347 117.138 74.1708 117.479 75.0032Z" fill="#263238"/>
<path d="M119.157 79.7225C118.828 77.9798 118.336 76.2909 117.642 74.662C117.252 73.7397 116.773 72.8474 116.216 71.985C114.402 69.1343 111.761 66.7867 108.569 65.7507C107.658 64.4751 106.7 63.3252 105.694 62.3071C102.071 58.624 97.8189 56.516 93.3153 55.7793C89.5663 55.1745 85.6676 55.5158 82.0684 56.7375C83.0625 56.1926 83.9608 55.8153 84.6555 55.5398C89.752 53.5695 95.4952 53.7491 100.723 55.3481C103.574 56.2345 105.976 57.7317 107.994 59.5762C109.988 60.1092 111.857 61.1393 113.384 62.5167C115.923 64.7745 117.624 67.8527 118.636 71.0986C119.462 73.7936 119.612 76.6562 119.157 79.7225Z" fill="#225570"/>
<path d="M88.5234 89.489C91.1944 87.9618 93.9672 87.2731 97.854 88.6925" stroke="#0B2D50" stroke-width="2" stroke-miterlimit="10" stroke-linecap="round"/>
<path d="M106.814 89.3812C109.102 87.6744 112.492 87.5007 114.259 89.3812" stroke="#0B2D50" stroke-width="2" stroke-miterlimit="10" stroke-linecap="round"/>
<path d="M104.053 98.0889C104.287 99.2986 104.161 101.976 103.586 103.179" stroke="#CC454E" stroke-width="2" stroke-miterlimit="10" stroke-linecap="round"/>
<path d="M95.0277 98.9042C95.6363 98.9042 96.1297 98.1266 96.1297 97.1674C96.1297 96.2082 95.6363 95.4307 95.0277 95.4307C94.4191 95.4307 93.9258 96.2082 93.9258 97.1674C93.9258 98.1266 94.4191 98.9042 95.0277 98.9042Z" fill="#262D40"/>
<path d="M109.428 98.0946C110.037 98.0946 110.53 97.317 110.53 96.3578C110.53 95.3987 110.037 94.6211 109.428 94.6211C108.82 94.6211 108.326 95.3987 108.326 96.3578C108.326 97.317 108.82 98.0946 109.428 98.0946Z" fill="#262D40"/>
<path d="M102.687 105.545C102.687 105.545 102.471 105.964 102.058 106.533C101.411 107.402 100.309 108.599 98.8062 109.067H98.8002C98.1654 109.27 97.4767 109.342 96.7101 109.204C94.4583 108.803 93.8654 106.725 93.7576 105.126C93.7337 104.814 93.7337 104.527 93.7397 104.264C93.7516 103.617 93.8235 103.186 93.8235 103.186C97.4108 105.162 102.687 105.545 102.687 105.545Z" fill="#CC454E"/>
<path d="M102.686 105.545C102.686 105.545 102.47 105.964 102.057 106.533C100.224 106.509 96.4752 105.569 93.7383 104.264C93.7503 103.617 93.8221 103.186 93.8221 103.186C97.4094 105.162 102.686 105.545 102.686 105.545Z" fill="white"/>
<path d="M98.8004 109.062C98.1656 109.265 97.4769 109.337 96.7103 109.199C94.4585 108.798 93.8656 106.72 93.7578 105.121C94.8478 105.253 95.9018 105.672 96.7762 106.337C97.6924 107.038 98.3931 107.99 98.8004 109.062Z" fill="#E8729B"/>
<path d="M77.3911 86.7415C77.3911 86.7415 77.2653 79.2735 80.3735 71.8533C84.2722 62.5408 92.2193 58.5582 99.9269 58.2887C109.215 57.9594 115.031 64.1937 115.031 64.1937C115.031 64.1937 112.006 58.8577 106.041 57.3246C102.125 56.3184 96.2138 56.1567 91.4707 58.0851C86.5839 60.0674 80.4933 65.5711 78.2894 71.3862C76.0915 77.2013 75.0195 86.2564 75.0195 86.2564L77.3911 86.7415Z" fill="#3D86E0"/>
<path d="M77.2318 106.181C81.209 105.768 83.9253 100.547 83.2988 94.5207C82.6723 88.4944 78.9402 83.9443 74.9631 84.3578C70.9859 84.7713 68.2696 89.9917 68.8961 96.0181C69.5226 102.044 73.2546 106.594 77.2318 106.181Z" fill="#56C4F9"/>
<path d="M72.9482 87.8906C75.5156 87.5049 78.1476 90.8538 78.8262 95.3706C79.5047 99.8873 77.974 103.862 75.406 104.248C72.8386 104.633 70.2065 101.285 69.528 96.7678C68.8494 92.251 70.3808 88.2763 72.9482 87.8906Z" fill="#3D86E0"/>
<path d="M99.9876 114.836C102.118 114.836 103.844 113.761 103.844 112.435C103.844 111.108 102.118 110.033 99.9876 110.033C97.8576 110.033 96.1309 111.108 96.1309 112.435C96.1309 113.761 97.8576 114.836 99.9876 114.836Z" fill="#3A92C9"/>
<path d="M80.6133 104.403C80.6133 104.403 86.2787 111.686 96.1302 112.434" stroke="#3A92C9" stroke-width="2" stroke-miterlimit="10" stroke-linecap="round"/>
<path d="M104.22 176.177L103.849 185.753C103.849 185.753 69.2158 196.131 63.4965 192.85C60.7057 191.245 58.1006 182.417 56.1542 173.799C54.1181 164.744 52.8125 155.929 52.8125 155.929L73.1145 151.952C73.1145 151.952 73.1265 164.331 73.8152 171.488C74.0607 174.153 74.4141 176.093 74.8872 176.41C76.6778 177.59 104.22 176.177 104.22 176.177Z" fill="#F9A07B"/>
<path d="M73.8152 171.476C70.1261 172.673 63.0054 174.524 56.1542 173.793C54.1181 164.738 52.8125 155.923 52.8125 155.923L73.1145 151.946C73.1145 151.94 73.1265 164.319 73.8152 171.476Z" fill="#E06A58"/>
<path d="M103.234 176.274C108.384 175.172 117.104 172.525 120.721 171.615C123.29 170.968 129.98 174.429 131.746 177.693C132.519 179.119 133.249 187.192 130.572 186.359C129.231 185.94 129.453 182.478 129.033 181.065C128.692 179.915 127.602 178.801 125.943 177.843C127.051 180.604 127.009 183.011 126.889 185.994C126.865 186.653 126.823 187.341 126.506 187.91C126.183 188.479 125.488 188.886 124.889 188.635C124.278 188.383 124.069 187.623 123.931 186.958C123.458 184.658 122.979 182.359 122.787 179.759C122.835 182.317 122.781 184.88 122.619 187.431C122.5 189.383 121.529 190.455 120.338 190.114C119.805 189.964 119.589 189.473 119.361 188.827C119.002 190.078 118.104 191.462 116.942 190.935C116.235 190.617 115.798 188.066 115.924 185.443C113.696 186.826 111.181 187.413 108.282 187.545C105.683 187.665 103.024 187.18 101.461 185.413C101.617 182.652 102.527 178.568 103.234 176.274Z" fill="#F9A07B"/>
<path d="M119.416 188.431C119.589 186.359 119.41 184.257 118.883 182.257" stroke="#CC454E" stroke-miterlimit="10" stroke-linecap="round"/>
<path d="M70.8315 131.867C69.3583 127.717 63.9624 119.225 63.9624 119.225C63.9624 119.225 55.7278 122.65 52.8053 128.465C47.8585 138.311 50.3738 166.578 50.3738 166.578C57.0393 169.369 70.4183 169.411 76.1136 168.608C76.1136 168.608 73.784 140.161 70.8315 131.867Z" fill="#FFC73C"/>
<path d="M71.8789 133.603C74.1247 144.352 75.3284 154.378 75.7117 164.199" stroke="#F2AE30" stroke-miterlimit="10" stroke-linecap="round"/>
<path d="M248.126 194.078H12V200.001H248.126V194.078Z" fill="#0B2D50"/>
</svg>
