<svg width="116" height="116" viewBox="0 0 116 116" fill="none" xmlns="http://www.w3.org/2000/svg">
<path d="M58 116C90.0325 116 116 90.0325 116 58C116 25.9675 90.0325 0 58 0C25.9675 0 0 25.9675 0 58C0 90.0325 25.9675 116 58 116Z" fill="#EA98D5"/>
<mask id="mask0_586_1560" style="mask-type:luminance" maskUnits="userSpaceOnUse" x="0" y="0" width="116" height="116">
<path d="M58 116C90.0325 116 116 90.0325 116 58C116 25.9675 90.0325 0 58 0C25.9675 0 0 25.9675 0 58C0 90.0325 25.9675 116 58 116Z" fill="white"/>
</mask>
<g mask="url(#mask0_586_1560)">
<path d="M116.959 77.7319C121.026 77.0439 121.986 71.769 120.805 68.0954C120.741 67.8928 120.603 67.7745 120.445 67.721C120.224 67.6172 119.957 67.6378 119.784 67.8671C119.723 67.9278 119.679 68.0029 119.656 68.0882C118.92 69.4859 118.002 71.1725 116.208 71.2342C114.563 71.2897 113.015 69.9425 112.062 68.7361C110.092 66.2432 109.656 62.9686 109.323 59.9069C108.79 55.0198 108.61 49.8004 105.844 45.5437C103.613 42.1128 99.6061 39.7515 95.4502 40.7244C92.0738 41.5153 88.609 44.1152 87.7986 47.5965C87.7132 47.9647 87.9713 48.3473 88.3673 48.3442C92.7464 48.3072 96.4292 51.2804 98.1899 55.1679C100.279 59.7804 99.675 64.8239 99.0086 69.6658C97.9842 77.1076 99.9969 84.2697 105.608 89.4592C106.035 89.8531 106.751 89.4685 106.594 88.8843C106.206 87.4342 106.216 86.0726 106.598 84.6852C109.339 87.0486 108.709 91.0214 107.524 94.1407C107.391 94.4914 107.735 94.9069 108.093 94.8884C112.725 94.6426 115.948 90.8157 115.57 86.4788C116.552 87.6049 117.335 88.8689 117.903 90.2984C118.096 90.7869 118.909 90.9278 119.042 90.2984C119.947 85.9954 120.354 80.8059 116.959 77.7319Z" fill="#322A2D"/>
<path d="M92.941 52.2827C92.9369 52.2539 92.9297 52.2282 92.9225 52.2015C92.9214 52.1768 92.9235 52.1521 92.9194 52.1264C91.7192 43.2931 88.5259 34.2305 82.0508 27.8583C75.8236 21.7298 67.9972 18.1344 59.2667 17.6387C51.5668 17.2016 43.583 18.0912 36.5474 21.412C31.3816 23.8494 27.2143 27.5899 23.732 32.0903C14.2508 44.3411 15.3461 61.8884 25.0289 75.6911C27.1742 78.7497 29.4882 82.0716 40.2087 86.571C48.2922 89.9638 55.805 89.2562 64.4912 88.0005C73.1558 86.7479 79.9826 83.3983 85.2781 78.4257C92.2684 71.8612 94.0424 61.2065 92.941 52.2827Z" fill="#322A2D"/>
<path d="M18.5517 166.406C20.517 164.806 21.7614 162.557 22.9935 160.347C24.3377 157.936 25.4371 155.43 26.4964 152.883C28.8279 147.278 30.1967 141.315 31.6417 135.436C34.6643 123.14 37.0307 110.651 41.0334 98.6194C42.8281 93.2242 34.1727 90.8187 32.5056 96.2684C28.832 108.278 26.014 120.535 23.1714 132.76C21.818 138.581 20.2116 144.354 19.032 150.213C18.5095 152.808 17.9542 155.399 17.3967 157.987C16.863 160.467 16.1328 162.85 16.067 165.378C16.032 166.745 17.6343 167.153 18.5517 166.406Z" fill="#EDAC5F"/>
<path d="M35.8538 93.2773C30.5069 93.8636 26.1072 106.206 26.3314 106.352C29.2995 109.506 32.7829 112.172 36.5974 114.225C38.4311 107.364 38.1524 99.9818 35.8538 93.2773Z" fill="#57DDC9"/>
<path d="M75.6137 161.023C76.9147 158.405 78.4059 156.15 79.2996 153.32C80.0751 150.866 80.5296 148.356 80.9204 145.816C81.5972 141.423 81.8759 136.973 82.0815 132.537C82.3633 126.465 81.7185 120.408 80.5121 114.459C79.9393 111.636 79.2369 108.843 78.4861 106.063C77.6654 103.019 76.9836 99.8046 75.841 96.8673C73.7975 91.6161 66.3927 93.5928 67.3861 99.1988C68.3786 104.799 70.5373 110.241 71.7436 115.816C72.9089 121.201 73.4684 126.641 73.3449 132.154C73.2555 136.14 72.986 140.112 72.6867 144.087C72.5037 146.515 72.1869 148.927 71.9771 151.351C71.865 152.637 71.6912 153.914 71.5945 155.201C71.4917 156.572 71.6346 157.858 71.3312 159.219C70.781 161.684 74.3754 163.513 75.6137 161.023Z" fill="#EDAC5F"/>
<path d="M71.1555 93.2773C76.3923 94.5022 79.275 107.285 79.0343 107.403C75.7084 110.177 71.9299 112.404 67.8963 113.983C67.6958 112.996 65.1268 107.264 65.4641 104.277C65.9228 100.222 69.3773 96.9509 71.1555 93.2773Z" fill="#57DDC9"/>
<path d="M72.1698 92.7582L60.0887 90.4648H46.9421L34.861 92.7582C33.9673 93.0472 33.3831 93.907 33.4458 94.8449L34.4301 109.789C32.9213 111.389 31.282 113.697 31.3159 116.149C31.3643 119.71 33.2371 122.946 35.4153 124.745L36.5291 144.485C36.5291 144.485 42.021 146.29 50.7103 146.29C59.3986 146.29 65.6669 144.485 65.6669 144.485L73.587 94.8439C73.6476 93.907 73.0645 93.0472 72.1698 92.7582Z" fill="#3DCCB7"/>
<path d="M53.5057 99.2786C58.6726 99.2611 63.3232 95.9485 64.871 91.373L60.0888 90.4648H46.9422L44.2899 90.9688C44.041 93.8165 49.9411 99.2909 53.5057 99.2786Z" fill="#EDAC5F"/>
<path d="M53.4705 96.7287C56.5476 96.7287 59.0426 94.2337 59.0426 91.1566V78.5078H47.8984V91.1566C47.8984 94.2337 50.3934 96.7287 53.4705 96.7287Z" fill="#EDAC5F"/>
<path d="M19.1768 61.957C20.2093 66.477 24.9124 69.4635 28.5839 69.4635C32.7779 69.4635 32.6843 66.6765 32.6843 62.1359C32.6843 57.5953 30.6408 53.9372 27.9401 53.0136C21.9463 50.965 17.9498 56.5854 19.1768 61.957Z" fill="#ED9F42"/>
<path d="M87.8544 61.957C86.8219 66.477 82.1188 69.4635 78.4472 69.4635C74.2533 69.4635 74.3469 66.6765 74.3469 62.1359C74.3469 57.5953 76.3904 53.9372 79.0911 53.0136C85.0838 50.965 89.0803 56.5854 87.8544 61.957Z" fill="#ED9F42"/>
<path d="M28.503 70.2275C32.3607 87.1043 46.7157 88.6079 53.5137 88.6079C60.3117 88.6079 75.1974 85.6562 78.5244 70.2275C81.838 54.8647 84.7917 29.4375 53.5137 29.4375C22.2357 29.4375 25.0012 54.9068 28.503 70.2275Z" fill="#EDAC5F"/>
<path d="M68.7068 50.3748C67.3246 49.9038 66.1326 49.0748 64.7401 48.6141C63.3527 48.1544 61.8019 48.3847 60.5307 47.6247C59.8725 47.2308 59.7635 46.3258 60.2931 45.7776C61.7103 44.309 64.1344 44.7749 65.8611 45.4115C67.6095 46.0553 69.3979 47.3717 69.8114 49.2713C69.9461 49.8966 69.3918 50.6082 68.7068 50.3748Z" fill="#322A2D"/>
<path d="M34.1908 49.272C34.6032 47.3766 36.3958 46.054 38.1411 45.4123C39.8729 44.7747 42.2898 44.3088 43.709 45.7784C44.2377 46.3266 44.1297 47.2316 43.4714 47.6255C42.2023 48.3855 40.6474 48.1562 39.262 48.6149C37.8675 49.0766 36.6807 49.9035 35.2954 50.3755C34.6084 50.609 34.054 49.8973 34.1908 49.272Z" fill="#322A2D"/>
<path d="M64.3737 63.2447C63.4687 63.2447 62.5184 62.8508 61.8787 62.2111C61.2668 61.5992 60.8061 60.5954 60.8462 59.7161C60.8863 58.8039 61.1866 57.8577 61.8787 57.2211C62.5698 56.5875 63.4183 56.1875 64.3737 56.1875C65.2788 56.1875 66.229 56.5814 66.8687 57.2211C67.4806 57.833 67.9414 58.8368 67.9023 59.7161C67.8612 60.6283 67.5609 61.5755 66.8687 62.2111C66.1776 62.8456 65.3292 63.2447 64.3737 63.2447Z" fill="#322A2D"/>
<path d="M39.1061 63.2447C38.2011 63.2447 37.2508 62.8508 36.6111 62.2111C35.9992 61.5992 35.5384 60.5954 35.5775 59.7161C35.6186 58.8039 35.9179 57.8577 36.6111 57.2211C37.3012 56.5875 38.1496 56.1875 39.1061 56.1875C40.0111 56.1875 40.9614 56.5814 41.6011 57.2211C42.213 57.833 42.6738 58.8368 42.6347 59.7161C42.5935 60.6283 42.2932 61.5755 41.6011 62.2111C40.91 62.8456 40.0615 63.2447 39.1061 63.2447Z" fill="#322A2D"/>
<path d="M62.4422 54.2425C62.7456 54.877 63.014 55.5774 63.4542 56.1318C63.8892 56.6789 64.7274 57.043 64.8766 57.7629C64.9547 58.1403 64.7696 58.5301 64.3798 58.638C63.373 58.9168 62.5173 57.8369 62.0802 57.0645C61.603 56.2212 61.3459 55.2936 61.6359 54.3464C61.7398 54.0121 62.2705 53.8836 62.4422 54.2425Z" fill="#322A2D"/>
<path d="M37.1737 54.2425C37.4771 54.877 37.7455 55.5774 38.1857 56.1318C38.6207 56.6789 39.4589 57.043 39.608 57.7629C39.6862 58.1403 39.501 58.5301 39.1113 58.638C38.1044 58.9168 37.2488 57.8369 36.8117 57.0645C36.3345 56.2212 36.0773 55.2936 36.3674 54.3464C36.4712 54.0121 37.0019 53.8836 37.1737 54.2425Z" fill="#322A2D"/>
<path d="M72.3569 69.5901C72.3569 71.7951 70.5694 73.5825 68.3645 73.5825C66.1595 73.5825 64.3721 71.7951 64.3721 69.5901C64.3721 67.3851 66.1595 65.5977 68.3645 65.5977C70.5694 65.5977 72.3569 67.3851 72.3569 69.5901Z" fill="#ED9F42"/>
<path d="M39.5346 69.5901C39.5346 71.7951 37.7472 73.5825 35.5422 73.5825C33.3373 73.5825 31.5498 71.7951 31.5498 69.5901C31.5498 67.3851 33.3373 65.5977 35.5422 65.5977C37.7472 65.5977 39.5346 67.3851 39.5346 69.5901Z" fill="#ED9F42"/>
<path d="M81.3992 51.1922C80.9631 45.4165 79.3228 39.9462 75.2923 35.6473C71.377 31.4708 66.062 28.6354 60.457 27.533C54.671 26.3955 48.3348 26.8171 42.6568 28.3464C37.3407 29.778 33.3463 33.0865 30.2044 37.5376C26.2377 43.1591 24.407 49.6218 25.3295 56.4826C25.4036 57.0317 26.1595 56.9937 26.4084 56.6234C29.2736 52.3667 31.8458 47.9331 34.1063 43.3257C35.8886 39.6912 37.641 35.7482 41.1141 33.5041C40.9958 36.0752 41.4627 38.5712 42.9365 40.77C44.6345 43.3041 47.1881 45.1399 49.6419 46.8821C50.041 47.1649 50.7022 46.6866 50.5089 46.2156C49.029 42.6037 48.0365 38.8664 47.5377 35.0251C49.2007 37.7999 51.6577 40.0069 54.6988 41.3552C55.2613 41.6051 55.7426 41.1032 55.5061 40.5479C54.6484 38.527 53.9737 36.4578 53.4626 34.3392C54.5733 35.7533 55.8619 37.0039 57.3429 38.1115C57.7378 38.4067 58.4022 37.9089 58.2099 37.4451C57.6432 36.0721 57.347 34.7331 57.3018 33.2891C62.9551 35.6124 67.9225 39.466 71.5272 44.4179C75.2285 49.5036 76.2683 55.8603 79.8617 60.9491C80.1167 61.3111 80.8572 61.3605 80.9405 60.8082C81.4239 57.6087 81.5843 54.4205 81.3992 51.1922Z" fill="#322A2D"/>
<path d="M98.7542 45.2567C104.702 48.6413 104.854 56.0204 105.934 61.9812C106.935 67.5091 109.398 72.6554 113.39 76.6509C113.817 77.0777 114.467 76.4257 114.051 75.9896C111.639 73.4535 109.655 70.6376 108.338 67.3795C107.143 64.4228 106.69 61.3066 106.204 58.175C105.412 53.0605 103.921 47.4401 99.0206 44.8001C98.7213 44.6386 98.457 45.088 98.7542 45.2567Z" fill="#21171B"/>
<path d="M98.9267 50.3923C100.043 53.1136 101.188 55.8554 102.002 58.6857C102.929 61.915 103.118 65.1247 103.068 68.4661C102.991 73.7349 103.682 78.4431 107.16 82.598C107.542 83.0536 108.175 82.4025 107.808 81.95C105.927 79.6288 104.682 76.9446 104.243 73.9827C103.807 71.0403 104.106 68.0599 103.965 65.1C103.712 59.7727 101.542 54.9781 99.2198 50.2689C99.1417 50.1074 98.8578 50.2226 98.9267 50.3923Z" fill="#21171B"/>
<path d="M105.118 67.5195C104.785 71.372 106.712 74.6877 108.844 77.7391C111.46 81.4837 114.381 85.9409 112.039 90.5741C111.801 91.043 112.49 91.4555 112.749 90.9885C117.463 82.4761 105.164 75.855 105.883 67.5195C105.926 67.0289 105.16 67.031 105.118 67.5195Z" fill="#21171B"/>
<path d="M113.456 80.4773C114.051 81.6919 114.402 82.9826 114.551 84.3257C114.608 84.8471 115.427 84.8646 115.382 84.3257C115.258 82.8252 114.825 81.4152 114.132 80.0813C113.899 79.6309 113.234 80.0268 113.456 80.4773Z" fill="#21171B"/>
<path d="M45.4781 28.5739C45.187 30.5033 45.4832 32.3288 46.4469 34.0319C46.7441 34.5574 47.537 34.0905 47.2542 33.5598C46.4469 32.0449 46.1404 30.3943 46.3502 28.6922C46.4109 28.2006 45.5521 28.0793 45.4781 28.5739Z" fill="#21171B"/>
<path d="M47.6676 27.853C48.1972 31.722 49.7738 35.2897 52.4025 38.193C52.7183 38.5416 53.1934 38.0377 52.9106 37.6849C50.5339 34.7251 48.9604 31.4237 48.3052 27.6771C48.2312 27.2534 47.612 27.4416 47.6676 27.853Z" fill="#21171B"/>
<path d="M49.9508 30.1936C50.609 31.3207 51.2672 32.4489 51.9264 33.5761C52.1506 33.9597 52.7584 33.6049 52.5219 33.2285C51.8277 32.1219 51.1345 31.0143 50.4403 29.9077C50.247 29.5991 49.7657 29.8768 49.9508 30.1936Z" fill="#21171B"/>
<path d="M54.3801 27.1728C56.077 29.5742 58.5113 31.013 61.0999 32.3037C64.14 33.8197 67.0577 35.3438 69.634 37.5992C74.7371 42.0667 78.1042 48.008 79.182 54.7114C79.2632 55.2143 80.0284 55.0014 79.9472 54.5006C78.9486 48.3557 76.0041 42.5614 71.6363 38.1185C69.5198 35.965 67.0248 34.1806 64.32 32.8447C60.9591 31.1848 57.2258 29.9795 54.8604 26.8921C54.6496 26.6134 54.1703 26.8746 54.3801 27.1728Z" fill="#21171B"/>
<path d="M77.9152 44.9559C78.775 46.8503 79.21 48.792 79.3674 50.8613C79.4085 51.3981 80.2518 51.4012 80.2086 50.8613C80.0338 48.6902 79.3828 46.6107 78.3893 44.6793C78.2248 44.3615 77.7723 44.6402 77.9152 44.9559Z" fill="#21171B"/>
<path d="M42.0751 29.4809C40.8338 31.871 38.4385 32.9612 36.3426 34.4617C34.623 35.6927 33.0845 37.1675 31.7866 38.8367C28.9748 42.4517 27.3057 46.8431 27.0218 51.4094C26.9776 52.1242 28.0667 52.1108 28.1274 51.4094C28.5665 46.3567 30.5792 41.6227 34.0265 37.8833C36.6367 35.052 41.2349 33.4775 42.7056 29.7473C42.8495 29.3832 42.2541 29.1374 42.0751 29.4809Z" fill="#21171B"/>
<path d="M25.6987 43.5587C24.7597 45.6856 24.4368 47.8823 24.7751 50.184C24.8471 50.6735 25.7141 50.5624 25.6473 50.0657C25.3603 47.9276 25.6051 45.8645 26.4412 43.8714C26.6181 43.4508 25.8848 43.1381 25.6987 43.5587Z" fill="#21171B"/>
<path d="M83.8301 71.8256C83.6882 74.0624 83.0238 76.0442 82.1044 78.0703C81.8781 78.5701 82.5682 79.003 82.8551 78.5094C84.0286 76.4875 84.5006 74.1437 84.5387 71.8266C84.5459 71.3669 83.8589 71.3741 83.8301 71.8256Z" fill="#21171B"/>
<path d="M85.6138 74.6522C85.5243 75.4163 85.2394 76.1116 84.7982 76.7389C84.4897 77.1781 85.2466 77.6347 85.5243 77.1637C85.9789 76.3923 86.2236 75.547 86.2555 74.6532C86.272 74.2295 85.6611 74.2521 85.6138 74.6522Z" fill="#21171B"/>
<path d="M25.496 72.733C25.8179 74.6017 26.6643 76.2842 28.0136 77.6202C28.3982 78.0017 28.9906 77.4104 28.608 77.0257C27.3636 75.7741 26.5172 74.2829 26.1429 72.5551C26.0503 72.1283 25.424 72.3134 25.496 72.733Z" fill="#21171B"/>
<path d="M29.0897 76.1096C29.2275 76.6166 29.5278 77.0208 29.9443 77.3324C30.1387 77.4774 30.4462 77.3633 30.5583 77.171C30.691 76.9447 30.5943 76.6999 30.3969 76.557C30.1675 76.3914 30.0143 76.1446 29.9361 75.8751C29.7808 75.3342 28.9416 75.5625 29.0897 76.1096Z" fill="#21171B"/>
<path d="M79.9399 34.4335C81.4034 35.9381 82.2158 37.7759 82.5059 39.8431C82.5789 40.3645 83.4942 40.2473 83.4335 39.7177C83.1754 37.4561 82.1408 35.4475 80.5004 33.872C80.1322 33.5182 79.583 34.0664 79.9399 34.4335Z" fill="#21171B"/>
<path d="M80.6399 39.1024C81.1109 40.1082 81.3712 41.1654 81.5007 42.2659C81.5624 42.7924 82.3893 42.8109 82.342 42.2659C82.233 41.0173 81.8494 39.8418 81.2683 38.7352C81.0482 38.3166 80.4445 38.6848 80.6399 39.1024Z" fill="#21171B"/>
<path d="M90.4658 44.2767C90.6355 45.628 90.9122 46.9599 91.1971 48.2917C91.3102 48.8193 92.0928 48.591 91.9992 48.0706C91.7648 46.7665 91.5272 45.4604 91.1806 44.18C91.0777 43.7985 90.4134 43.8591 90.4658 44.2767Z" fill="#21171B"/>
<path d="M31.3336 26.3425C30.6672 26.9545 30.2897 27.7823 30.3072 28.6894C30.3175 29.2468 31.1331 29.2386 31.167 28.6894C31.2071 28.0292 31.4755 27.4183 31.9486 26.9575C32.3507 26.5647 31.745 25.9651 31.3336 26.3425Z" fill="#21171B"/>
<path d="M32.1632 27.9903C31.8351 28.4047 31.5955 28.8593 31.4721 29.3756C31.4114 29.6286 31.5513 29.898 31.8084 29.968C32.0346 30.0297 32.3637 29.8908 32.4007 29.6316C32.4604 29.2172 32.5931 28.85 32.8224 28.4993C33.0806 28.1075 32.4625 27.6128 32.1632 27.9903Z" fill="#21171B"/>
<path d="M57.7228 21.8215C57.8586 22.2442 58.0756 22.6175 58.3748 22.9446C58.744 23.3477 59.357 22.7389 58.9765 22.3429C58.7708 22.1301 58.6134 21.8832 58.5157 21.6025C58.4427 21.3927 58.235 21.2538 58.0097 21.3155C57.802 21.3721 57.6549 21.6086 57.7228 21.8215Z" fill="#21171B"/>
<path d="M73.2704 84.2014C73.2242 84.3351 73.1768 84.4688 73.1306 84.6036C72.9218 85.2042 73.9029 85.4818 74.087 84.8678C74.1271 84.7321 74.1683 84.5963 74.2084 84.4606C74.2834 84.2086 74.1178 83.9309 73.869 83.862C73.6005 83.787 73.3568 83.9515 73.2704 84.2014Z" fill="#21171B"/>
<path d="M44.4959 69.4408C47.4928 75.849 56.2798 74.2251 59.6346 69.1168C60.2475 68.183 58.8067 67.4045 58.166 68.2581C54.7649 72.7935 48.8318 73.4147 44.9638 69.0798C44.7242 68.8124 44.3612 69.1528 44.4959 69.4408Z" fill="#DF7723"/>
<path d="M49.3195 56.7049C48.0196 59.2154 43.8729 65.7315 48.7045 67.1333C49.5314 67.3729 49.8738 66.1059 49.0583 65.8488C45.793 64.8173 49.302 59.0251 50.0878 57.0289C50.2626 56.5856 49.5365 56.2853 49.3195 56.7049Z" fill="#DF7723"/>
</g>
</svg>
