<svg width="676" height="676" viewBox="0 0 676 676" fill="none" xmlns="http://www.w3.org/2000/svg">
<path d="M531.434 102.973H136.939V287.545H531.434V102.973Z" fill="#E6E6E6"/>
<path d="M537.378 102.973H139.717V287.545H537.378V102.973Z" fill="#F0F0F0"/>
<path d="M531.434 287.547H136.939V296.962H531.434V287.547Z" fill="#E6E6E6"/>
<path d="M547.278 287.547H149.617V296.962H547.278V287.547Z" fill="#F0F0F0"/>
<path d="M529.057 279.225V111.293L148.036 111.293L148.036 279.225L529.057 279.225Z" fill="#FAFAFA"/>
<path d="M188.92 279.225L212.077 111.293H248.213L225.055 279.225H188.92Z" fill="white"/>
<path d="M151.889 270.946C151.56 270.946 151.294 270.679 151.294 270.351V116.708C151.294 116.38 151.56 116.113 151.889 116.113C152.217 116.113 152.484 116.38 152.484 116.708V270.352C152.484 270.679 152.217 270.946 151.889 270.946Z" fill="#F0F0F0"/>
<path d="M232.818 279.225L255.975 111.293H270.063L246.906 279.225H232.818Z" fill="white"/>
<path d="M529.058 279.225V111.293H528.002V279.225H529.058Z" fill="#E6E6E6"/>
<path opacity="0.6" d="M539.345 123.839H144.85L144.085 114.527H538.58L539.345 123.839Z" fill="#EBEBEB"/>
<path opacity="0.6" d="M539.345 139.108H144.85L144.085 129.797H538.58L539.345 139.108Z" fill="#EBEBEB"/>
<path opacity="0.6" d="M539.345 154.382H144.85L144.085 145.07H538.58L539.345 154.382Z" fill="#EBEBEB"/>
<path opacity="0.6" d="M539.345 169.651H144.85L144.085 160.34H538.58L539.345 169.651Z" fill="#EBEBEB"/>
<path opacity="0.6" d="M539.345 184.921H144.85L144.085 175.609H538.58L539.345 184.921Z" fill="#EBEBEB"/>
<path opacity="0.6" d="M539.345 200.194H144.85L144.085 190.883H538.58L539.345 200.194Z" fill="#EBEBEB"/>
<path d="M593.528 333.945H533.323V517.005H593.528V333.945Z" fill="#E6E6E6"/>
<path d="M577.451 517.005H593.528V491.734H560.596L577.451 517.005Z" fill="#FAFAFA"/>
<path d="M429.376 333.945H369.172V517.005H429.376V333.945Z" fill="#E6E6E6"/>
<path d="M593.528 333.945H415.347V508.307H593.528V333.945Z" fill="#FAFAFA"/>
<path d="M431.422 517.005H415.347V491.734H448.279L431.422 517.005Z" fill="#FAFAFA"/>
<path d="M581.057 398.918H427.817V442.552H581.057V398.918Z" fill="#F0F0F0"/>
<path d="M581.057 451.879H427.817V495.513H581.057V451.879Z" fill="#F0F0F0"/>
<path d="M550.659 403.585H458.216C454.725 403.585 451.896 400.756 451.896 397.266V395.141H556.979V397.266C556.978 400.756 554.148 403.585 550.659 403.585Z" fill="#FAFAFA"/>
<path d="M581.057 345.957H427.817V389.591H581.057V345.957Z" fill="#F0F0F0"/>
<path d="M550.659 350.62H458.216C454.725 350.62 451.896 347.791 451.896 344.301V342.176H556.979V344.301C556.978 347.791 554.148 350.62 550.659 350.62Z" fill="#FAFAFA"/>
<path d="M550.659 456.546H458.216C454.725 456.546 451.896 453.716 451.896 450.227V448.102H556.979V450.227C556.978 453.716 554.148 456.546 550.659 456.546Z" fill="#FAFAFA"/>
<path d="M72.2201 372.973C75.5744 363.344 102.022 376.438 112.754 392.396C119.902 403.022 124.269 414.366 126.308 429.604C126.064 412.217 125.786 393.537 125.515 375.908C123.345 371.513 118.388 361.378 114.823 353.347C102.928 326.553 74.6443 316.576 64.8734 299.658C52.0699 277.492 52.1443 244.241 63.0427 232.242C72.5149 221.815 103.88 292.319 107.413 300.196C119.564 327.289 123.097 347.396 125.374 366.874C125.114 350.316 124.867 335.114 124.663 323.384C123.999 285.125 123.169 272.819 122.789 269.032C121.479 267.183 119.934 265.028 119.034 263.872C111.444 254.1 94.6025 242.467 86.1863 228.262C73.8966 207.521 75.8827 182.696 84.503 173.453C93.5155 163.787 109.449 186.631 117.908 209.265C126.368 231.898 122.752 253.562 125.125 272.358C125.621 276.045 126.131 290.048 126.61 309.472C129.176 288.573 134.288 274.572 143.761 261.525C155.413 245.478 165.472 225.936 175.072 228.462C184.673 230.987 179.505 256.844 171.91 274.996C165.146 291.162 131.778 307.286 126.861 320.283C127.44 346.612 127.958 379.967 128.324 411.022C130.955 394.981 129.146 393.634 139.926 369.075C146.334 354.475 172.607 336.469 175.741 346.501C178.816 356.346 174.112 375.492 164.194 388.771C156.193 399.483 138.44 399.471 134.331 406.117C133.372 407.668 130.203 413.613 128.393 417.03C128.822 454.945 129.014 488.412 128.801 499.823L127.079 499.938C127.161 496.992 126.953 477.704 126.615 452.181C122.305 438.6 93.2829 430.672 84.3178 416.549C74.939 401.77 68.1966 384.523 72.2201 372.973Z" fill="#E6E6E6"/>
<path d="M99.5084 517H155.211C158.254 517 160.877 514.856 161.481 511.873L165.436 492.379H89.2832L93.2378 511.873C93.8421 514.857 96.465 517 99.5084 517Z" fill="#F0F0F0"/>
<path d="M87.6907 499.938H167.029C168.93 499.938 170.528 498.51 170.74 496.62L172.362 482.208C172.611 479.993 170.879 478.055 168.651 478.055H86.0683C83.8402 478.055 82.1069 479.993 82.3571 482.208L83.9795 496.62C84.1917 498.51 85.7898 499.938 87.6907 499.938Z" fill="#F0F0F0"/>
<path d="M240.44 429.418H192.84V517.001H240.44V429.418Z" fill="#E0E0E0"/>
<path d="M361.767 517.001H202.374L185.631 398.164H345.024L361.767 517.001Z" fill="#E6E6E6"/>
<path d="M385.02 517.001H208.708L191.965 398.164H368.277L385.02 517.001Z" fill="#F0F0F0"/>
<path d="M225.966 498.426L211.862 416.742H351.018L365.122 498.426H225.966Z" fill="white"/>
<path d="M285.759 498.426L238.459 416.742H253.299L300.598 498.426H285.759Z" fill="#FAFAFA"/>
<path d="M306.888 498.426L259.588 416.742H284.892L332.192 498.426H306.888Z" fill="#FAFAFA"/>
<path d="M338 578.063C482.775 578.063 600.138 571.209 600.138 562.754C600.138 554.299 482.775 547.445 338 547.445C193.225 547.445 75.8623 554.299 75.8623 562.754C75.8623 571.209 193.225 578.063 338 578.063Z" fill="#F5F5F5"/>
<path d="M104.463 299.506C104.166 299.506 103.916 299.279 103.89 298.977L100.886 262.876C100.859 262.56 101.094 262.283 101.412 262.255C101.709 262.232 102.005 262.464 102.032 262.781L105.037 298.883C105.064 299.199 104.828 299.476 104.511 299.503C104.494 299.504 104.48 299.506 104.463 299.506Z" fill="#407BFF"/>
<path d="M106.247 320.949C105.95 320.949 105.699 320.722 105.674 320.42L104.764 309.492C104.737 309.176 104.972 308.898 105.29 308.871C105.594 308.832 105.885 309.078 105.91 309.397L106.82 320.325C106.847 320.642 106.612 320.919 106.294 320.946C106.279 320.947 106.263 320.949 106.247 320.949Z" fill="#407BFF"/>
<path d="M410.406 423.675H131.253C124.131 423.675 117.818 417.848 117.225 410.725L101.504 221.752C100.912 214.629 106.253 208.801 113.377 208.801H392.53C399.652 208.801 405.965 214.628 406.558 221.752L422.281 410.725C422.873 417.847 417.53 423.675 410.406 423.675Z" fill="white"/>
<path d="M410.406 424.215H131.253C123.838 424.215 117.304 418.184 116.688 410.771L100.967 221.798C100.665 218.192 101.802 214.792 104.164 212.224C106.515 209.669 109.787 208.262 113.377 208.262H392.531C399.944 208.262 406.478 214.294 407.094 221.707L422.817 410.679C423.118 414.285 421.981 417.684 419.619 420.25C417.267 422.807 413.995 424.215 410.406 424.215ZM113.377 209.342C110.093 209.342 107.103 210.625 104.959 212.956C102.803 215.298 101.767 218.406 102.041 221.709L117.762 410.68C118.334 417.549 124.386 423.135 131.254 423.135H410.407C413.692 423.135 416.682 421.852 418.827 419.521C420.982 417.178 422.018 414.071 421.743 410.77L406.021 221.798C405.449 214.93 399.399 209.342 392.532 209.342H113.377Z" fill="#407BFF"/>
<path d="M392.53 208.801H113.377C106.255 208.801 100.912 214.628 101.504 221.752H406.557C405.965 214.628 399.652 208.801 392.53 208.801Z" fill="#407BFF"/>
<path d="M119.912 215.278C120.04 216.82 118.894 218.071 117.351 218.071C115.808 218.071 114.454 216.82 114.325 215.278C114.197 213.735 115.343 212.484 116.886 212.484C118.429 212.484 119.783 213.735 119.912 215.278Z" fill="white"/>
<path d="M131.269 215.278C131.397 216.82 130.251 218.071 128.708 218.071C127.165 218.071 125.812 216.82 125.684 215.278C125.555 213.735 126.702 212.484 128.244 212.484C129.787 212.484 131.14 213.735 131.269 215.278Z" fill="white"/>
<path d="M142.625 215.278C142.754 216.82 141.607 218.071 140.065 218.071C138.522 218.071 137.167 216.82 137.04 215.278C136.912 213.735 138.058 212.484 139.601 212.484C141.143 212.484 142.497 213.735 142.625 215.278Z" fill="white"/>
<path d="M386.181 398.913H151.359C145.697 398.913 140.68 394.281 140.208 388.619L129.242 256.814C128.771 251.151 133.018 246.52 138.68 246.52H373.501C379.163 246.52 384.18 251.151 384.652 256.814L395.618 388.619C396.09 394.281 391.843 398.913 386.181 398.913Z" fill="#F0F0F0"/>
<path opacity="0.1" d="M313.56 269.596L240.811 357.183C230.832 369.198 237.154 387.513 252.42 390.815L370.413 416.334C386.707 419.859 400.323 403.747 394.131 388.268L348.886 275.162C343.028 260.516 323.639 257.462 313.56 269.596Z" fill="#263238"/>
<path opacity="0.1" d="M151.641 281.877L126.303 350.107C122.922 359.211 130.243 368.713 139.909 367.766L213.902 360.509C224.278 359.491 229.396 347.379 222.894 339.229L174.24 278.254C167.861 270.262 155.201 272.291 151.641 281.877Z" fill="#263238"/>
<path d="M338.654 247.544L270.647 346.29C261.383 359.741 269.59 378.231 285.779 380.385L410.791 397.023C428.143 399.332 441.045 381.339 433.291 365.645L376.286 250.262C368.89 235.292 348.126 233.792 338.654 247.544Z" fill="#407BFF"/>
<path d="M288.746 371.534C284.199 370.93 280.247 368.062 278.175 363.867C276.102 359.67 276.34 355.022 278.813 351.43L346.992 252.435C349.464 248.846 353.655 247.062 358.201 247.667C362.748 248.272 366.7 251.139 368.772 255.334L425.921 371.008C427.995 375.205 427.756 379.853 425.282 383.445C422.809 387.035 418.618 388.818 414.072 388.214L288.746 371.534Z" fill="white"/>
<path d="M352.396 282.658L360.358 283.718C365.478 284.399 369.419 289.057 369.158 294.12L368.624 304.506C368.605 304.888 368.561 305.265 368.494 305.635L362.83 336.934C362.013 341.444 357.892 344.362 353.217 343.74C348.531 343.117 344.76 339.134 344.427 334.458L342.13 302.113C342.103 301.739 342.101 301.364 342.12 300.992L342.654 290.594C342.915 285.53 347.276 281.977 352.396 282.658ZM351.761 352.367L353.932 352.656C358.513 353.266 362.036 357.432 361.803 361.961C361.571 366.49 357.669 369.667 353.088 369.059L350.917 368.769C346.337 368.16 342.813 363.994 343.046 359.465C343.28 354.936 347.182 351.757 351.761 352.367Z" fill="#407BFF"/>
<path d="M177.794 262.637L159.122 333.447C156.649 342.823 164.833 351.557 174.35 349.7L246.779 335.567C256.957 333.581 260.934 321.144 253.798 313.62L200.043 256.943C192.956 249.472 180.42 252.68 177.794 262.637Z" fill="#407BFF"/>
<path d="M174.212 343.966C171.578 344.48 168.837 343.556 166.884 341.496C164.929 339.434 164.166 336.667 164.846 334.091L183.566 263.103C184.245 260.529 186.223 258.685 188.858 258.171C191.492 257.657 194.232 258.58 196.186 260.641L250.078 317.461C252.033 319.523 252.795 322.291 252.115 324.866C251.437 327.44 249.459 329.285 246.825 329.798L174.212 343.966Z" fill="white"/>
<path d="M192.369 279.767L196.982 278.866C199.948 278.288 203.026 280.263 203.855 283.276L205.557 289.459C205.62 289.686 205.668 289.915 205.702 290.145L208.583 309.554C208.998 312.351 207.277 314.846 204.569 315.374C201.854 315.904 199 314.291 197.917 311.618L190.424 293.116C190.338 292.901 190.264 292.684 190.203 292.462L188.499 286.271C187.67 283.259 189.402 280.345 192.369 279.767ZM205.422 320.708L206.681 320.462C209.335 319.944 212.088 321.711 212.83 324.407C213.572 327.104 212.023 329.71 209.369 330.227L208.111 330.473C205.457 330.991 202.705 329.224 201.962 326.528C201.219 323.831 202.768 321.226 205.422 320.708Z" fill="#407BFF"/>
<path d="M525.067 278.559L514.574 281.967L523.015 291.954C523.015 291.954 526.99 288.569 529.158 284.772C530.064 283.186 529.541 281.168 527.964 280.249L525.067 278.559Z" fill="#7F3E3B"/>
<path d="M509.745 290.165L516.037 297.807L523.015 291.956L514.574 281.969L509.745 290.165Z" fill="#7F3E3B"/>
<path d="M528.451 196.957C531.015 203.985 533.366 211.014 535.593 218.143C537.792 225.288 539.887 232.421 541.673 239.918L542.313 242.793L542.61 244.295L542.757 245.045L542.794 245.234L542.836 245.521L542.916 246.095C543.293 249.156 542.972 251.563 542.549 253.794C541.666 258.211 540.232 261.957 538.653 265.594C535.439 272.816 531.586 279.307 527.076 285.6L520.064 281.722C522.548 274.985 525 268.047 526.839 261.364C527.723 258.035 528.483 254.677 528.709 251.771C528.81 250.35 528.74 249.021 528.545 248.421L527.964 246.306L527.211 243.811C525.09 237.04 522.669 230.08 520.275 223.164C517.894 216.237 515.492 209.256 513.187 202.315L528.451 196.957Z" fill="#7F3E3B"/>
<path d="M470.059 155.133C470.238 155.975 469.94 156.77 469.395 156.908C468.849 157.046 468.262 156.474 468.084 155.632C467.906 154.789 468.203 153.994 468.749 153.856C469.295 153.719 469.881 154.289 470.059 155.133Z" fill="#263238"/>
<path d="M470.018 156.75C470.018 156.75 469.15 162.09 467.559 164.963C469.33 165.981 471.705 164.712 471.705 164.712L470.018 156.75Z" fill="#630F0F"/>
<path d="M467.828 150.015C467.669 150.015 467.512 149.939 467.413 149.8C467.254 149.571 467.309 149.256 467.538 149.095C467.62 149.038 469.57 147.704 472.116 148.752C472.374 148.859 472.497 149.153 472.391 149.412C472.285 149.67 471.99 149.794 471.732 149.686C469.691 148.845 468.134 149.913 468.119 149.924C468.03 149.985 467.928 150.015 467.828 150.015Z" fill="#263238"/>
<path d="M499.039 157.809C499.982 167.623 498.59 177.126 500.787 185.658C500.787 185.658 498.347 193.577 483.841 193.577C467.891 193.577 476.524 185.658 476.524 185.658C485.311 183.579 485.335 177.121 484.052 171.054L499.039 157.809Z" fill="#7F3E3B"/>
<path d="M503.878 188.378C505.118 185.872 505.941 182.323 503.371 181.424C500.544 180.435 485.449 180.107 479.971 181.962C474.492 183.818 475.829 188.902 475.829 188.902L503.878 188.378Z" fill="#263238"/>
<path d="M536.473 544.441C537.522 544.192 538.602 543.707 539.346 543.331C539.444 543.281 539.504 543.175 539.496 543.064C539.488 542.953 539.415 542.858 539.309 542.822C538.835 542.661 534.642 541.278 533.54 542.221C533.37 542.367 533.182 542.636 533.259 543.09C533.363 543.7 533.663 544.134 534.151 544.379C534.766 544.688 535.609 544.645 536.473 544.441ZM538.476 543.137C536.642 543.98 535.142 544.26 534.399 543.885C534.073 543.721 533.878 543.429 533.804 542.997C533.767 542.784 533.836 542.695 533.898 542.641C534.472 542.152 536.786 542.629 538.476 543.137Z" fill="#407BFF"/>
<path d="M539.285 543.354C539.336 543.342 539.383 543.314 539.421 543.275C539.491 543.202 539.516 543.097 539.485 543.001C539.441 542.864 538.395 539.655 536.823 538.889C536.413 538.691 536.001 538.665 535.596 538.815C534.973 539.046 534.897 539.482 534.908 539.722C534.968 541.045 537.826 542.993 539.151 543.352C539.194 543.363 539.24 543.363 539.285 543.354ZM535.906 539.295C536.128 539.242 536.348 539.272 536.579 539.384C537.588 539.875 538.402 541.698 538.76 542.622C537.384 542.013 535.494 540.477 535.458 539.695C535.456 539.624 535.448 539.457 535.787 539.332C535.826 539.317 535.867 539.304 535.906 539.295Z" fill="#407BFF"/>
<path d="M462.621 552.688C463.7 552.688 464.862 552.465 465.672 552.269C465.78 552.244 465.863 552.154 465.88 552.045C465.898 551.935 465.848 551.826 465.755 551.766C465.33 551.5 461.569 549.191 460.279 549.853C460.079 549.956 459.834 550.175 459.806 550.635C459.767 551.253 459.959 551.743 460.376 552.095C460.904 552.537 461.734 552.688 462.621 552.688ZM464.872 551.881C462.892 552.279 461.37 552.206 460.732 551.67C460.452 551.435 460.329 551.108 460.357 550.669C460.371 550.454 460.457 550.382 460.532 550.344C461.201 550.001 463.343 550.997 464.872 551.881Z" fill="#407BFF"/>
<path d="M465.608 552.279C465.66 552.279 465.713 552.265 465.758 552.235C465.843 552.179 465.89 552.082 465.882 551.982C465.871 551.839 465.593 548.475 464.238 547.368C463.885 547.08 463.489 546.959 463.062 547.012C462.402 547.093 462.228 547.5 462.183 547.735C461.937 549.035 464.269 551.59 465.475 552.244C465.517 552.269 465.563 552.279 465.608 552.279ZM463.254 547.553C463.481 547.553 463.689 547.633 463.888 547.795C464.756 548.505 465.129 550.465 465.264 551.448C464.065 550.537 462.579 548.607 462.724 547.839C462.737 547.769 462.768 547.606 463.127 547.561C463.171 547.556 463.213 547.553 463.254 547.553Z" fill="#407BFF"/>
<path d="M478.158 551.858H467.487L467.379 527.145H478.05L478.158 551.858Z" fill="#7F3E3B"/>
<path d="M552.513 542.713L542.239 544.596L534.869 520.278L545.143 518.395L552.513 542.713Z" fill="#7F3E3B"/>
<path d="M540.284 541.862L551.95 539.103C552.375 539.003 552.801 539.214 552.975 539.61L556.853 548.44C557.254 549.356 556.681 550.447 555.698 550.662C551.611 551.555 549.584 551.782 544.455 552.995C541.298 553.741 534.86 555.609 530.501 556.641C526.238 557.65 524.72 553.457 526.427 552.64C534.082 548.982 536.619 545.833 538.725 542.903C539.104 542.376 539.663 542.008 540.284 541.862Z" fill="#263238"/>
<path d="M467.606 550.621H479.26C479.697 550.621 480.062 550.924 480.14 551.35L481.882 560.835C482.061 561.818 481.28 562.751 480.273 562.734C476.072 562.662 470.007 562.416 464.722 562.416C458.543 562.416 456.342 562.753 449.097 562.753C444.716 562.753 443.671 558.323 445.521 557.922C453.94 556.095 457.616 555.899 465.002 551.451C465.805 550.969 466.684 550.621 467.606 550.621Z" fill="#263238"/>
<path d="M524.576 188.417C534.535 195.425 537.535 213.49 537.535 213.49L514.962 224.934C514.962 224.934 509.23 213.823 506.719 202.532C504.342 191.845 517.497 183.435 524.576 188.417Z" fill="#407BFF"/>
<path opacity="0.2" d="M513.287 199.938L522.182 221.248L514.968 224.937C514.968 224.937 511.82 218.81 509.127 210.978L513.287 199.938Z" fill="black"/>
<path d="M458.18 235.293C458.257 247.204 458.977 262.021 460.753 280.411H517.841C518.54 272.027 515.038 232.5 523.535 192.927C524.167 189.984 522.198 187.117 519.224 186.655C515.586 186.09 510.61 185.441 505.742 185.206C498.463 184.857 487.912 184.624 481.483 185.206C477.986 185.523 474.565 186.082 471.75 186.629C466.878 187.577 463.005 191.215 461.717 196.007C460.485 200.587 459.226 207.629 458.592 218.253C458.3 223.15 458.14 228.785 458.18 235.293Z" fill="#407BFF"/>
<path opacity="0.2" d="M476.193 212.883C472.421 215.655 465.202 216.926 458.631 217.494C458.739 215.75 458.874 214.1 459.023 212.545C460.793 211.612 462.498 210.761 464.106 209.977L476.193 212.883Z" fill="black"/>
<g opacity="0.2">
<path d="M467.38 527.152L467.434 540.886H478.111L478.057 527.152H467.38Z" fill="black"/>
<path d="M545.147 518.402L534.869 520.286L538.672 532.82L548.952 530.935L545.147 518.402Z" fill="black"/>
</g>
<path d="M497.517 146.314C499.08 156.822 500.523 162.874 496.472 169.493C490.379 179.449 476.724 177.905 472.089 168.192C467.918 159.45 466.062 143.735 475.221 137.082C484.245 130.527 495.953 135.807 497.517 146.314Z" fill="#7F3E3B"/>
<path d="M475.685 153.986C471.731 152.249 472.107 146.015 473.309 143.387C468.727 144.965 462.102 145.865 460.908 141.209C459.714 136.552 463.77 135.05 461.291 131.069C458.813 127.088 466.699 122.731 470.379 128.29C474.059 133.85 483.136 131.405 489.007 126.037C493.276 122.131 499.523 127.163 497.043 132.271C497.043 132.271 509.887 131.445 507.333 140.157C504.779 148.869 501.173 149.184 501.999 155.38C502.559 159.576 503.051 168.097 498.019 169.299C491.941 170.751 476.763 165.365 475.685 153.986Z" fill="#263238"/>
<path opacity="0.2" d="M475.612 165.363C474.449 166.201 473.246 167.093 472.016 168.04C472.043 168.094 472.056 168.134 472.083 168.188C473.354 170.852 475.315 172.907 477.613 174.286C478.377 173.544 478.804 171.046 480.245 171.084C484.527 171.196 492.82 169.406 494.193 164.57L475.612 165.363Z" fill="black"/>
<path d="M478.941 153.837C479.24 156.531 478.74 159.056 477.926 160.7C476.701 163.172 474.787 161.596 474.036 158.554C473.362 155.815 473.184 151.228 474.939 149.88C476.666 148.549 478.599 150.756 478.941 153.837Z" fill="#7F3E3B"/>
<path d="M481.003 280.41C481.003 280.41 489.965 361.963 495.434 392.517C501.424 425.975 532.438 530.995 532.438 530.995L551.556 526.924C551.556 526.924 530.208 428.676 527.332 395.55C524.211 359.598 517.834 280.411 517.834 280.411L481.003 280.41Z" fill="#407BFF"/>
<path opacity="0.3" d="M481.003 280.41C481.003 280.41 489.965 361.963 495.434 392.517C501.424 425.975 532.438 530.995 532.438 530.995L551.556 526.924C551.556 526.924 530.208 428.676 527.332 395.55C524.366 361.372 524.36 361.444 517.834 280.411L481.003 280.41Z" fill="black"/>
<path d="M528.157 524.543C528.076 524.56 531.41 531.523 531.41 531.523L552.919 526.943L551.381 520.422L528.157 524.543Z" fill="#263238"/>
<path opacity="0.2" d="M487.534 309.468C501.431 312.214 497.934 364.435 495.211 391.294C491.905 372.308 487.404 335.776 484.366 309.846C485.315 309.382 486.367 309.236 487.534 309.468Z" fill="black"/>
<path d="M460.755 280.41C460.755 280.41 456.205 360.198 456.109 392.741C456.009 426.59 463.553 537.423 463.553 537.423H481.631C481.631 537.423 486.497 428.568 488.586 395.325C490.863 359.083 498.276 280.41 498.276 280.41H460.755Z" fill="#407BFF"/>
<path opacity="0.3" d="M460.755 280.41C460.755 280.41 456.205 360.198 456.109 392.741C456.009 426.59 463.553 537.423 463.553 537.423H481.631C481.631 537.423 486.497 428.568 488.586 395.325C490.863 359.083 498.276 280.41 498.276 280.41H460.755Z" fill="black"/>
<path d="M460.352 530.223C460.268 530.223 461.082 537.728 461.082 537.728H483.072L483.925 531.03L460.352 530.223Z" fill="#263238"/>
<path d="M483.366 205.151C481.208 205.361 479.376 205.471 477.397 205.529C475.454 205.593 473.515 205.618 471.572 205.612C467.689 205.568 463.792 205.372 459.875 204.933C455.957 204.512 452.017 203.878 448.053 202.903C444.088 201.95 440.094 200.623 436.126 198.67L435.675 198.449C432.181 196.729 430.741 192.501 432.46 189.006C432.647 188.626 432.889 188.24 433.131 187.91C434.978 185.428 436.769 183.697 438.601 182.06C440.426 180.444 442.253 178.991 444.093 177.609C447.765 174.836 451.526 172.388 455.3 170.008C459.093 167.661 462.922 165.433 466.804 163.313C470.717 161.225 474.587 159.174 478.646 157.29C480.663 156.353 483.058 157.229 483.995 159.246C484.804 160.99 484.26 163.017 482.793 164.139L482.747 164.173C479.346 166.777 475.849 169.366 472.458 172.016C469.041 174.641 465.643 177.268 462.325 179.947C458.993 182.598 455.751 185.332 452.689 188.077C451.159 189.451 449.694 190.852 448.378 192.248C447.08 193.629 445.847 195.061 445.19 196.146L442.193 185.386C444.946 186.456 448.053 187.224 451.283 187.808C454.522 188.37 457.889 188.736 461.303 188.974C464.719 189.19 468.186 189.304 471.663 189.305C473.402 189.316 475.144 189.297 476.882 189.246C478.583 189.182 480.428 189.121 481.94 189.037L482.125 189.027C486.584 188.776 490.402 192.188 490.653 196.646C490.899 200.99 487.653 204.726 483.366 205.151Z" fill="#7F3E3B"/>
<path d="M490.935 155.104L484.146 156.604C484.146 156.604 475.102 155.48 473.032 162.297L478.39 166.871L486.662 168.178C487.973 168.385 489.317 168.167 490.496 167.556L492.608 166.461C493.579 165.958 494.226 164.996 494.328 163.907L494.828 158.541C495.029 156.373 493.062 154.635 490.935 155.104Z" fill="#7F3E3B"/>
<path d="M477.74 213.051C466.369 216.206 453.404 212.263 453.404 212.263L458.174 186.801C458.174 186.801 469.471 185.811 476.525 185.661C494.681 185.277 498.241 207.365 477.74 213.051Z" fill="#407BFF"/>
</svg>
